<svg width="1280" height="123" viewBox="0 0 1280 123" fill="none" xmlns="http://www.w3.org/2000/svg">
<path d="M172.814 95H169.439L180.109 69.8633H183.713L194.436 95H190.832L187.58 87.0898H179.266L180.162 84.4531H186.49L181.797 73.0625L172.814 95ZM200.764 91.2383C202.041 91.8711 203.465 92.1875 205.035 92.1875C209.219 92.1875 211.311 89.8848 211.311 85.2793C211.311 81.2598 209.23 79.25 205.07 79.25C203.43 79.25 201.994 79.3906 200.764 79.6719V91.2383ZM197.512 77.2988C199.961 76.7949 202.492 76.543 205.105 76.543C211.375 76.543 214.51 79.4668 214.51 85.3145C214.51 91.7715 211.357 95 205.053 95C203.576 95 202.146 94.707 200.764 94.1211V101.68H197.512V77.2988ZM232.105 95V80.7266L222.174 95H218.922V76.543H221.998V90.8164L231.93 76.543H235.182V95H232.105ZM240.473 95V76.543H243.725V84.2773H253.48V76.543H256.732V95H253.48V86.9141H243.725V95H240.473ZM261.145 89.4277C261.145 85.6426 263.641 83.75 268.633 83.75C270.238 83.75 271.844 83.8672 273.449 84.1016V82.3613C273.449 80.2402 271.791 79.1797 268.475 79.1797C266.576 79.1797 264.631 79.4727 262.639 80.0586V77.4219C264.631 76.8359 266.576 76.543 268.475 76.543C273.959 76.543 276.701 78.4531 276.701 82.2734V95H274.873L273.748 93.1719C271.908 94.3906 269.904 95 267.736 95C263.342 95 261.145 93.1426 261.145 89.4277ZM268.633 86.3867C265.809 86.3867 264.396 87.3828 264.396 89.375C264.396 91.3672 265.51 92.3633 267.736 92.3633C269.986 92.3633 271.891 91.7656 273.449 90.5703V86.7383C271.844 86.5039 270.238 86.3867 268.633 86.3867ZM291.133 95V69.8633H295.264L304.492 90.834L313.545 69.8633H317.5V95H314.6V74.3809L305.67 95H303.104L294.033 74.3809V95H291.133ZM322.246 89.4277C322.246 85.6426 324.742 83.75 329.734 83.75C331.34 83.75 332.945 83.8672 334.551 84.1016V82.3613C334.551 80.2402 332.893 79.1797 329.576 79.1797C327.678 79.1797 325.732 79.4727 323.74 80.0586V77.4219C325.732 76.8359 327.678 76.543 329.576 76.543C335.061 76.543 337.803 78.4531 337.803 82.2734V95H335.975L334.85 93.1719C333.01 94.3906 331.006 95 328.838 95C324.443 95 322.246 93.1426 322.246 89.4277ZM329.734 86.3867C326.91 86.3867 325.498 87.3828 325.498 89.375C325.498 91.3672 326.611 92.3633 328.838 92.3633C331.088 92.3633 332.992 91.7656 334.551 90.5703V86.7383C332.945 86.5039 331.34 86.3867 329.734 86.3867ZM330.543 69.8633H334.744L330.543 74.0645H327.66L330.543 69.8633ZM346.346 91.2383C347.623 91.8711 349.047 92.1875 350.617 92.1875C354.801 92.1875 356.893 89.8848 356.893 85.2793C356.893 81.2598 354.812 79.25 350.652 79.25C349.012 79.25 347.576 79.3906 346.346 79.6719V91.2383ZM343.094 77.2988C345.543 76.7949 348.074 76.543 350.688 76.543C356.957 76.543 360.092 79.4668 360.092 85.3145C360.092 91.7715 356.939 95 350.635 95C349.158 95 347.729 94.707 346.346 94.1211V101.68H343.094V77.2988ZM377.688 95V80.7266L367.756 95H364.504V76.543H367.58V90.8164L377.512 76.543H380.764V95H377.688ZM386.055 95V76.543H389.307V84.2773H399.062V76.543H402.314V95H399.062V86.9141H389.307V95H386.055ZM406.727 85.7715C406.727 79.502 409.773 76.3672 415.867 76.3672C421.961 76.3672 425.008 79.502 425.008 85.7715C425.008 92.041 421.961 95.1758 415.867 95.1758C409.797 95.1758 406.75 92.041 406.727 85.7715ZM409.979 85.7012C409.979 90.2598 411.941 92.5391 415.867 92.5391C419.793 92.5391 421.756 90.2598 421.756 85.7012C421.756 81.2363 419.793 79.0039 415.867 79.0039C411.941 79.0039 409.979 81.2363 409.979 85.7012ZM439.211 92.3633C441.039 92.3633 441.953 91.4258 441.953 89.5508C441.953 87.793 440.529 86.9141 437.682 86.9141H436.275V84.7871C439.908 84.377 441.725 83.1523 441.725 81.1133C441.725 79.8242 440.975 79.1797 439.475 79.1797H432.654V92.3633H439.211ZM429.402 95V76.543H439.773C443.383 76.543 445.188 78.084 445.188 81.166C445.188 83.0762 444.039 84.4941 441.742 85.4199C444.25 86.041 445.504 87.4004 445.504 89.498C445.504 93.166 443.471 95 439.404 95H429.402ZM449.02 89.4277C449.02 85.6426 451.516 83.75 456.508 83.75C458.113 83.75 459.719 83.8672 461.324 84.1016V82.3613C461.324 80.2402 459.666 79.1797 456.35 79.1797C454.451 79.1797 452.506 79.4727 450.514 80.0586V77.4219C452.506 76.8359 454.451 76.543 456.35 76.543C461.834 76.543 464.576 78.4531 464.576 82.2734V95H462.748L461.623 93.1719C459.783 94.3906 457.779 95 455.611 95C451.217 95 449.02 93.1426 449.02 89.4277ZM456.508 86.3867C453.684 86.3867 452.271 87.3828 452.271 89.375C452.271 91.3672 453.385 92.3633 455.611 92.3633C457.861 92.3633 459.766 91.7656 461.324 90.5703V86.7383C459.719 86.5039 458.113 86.3867 456.508 86.3867Z" fill="#D1E0E9"/>
<path d="M848.773 95C844.801 88.6719 842.299 85.0625 841.268 84.1719C840.236 83.2695 839.264 82.8184 838.35 82.8184V80.4805C840.225 80.4805 842.117 78.7109 844.027 75.1719C845.949 71.6328 848.012 69.8633 850.215 69.8633H852.096V72.6758H850.707C849.441 72.6758 848.023 74.0645 846.453 76.8418C844.883 79.6074 843.424 81.2188 842.076 81.6758C842.955 81.8281 843.922 82.4902 844.977 83.6621C846.031 84.8223 848.609 88.6016 852.711 95H848.773ZM836.24 69.8633V95H832.988V69.8633H836.24ZM854.926 89.4277C854.926 85.6426 857.422 83.75 862.414 83.75C864.02 83.75 865.625 83.8672 867.23 84.1016V82.3613C867.23 80.2402 865.572 79.1797 862.256 79.1797C860.357 79.1797 858.412 79.4727 856.42 80.0586V77.4219C858.412 76.8359 860.357 76.543 862.256 76.543C867.74 76.543 870.482 78.4531 870.482 82.2734V95H868.654L867.529 93.1719C865.689 94.3906 863.686 95 861.518 95C857.123 95 854.926 93.1426 854.926 89.4277ZM862.414 86.3867C859.59 86.3867 858.178 87.3828 858.178 89.375C858.178 91.3672 859.291 92.3633 861.518 92.3633C863.768 92.3633 865.672 91.7656 867.23 90.5703V86.7383C865.625 86.5039 864.02 86.3867 862.414 86.3867ZM875.773 95V76.543H879.904L886.145 91.1855L892.209 76.543H896.164V95H893.264V80.8848L887.322 95H884.756L878.674 80.8848V95H875.773ZM914.621 95V80.7266L904.689 95H901.438V76.543H904.514V90.8164L914.445 76.543H917.697V95H914.621ZM920.352 92.3633C923.129 92.3633 924.518 90.7812 924.518 87.6172V76.543H938.58V95H935.328V79.1797H927.77V87.6172C927.77 92.5391 925.297 95 920.352 95V92.3633ZM942.992 89.4277C942.992 85.6426 945.488 83.75 950.48 83.75C952.086 83.75 953.691 83.8672 955.297 84.1016V82.3613C955.297 80.2402 953.639 79.1797 950.322 79.1797C948.424 79.1797 946.479 79.4727 944.486 80.0586V77.4219C946.479 76.8359 948.424 76.543 950.322 76.543C955.807 76.543 958.549 78.4531 958.549 82.2734V95H956.721L955.596 93.1719C953.756 94.3906 951.752 95 949.584 95C945.189 95 942.992 93.1426 942.992 89.4277ZM950.48 86.3867C947.656 86.3867 946.244 87.3828 946.244 89.375C946.244 91.3672 947.357 92.3633 949.584 92.3633C951.834 92.3633 953.738 91.7656 955.297 90.5703V86.7383C953.691 86.5039 952.086 86.3867 950.48 86.3867ZM972.98 95V69.8633H983.176C988.309 69.8633 990.875 72.1074 990.875 76.5957C990.875 81.4824 987.365 84.4648 980.346 85.543L979.678 82.8008C984.834 82.0391 987.412 80.0176 987.412 76.7363C987.412 73.9473 985.9 72.5527 982.877 72.5527H976.232V95H972.98ZM1008.03 95V80.7266L998.1 95H994.848V76.543H997.924V90.8164L1007.86 76.543H1011.11V95H1008.03ZM1017.98 95H1014.2L1021.55 85.7715L1014.2 76.543H1017.98L1023.43 83.3984L1028.88 76.543H1032.66L1025.31 85.7715L1032.66 95H1028.88L1023.43 88.1445L1017.98 95ZM1049.36 76.543V79.1797H1042.85V95H1039.6V79.1797H1033.1V76.543H1049.36ZM1059.62 76.543C1064.87 76.543 1067.5 79.1387 1067.5 84.3301C1067.5 85.0684 1067.45 85.8594 1067.34 86.7031H1054.38C1054.38 90.4766 1056.59 92.3633 1060.99 92.3633C1063.09 92.3633 1064.96 92.1289 1066.58 91.6602V94.2969C1064.96 94.7656 1062.97 95 1060.64 95C1054.3 95 1051.13 91.8535 1051.13 85.5605C1051.13 79.5488 1053.96 76.543 1059.62 76.543ZM1054.38 83.9961H1064.37C1064.3 80.7617 1062.72 79.1445 1059.62 79.1445C1056.34 79.1445 1054.6 80.7617 1054.38 83.9961ZM1075.13 91.2383C1076.4 91.8711 1077.83 92.1875 1079.4 92.1875C1083.58 92.1875 1085.67 89.8848 1085.67 85.2793C1085.67 81.2598 1083.59 79.25 1079.43 79.25C1077.79 79.25 1076.36 79.3906 1075.13 79.6719V91.2383ZM1071.88 77.2988C1074.32 76.7949 1076.86 76.543 1079.47 76.543C1085.74 76.543 1088.87 79.4668 1088.87 85.3145C1088.87 91.7715 1085.72 95 1079.42 95C1077.94 95 1076.51 94.707 1075.13 94.1211V101.68H1071.88V77.2988Z" fill="#D1E0E9"/>
<path d="M907.773 49C903.801 42.6719 901.299 39.0625 900.268 38.1719C899.236 37.2695 898.264 36.8184 897.35 36.8184V34.4805C899.225 34.4805 901.117 32.7109 903.027 29.1719C904.949 25.6328 907.012 23.8633 909.215 23.8633H911.096V26.6758H909.707C908.441 26.6758 907.023 28.0645 905.453 30.8418C903.883 33.6074 902.424 35.2188 901.076 35.6758C901.955 35.8281 902.922 36.4902 903.977 37.6621C905.031 38.8223 907.609 42.6016 911.711 49H907.773ZM895.24 23.8633V49H891.988V23.8633H895.24ZM912.607 30.543H916.141L921.361 44.957L926.758 30.543H930.203L922.539 49.5449C921.18 52.8965 919.141 54.9883 916.422 55.8203L915.174 53.5176C917.236 52.6152 918.736 51.1445 919.674 49.1055L912.607 30.543ZM936.514 45.2383C937.791 45.8711 939.215 46.1875 940.785 46.1875C944.969 46.1875 947.061 43.8848 947.061 39.2793C947.061 35.2598 944.98 33.25 940.82 33.25C939.18 33.25 937.744 33.3906 936.514 33.6719V45.2383ZM933.262 31.2988C935.711 30.7949 938.242 30.543 940.855 30.543C947.125 30.543 950.26 33.4668 950.26 39.3145C950.26 45.7715 947.107 49 940.803 49C939.326 49 937.896 48.707 936.514 48.1211V55.6797H933.262V31.2988ZM953.793 43.4277C953.793 39.6426 956.289 37.75 961.281 37.75C962.887 37.75 964.492 37.8672 966.098 38.1016V36.3613C966.098 34.2402 964.439 33.1797 961.123 33.1797C959.225 33.1797 957.279 33.4727 955.287 34.0586V31.4219C957.279 30.8359 959.225 30.543 961.123 30.543C966.607 30.543 969.35 32.4531 969.35 36.2734V49H967.521L966.396 47.1719C964.557 48.3906 962.553 49 960.385 49C955.99 49 953.793 47.1426 953.793 43.4277ZM961.281 40.3867C958.457 40.3867 957.045 41.3828 957.045 43.375C957.045 45.3672 958.158 46.3633 960.385 46.3633C962.635 46.3633 964.539 45.7656 966.098 44.5703V40.7383C964.492 40.5039 962.887 40.3867 961.281 40.3867ZM988.264 30.543V33.1797H981.76V49H978.508V33.1797H972.004V30.543H988.264ZM990.039 39.7715C990.039 33.502 993.086 30.3672 999.18 30.3672C1005.27 30.3672 1008.32 33.502 1008.32 39.7715C1008.32 46.041 1005.27 49.1758 999.18 49.1758C993.109 49.1758 990.062 46.041 990.039 39.7715ZM993.291 39.7012C993.291 44.2598 995.254 46.5391 999.18 46.5391C1003.11 46.5391 1005.07 44.2598 1005.07 39.7012C1005.07 35.2363 1003.11 33.0039 999.18 33.0039C995.254 33.0039 993.291 35.2363 993.291 39.7012ZM1015.97 45.2383C1017.24 45.8711 1018.67 46.1875 1020.24 46.1875C1024.42 46.1875 1026.51 43.8848 1026.51 39.2793C1026.51 35.2598 1024.43 33.25 1020.27 33.25C1018.63 33.25 1017.2 33.3906 1015.97 33.6719V45.2383ZM1012.71 31.2988C1015.16 30.7949 1017.7 30.543 1020.31 30.543C1026.58 30.543 1029.71 33.4668 1029.71 39.3145C1029.71 45.7715 1026.56 49 1020.26 49C1018.78 49 1017.35 48.707 1015.97 48.1211V55.6797H1012.71V31.2988Z" fill="#E502A1"/>
<path d="M235.584 27.8633V30.5H221.258V50.3105H228.412C231.201 50.3105 232.596 48.8516 232.596 45.9336C232.596 42.793 230.885 41.2227 227.463 41.2227H224.158V38.5859H227.621C233.105 38.5859 235.848 40.9707 235.848 45.7402C235.848 50.5801 233.469 53 228.711 53H217.988V27.8633H235.584ZM239.117 53V50.3633C248.434 43.9531 253.092 38.8555 253.092 35.0703C253.092 31.9062 251.1 30.3242 247.115 30.3242C244.537 30.3242 242.105 30.9688 239.82 32.2578V29.4453C242.105 28.2734 244.537 27.6875 247.115 27.6875C253.268 27.6875 256.344 30.1484 256.344 35.0703C256.344 39.4062 252.154 44.5039 243.775 50.3633H256.344V53H239.117ZM275.732 53H272.48V47.0234H259.262V44.3867L269.369 27.8633H272.779L262.654 44.3867H272.48V35.457H275.732V44.3867L278.334 45.7227V47.0234H275.732V53ZM302.188 27.8633L293.521 48.2891C292.186 51.4297 289.906 53 286.684 53C285.184 53 283.801 52.5898 282.535 51.7695V49.1328C283.777 49.9531 285.143 50.3633 286.631 50.3633C288.436 50.3633 289.707 49.6543 290.445 48.2363L280.531 27.8633H283.959L292.098 45.1074L298.812 27.8633H302.188ZM305.633 53V27.8633H316.355C321.137 27.8633 323.527 29.8145 323.527 33.7168C323.527 36.5762 321.969 38.6211 318.852 39.8516C322.18 40.4727 323.844 42.377 323.844 45.5645C323.844 50.5215 321.225 53 315.986 53H305.633ZM315.793 50.3633C318.793 50.3633 320.293 48.8398 320.293 45.793C320.293 42.8281 318.283 41.3457 314.264 41.3457H312.857V39.2188C317.662 38.5742 320.064 36.8398 320.064 34.0156C320.064 31.6719 318.729 30.5 316.057 30.5H308.885V50.3633H315.793ZM344.797 53C340.824 46.6719 338.322 43.0625 337.291 42.1719C336.26 41.2695 335.287 40.8184 334.373 40.8184V38.4805C336.248 38.4805 338.141 36.7109 340.051 33.1719C341.973 29.6328 344.035 27.8633 346.238 27.8633H348.119V30.6758H346.73C345.465 30.6758 344.047 32.0645 342.477 34.8418C340.906 37.6074 339.447 39.2188 338.1 39.6758C338.979 39.8281 339.945 40.4902 341 41.6621C342.055 42.8223 344.633 46.6016 348.734 53H344.797ZM332.264 27.8633V53H329.012V27.8633H332.264ZM369.934 53V32.2227L355.432 53H352.18V27.8633H355.256V48.6406L369.758 27.8633H373.01V53H369.934ZM381.377 40.3613C381.377 47.1465 383.855 50.5391 388.812 50.5391C393.641 50.5391 396.055 47.1465 396.055 40.3613C396.055 33.6699 393.641 30.3242 388.812 30.3242C383.855 30.3242 381.377 33.6699 381.377 40.3613ZM377.949 40.4668C377.949 31.9473 381.57 27.6875 388.812 27.6875C395.926 27.6875 399.482 31.9473 399.482 40.4668C399.482 48.9395 395.926 53.1758 388.812 53.1758C381.57 53.1758 377.949 48.9395 377.949 40.4668ZM404.158 27.8633H419.346V30.5H406.936L406.514 38.2695C407.885 38.0117 409.326 37.8828 410.838 37.8828C417.166 37.8828 420.33 40.2852 420.33 45.0898C420.33 50.4805 417.049 53.1758 410.486 53.1758C408.26 53.1758 405.975 52.8242 403.631 52.1211V49.3086C405.975 50.1289 408.318 50.5391 410.662 50.5391C414.939 50.5391 417.078 48.7227 417.078 45.0898C417.078 42.043 414.998 40.5195 410.838 40.5195C408.201 40.5195 405.799 40.7539 403.631 41.2227L404.158 27.8633Z" fill="#E502A1"/>
<path d="M1263.27 35.7384L1279.24 27.4404L1295.21 35.7384L1310.57 44.9893L1311.15 62.4999L1310.57 80.0106L1295.21 89.2615L1279.24 97.5595L1263.27 89.2615L1247.91 80.0106L1247.33 62.4999L1247.91 44.9893L1263.27 35.7384Z" stroke="#0AE227" stroke-width="3"/>
<path d="M1279.62 97V112.75" stroke="#0AE227" stroke-width="3"/>
<path d="M1235.24 89.0947L1223 87.3712" stroke="#0AE227" stroke-width="3"/>
<path d="M1234.78 88.5951L1235.02 100.498" stroke="#0AE227" stroke-width="3"/>
<path d="M1235.96 36.4209L1223.73 38.1444" stroke="#0AE227" stroke-width="3"/>
<path d="M1235.5 36.9206L1235.75 25.0181" stroke="#0AE227" stroke-width="3"/>
<path d="M1278.98 11.707L1288.42 4.00046" stroke="#0AE227" stroke-width="3"/>
<path d="M1279.67 11.7053L1270.26 4.00014" stroke="#0AE227" stroke-width="3"/>
<path d="M1278.98 113.293L1288.42 121" stroke="#0AE227" stroke-width="3"/>
<path d="M1279.67 113.295L1270.26 121" stroke="#0AE227" stroke-width="3"/>
<path d="M1248.65 79.6617L1235.35 89.4733" stroke="#0AE227" stroke-width="3"/>
<path d="M1248.48 45.9688L1234.98 36.5784" stroke="#0AE227" stroke-width="3"/>
<path d="M1279.25 28.207L1279.28 12.057" stroke="#0AE227" stroke-width="3"/>
<path d="M-16.7294 33.7384L-0.75864 25.4404L15.2121 33.7384L30.5724 42.9893L31.149 60.4999L30.5724 78.0106L15.2122 87.2615L-0.75864 95.5595L-16.7294 87.2615L-32.0897 78.0106L-32.6663 60.4999L-32.0897 42.9893L-16.7294 33.7384Z" stroke="#0AE227" stroke-width="3"/>
<path d="M-0.375 95V110.75" stroke="#0AE227" stroke-width="3"/>
<path d="M42.4844 87.0947L54.7208 85.3712" stroke="#0AE227" stroke-width="3"/>
<path d="M42.9437 86.5951L42.701 98.4975" stroke="#0AE227" stroke-width="3"/>
<path d="M42.4844 33.7197L54.7208 35.4433" stroke="#0AE227" stroke-width="3"/>
<path d="M42.9437 34.2194L42.701 22.3169" stroke="#0AE227" stroke-width="3"/>
<path d="M-1.02148 9.70703L8.41867 2.00046" stroke="#0AE227" stroke-width="3"/>
<path d="M-0.330387 9.70534L-9.73651 2.00014" stroke="#0AE227" stroke-width="3"/>
<path d="M-1.02148 111.293L8.41867 119" stroke="#0AE227" stroke-width="3"/>
<path d="M-0.330387 111.295L-9.73651 119" stroke="#0AE227" stroke-width="3"/>
<path d="M29.4149 77.6667L42.4844 87.1232" stroke="#0AE227" stroke-width="3"/>
<path d="M30.6172 42.875L42.8485 34.228" stroke="#0AE227" stroke-width="3"/>
<path d="M-0.753906 26.207L-0.722704 10.057" stroke="#0AE227" stroke-width="3"/>
<path d="M637.271 35.7384L653.241 27.4404L669.212 35.7384L684.572 44.9893L685.149 62.4999L684.572 80.0106L669.212 89.2615L653.241 97.5595L637.271 89.2615L621.91 80.0106L621.334 62.4999L621.91 44.9893L637.271 35.7384Z" stroke="#0AE227" stroke-width="3"/>
<path d="M653.625 97V112.75" stroke="#0AE227" stroke-width="3"/>
<path d="M696.484 89.0947L708.721 87.3712" stroke="#0AE227" stroke-width="3"/>
<path d="M696.944 88.5951L696.701 100.498" stroke="#0AE227" stroke-width="3"/>
<path d="M609.236 89.0947L597 87.3712" stroke="#0AE227" stroke-width="3"/>
<path d="M608.777 88.5951L609.02 100.498" stroke="#0AE227" stroke-width="3"/>
<path d="M609.963 36.4209L597.726 38.1444" stroke="#0AE227" stroke-width="3"/>
<path d="M609.504 36.9206L609.746 25.0181" stroke="#0AE227" stroke-width="3"/>
<path d="M696.484 35.7197L708.721 37.4433" stroke="#0AE227" stroke-width="3"/>
<path d="M696.944 36.2194L696.701 24.3169" stroke="#0AE227" stroke-width="3"/>
<path d="M652.979 11.707L662.419 4.00046" stroke="#0AE227" stroke-width="3"/>
<path d="M653.67 11.7053L644.263 4.00014" stroke="#0AE227" stroke-width="3"/>
<path d="M652.979 113.293L662.419 121" stroke="#0AE227" stroke-width="3"/>
<path d="M653.67 113.295L644.263 121" stroke="#0AE227" stroke-width="3"/>
<path d="M683.415 79.6667L696.484 89.1232" stroke="#0AE227" stroke-width="3"/>
<path d="M684.617 44.875L696.848 36.228" stroke="#0AE227" stroke-width="3"/>
<path d="M622.655 79.6617L609.345 89.4733" stroke="#0AE227" stroke-width="3"/>
<path d="M622.48 45.9688L608.981 36.5784" stroke="#0AE227" stroke-width="3"/>
<path d="M653.246 28.207L653.277 12.057" stroke="#0AE227" stroke-width="3"/>
</svg>
