<svg width="469" height="492" viewBox="0 0 469 492" fill="none" xmlns="http://www.w3.org/2000/svg">
<mask id="path-1-outside-1_450_2449" maskUnits="userSpaceOnUse" x="224" y="81" width="16" height="15" fill="black">
<rect fill="white" x="224" y="81" width="16" height="15"/>
<path d="M225.97 88.05C225.97 86.13 226.51 84.66 227.59 83.64C228.67 82.56 230.11 82.02 231.91 82.02C233.83 82.02 235.33 82.56 236.41 83.64C237.49 84.66 238.03 86.13 238.03 88.05C238.03 89.79 237.49 91.23 236.41 92.37C235.33 93.51 233.83 94.08 231.91 94.08C230.11 94.08 228.67 93.51 227.59 92.37C226.51 91.23 225.97 89.79 225.97 88.05Z"/>
</mask>
<path d="M227.59 83.64L228.277 84.367L228.287 84.3572L228.297 84.3471L227.59 83.64ZM236.41 83.64L235.703 84.3471L235.713 84.3572L235.723 84.367L236.41 83.64ZM236.41 92.37L235.684 91.6823L236.41 92.37ZM226.97 88.05C226.97 86.3203 227.451 85.1469 228.277 84.367L226.903 82.913C225.569 84.1731 224.97 85.9397 224.97 88.05H226.97ZM228.297 84.3471C229.156 83.4878 230.324 83.02 231.91 83.02V81.02C229.896 81.02 228.184 81.6322 226.883 82.9329L228.297 84.3471ZM231.91 83.02C233.637 83.02 234.856 83.5 235.703 84.3471L237.117 82.9329C235.804 81.62 234.023 81.02 231.91 81.02V83.02ZM235.723 84.367C236.549 85.1469 237.03 86.3203 237.03 88.05H239.03C239.03 85.9397 238.431 84.1731 237.097 82.913L235.723 84.367ZM237.03 88.05C237.03 89.5642 236.568 90.7487 235.684 91.6823L237.136 93.0577C238.412 91.7113 239.03 90.0158 239.03 88.05H237.03ZM235.684 91.6823C234.834 92.5798 233.621 93.08 231.91 93.08V95.08C234.039 95.08 235.826 94.4402 237.136 93.0577L235.684 91.6823ZM231.91 93.08C230.341 93.08 229.179 92.5931 228.316 91.6823L226.864 93.0577C228.161 94.4269 229.879 95.08 231.91 95.08V93.08ZM228.316 91.6823C227.432 90.7487 226.97 89.5642 226.97 88.05H224.97C224.97 90.0158 225.588 91.7113 226.864 93.0577L228.316 91.6823Z" fill="#D1E0E9" mask="url(#path-1-outside-1_450_2449)"/>
<mask id="path-3-outside-2_450_2449" maskUnits="userSpaceOnUse" x="131" y="112" width="16" height="15" fill="black">
<rect fill="white" x="131" y="112" width="16" height="15"/>
<path d="M132.97 119.05C132.97 117.13 133.51 115.66 134.59 114.64C135.67 113.56 137.11 113.02 138.91 113.02C140.83 113.02 142.33 113.56 143.41 114.64C144.49 115.66 145.03 117.13 145.03 119.05C145.03 120.79 144.49 122.23 143.41 123.37C142.33 124.51 140.83 125.08 138.91 125.08C137.11 125.08 135.67 124.51 134.59 123.37C133.51 122.23 132.97 120.79 132.97 119.05Z"/>
</mask>
<path d="M134.59 114.64L135.277 115.367L135.287 115.357L135.297 115.347L134.59 114.64ZM143.41 114.64L142.703 115.347L142.713 115.357L142.723 115.367L143.41 114.64ZM143.41 123.37L142.684 122.682L143.41 123.37ZM133.97 119.05C133.97 117.32 134.451 116.147 135.277 115.367L133.903 113.913C132.569 115.173 131.97 116.94 131.97 119.05H133.97ZM135.297 115.347C136.156 114.488 137.324 114.02 138.91 114.02V112.02C136.896 112.02 135.184 112.632 133.883 113.933L135.297 115.347ZM138.91 114.02C140.637 114.02 141.856 114.5 142.703 115.347L144.117 113.933C142.804 112.62 141.023 112.02 138.91 112.02V114.02ZM142.723 115.367C143.549 116.147 144.03 117.32 144.03 119.05H146.03C146.03 116.94 145.431 115.173 144.097 113.913L142.723 115.367ZM144.03 119.05C144.03 120.564 143.568 121.749 142.684 122.682L144.136 124.058C145.412 122.711 146.03 121.016 146.03 119.05H144.03ZM142.684 122.682C141.834 123.58 140.621 124.08 138.91 124.08V126.08C141.039 126.08 142.826 125.44 144.136 124.058L142.684 122.682ZM138.91 124.08C137.341 124.08 136.179 123.593 135.316 122.682L133.864 124.058C135.161 125.427 136.879 126.08 138.91 126.08V124.08ZM135.316 122.682C134.432 121.749 133.97 120.564 133.97 119.05H131.97C131.97 121.016 132.588 122.711 133.864 124.058L135.316 122.682Z" fill="#D1E0E9" mask="url(#path-3-outside-2_450_2449)"/>
<mask id="path-5-outside-3_450_2449" maskUnits="userSpaceOnUse" x="95" y="174" width="16" height="15" fill="black">
<rect fill="white" x="95" y="174" width="16" height="15"/>
<path d="M96.97 181.05C96.97 179.13 97.51 177.66 98.59 176.64C99.67 175.56 101.11 175.02 102.91 175.02C104.83 175.02 106.33 175.56 107.41 176.64C108.49 177.66 109.03 179.13 109.03 181.05C109.03 182.79 108.49 184.23 107.41 185.37C106.33 186.51 104.83 187.08 102.91 187.08C101.11 187.08 99.67 186.51 98.59 185.37C97.51 184.23 96.97 182.79 96.97 181.05Z"/>
</mask>
<path d="M98.59 176.64L99.2766 177.367L99.287 177.357L99.2971 177.347L98.59 176.64ZM107.41 176.64L106.703 177.347L106.713 177.357L106.723 177.367L107.41 176.64ZM107.41 185.37L106.684 184.682L107.41 185.37ZM97.97 181.05C97.97 179.32 98.4509 178.147 99.2766 177.367L97.9034 175.913C96.5691 177.173 95.97 178.94 95.97 181.05H97.97ZM99.2971 177.347C100.156 176.488 101.324 176.02 102.91 176.02V174.02C100.896 174.02 99.1836 174.632 97.8829 175.933L99.2971 177.347ZM102.91 176.02C104.637 176.02 105.856 176.5 106.703 177.347L108.117 175.933C106.804 174.62 105.023 174.02 102.91 174.02V176.02ZM106.723 177.367C107.549 178.147 108.03 179.32 108.03 181.05H110.03C110.03 178.94 109.431 177.173 108.097 175.913L106.723 177.367ZM108.03 181.05C108.03 182.564 107.568 183.749 106.684 184.682L108.136 186.058C109.412 184.711 110.03 183.016 110.03 181.05H108.03ZM106.684 184.682C105.834 185.58 104.621 186.08 102.91 186.08V188.08C105.039 188.08 106.826 187.44 108.136 186.058L106.684 184.682ZM102.91 186.08C101.341 186.08 100.179 185.593 99.316 184.682L97.864 186.058C99.1611 187.427 100.879 188.08 102.91 188.08V186.08ZM99.316 184.682C98.4316 183.749 97.97 182.564 97.97 181.05H95.97C95.97 183.016 96.5884 184.711 97.864 186.058L99.316 184.682Z" fill="#D1E0E9" mask="url(#path-5-outside-3_450_2449)"/>
<mask id="path-7-outside-4_450_2449" maskUnits="userSpaceOnUse" x="115" y="197" width="16" height="15" fill="black">
<rect fill="white" x="115" y="197" width="16" height="15"/>
<path d="M116.97 204.05C116.97 202.13 117.51 200.66 118.59 199.64C119.67 198.56 121.11 198.02 122.91 198.02C124.83 198.02 126.33 198.56 127.41 199.64C128.49 200.66 129.03 202.13 129.03 204.05C129.03 205.79 128.49 207.23 127.41 208.37C126.33 209.51 124.83 210.08 122.91 210.08C121.11 210.08 119.67 209.51 118.59 208.37C117.51 207.23 116.97 205.79 116.97 204.05Z"/>
</mask>
<path d="M118.59 199.64L119.277 200.367L119.287 200.357L119.297 200.347L118.59 199.64ZM127.41 199.64L126.703 200.347L126.713 200.357L126.723 200.367L127.41 199.64ZM127.41 208.37L126.684 207.682L127.41 208.37ZM117.97 204.05C117.97 202.32 118.451 201.147 119.277 200.367L117.903 198.913C116.569 200.173 115.97 201.94 115.97 204.05H117.97ZM119.297 200.347C120.156 199.488 121.324 199.02 122.91 199.02V197.02C120.896 197.02 119.184 197.632 117.883 198.933L119.297 200.347ZM122.91 199.02C124.637 199.02 125.856 199.5 126.703 200.347L128.117 198.933C126.804 197.62 125.023 197.02 122.91 197.02V199.02ZM126.723 200.367C127.549 201.147 128.03 202.32 128.03 204.05H130.03C130.03 201.94 129.431 200.173 128.097 198.913L126.723 200.367ZM128.03 204.05C128.03 205.564 127.568 206.749 126.684 207.682L128.136 209.058C129.412 207.711 130.03 206.016 130.03 204.05H128.03ZM126.684 207.682C125.834 208.58 124.621 209.08 122.91 209.08V211.08C125.039 211.08 126.826 210.44 128.136 209.058L126.684 207.682ZM122.91 209.08C121.341 209.08 120.179 208.593 119.316 207.682L117.864 209.058C119.161 210.427 120.879 211.08 122.91 211.08V209.08ZM119.316 207.682C118.432 206.749 117.97 205.564 117.97 204.05H115.97C115.97 206.016 116.588 207.711 117.864 209.058L119.316 207.682Z" fill="#D1E0E9" mask="url(#path-7-outside-4_450_2449)"/>
<mask id="path-9-outside-5_450_2449" maskUnits="userSpaceOnUse" x="147" y="183" width="16" height="15" fill="black">
<rect fill="white" x="147" y="183" width="16" height="15"/>
<path d="M148.97 190.05C148.97 188.13 149.51 186.66 150.59 185.64C151.67 184.56 153.11 184.02 154.91 184.02C156.83 184.02 158.33 184.56 159.41 185.64C160.49 186.66 161.03 188.13 161.03 190.05C161.03 191.79 160.49 193.23 159.41 194.37C158.33 195.51 156.83 196.08 154.91 196.08C153.11 196.08 151.67 195.51 150.59 194.37C149.51 193.23 148.97 191.79 148.97 190.05Z"/>
</mask>
<path d="M150.59 185.64L151.277 186.367L151.287 186.357L151.297 186.347L150.59 185.64ZM159.41 185.64L158.703 186.347L158.713 186.357L158.723 186.367L159.41 185.64ZM159.41 194.37L158.684 193.682L159.41 194.37ZM149.97 190.05C149.97 188.32 150.451 187.147 151.277 186.367L149.903 184.913C148.569 186.173 147.97 187.94 147.97 190.05H149.97ZM151.297 186.347C152.156 185.488 153.324 185.02 154.91 185.02V183.02C152.896 183.02 151.184 183.632 149.883 184.933L151.297 186.347ZM154.91 185.02C156.637 185.02 157.856 185.5 158.703 186.347L160.117 184.933C158.804 183.62 157.023 183.02 154.91 183.02V185.02ZM158.723 186.367C159.549 187.147 160.03 188.32 160.03 190.05H162.03C162.03 187.94 161.431 186.173 160.097 184.913L158.723 186.367ZM160.03 190.05C160.03 191.564 159.568 192.749 158.684 193.682L160.136 195.058C161.412 193.711 162.03 192.016 162.03 190.05H160.03ZM158.684 193.682C157.834 194.58 156.621 195.08 154.91 195.08V197.08C157.039 197.08 158.826 196.44 160.136 195.058L158.684 193.682ZM154.91 195.08C153.341 195.08 152.179 194.593 151.316 193.682L149.864 195.058C151.161 196.427 152.879 197.08 154.91 197.08V195.08ZM151.316 193.682C150.432 192.749 149.97 191.564 149.97 190.05H147.97C147.97 192.016 148.588 193.711 149.864 195.058L151.316 193.682Z" fill="#D1E0E9" mask="url(#path-9-outside-5_450_2449)"/>
<mask id="path-11-outside-6_450_2449" maskUnits="userSpaceOnUse" x="206" y="208" width="16" height="15" fill="black">
<rect fill="white" x="206" y="208" width="16" height="15"/>
<path d="M207.97 215.05C207.97 213.13 208.51 211.66 209.59 210.64C210.67 209.56 212.11 209.02 213.91 209.02C215.83 209.02 217.33 209.56 218.41 210.64C219.49 211.66 220.03 213.13 220.03 215.05C220.03 216.79 219.49 218.23 218.41 219.37C217.33 220.51 215.83 221.08 213.91 221.08C212.11 221.08 210.67 220.51 209.59 219.37C208.51 218.23 207.97 216.79 207.97 215.05Z"/>
</mask>
<path d="M209.59 210.64L210.277 211.367L210.287 211.357L210.297 211.347L209.59 210.64ZM218.41 210.64L217.703 211.347L217.713 211.357L217.723 211.367L218.41 210.64ZM218.41 219.37L217.684 218.682L218.41 219.37ZM208.97 215.05C208.97 213.32 209.451 212.147 210.277 211.367L208.903 209.913C207.569 211.173 206.97 212.94 206.97 215.05H208.97ZM210.297 211.347C211.156 210.488 212.324 210.02 213.91 210.02V208.02C211.896 208.02 210.184 208.632 208.883 209.933L210.297 211.347ZM213.91 210.02C215.637 210.02 216.856 210.5 217.703 211.347L219.117 209.933C217.804 208.62 216.023 208.02 213.91 208.02V210.02ZM217.723 211.367C218.549 212.147 219.03 213.32 219.03 215.05H221.03C221.03 212.94 220.431 211.173 219.097 209.913L217.723 211.367ZM219.03 215.05C219.03 216.564 218.568 217.749 217.684 218.682L219.136 220.058C220.412 218.711 221.03 217.016 221.03 215.05H219.03ZM217.684 218.682C216.834 219.58 215.621 220.08 213.91 220.08V222.08C216.039 222.08 217.826 221.44 219.136 220.058L217.684 218.682ZM213.91 220.08C212.341 220.08 211.179 219.593 210.316 218.682L208.864 220.058C210.161 221.427 211.879 222.08 213.91 222.08V220.08ZM210.316 218.682C209.432 217.749 208.97 216.564 208.97 215.05H206.97C206.97 217.016 207.588 218.711 208.864 220.058L210.316 218.682Z" fill="#D1E0E9" mask="url(#path-11-outside-6_450_2449)"/>
<mask id="path-13-outside-7_450_2449" maskUnits="userSpaceOnUse" x="163" y="208" width="16" height="15" fill="black">
<rect fill="white" x="163" y="208" width="16" height="15"/>
<path d="M164.97 215.05C164.97 213.13 165.51 211.66 166.59 210.64C167.67 209.56 169.11 209.02 170.91 209.02C172.83 209.02 174.33 209.56 175.41 210.64C176.49 211.66 177.03 213.13 177.03 215.05C177.03 216.79 176.49 218.23 175.41 219.37C174.33 220.51 172.83 221.08 170.91 221.08C169.11 221.08 167.67 220.51 166.59 219.37C165.51 218.23 164.97 216.79 164.97 215.05Z"/>
</mask>
<path d="M166.59 210.64L167.277 211.367L167.287 211.357L167.297 211.347L166.59 210.64ZM175.41 210.64L174.703 211.347L174.713 211.357L174.723 211.367L175.41 210.64ZM175.41 219.37L174.684 218.682L175.41 219.37ZM165.97 215.05C165.97 213.32 166.451 212.147 167.277 211.367L165.903 209.913C164.569 211.173 163.97 212.94 163.97 215.05H165.97ZM167.297 211.347C168.156 210.488 169.324 210.02 170.91 210.02V208.02C168.896 208.02 167.184 208.632 165.883 209.933L167.297 211.347ZM170.91 210.02C172.637 210.02 173.856 210.5 174.703 211.347L176.117 209.933C174.804 208.62 173.023 208.02 170.91 208.02V210.02ZM174.723 211.367C175.549 212.147 176.03 213.32 176.03 215.05H178.03C178.03 212.94 177.431 211.173 176.097 209.913L174.723 211.367ZM176.03 215.05C176.03 216.564 175.568 217.749 174.684 218.682L176.136 220.058C177.412 218.711 178.03 217.016 178.03 215.05H176.03ZM174.684 218.682C173.834 219.58 172.621 220.08 170.91 220.08V222.08C173.039 222.08 174.826 221.44 176.136 220.058L174.684 218.682ZM170.91 220.08C169.341 220.08 168.179 219.593 167.316 218.682L165.864 220.058C167.161 221.427 168.879 222.08 170.91 222.08V220.08ZM167.316 218.682C166.432 217.749 165.97 216.564 165.97 215.05H163.97C163.97 217.016 164.588 218.711 165.864 220.058L167.316 218.682Z" fill="#D1E0E9" mask="url(#path-13-outside-7_450_2449)"/>
<mask id="path-15-outside-8_450_2449" maskUnits="userSpaceOnUse" x="131" y="225" width="16" height="15" fill="black">
<rect fill="white" x="131" y="225" width="16" height="15"/>
<path d="M132.97 232.05C132.97 230.13 133.51 228.66 134.59 227.64C135.67 226.56 137.11 226.02 138.91 226.02C140.83 226.02 142.33 226.56 143.41 227.64C144.49 228.66 145.03 230.13 145.03 232.05C145.03 233.79 144.49 235.23 143.41 236.37C142.33 237.51 140.83 238.08 138.91 238.08C137.11 238.08 135.67 237.51 134.59 236.37C133.51 235.23 132.97 233.79 132.97 232.05Z"/>
</mask>
<path d="M134.59 227.64L135.277 228.367L135.287 228.357L135.297 228.347L134.59 227.64ZM143.41 227.64L142.703 228.347L142.713 228.357L142.723 228.367L143.41 227.64ZM143.41 236.37L142.684 235.682L143.41 236.37ZM133.97 232.05C133.97 230.32 134.451 229.147 135.277 228.367L133.903 226.913C132.569 228.173 131.97 229.94 131.97 232.05H133.97ZM135.297 228.347C136.156 227.488 137.324 227.02 138.91 227.02V225.02C136.896 225.02 135.184 225.632 133.883 226.933L135.297 228.347ZM138.91 227.02C140.637 227.02 141.856 227.5 142.703 228.347L144.117 226.933C142.804 225.62 141.023 225.02 138.91 225.02V227.02ZM142.723 228.367C143.549 229.147 144.03 230.32 144.03 232.05H146.03C146.03 229.94 145.431 228.173 144.097 226.913L142.723 228.367ZM144.03 232.05C144.03 233.564 143.568 234.749 142.684 235.682L144.136 237.058C145.412 235.711 146.03 234.016 146.03 232.05H144.03ZM142.684 235.682C141.834 236.58 140.621 237.08 138.91 237.08V239.08C141.039 239.08 142.826 238.44 144.136 237.058L142.684 235.682ZM138.91 237.08C137.341 237.08 136.179 236.593 135.316 235.682L133.864 237.058C135.161 238.427 136.879 239.08 138.91 239.08V237.08ZM135.316 235.682C134.432 234.749 133.97 233.564 133.97 232.05H131.97C131.97 234.016 132.588 235.711 133.864 237.058L135.316 235.682Z" fill="#D1E0E9" mask="url(#path-15-outside-8_450_2449)"/>
<mask id="path-17-outside-9_450_2449" maskUnits="userSpaceOnUse" x="115" y="244" width="16" height="15" fill="black">
<rect fill="white" x="115" y="244" width="16" height="15"/>
<path d="M116.97 251.05C116.97 249.13 117.51 247.66 118.59 246.64C119.67 245.56 121.11 245.02 122.91 245.02C124.83 245.02 126.33 245.56 127.41 246.64C128.49 247.66 129.03 249.13 129.03 251.05C129.03 252.79 128.49 254.23 127.41 255.37C126.33 256.51 124.83 257.08 122.91 257.08C121.11 257.08 119.67 256.51 118.59 255.37C117.51 254.23 116.97 252.79 116.97 251.05Z"/>
</mask>
<path d="M118.59 246.64L119.277 247.367L119.287 247.357L119.297 247.347L118.59 246.64ZM127.41 246.64L126.703 247.347L126.713 247.357L126.723 247.367L127.41 246.64ZM127.41 255.37L126.684 254.682L127.41 255.37ZM117.97 251.05C117.97 249.32 118.451 248.147 119.277 247.367L117.903 245.913C116.569 247.173 115.97 248.94 115.97 251.05H117.97ZM119.297 247.347C120.156 246.488 121.324 246.02 122.91 246.02V244.02C120.896 244.02 119.184 244.632 117.883 245.933L119.297 247.347ZM122.91 246.02C124.637 246.02 125.856 246.5 126.703 247.347L128.117 245.933C126.804 244.62 125.023 244.02 122.91 244.02V246.02ZM126.723 247.367C127.549 248.147 128.03 249.32 128.03 251.05H130.03C130.03 248.94 129.431 247.173 128.097 245.913L126.723 247.367ZM128.03 251.05C128.03 252.564 127.568 253.749 126.684 254.682L128.136 256.058C129.412 254.711 130.03 253.016 130.03 251.05H128.03ZM126.684 254.682C125.834 255.58 124.621 256.08 122.91 256.08V258.08C125.039 258.08 126.826 257.44 128.136 256.058L126.684 254.682ZM122.91 256.08C121.341 256.08 120.179 255.593 119.316 254.682L117.864 256.058C119.161 257.427 120.879 258.08 122.91 258.08V256.08ZM119.316 254.682C118.432 253.749 117.97 252.564 117.97 251.05H115.97C115.97 253.016 116.588 254.711 117.864 256.058L119.316 254.682Z" fill="#D1E0E9" mask="url(#path-17-outside-9_450_2449)"/>
<mask id="path-19-outside-10_450_2449" maskUnits="userSpaceOnUse" x="88" y="234" width="16" height="15" fill="black">
<rect fill="white" x="88" y="234" width="16" height="15"/>
<path d="M89.97 241.05C89.97 239.13 90.51 237.66 91.59 236.64C92.67 235.56 94.11 235.02 95.91 235.02C97.83 235.02 99.33 235.56 100.41 236.64C101.49 237.66 102.03 239.13 102.03 241.05C102.03 242.79 101.49 244.23 100.41 245.37C99.33 246.51 97.83 247.08 95.91 247.08C94.11 247.08 92.67 246.51 91.59 245.37C90.51 244.23 89.97 242.79 89.97 241.05Z"/>
</mask>
<path d="M91.59 236.64L92.2766 237.367L92.287 237.357L92.2971 237.347L91.59 236.64ZM100.41 236.64L99.7029 237.347L99.713 237.357L99.7234 237.367L100.41 236.64ZM100.41 245.37L99.684 244.682L100.41 245.37ZM90.97 241.05C90.97 239.32 91.4509 238.147 92.2766 237.367L90.9034 235.913C89.5691 237.173 88.97 238.94 88.97 241.05H90.97ZM92.2971 237.347C93.1564 236.488 94.3243 236.02 95.91 236.02V234.02C93.8957 234.02 92.1836 234.632 90.8829 235.933L92.2971 237.347ZM95.91 236.02C97.6367 236.02 98.8558 236.5 99.7029 237.347L101.117 235.933C99.8042 234.62 98.0233 234.02 95.91 234.02V236.02ZM99.7234 237.367C100.549 238.147 101.03 239.32 101.03 241.05H103.03C103.03 238.94 102.431 237.173 101.097 235.913L99.7234 237.367ZM101.03 241.05C101.03 242.564 100.568 243.749 99.684 244.682L101.136 246.058C102.412 244.711 103.03 243.016 103.03 241.05H101.03ZM99.684 244.682C98.8337 245.58 97.621 246.08 95.91 246.08V248.08C98.039 248.08 99.8263 247.44 101.136 246.058L99.684 244.682ZM95.91 246.08C94.3406 246.08 93.1789 245.593 92.316 244.682L90.864 246.058C92.1611 247.427 93.8794 248.08 95.91 248.08V246.08ZM92.316 244.682C91.4316 243.749 90.97 242.564 90.97 241.05H88.97C88.97 243.016 89.5884 244.711 90.864 246.058L92.316 244.682Z" fill="#D1E0E9" mask="url(#path-19-outside-10_450_2449)"/>
<mask id="path-21-outside-11_450_2449" maskUnits="userSpaceOnUse" x="160" y="241" width="16" height="15" fill="black">
<rect fill="white" x="160" y="241" width="16" height="15"/>
<path d="M161.97 248.05C161.97 246.13 162.51 244.66 163.59 243.64C164.67 242.56 166.11 242.02 167.91 242.02C169.83 242.02 171.33 242.56 172.41 243.64C173.49 244.66 174.03 246.13 174.03 248.05C174.03 249.79 173.49 251.23 172.41 252.37C171.33 253.51 169.83 254.08 167.91 254.08C166.11 254.08 164.67 253.51 163.59 252.37C162.51 251.23 161.97 249.79 161.97 248.05Z"/>
</mask>
<path d="M163.59 243.64L164.277 244.367L164.287 244.357L164.297 244.347L163.59 243.64ZM172.41 243.64L171.703 244.347L171.713 244.357L171.723 244.367L172.41 243.64ZM172.41 252.37L171.684 251.682L172.41 252.37ZM162.97 248.05C162.97 246.32 163.451 245.147 164.277 244.367L162.903 242.913C161.569 244.173 160.97 245.94 160.97 248.05H162.97ZM164.297 244.347C165.156 243.488 166.324 243.02 167.91 243.02V241.02C165.896 241.02 164.184 241.632 162.883 242.933L164.297 244.347ZM167.91 243.02C169.637 243.02 170.856 243.5 171.703 244.347L173.117 242.933C171.804 241.62 170.023 241.02 167.91 241.02V243.02ZM171.723 244.367C172.549 245.147 173.03 246.32 173.03 248.05H175.03C175.03 245.94 174.431 244.173 173.097 242.913L171.723 244.367ZM173.03 248.05C173.03 249.564 172.568 250.749 171.684 251.682L173.136 253.058C174.412 251.711 175.03 250.016 175.03 248.05H173.03ZM171.684 251.682C170.834 252.58 169.621 253.08 167.91 253.08V255.08C170.039 255.08 171.826 254.44 173.136 253.058L171.684 251.682ZM167.91 253.08C166.341 253.08 165.179 252.593 164.316 251.682L162.864 253.058C164.161 254.427 165.879 255.08 167.91 255.08V253.08ZM164.316 251.682C163.432 250.749 162.97 249.564 162.97 248.05H160.97C160.97 250.016 161.588 251.711 162.864 253.058L164.316 251.682Z" fill="#D1E0E9" mask="url(#path-21-outside-11_450_2449)"/>
<mask id="path-23-outside-12_450_2449" maskUnits="userSpaceOnUse" x="193" y="228" width="16" height="15" fill="black">
<rect fill="white" x="193" y="228" width="16" height="15"/>
<path d="M194.97 235.05C194.97 233.13 195.51 231.66 196.59 230.64C197.67 229.56 199.11 229.02 200.91 229.02C202.83 229.02 204.33 229.56 205.41 230.64C206.49 231.66 207.03 233.13 207.03 235.05C207.03 236.79 206.49 238.23 205.41 239.37C204.33 240.51 202.83 241.08 200.91 241.08C199.11 241.08 197.67 240.51 196.59 239.37C195.51 238.23 194.97 236.79 194.97 235.05Z"/>
</mask>
<path d="M196.59 230.64L197.277 231.367L197.287 231.357L197.297 231.347L196.59 230.64ZM205.41 230.64L204.703 231.347L204.713 231.357L204.723 231.367L205.41 230.64ZM205.41 239.37L204.684 238.682L205.41 239.37ZM195.97 235.05C195.97 233.32 196.451 232.147 197.277 231.367L195.903 229.913C194.569 231.173 193.97 232.94 193.97 235.05H195.97ZM197.297 231.347C198.156 230.488 199.324 230.02 200.91 230.02V228.02C198.896 228.02 197.184 228.632 195.883 229.933L197.297 231.347ZM200.91 230.02C202.637 230.02 203.856 230.5 204.703 231.347L206.117 229.933C204.804 228.62 203.023 228.02 200.91 228.02V230.02ZM204.723 231.367C205.549 232.147 206.03 233.32 206.03 235.05H208.03C208.03 232.94 207.431 231.173 206.097 229.913L204.723 231.367ZM206.03 235.05C206.03 236.564 205.568 237.749 204.684 238.682L206.136 240.058C207.412 238.711 208.03 237.016 208.03 235.05H206.03ZM204.684 238.682C203.834 239.58 202.621 240.08 200.91 240.08V242.08C203.039 242.08 204.826 241.44 206.136 240.058L204.684 238.682ZM200.91 240.08C199.341 240.08 198.179 239.593 197.316 238.682L195.864 240.058C197.161 241.427 198.879 242.08 200.91 242.08V240.08ZM197.316 238.682C196.432 237.749 195.97 236.564 195.97 235.05H193.97C193.97 237.016 194.588 238.711 195.864 240.058L197.316 238.682Z" fill="#D1E0E9" mask="url(#path-23-outside-12_450_2449)"/>
<mask id="path-25-outside-13_450_2449" maskUnits="userSpaceOnUse" x="199" y="245" width="16" height="15" fill="black">
<rect fill="white" x="199" y="245" width="16" height="15"/>
<path d="M200.97 252.05C200.97 250.13 201.51 248.66 202.59 247.64C203.67 246.56 205.11 246.02 206.91 246.02C208.83 246.02 210.33 246.56 211.41 247.64C212.49 248.66 213.03 250.13 213.03 252.05C213.03 253.79 212.49 255.23 211.41 256.37C210.33 257.51 208.83 258.08 206.91 258.08C205.11 258.08 203.67 257.51 202.59 256.37C201.51 255.23 200.97 253.79 200.97 252.05Z"/>
</mask>
<path d="M202.59 247.64L203.277 248.367L203.287 248.357L203.297 248.347L202.59 247.64ZM211.41 247.64L210.703 248.347L210.713 248.357L210.723 248.367L211.41 247.64ZM211.41 256.37L210.684 255.682L211.41 256.37ZM201.97 252.05C201.97 250.32 202.451 249.147 203.277 248.367L201.903 246.913C200.569 248.173 199.97 249.94 199.97 252.05H201.97ZM203.297 248.347C204.156 247.488 205.324 247.02 206.91 247.02V245.02C204.896 245.02 203.184 245.632 201.883 246.933L203.297 248.347ZM206.91 247.02C208.637 247.02 209.856 247.5 210.703 248.347L212.117 246.933C210.804 245.62 209.023 245.02 206.91 245.02V247.02ZM210.723 248.367C211.549 249.147 212.03 250.32 212.03 252.05H214.03C214.03 249.94 213.431 248.173 212.097 246.913L210.723 248.367ZM212.03 252.05C212.03 253.564 211.568 254.749 210.684 255.682L212.136 257.058C213.412 255.711 214.03 254.016 214.03 252.05H212.03ZM210.684 255.682C209.834 256.58 208.621 257.08 206.91 257.08V259.08C209.039 259.08 210.826 258.44 212.136 257.058L210.684 255.682ZM206.91 257.08C205.341 257.08 204.179 256.593 203.316 255.682L201.864 257.058C203.161 258.427 204.879 259.08 206.91 259.08V257.08ZM203.316 255.682C202.432 254.749 201.97 253.564 201.97 252.05H199.97C199.97 254.016 200.588 255.711 201.864 257.058L203.316 255.682Z" fill="#D1E0E9" mask="url(#path-25-outside-13_450_2449)"/>
<mask id="path-27-outside-14_450_2449" maskUnits="userSpaceOnUse" x="158" y="258" width="16" height="15" fill="black">
<rect fill="white" x="158" y="258" width="16" height="15"/>
<path d="M159.97 265.05C159.97 263.13 160.51 261.66 161.59 260.64C162.67 259.56 164.11 259.02 165.91 259.02C167.83 259.02 169.33 259.56 170.41 260.64C171.49 261.66 172.03 263.13 172.03 265.05C172.03 266.79 171.49 268.23 170.41 269.37C169.33 270.51 167.83 271.08 165.91 271.08C164.11 271.08 162.67 270.51 161.59 269.37C160.51 268.23 159.97 266.79 159.97 265.05Z"/>
</mask>
<path d="M161.59 260.64L162.277 261.367L162.287 261.357L162.297 261.347L161.59 260.64ZM170.41 260.64L169.703 261.347L169.713 261.357L169.723 261.367L170.41 260.64ZM170.41 269.37L169.684 268.682L170.41 269.37ZM160.97 265.05C160.97 263.32 161.451 262.147 162.277 261.367L160.903 259.913C159.569 261.173 158.97 262.94 158.97 265.05H160.97ZM162.297 261.347C163.156 260.488 164.324 260.02 165.91 260.02V258.02C163.896 258.02 162.184 258.632 160.883 259.933L162.297 261.347ZM165.91 260.02C167.637 260.02 168.856 260.5 169.703 261.347L171.117 259.933C169.804 258.62 168.023 258.02 165.91 258.02V260.02ZM169.723 261.367C170.549 262.147 171.03 263.32 171.03 265.05H173.03C173.03 262.94 172.431 261.173 171.097 259.913L169.723 261.367ZM171.03 265.05C171.03 266.564 170.568 267.749 169.684 268.682L171.136 270.058C172.412 268.711 173.03 267.016 173.03 265.05H171.03ZM169.684 268.682C168.834 269.58 167.621 270.08 165.91 270.08V272.08C168.039 272.08 169.826 271.44 171.136 270.058L169.684 268.682ZM165.91 270.08C164.341 270.08 163.179 269.593 162.316 268.682L160.864 270.058C162.161 271.427 163.879 272.08 165.91 272.08V270.08ZM162.316 268.682C161.432 267.749 160.97 266.564 160.97 265.05H158.97C158.97 267.016 159.588 268.711 160.864 270.058L162.316 268.682Z" fill="#D1E0E9" mask="url(#path-27-outside-14_450_2449)"/>
<mask id="path-29-outside-15_450_2449" maskUnits="userSpaceOnUse" x="138" y="316" width="16" height="15" fill="black">
<rect fill="white" x="138" y="316" width="16" height="15"/>
<path d="M139.97 323.05C139.97 321.13 140.51 319.66 141.59 318.64C142.67 317.56 144.11 317.02 145.91 317.02C147.83 317.02 149.33 317.56 150.41 318.64C151.49 319.66 152.03 321.13 152.03 323.05C152.03 324.79 151.49 326.23 150.41 327.37C149.33 328.51 147.83 329.08 145.91 329.08C144.11 329.08 142.67 328.51 141.59 327.37C140.51 326.23 139.97 324.79 139.97 323.05Z"/>
</mask>
<path d="M141.59 318.64L142.277 319.367L142.287 319.357L142.297 319.347L141.59 318.64ZM150.41 318.64L149.703 319.347L149.713 319.357L149.723 319.367L150.41 318.64ZM150.41 327.37L149.684 326.682L150.41 327.37ZM140.97 323.05C140.97 321.32 141.451 320.147 142.277 319.367L140.903 317.913C139.569 319.173 138.97 320.94 138.97 323.05H140.97ZM142.297 319.347C143.156 318.488 144.324 318.02 145.91 318.02V316.02C143.896 316.02 142.184 316.632 140.883 317.933L142.297 319.347ZM145.91 318.02C147.637 318.02 148.856 318.5 149.703 319.347L151.117 317.933C149.804 316.62 148.023 316.02 145.91 316.02V318.02ZM149.723 319.367C150.549 320.147 151.03 321.32 151.03 323.05H153.03C153.03 320.94 152.431 319.173 151.097 317.913L149.723 319.367ZM151.03 323.05C151.03 324.564 150.568 325.749 149.684 326.682L151.136 328.058C152.412 326.711 153.03 325.016 153.03 323.05H151.03ZM149.684 326.682C148.834 327.58 147.621 328.08 145.91 328.08V330.08C148.039 330.08 149.826 329.44 151.136 328.058L149.684 326.682ZM145.91 328.08C144.341 328.08 143.179 327.593 142.316 326.682L140.864 328.058C142.161 329.427 143.879 330.08 145.91 330.08V328.08ZM142.316 326.682C141.432 325.749 140.97 324.564 140.97 323.05H138.97C138.97 325.016 139.588 326.711 140.864 328.058L142.316 326.682Z" fill="#D1E0E9" mask="url(#path-29-outside-15_450_2449)"/>
<mask id="path-31-outside-16_450_2449" maskUnits="userSpaceOnUse" x="98" y="292" width="16" height="15" fill="black">
<rect fill="white" x="98" y="292" width="16" height="15"/>
<path d="M99.97 299.05C99.97 297.13 100.51 295.66 101.59 294.64C102.67 293.56 104.11 293.02 105.91 293.02C107.83 293.02 109.33 293.56 110.41 294.64C111.49 295.66 112.03 297.13 112.03 299.05C112.03 300.79 111.49 302.23 110.41 303.37C109.33 304.51 107.83 305.08 105.91 305.08C104.11 305.08 102.67 304.51 101.59 303.37C100.51 302.23 99.97 300.79 99.97 299.05Z"/>
</mask>
<path d="M101.59 294.64L102.277 295.367L102.287 295.357L102.297 295.347L101.59 294.64ZM110.41 294.64L109.703 295.347L109.713 295.357L109.723 295.367L110.41 294.64ZM110.41 303.37L109.684 302.682L110.41 303.37ZM100.97 299.05C100.97 297.32 101.451 296.147 102.277 295.367L100.903 293.913C99.5691 295.173 98.97 296.94 98.97 299.05H100.97ZM102.297 295.347C103.156 294.488 104.324 294.02 105.91 294.02V292.02C103.896 292.02 102.184 292.632 100.883 293.933L102.297 295.347ZM105.91 294.02C107.637 294.02 108.856 294.5 109.703 295.347L111.117 293.933C109.804 292.62 108.023 292.02 105.91 292.02V294.02ZM109.723 295.367C110.549 296.147 111.03 297.32 111.03 299.05H113.03C113.03 296.94 112.431 295.173 111.097 293.913L109.723 295.367ZM111.03 299.05C111.03 300.564 110.568 301.749 109.684 302.682L111.136 304.058C112.412 302.711 113.03 301.016 113.03 299.05H111.03ZM109.684 302.682C108.834 303.58 107.621 304.08 105.91 304.08V306.08C108.039 306.08 109.826 305.44 111.136 304.058L109.684 302.682ZM105.91 304.08C104.341 304.08 103.179 303.593 102.316 302.682L100.864 304.058C102.161 305.427 103.879 306.08 105.91 306.08V304.08ZM102.316 302.682C101.432 301.749 100.97 300.564 100.97 299.05H98.97C98.97 301.016 99.5884 302.711 100.864 304.058L102.316 302.682Z" fill="#D1E0E9" mask="url(#path-31-outside-16_450_2449)"/>
<mask id="path-33-outside-17_450_2449" maskUnits="userSpaceOnUse" x="195" y="296" width="16" height="15" fill="black">
<rect fill="white" x="195" y="296" width="16" height="15"/>
<path d="M196.97 303.05C196.97 301.13 197.51 299.66 198.59 298.64C199.67 297.56 201.11 297.02 202.91 297.02C204.83 297.02 206.33 297.56 207.41 298.64C208.49 299.66 209.03 301.13 209.03 303.05C209.03 304.79 208.49 306.23 207.41 307.37C206.33 308.51 204.83 309.08 202.91 309.08C201.11 309.08 199.67 308.51 198.59 307.37C197.51 306.23 196.97 304.79 196.97 303.05Z"/>
</mask>
<path d="M198.59 298.64L199.277 299.367L199.287 299.357L199.297 299.347L198.59 298.64ZM207.41 298.64L206.703 299.347L206.713 299.357L206.723 299.367L207.41 298.64ZM207.41 307.37L206.684 306.682L207.41 307.37ZM197.97 303.05C197.97 301.32 198.451 300.147 199.277 299.367L197.903 297.913C196.569 299.173 195.97 300.94 195.97 303.05H197.97ZM199.297 299.347C200.156 298.488 201.324 298.02 202.91 298.02V296.02C200.896 296.02 199.184 296.632 197.883 297.933L199.297 299.347ZM202.91 298.02C204.637 298.02 205.856 298.5 206.703 299.347L208.117 297.933C206.804 296.62 205.023 296.02 202.91 296.02V298.02ZM206.723 299.367C207.549 300.147 208.03 301.32 208.03 303.05H210.03C210.03 300.94 209.431 299.173 208.097 297.913L206.723 299.367ZM208.03 303.05C208.03 304.564 207.568 305.749 206.684 306.682L208.136 308.058C209.412 306.711 210.03 305.016 210.03 303.05H208.03ZM206.684 306.682C205.834 307.58 204.621 308.08 202.91 308.08V310.08C205.039 310.08 206.826 309.44 208.136 308.058L206.684 306.682ZM202.91 308.08C201.341 308.08 200.179 307.593 199.316 306.682L197.864 308.058C199.161 309.427 200.879 310.08 202.91 310.08V308.08ZM199.316 306.682C198.432 305.749 197.97 304.564 197.97 303.05H195.97C195.97 305.016 196.588 306.711 197.864 308.058L199.316 306.682Z" fill="#D1E0E9" mask="url(#path-33-outside-17_450_2449)"/>
<mask id="path-35-outside-18_450_2449" maskUnits="userSpaceOnUse" x="138" y="376" width="16" height="15" fill="black">
<rect fill="white" x="138" y="376" width="16" height="15"/>
<path d="M139.97 383.05C139.97 381.13 140.51 379.66 141.59 378.64C142.67 377.56 144.11 377.02 145.91 377.02C147.83 377.02 149.33 377.56 150.41 378.64C151.49 379.66 152.03 381.13 152.03 383.05C152.03 384.79 151.49 386.23 150.41 387.37C149.33 388.51 147.83 389.08 145.91 389.08C144.11 389.08 142.67 388.51 141.59 387.37C140.51 386.23 139.97 384.79 139.97 383.05Z"/>
</mask>
<path d="M141.59 378.64L142.277 379.367L142.287 379.357L142.297 379.347L141.59 378.64ZM150.41 378.64L149.703 379.347L149.713 379.357L149.723 379.367L150.41 378.64ZM150.41 387.37L149.684 386.682L150.41 387.37ZM140.97 383.05C140.97 381.32 141.451 380.147 142.277 379.367L140.903 377.913C139.569 379.173 138.97 380.94 138.97 383.05H140.97ZM142.297 379.347C143.156 378.488 144.324 378.02 145.91 378.02V376.02C143.896 376.02 142.184 376.632 140.883 377.933L142.297 379.347ZM145.91 378.02C147.637 378.02 148.856 378.5 149.703 379.347L151.117 377.933C149.804 376.62 148.023 376.02 145.91 376.02V378.02ZM149.723 379.367C150.549 380.147 151.03 381.32 151.03 383.05H153.03C153.03 380.94 152.431 379.173 151.097 377.913L149.723 379.367ZM151.03 383.05C151.03 384.564 150.568 385.749 149.684 386.682L151.136 388.058C152.412 386.711 153.03 385.016 153.03 383.05H151.03ZM149.684 386.682C148.834 387.58 147.621 388.08 145.91 388.08V390.08C148.039 390.08 149.826 389.44 151.136 388.058L149.684 386.682ZM145.91 388.08C144.341 388.08 143.179 387.593 142.316 386.682L140.864 388.058C142.161 389.427 143.879 390.08 145.91 390.08V388.08ZM142.316 386.682C141.432 385.749 140.97 384.564 140.97 383.05H138.97C138.97 385.016 139.588 386.711 140.864 388.058L142.316 386.682Z" fill="#D1E0E9" mask="url(#path-35-outside-18_450_2449)"/>
<mask id="path-37-outside-19_450_2449" maskUnits="userSpaceOnUse" x="179" y="357" width="16" height="15" fill="black">
<rect fill="white" x="179" y="357" width="16" height="15"/>
<path d="M180.97 364.05C180.97 362.13 181.51 360.66 182.59 359.64C183.67 358.56 185.11 358.02 186.91 358.02C188.83 358.02 190.33 358.56 191.41 359.64C192.49 360.66 193.03 362.13 193.03 364.05C193.03 365.79 192.49 367.23 191.41 368.37C190.33 369.51 188.83 370.08 186.91 370.08C185.11 370.08 183.67 369.51 182.59 368.37C181.51 367.23 180.97 365.79 180.97 364.05Z"/>
</mask>
<path d="M182.59 359.64L183.277 360.367L183.287 360.357L183.297 360.347L182.59 359.64ZM191.41 359.64L190.703 360.347L190.713 360.357L190.723 360.367L191.41 359.64ZM191.41 368.37L190.684 367.682L191.41 368.37ZM181.97 364.05C181.97 362.32 182.451 361.147 183.277 360.367L181.903 358.913C180.569 360.173 179.97 361.94 179.97 364.05H181.97ZM183.297 360.347C184.156 359.488 185.324 359.02 186.91 359.02V357.02C184.896 357.02 183.184 357.632 181.883 358.933L183.297 360.347ZM186.91 359.02C188.637 359.02 189.856 359.5 190.703 360.347L192.117 358.933C190.804 357.62 189.023 357.02 186.91 357.02V359.02ZM190.723 360.367C191.549 361.147 192.03 362.32 192.03 364.05H194.03C194.03 361.94 193.431 360.173 192.097 358.913L190.723 360.367ZM192.03 364.05C192.03 365.564 191.568 366.749 190.684 367.682L192.136 369.058C193.412 367.711 194.03 366.016 194.03 364.05H192.03ZM190.684 367.682C189.834 368.58 188.621 369.08 186.91 369.08V371.08C189.039 371.08 190.826 370.44 192.136 369.058L190.684 367.682ZM186.91 369.08C185.341 369.08 184.179 368.593 183.316 367.682L181.864 369.058C183.161 370.427 184.879 371.08 186.91 371.08V369.08ZM183.316 367.682C182.432 366.749 181.97 365.564 181.97 364.05H179.97C179.97 366.016 180.588 367.711 181.864 369.058L183.316 367.682Z" fill="#D1E0E9" mask="url(#path-37-outside-19_450_2449)"/>
<mask id="path-39-outside-20_450_2449" maskUnits="userSpaceOnUse" x="214" y="337" width="16" height="15" fill="black">
<rect fill="white" x="214" y="337" width="16" height="15"/>
<path d="M215.97 344.05C215.97 342.13 216.51 340.66 217.59 339.64C218.67 338.56 220.11 338.02 221.91 338.02C223.83 338.02 225.33 338.56 226.41 339.64C227.49 340.66 228.03 342.13 228.03 344.05C228.03 345.79 227.49 347.23 226.41 348.37C225.33 349.51 223.83 350.08 221.91 350.08C220.11 350.08 218.67 349.51 217.59 348.37C216.51 347.23 215.97 345.79 215.97 344.05Z"/>
</mask>
<path d="M217.59 339.64L218.277 340.367L218.287 340.357L218.297 340.347L217.59 339.64ZM226.41 339.64L225.703 340.347L225.713 340.357L225.723 340.367L226.41 339.64ZM226.41 348.37L225.684 347.682L226.41 348.37ZM216.97 344.05C216.97 342.32 217.451 341.147 218.277 340.367L216.903 338.913C215.569 340.173 214.97 341.94 214.97 344.05H216.97ZM218.297 340.347C219.156 339.488 220.324 339.02 221.91 339.02V337.02C219.896 337.02 218.184 337.632 216.883 338.933L218.297 340.347ZM221.91 339.02C223.637 339.02 224.856 339.5 225.703 340.347L227.117 338.933C225.804 337.62 224.023 337.02 221.91 337.02V339.02ZM225.723 340.367C226.549 341.147 227.03 342.32 227.03 344.05H229.03C229.03 341.94 228.431 340.173 227.097 338.913L225.723 340.367ZM227.03 344.05C227.03 345.564 226.568 346.749 225.684 347.682L227.136 349.058C228.412 347.711 229.03 346.016 229.03 344.05H227.03ZM225.684 347.682C224.834 348.58 223.621 349.08 221.91 349.08V351.08C224.039 351.08 225.826 350.44 227.136 349.058L225.684 347.682ZM221.91 349.08C220.341 349.08 219.179 348.593 218.316 347.682L216.864 349.058C218.161 350.427 219.879 351.08 221.91 351.08V349.08ZM218.316 347.682C217.432 346.749 216.97 345.564 216.97 344.05H214.97C214.97 346.016 215.588 347.711 216.864 349.058L218.316 347.682Z" fill="#D1E0E9" mask="url(#path-39-outside-20_450_2449)"/>
<mask id="path-41-outside-21_450_2449" maskUnits="userSpaceOnUse" x="230" y="316" width="16" height="15" fill="black">
<rect fill="white" x="230" y="316" width="16" height="15"/>
<path d="M231.97 323.05C231.97 321.13 232.51 319.66 233.59 318.64C234.67 317.56 236.11 317.02 237.91 317.02C239.83 317.02 241.33 317.56 242.41 318.64C243.49 319.66 244.03 321.13 244.03 323.05C244.03 324.79 243.49 326.23 242.41 327.37C241.33 328.51 239.83 329.08 237.91 329.08C236.11 329.08 234.67 328.51 233.59 327.37C232.51 326.23 231.97 324.79 231.97 323.05Z"/>
</mask>
<path d="M233.59 318.64L234.277 319.367L234.287 319.357L234.297 319.347L233.59 318.64ZM242.41 318.64L241.703 319.347L241.713 319.357L241.723 319.367L242.41 318.64ZM242.41 327.37L241.684 326.682L242.41 327.37ZM232.97 323.05C232.97 321.32 233.451 320.147 234.277 319.367L232.903 317.913C231.569 319.173 230.97 320.94 230.97 323.05H232.97ZM234.297 319.347C235.156 318.488 236.324 318.02 237.91 318.02V316.02C235.896 316.02 234.184 316.632 232.883 317.933L234.297 319.347ZM237.91 318.02C239.637 318.02 240.856 318.5 241.703 319.347L243.117 317.933C241.804 316.62 240.023 316.02 237.91 316.02V318.02ZM241.723 319.367C242.549 320.147 243.03 321.32 243.03 323.05H245.03C245.03 320.94 244.431 319.173 243.097 317.913L241.723 319.367ZM243.03 323.05C243.03 324.564 242.568 325.749 241.684 326.682L243.136 328.058C244.412 326.711 245.03 325.016 245.03 323.05H243.03ZM241.684 326.682C240.834 327.58 239.621 328.08 237.91 328.08V330.08C240.039 330.08 241.826 329.44 243.136 328.058L241.684 326.682ZM237.91 328.08C236.341 328.08 235.179 327.593 234.316 326.682L232.864 328.058C234.161 329.427 235.879 330.08 237.91 330.08V328.08ZM234.316 326.682C233.432 325.749 232.97 324.564 232.97 323.05H230.97C230.97 325.016 231.588 326.711 232.864 328.058L234.316 326.682Z" fill="#D1E0E9" mask="url(#path-41-outside-21_450_2449)"/>
<mask id="path-43-outside-22_450_2449" maskUnits="userSpaceOnUse" x="230" y="284" width="16" height="15" fill="black">
<rect fill="white" x="230" y="284" width="16" height="15"/>
<path d="M231.97 291.05C231.97 289.13 232.51 287.66 233.59 286.64C234.67 285.56 236.11 285.02 237.91 285.02C239.83 285.02 241.33 285.56 242.41 286.64C243.49 287.66 244.03 289.13 244.03 291.05C244.03 292.79 243.49 294.23 242.41 295.37C241.33 296.51 239.83 297.08 237.91 297.08C236.11 297.08 234.67 296.51 233.59 295.37C232.51 294.23 231.97 292.79 231.97 291.05Z"/>
</mask>
<path d="M233.59 286.64L234.277 287.367L234.287 287.357L234.297 287.347L233.59 286.64ZM242.41 286.64L241.703 287.347L241.713 287.357L241.723 287.367L242.41 286.64ZM242.41 295.37L241.684 294.682L242.41 295.37ZM232.97 291.05C232.97 289.32 233.451 288.147 234.277 287.367L232.903 285.913C231.569 287.173 230.97 288.94 230.97 291.05H232.97ZM234.297 287.347C235.156 286.488 236.324 286.02 237.91 286.02V284.02C235.896 284.02 234.184 284.632 232.883 285.933L234.297 287.347ZM237.91 286.02C239.637 286.02 240.856 286.5 241.703 287.347L243.117 285.933C241.804 284.62 240.023 284.02 237.91 284.02V286.02ZM241.723 287.367C242.549 288.147 243.03 289.32 243.03 291.05H245.03C245.03 288.94 244.431 287.173 243.097 285.913L241.723 287.367ZM243.03 291.05C243.03 292.564 242.568 293.749 241.684 294.682L243.136 296.058C244.412 294.711 245.03 293.016 245.03 291.05H243.03ZM241.684 294.682C240.834 295.58 239.621 296.08 237.91 296.08V298.08C240.039 298.08 241.826 297.44 243.136 296.058L241.684 294.682ZM237.91 296.08C236.341 296.08 235.179 295.593 234.316 294.682L232.864 296.058C234.161 297.427 235.879 298.08 237.91 298.08V296.08ZM234.316 294.682C233.432 293.749 232.97 292.564 232.97 291.05H230.97C230.97 293.016 231.588 294.711 232.864 296.058L234.316 294.682Z" fill="#D1E0E9" mask="url(#path-43-outside-22_450_2449)"/>
<mask id="path-45-outside-23_450_2449" maskUnits="userSpaceOnUse" x="230" y="228" width="16" height="15" fill="black">
<rect fill="white" x="230" y="228" width="16" height="15"/>
<path d="M231.97 235.05C231.97 233.13 232.51 231.66 233.59 230.64C234.67 229.56 236.11 229.02 237.91 229.02C239.83 229.02 241.33 229.56 242.41 230.64C243.49 231.66 244.03 233.13 244.03 235.05C244.03 236.79 243.49 238.23 242.41 239.37C241.33 240.51 239.83 241.08 237.91 241.08C236.11 241.08 234.67 240.51 233.59 239.37C232.51 238.23 231.97 236.79 231.97 235.05Z"/>
</mask>
<path d="M233.59 230.64L234.277 231.367L234.287 231.357L234.297 231.347L233.59 230.64ZM242.41 230.64L241.703 231.347L241.713 231.357L241.723 231.367L242.41 230.64ZM242.41 239.37L241.684 238.682L242.41 239.37ZM232.97 235.05C232.97 233.32 233.451 232.147 234.277 231.367L232.903 229.913C231.569 231.173 230.97 232.94 230.97 235.05H232.97ZM234.297 231.347C235.156 230.488 236.324 230.02 237.91 230.02V228.02C235.896 228.02 234.184 228.632 232.883 229.933L234.297 231.347ZM237.91 230.02C239.637 230.02 240.856 230.5 241.703 231.347L243.117 229.933C241.804 228.62 240.023 228.02 237.91 228.02V230.02ZM241.723 231.367C242.549 232.147 243.03 233.32 243.03 235.05H245.03C245.03 232.94 244.431 231.173 243.097 229.913L241.723 231.367ZM243.03 235.05C243.03 236.564 242.568 237.749 241.684 238.682L243.136 240.058C244.412 238.711 245.03 237.016 245.03 235.05H243.03ZM241.684 238.682C240.834 239.58 239.621 240.08 237.91 240.08V242.08C240.039 242.08 241.826 241.44 243.136 240.058L241.684 238.682ZM237.91 240.08C236.341 240.08 235.179 239.593 234.316 238.682L232.864 240.058C234.161 241.427 235.879 242.08 237.91 242.08V240.08ZM234.316 238.682C233.432 237.749 232.97 236.564 232.97 235.05H230.97C230.97 237.016 231.588 238.711 232.864 240.058L234.316 238.682Z" fill="#D1E0E9" mask="url(#path-45-outside-23_450_2449)"/>
<mask id="path-47-outside-24_450_2449" maskUnits="userSpaceOnUse" x="251" y="208" width="16" height="15" fill="black">
<rect fill="white" x="251" y="208" width="16" height="15"/>
<path d="M252.97 215.05C252.97 213.13 253.51 211.66 254.59 210.64C255.67 209.56 257.11 209.02 258.91 209.02C260.83 209.02 262.33 209.56 263.41 210.64C264.49 211.66 265.03 213.13 265.03 215.05C265.03 216.79 264.49 218.23 263.41 219.37C262.33 220.51 260.83 221.08 258.91 221.08C257.11 221.08 255.67 220.51 254.59 219.37C253.51 218.23 252.97 216.79 252.97 215.05Z"/>
</mask>
<path d="M254.59 210.64L255.277 211.367L255.287 211.357L255.297 211.347L254.59 210.64ZM263.41 210.64L262.703 211.347L262.713 211.357L262.723 211.367L263.41 210.64ZM263.41 219.37L262.684 218.682L263.41 219.37ZM253.97 215.05C253.97 213.32 254.451 212.147 255.277 211.367L253.903 209.913C252.569 211.173 251.97 212.94 251.97 215.05H253.97ZM255.297 211.347C256.156 210.488 257.324 210.02 258.91 210.02V208.02C256.896 208.02 255.184 208.632 253.883 209.933L255.297 211.347ZM258.91 210.02C260.637 210.02 261.856 210.5 262.703 211.347L264.117 209.933C262.804 208.62 261.023 208.02 258.91 208.02V210.02ZM262.723 211.367C263.549 212.147 264.03 213.32 264.03 215.05H266.03C266.03 212.94 265.431 211.173 264.097 209.913L262.723 211.367ZM264.03 215.05C264.03 216.564 263.568 217.749 262.684 218.682L264.136 220.058C265.412 218.711 266.03 217.016 266.03 215.05H264.03ZM262.684 218.682C261.834 219.58 260.621 220.08 258.91 220.08V222.08C261.039 222.08 262.826 221.44 264.136 220.058L262.684 218.682ZM258.91 220.08C257.341 220.08 256.179 219.593 255.316 218.682L253.864 220.058C255.161 221.427 256.879 222.08 258.91 222.08V220.08ZM255.316 218.682C254.432 217.749 253.97 216.564 253.97 215.05H251.97C251.97 217.016 252.588 218.711 253.864 220.058L255.316 218.682Z" fill="#D1E0E9" mask="url(#path-47-outside-24_450_2449)"/>
<mask id="path-49-outside-25_450_2449" maskUnits="userSpaceOnUse" x="266" y="226" width="16" height="15" fill="black">
<rect fill="white" x="266" y="226" width="16" height="15"/>
<path d="M267.97 233.05C267.97 231.13 268.51 229.66 269.59 228.64C270.67 227.56 272.11 227.02 273.91 227.02C275.83 227.02 277.33 227.56 278.41 228.64C279.49 229.66 280.03 231.13 280.03 233.05C280.03 234.79 279.49 236.23 278.41 237.37C277.33 238.51 275.83 239.08 273.91 239.08C272.11 239.08 270.67 238.51 269.59 237.37C268.51 236.23 267.97 234.79 267.97 233.05Z"/>
</mask>
<path d="M269.59 228.64L270.277 229.367L270.287 229.357L270.297 229.347L269.59 228.64ZM278.41 228.64L277.703 229.347L277.713 229.357L277.723 229.367L278.41 228.64ZM278.41 237.37L277.684 236.682L278.41 237.37ZM268.97 233.05C268.97 231.32 269.451 230.147 270.277 229.367L268.903 227.913C267.569 229.173 266.97 230.94 266.97 233.05H268.97ZM270.297 229.347C271.156 228.488 272.324 228.02 273.91 228.02V226.02C271.896 226.02 270.184 226.632 268.883 227.933L270.297 229.347ZM273.91 228.02C275.637 228.02 276.856 228.5 277.703 229.347L279.117 227.933C277.804 226.62 276.023 226.02 273.91 226.02V228.02ZM277.723 229.367C278.549 230.147 279.03 231.32 279.03 233.05H281.03C281.03 230.94 280.431 229.173 279.097 227.913L277.723 229.367ZM279.03 233.05C279.03 234.564 278.568 235.749 277.684 236.682L279.136 238.058C280.412 236.711 281.03 235.016 281.03 233.05H279.03ZM277.684 236.682C276.834 237.58 275.621 238.08 273.91 238.08V240.08C276.039 240.08 277.826 239.44 279.136 238.058L277.684 236.682ZM273.91 238.08C272.341 238.08 271.179 237.593 270.316 236.682L268.864 238.058C270.161 239.427 271.879 240.08 273.91 240.08V238.08ZM270.316 236.682C269.432 235.749 268.97 234.564 268.97 233.05H266.97C266.97 235.016 267.588 236.711 268.864 238.058L270.316 236.682Z" fill="#D1E0E9" mask="url(#path-49-outside-25_450_2449)"/>
<mask id="path-51-outside-26_450_2449" maskUnits="userSpaceOnUse" x="260" y="245" width="16" height="15" fill="black">
<rect fill="white" x="260" y="245" width="16" height="15"/>
<path d="M261.97 252.05C261.97 250.13 262.51 248.66 263.59 247.64C264.67 246.56 266.11 246.02 267.91 246.02C269.83 246.02 271.33 246.56 272.41 247.64C273.49 248.66 274.03 250.13 274.03 252.05C274.03 253.79 273.49 255.23 272.41 256.37C271.33 257.51 269.83 258.08 267.91 258.08C266.11 258.08 264.67 257.51 263.59 256.37C262.51 255.23 261.97 253.79 261.97 252.05Z"/>
</mask>
<path d="M263.59 247.64L264.277 248.367L264.287 248.357L264.297 248.347L263.59 247.64ZM272.41 247.64L271.703 248.347L271.713 248.357L271.723 248.367L272.41 247.64ZM272.41 256.37L271.684 255.682L272.41 256.37ZM262.97 252.05C262.97 250.32 263.451 249.147 264.277 248.367L262.903 246.913C261.569 248.173 260.97 249.94 260.97 252.05H262.97ZM264.297 248.347C265.156 247.488 266.324 247.02 267.91 247.02V245.02C265.896 245.02 264.184 245.632 262.883 246.933L264.297 248.347ZM267.91 247.02C269.637 247.02 270.856 247.5 271.703 248.347L273.117 246.933C271.804 245.62 270.023 245.02 267.91 245.02V247.02ZM271.723 248.367C272.549 249.147 273.03 250.32 273.03 252.05H275.03C275.03 249.94 274.431 248.173 273.097 246.913L271.723 248.367ZM273.03 252.05C273.03 253.564 272.568 254.749 271.684 255.682L273.136 257.058C274.412 255.711 275.03 254.016 275.03 252.05H273.03ZM271.684 255.682C270.834 256.58 269.621 257.08 267.91 257.08V259.08C270.039 259.08 271.826 258.44 273.136 257.058L271.684 255.682ZM267.91 257.08C266.341 257.08 265.179 256.593 264.316 255.682L262.864 257.058C264.161 258.427 265.879 259.08 267.91 259.08V257.08ZM264.316 255.682C263.432 254.749 262.97 253.564 262.97 252.05H260.97C260.97 254.016 261.588 255.711 262.864 257.058L264.316 255.682Z" fill="#D1E0E9" mask="url(#path-51-outside-26_450_2449)"/>
<mask id="path-53-outside-27_450_2449" maskUnits="userSpaceOnUse" x="313" y="183" width="16" height="15" fill="black">
<rect fill="white" x="313" y="183" width="16" height="15"/>
<path d="M314.97 190.05C314.97 188.13 315.51 186.66 316.59 185.64C317.67 184.56 319.11 184.02 320.91 184.02C322.83 184.02 324.33 184.56 325.41 185.64C326.49 186.66 327.03 188.13 327.03 190.05C327.03 191.79 326.49 193.23 325.41 194.37C324.33 195.51 322.83 196.08 320.91 196.08C319.11 196.08 317.67 195.51 316.59 194.37C315.51 193.23 314.97 191.79 314.97 190.05Z"/>
</mask>
<path d="M316.59 185.64L317.277 186.367L317.287 186.357L317.297 186.347L316.59 185.64ZM325.41 185.64L324.703 186.347L324.713 186.357L324.723 186.367L325.41 185.64ZM325.41 194.37L324.684 193.682L325.41 194.37ZM315.97 190.05C315.97 188.32 316.451 187.147 317.277 186.367L315.903 184.913C314.569 186.173 313.97 187.94 313.97 190.05H315.97ZM317.297 186.347C318.156 185.488 319.324 185.02 320.91 185.02V183.02C318.896 183.02 317.184 183.632 315.883 184.933L317.297 186.347ZM320.91 185.02C322.637 185.02 323.856 185.5 324.703 186.347L326.117 184.933C324.804 183.62 323.023 183.02 320.91 183.02V185.02ZM324.723 186.367C325.549 187.147 326.03 188.32 326.03 190.05H328.03C328.03 187.94 327.431 186.173 326.097 184.913L324.723 186.367ZM326.03 190.05C326.03 191.564 325.568 192.749 324.684 193.682L326.136 195.058C327.412 193.711 328.03 192.016 328.03 190.05H326.03ZM324.684 193.682C323.834 194.58 322.621 195.08 320.91 195.08V197.08C323.039 197.08 324.826 196.44 326.136 195.058L324.684 193.682ZM320.91 195.08C319.341 195.08 318.179 194.593 317.316 193.682L315.864 195.058C317.161 196.427 318.879 197.08 320.91 197.08V195.08ZM317.316 193.682C316.432 192.749 315.97 191.564 315.97 190.05H313.97C313.97 192.016 314.588 193.711 315.864 195.058L317.316 193.682Z" fill="#D1E0E9" mask="url(#path-53-outside-27_450_2449)"/>
<mask id="path-55-outside-28_450_2449" maskUnits="userSpaceOnUse" x="302" y="205" width="16" height="15" fill="black">
<rect fill="white" x="302" y="205" width="16" height="15"/>
<path d="M303.97 212.05C303.97 210.13 304.51 208.66 305.59 207.64C306.67 206.56 308.11 206.02 309.91 206.02C311.83 206.02 313.33 206.56 314.41 207.64C315.49 208.66 316.03 210.13 316.03 212.05C316.03 213.79 315.49 215.23 314.41 216.37C313.33 217.51 311.83 218.08 309.91 218.08C308.11 218.08 306.67 217.51 305.59 216.37C304.51 215.23 303.97 213.79 303.97 212.05Z"/>
</mask>
<path d="M305.59 207.64L306.277 208.367L306.287 208.357L306.297 208.347L305.59 207.64ZM314.41 207.64L313.703 208.347L313.713 208.357L313.723 208.367L314.41 207.64ZM314.41 216.37L313.684 215.682L314.41 216.37ZM304.97 212.05C304.97 210.32 305.451 209.147 306.277 208.367L304.903 206.913C303.569 208.173 302.97 209.94 302.97 212.05H304.97ZM306.297 208.347C307.156 207.488 308.324 207.02 309.91 207.02V205.02C307.896 205.02 306.184 205.632 304.883 206.933L306.297 208.347ZM309.91 207.02C311.637 207.02 312.856 207.5 313.703 208.347L315.117 206.933C313.804 205.62 312.023 205.02 309.91 205.02V207.02ZM313.723 208.367C314.549 209.147 315.03 210.32 315.03 212.05H317.03C317.03 209.94 316.431 208.173 315.097 206.913L313.723 208.367ZM315.03 212.05C315.03 213.564 314.568 214.749 313.684 215.682L315.136 217.058C316.412 215.711 317.03 214.016 317.03 212.05H315.03ZM313.684 215.682C312.834 216.58 311.621 217.08 309.91 217.08V219.08C312.039 219.08 313.826 218.44 315.136 217.058L313.684 215.682ZM309.91 217.08C308.341 217.08 307.179 216.593 306.316 215.682L304.864 217.058C306.161 218.427 307.879 219.08 309.91 219.08V217.08ZM306.316 215.682C305.432 214.749 304.97 213.564 304.97 212.05H302.97C302.97 214.016 303.588 215.711 304.864 217.058L306.316 215.682Z" fill="#D1E0E9" mask="url(#path-55-outside-28_450_2449)"/>
<mask id="path-57-outside-29_450_2449" maskUnits="userSpaceOnUse" x="331" y="228" width="16" height="15" fill="black">
<rect fill="white" x="331" y="228" width="16" height="15"/>
<path d="M332.97 235.05C332.97 233.13 333.51 231.66 334.59 230.64C335.67 229.56 337.11 229.02 338.91 229.02C340.83 229.02 342.33 229.56 343.41 230.64C344.49 231.66 345.03 233.13 345.03 235.05C345.03 236.79 344.49 238.23 343.41 239.37C342.33 240.51 340.83 241.08 338.91 241.08C337.11 241.08 335.67 240.51 334.59 239.37C333.51 238.23 332.97 236.79 332.97 235.05Z"/>
</mask>
<path d="M334.59 230.64L335.277 231.367L335.287 231.357L335.297 231.347L334.59 230.64ZM343.41 230.64L342.703 231.347L342.713 231.357L342.723 231.367L343.41 230.64ZM343.41 239.37L342.684 238.682L343.41 239.37ZM333.97 235.05C333.97 233.32 334.451 232.147 335.277 231.367L333.903 229.913C332.569 231.173 331.97 232.94 331.97 235.05H333.97ZM335.297 231.347C336.156 230.488 337.324 230.02 338.91 230.02V228.02C336.896 228.02 335.184 228.632 333.883 229.933L335.297 231.347ZM338.91 230.02C340.637 230.02 341.856 230.5 342.703 231.347L344.117 229.933C342.804 228.62 341.023 228.02 338.91 228.02V230.02ZM342.723 231.367C343.549 232.147 344.03 233.32 344.03 235.05H346.03C346.03 232.94 345.431 231.173 344.097 229.913L342.723 231.367ZM344.03 235.05C344.03 236.564 343.568 237.749 342.684 238.682L344.136 240.058C345.412 238.711 346.03 237.016 346.03 235.05H344.03ZM342.684 238.682C341.834 239.58 340.621 240.08 338.91 240.08V242.08C341.039 242.08 342.826 241.44 344.136 240.058L342.684 238.682ZM338.91 240.08C337.341 240.08 336.179 239.593 335.316 238.682L333.864 240.058C335.161 241.427 336.879 242.08 338.91 242.08V240.08ZM335.316 238.682C334.432 237.749 333.97 236.564 333.97 235.05H331.97C331.97 237.016 332.588 238.711 333.864 240.058L335.316 238.682Z" fill="#D1E0E9" mask="url(#path-57-outside-29_450_2449)"/>
<mask id="path-59-outside-30_450_2449" maskUnits="userSpaceOnUse" x="300" y="237" width="16" height="15" fill="black">
<rect fill="white" x="300" y="237" width="16" height="15"/>
<path d="M301.97 244.05C301.97 242.13 302.51 240.66 303.59 239.64C304.67 238.56 306.11 238.02 307.91 238.02C309.83 238.02 311.33 238.56 312.41 239.64C313.49 240.66 314.03 242.13 314.03 244.05C314.03 245.79 313.49 247.23 312.41 248.37C311.33 249.51 309.83 250.08 307.91 250.08C306.11 250.08 304.67 249.51 303.59 248.37C302.51 247.23 301.97 245.79 301.97 244.05Z"/>
</mask>
<path d="M303.59 239.64L304.277 240.367L304.287 240.357L304.297 240.347L303.59 239.64ZM312.41 239.64L311.703 240.347L311.713 240.357L311.723 240.367L312.41 239.64ZM312.41 248.37L311.684 247.682L312.41 248.37ZM302.97 244.05C302.97 242.32 303.451 241.147 304.277 240.367L302.903 238.913C301.569 240.173 300.97 241.94 300.97 244.05H302.97ZM304.297 240.347C305.156 239.488 306.324 239.02 307.91 239.02V237.02C305.896 237.02 304.184 237.632 302.883 238.933L304.297 240.347ZM307.91 239.02C309.637 239.02 310.856 239.5 311.703 240.347L313.117 238.933C311.804 237.62 310.023 237.02 307.91 237.02V239.02ZM311.723 240.367C312.549 241.147 313.03 242.32 313.03 244.05H315.03C315.03 241.94 314.431 240.173 313.097 238.913L311.723 240.367ZM313.03 244.05C313.03 245.564 312.568 246.749 311.684 247.682L313.136 249.058C314.412 247.711 315.03 246.016 315.03 244.05H313.03ZM311.684 247.682C310.834 248.58 309.621 249.08 307.91 249.08V251.08C310.039 251.08 311.826 250.44 313.136 249.058L311.684 247.682ZM307.91 249.08C306.341 249.08 305.179 248.593 304.316 247.682L302.864 249.058C304.161 250.427 305.879 251.08 307.91 251.08V249.08ZM304.316 247.682C303.432 246.749 302.97 245.564 302.97 244.05H300.97C300.97 246.016 301.588 247.711 302.864 249.058L304.316 247.682Z" fill="#D1E0E9" mask="url(#path-59-outside-30_450_2449)"/>
<mask id="path-61-outside-31_450_2449" maskUnits="userSpaceOnUse" x="346" y="205" width="16" height="15" fill="black">
<rect fill="white" x="346" y="205" width="16" height="15"/>
<path d="M347.97 212.05C347.97 210.13 348.51 208.66 349.59 207.64C350.67 206.56 352.11 206.02 353.91 206.02C355.83 206.02 357.33 206.56 358.41 207.64C359.49 208.66 360.03 210.13 360.03 212.05C360.03 213.79 359.49 215.23 358.41 216.37C357.33 217.51 355.83 218.08 353.91 218.08C352.11 218.08 350.67 217.51 349.59 216.37C348.51 215.23 347.97 213.79 347.97 212.05Z"/>
</mask>
<path d="M349.59 207.64L350.277 208.367L350.287 208.357L350.297 208.347L349.59 207.64ZM358.41 207.64L357.703 208.347L357.713 208.357L357.723 208.367L358.41 207.64ZM358.41 216.37L357.684 215.682L358.41 216.37ZM348.97 212.05C348.97 210.32 349.451 209.147 350.277 208.367L348.903 206.913C347.569 208.173 346.97 209.94 346.97 212.05H348.97ZM350.297 208.347C351.156 207.488 352.324 207.02 353.91 207.02V205.02C351.896 205.02 350.184 205.632 348.883 206.933L350.297 208.347ZM353.91 207.02C355.637 207.02 356.856 207.5 357.703 208.347L359.117 206.933C357.804 205.62 356.023 205.02 353.91 205.02V207.02ZM357.723 208.367C358.549 209.147 359.03 210.32 359.03 212.05H361.03C361.03 209.94 360.431 208.173 359.097 206.913L357.723 208.367ZM359.03 212.05C359.03 213.564 358.568 214.749 357.684 215.682L359.136 217.058C360.412 215.711 361.03 214.016 361.03 212.05H359.03ZM357.684 215.682C356.834 216.58 355.621 217.08 353.91 217.08V219.08C356.039 219.08 357.826 218.44 359.136 217.058L357.684 215.682ZM353.91 217.08C352.341 217.08 351.179 216.593 350.316 215.682L348.864 217.058C350.161 218.427 351.879 219.08 353.91 219.08V217.08ZM350.316 215.682C349.432 214.749 348.97 213.564 348.97 212.05H346.97C346.97 214.016 347.588 215.711 348.864 217.058L350.316 215.682Z" fill="#D1E0E9" mask="url(#path-61-outside-31_450_2449)"/>
<mask id="path-63-outside-32_450_2449" maskUnits="userSpaceOnUse" x="334" y="120" width="16" height="15" fill="black">
<rect fill="white" x="334" y="120" width="16" height="15"/>
<path d="M335.97 127.05C335.97 125.13 336.51 123.66 337.59 122.64C338.67 121.56 340.11 121.02 341.91 121.02C343.83 121.02 345.33 121.56 346.41 122.64C347.49 123.66 348.03 125.13 348.03 127.05C348.03 128.79 347.49 130.23 346.41 131.37C345.33 132.51 343.83 133.08 341.91 133.08C340.11 133.08 338.67 132.51 337.59 131.37C336.51 130.23 335.97 128.79 335.97 127.05Z"/>
</mask>
<path d="M337.59 122.64L338.277 123.367L338.287 123.357L338.297 123.347L337.59 122.64ZM346.41 122.64L345.703 123.347L345.713 123.357L345.723 123.367L346.41 122.64ZM346.41 131.37L345.684 130.682L346.41 131.37ZM336.97 127.05C336.97 125.32 337.451 124.147 338.277 123.367L336.903 121.913C335.569 123.173 334.97 124.94 334.97 127.05H336.97ZM338.297 123.347C339.156 122.488 340.324 122.02 341.91 122.02V120.02C339.896 120.02 338.184 120.632 336.883 121.933L338.297 123.347ZM341.91 122.02C343.637 122.02 344.856 122.5 345.703 123.347L347.117 121.933C345.804 120.62 344.023 120.02 341.91 120.02V122.02ZM345.723 123.367C346.549 124.147 347.03 125.32 347.03 127.05H349.03C349.03 124.94 348.431 123.173 347.097 121.913L345.723 123.367ZM347.03 127.05C347.03 128.564 346.568 129.749 345.684 130.682L347.136 132.058C348.412 130.711 349.03 129.016 349.03 127.05H347.03ZM345.684 130.682C344.834 131.58 343.621 132.08 341.91 132.08V134.08C344.039 134.08 345.826 133.44 347.136 132.058L345.684 130.682ZM341.91 132.08C340.341 132.08 339.179 131.593 338.316 130.682L336.864 132.058C338.161 133.427 339.879 134.08 341.91 134.08V132.08ZM338.316 130.682C337.432 129.749 336.97 128.564 336.97 127.05H334.97C334.97 129.016 335.588 130.711 336.864 132.058L338.316 130.682Z" fill="#D1E0E9" mask="url(#path-63-outside-32_450_2449)"/>
<mask id="path-65-outside-33_450_2449" maskUnits="userSpaceOnUse" x="360" y="178" width="16" height="15" fill="black">
<rect fill="white" x="360" y="178" width="16" height="15"/>
<path d="M361.97 185.05C361.97 183.13 362.51 181.66 363.59 180.64C364.67 179.56 366.11 179.02 367.91 179.02C369.83 179.02 371.33 179.56 372.41 180.64C373.49 181.66 374.03 183.13 374.03 185.05C374.03 186.79 373.49 188.23 372.41 189.37C371.33 190.51 369.83 191.08 367.91 191.08C366.11 191.08 364.67 190.51 363.59 189.37C362.51 188.23 361.97 186.79 361.97 185.05Z"/>
</mask>
<path d="M363.59 180.64L364.277 181.367L364.287 181.357L364.297 181.347L363.59 180.64ZM372.41 180.64L371.703 181.347L371.713 181.357L371.723 181.367L372.41 180.64ZM372.41 189.37L371.684 188.682L372.41 189.37ZM362.97 185.05C362.97 183.32 363.451 182.147 364.277 181.367L362.903 179.913C361.569 181.173 360.97 182.94 360.97 185.05H362.97ZM364.297 181.347C365.156 180.488 366.324 180.02 367.91 180.02V178.02C365.896 178.02 364.184 178.632 362.883 179.933L364.297 181.347ZM367.91 180.02C369.637 180.02 370.856 180.5 371.703 181.347L373.117 179.933C371.804 178.62 370.023 178.02 367.91 178.02V180.02ZM371.723 181.367C372.549 182.147 373.03 183.32 373.03 185.05H375.03C375.03 182.94 374.431 181.173 373.097 179.913L371.723 181.367ZM373.03 185.05C373.03 186.564 372.568 187.749 371.684 188.682L373.136 190.058C374.412 188.711 375.03 187.016 375.03 185.05H373.03ZM371.684 188.682C370.834 189.58 369.621 190.08 367.91 190.08V192.08C370.039 192.08 371.826 191.44 373.136 190.058L371.684 188.682ZM367.91 190.08C366.341 190.08 365.179 189.593 364.316 188.682L362.864 190.058C364.161 191.427 365.879 192.08 367.91 192.08V190.08ZM364.316 188.682C363.432 187.749 362.97 186.564 362.97 185.05H360.97C360.97 187.016 361.588 188.711 362.864 190.058L364.316 188.682Z" fill="#D1E0E9" mask="url(#path-65-outside-33_450_2449)"/>
<mask id="path-67-outside-34_450_2449" maskUnits="userSpaceOnUse" x="302" y="254" width="16" height="15" fill="black">
<rect fill="white" x="302" y="254" width="16" height="15"/>
<path d="M303.97 261.05C303.97 259.13 304.51 257.66 305.59 256.64C306.67 255.56 308.11 255.02 309.91 255.02C311.83 255.02 313.33 255.56 314.41 256.64C315.49 257.66 316.03 259.13 316.03 261.05C316.03 262.79 315.49 264.23 314.41 265.37C313.33 266.51 311.83 267.08 309.91 267.08C308.11 267.08 306.67 266.51 305.59 265.37C304.51 264.23 303.97 262.79 303.97 261.05Z"/>
</mask>
<path d="M305.59 256.64L306.277 257.367L306.287 257.357L306.297 257.347L305.59 256.64ZM314.41 256.64L313.703 257.347L313.713 257.357L313.723 257.367L314.41 256.64ZM314.41 265.37L313.684 264.682L314.41 265.37ZM304.97 261.05C304.97 259.32 305.451 258.147 306.277 257.367L304.903 255.913C303.569 257.173 302.97 258.94 302.97 261.05H304.97ZM306.297 257.347C307.156 256.488 308.324 256.02 309.91 256.02V254.02C307.896 254.02 306.184 254.632 304.883 255.933L306.297 257.347ZM309.91 256.02C311.637 256.02 312.856 256.5 313.703 257.347L315.117 255.933C313.804 254.62 312.023 254.02 309.91 254.02V256.02ZM313.723 257.367C314.549 258.147 315.03 259.32 315.03 261.05H317.03C317.03 258.94 316.431 257.173 315.097 255.913L313.723 257.367ZM315.03 261.05C315.03 262.564 314.568 263.749 313.684 264.682L315.136 266.058C316.412 264.711 317.03 263.016 317.03 261.05H315.03ZM313.684 264.682C312.834 265.58 311.621 266.08 309.91 266.08V268.08C312.039 268.08 313.826 267.44 315.136 266.058L313.684 264.682ZM309.91 266.08C308.341 266.08 307.179 265.593 306.316 264.682L304.864 266.058C306.161 267.427 307.879 268.08 309.91 268.08V266.08ZM306.316 264.682C305.432 263.749 304.97 262.564 304.97 261.05H302.97C302.97 263.016 303.588 264.711 304.864 266.058L306.316 264.682Z" fill="#D1E0E9" mask="url(#path-67-outside-34_450_2449)"/>
<mask id="path-69-outside-35_450_2449" maskUnits="userSpaceOnUse" x="347" y="243" width="16" height="15" fill="black">
<rect fill="white" x="347" y="243" width="16" height="15"/>
<path d="M348.97 250.05C348.97 248.13 349.51 246.66 350.59 245.64C351.67 244.56 353.11 244.02 354.91 244.02C356.83 244.02 358.33 244.56 359.41 245.64C360.49 246.66 361.03 248.13 361.03 250.05C361.03 251.79 360.49 253.23 359.41 254.37C358.33 255.51 356.83 256.08 354.91 256.08C353.11 256.08 351.67 255.51 350.59 254.37C349.51 253.23 348.97 251.79 348.97 250.05Z"/>
</mask>
<path d="M350.59 245.64L351.277 246.367L351.287 246.357L351.297 246.347L350.59 245.64ZM359.41 245.64L358.703 246.347L358.713 246.357L358.723 246.367L359.41 245.64ZM359.41 254.37L358.684 253.682L359.41 254.37ZM349.97 250.05C349.97 248.32 350.451 247.147 351.277 246.367L349.903 244.913C348.569 246.173 347.97 247.94 347.97 250.05H349.97ZM351.297 246.347C352.156 245.488 353.324 245.02 354.91 245.02V243.02C352.896 243.02 351.184 243.632 349.883 244.933L351.297 246.347ZM354.91 245.02C356.637 245.02 357.856 245.5 358.703 246.347L360.117 244.933C358.804 243.62 357.023 243.02 354.91 243.02V245.02ZM358.723 246.367C359.549 247.147 360.03 248.32 360.03 250.05H362.03C362.03 247.94 361.431 246.173 360.097 244.913L358.723 246.367ZM360.03 250.05C360.03 251.564 359.568 252.749 358.684 253.682L360.136 255.058C361.412 253.711 362.03 252.016 362.03 250.05H360.03ZM358.684 253.682C357.834 254.58 356.621 255.08 354.91 255.08V257.08C357.039 257.08 358.826 256.44 360.136 255.058L358.684 253.682ZM354.91 255.08C353.341 255.08 352.179 254.593 351.316 253.682L349.864 255.058C351.161 256.427 352.879 257.08 354.91 257.08V255.08ZM351.316 253.682C350.432 252.749 349.97 251.564 349.97 250.05H347.97C347.97 252.016 348.588 253.711 349.864 255.058L351.316 253.682Z" fill="#D1E0E9" mask="url(#path-69-outside-35_450_2449)"/>
<mask id="path-71-outside-36_450_2449" maskUnits="userSpaceOnUse" x="366" y="229" width="16" height="15" fill="black">
<rect fill="white" x="366" y="229" width="16" height="15"/>
<path d="M367.97 236.05C367.97 234.13 368.51 232.66 369.59 231.64C370.67 230.56 372.11 230.02 373.91 230.02C375.83 230.02 377.33 230.56 378.41 231.64C379.49 232.66 380.03 234.13 380.03 236.05C380.03 237.79 379.49 239.23 378.41 240.37C377.33 241.51 375.83 242.08 373.91 242.08C372.11 242.08 370.67 241.51 369.59 240.37C368.51 239.23 367.97 237.79 367.97 236.05Z"/>
</mask>
<path d="M369.59 231.64L370.277 232.367L370.287 232.357L370.297 232.347L369.59 231.64ZM378.41 231.64L377.703 232.347L377.713 232.357L377.723 232.367L378.41 231.64ZM378.41 240.37L377.684 239.682L378.41 240.37ZM368.97 236.05C368.97 234.32 369.451 233.147 370.277 232.367L368.903 230.913C367.569 232.173 366.97 233.94 366.97 236.05H368.97ZM370.297 232.347C371.156 231.488 372.324 231.02 373.91 231.02V229.02C371.896 229.02 370.184 229.632 368.883 230.933L370.297 232.347ZM373.91 231.02C375.637 231.02 376.856 231.5 377.703 232.347L379.117 230.933C377.804 229.62 376.023 229.02 373.91 229.02V231.02ZM377.723 232.367C378.549 233.147 379.03 234.32 379.03 236.05H381.03C381.03 233.94 380.431 232.173 379.097 230.913L377.723 232.367ZM379.03 236.05C379.03 237.564 378.568 238.749 377.684 239.682L379.136 241.058C380.412 239.711 381.03 238.016 381.03 236.05H379.03ZM377.684 239.682C376.834 240.58 375.621 241.08 373.91 241.08V243.08C376.039 243.08 377.826 242.44 379.136 241.058L377.684 239.682ZM373.91 241.08C372.341 241.08 371.179 240.593 370.316 239.682L368.864 241.058C370.161 242.427 371.879 243.08 373.91 243.08V241.08ZM370.316 239.682C369.432 238.749 368.97 237.564 368.97 236.05H366.97C366.97 238.016 367.588 239.711 368.864 241.058L370.316 239.682Z" fill="#D1E0E9" mask="url(#path-71-outside-36_450_2449)"/>
<mask id="path-73-outside-37_450_2449" maskUnits="userSpaceOnUse" x="354" y="287" width="16" height="15" fill="black">
<rect fill="white" x="354" y="287" width="16" height="15"/>
<path d="M355.97 294.05C355.97 292.13 356.51 290.66 357.59 289.64C358.67 288.56 360.11 288.02 361.91 288.02C363.83 288.02 365.33 288.56 366.41 289.64C367.49 290.66 368.03 292.13 368.03 294.05C368.03 295.79 367.49 297.23 366.41 298.37C365.33 299.51 363.83 300.08 361.91 300.08C360.11 300.08 358.67 299.51 357.59 298.37C356.51 297.23 355.97 295.79 355.97 294.05Z"/>
</mask>
<path d="M357.59 289.64L358.277 290.367L358.287 290.357L358.297 290.347L357.59 289.64ZM366.41 289.64L365.703 290.347L365.713 290.357L365.723 290.367L366.41 289.64ZM366.41 298.37L365.684 297.682L366.41 298.37ZM356.97 294.05C356.97 292.32 357.451 291.147 358.277 290.367L356.903 288.913C355.569 290.173 354.97 291.94 354.97 294.05H356.97ZM358.297 290.347C359.156 289.488 360.324 289.02 361.91 289.02V287.02C359.896 287.02 358.184 287.632 356.883 288.933L358.297 290.347ZM361.91 289.02C363.637 289.02 364.856 289.5 365.703 290.347L367.117 288.933C365.804 287.62 364.023 287.02 361.91 287.02V289.02ZM365.723 290.367C366.549 291.147 367.03 292.32 367.03 294.05H369.03C369.03 291.94 368.431 290.173 367.097 288.913L365.723 290.367ZM367.03 294.05C367.03 295.564 366.568 296.749 365.684 297.682L367.136 299.058C368.412 297.711 369.03 296.016 369.03 294.05H367.03ZM365.684 297.682C364.834 298.58 363.621 299.08 361.91 299.08V301.08C364.039 301.08 365.826 300.44 367.136 299.058L365.684 297.682ZM361.91 299.08C360.341 299.08 359.179 298.593 358.316 297.682L356.864 299.058C358.161 300.427 359.879 301.08 361.91 301.08V299.08ZM358.316 297.682C357.432 296.749 356.97 295.564 356.97 294.05H354.97C354.97 296.016 355.588 297.711 356.864 299.058L358.316 297.682Z" fill="#D1E0E9" mask="url(#path-73-outside-37_450_2449)"/>
<mask id="path-75-outside-38_450_2449" maskUnits="userSpaceOnUse" x="317" y="320" width="16" height="15" fill="black">
<rect fill="white" x="317" y="320" width="16" height="15"/>
<path d="M318.97 327.05C318.97 325.13 319.51 323.66 320.59 322.64C321.67 321.56 323.11 321.02 324.91 321.02C326.83 321.02 328.33 321.56 329.41 322.64C330.49 323.66 331.03 325.13 331.03 327.05C331.03 328.79 330.49 330.23 329.41 331.37C328.33 332.51 326.83 333.08 324.91 333.08C323.11 333.08 321.67 332.51 320.59 331.37C319.51 330.23 318.97 328.79 318.97 327.05Z"/>
</mask>
<path d="M320.59 322.64L321.277 323.367L321.287 323.357L321.297 323.347L320.59 322.64ZM329.41 322.64L328.703 323.347L328.713 323.357L328.723 323.367L329.41 322.64ZM329.41 331.37L328.684 330.682L329.41 331.37ZM319.97 327.05C319.97 325.32 320.451 324.147 321.277 323.367L319.903 321.913C318.569 323.173 317.97 324.94 317.97 327.05H319.97ZM321.297 323.347C322.156 322.488 323.324 322.02 324.91 322.02V320.02C322.896 320.02 321.184 320.632 319.883 321.933L321.297 323.347ZM324.91 322.02C326.637 322.02 327.856 322.5 328.703 323.347L330.117 321.933C328.804 320.62 327.023 320.02 324.91 320.02V322.02ZM328.723 323.367C329.549 324.147 330.03 325.32 330.03 327.05H332.03C332.03 324.94 331.431 323.173 330.097 321.913L328.723 323.367ZM330.03 327.05C330.03 328.564 329.568 329.749 328.684 330.682L330.136 332.058C331.412 330.711 332.03 329.016 332.03 327.05H330.03ZM328.684 330.682C327.834 331.58 326.621 332.08 324.91 332.08V334.08C327.039 334.08 328.826 333.44 330.136 332.058L328.684 330.682ZM324.91 332.08C323.341 332.08 322.179 331.593 321.316 330.682L319.864 332.058C321.161 333.427 322.879 334.08 324.91 334.08V332.08ZM321.316 330.682C320.432 329.749 319.97 328.564 319.97 327.05H317.97C317.97 329.016 318.588 330.711 319.864 332.058L321.316 330.682Z" fill="#D1E0E9" mask="url(#path-75-outside-38_450_2449)"/>
<mask id="path-77-outside-39_450_2449" maskUnits="userSpaceOnUse" x="266" y="299" width="16" height="15" fill="black">
<rect fill="white" x="266" y="299" width="16" height="15"/>
<path d="M267.97 306.05C267.97 304.13 268.51 302.66 269.59 301.64C270.67 300.56 272.11 300.02 273.91 300.02C275.83 300.02 277.33 300.56 278.41 301.64C279.49 302.66 280.03 304.13 280.03 306.05C280.03 307.79 279.49 309.23 278.41 310.37C277.33 311.51 275.83 312.08 273.91 312.08C272.11 312.08 270.67 311.51 269.59 310.37C268.51 309.23 267.97 307.79 267.97 306.05Z"/>
</mask>
<path d="M269.59 301.64L270.277 302.367L270.287 302.357L270.297 302.347L269.59 301.64ZM278.41 301.64L277.703 302.347L277.713 302.357L277.723 302.367L278.41 301.64ZM278.41 310.37L277.684 309.682L278.41 310.37ZM268.97 306.05C268.97 304.32 269.451 303.147 270.277 302.367L268.903 300.913C267.569 302.173 266.97 303.94 266.97 306.05H268.97ZM270.297 302.347C271.156 301.488 272.324 301.02 273.91 301.02V299.02C271.896 299.02 270.184 299.632 268.883 300.933L270.297 302.347ZM273.91 301.02C275.637 301.02 276.856 301.5 277.703 302.347L279.117 300.933C277.804 299.62 276.023 299.02 273.91 299.02V301.02ZM277.723 302.367C278.549 303.147 279.03 304.32 279.03 306.05H281.03C281.03 303.94 280.431 302.173 279.097 300.913L277.723 302.367ZM279.03 306.05C279.03 307.564 278.568 308.749 277.684 309.682L279.136 311.058C280.412 309.711 281.03 308.016 281.03 306.05H279.03ZM277.684 309.682C276.834 310.58 275.621 311.08 273.91 311.08V313.08C276.039 313.08 277.826 312.44 279.136 311.058L277.684 309.682ZM273.91 311.08C272.341 311.08 271.179 310.593 270.316 309.682L268.864 311.058C270.161 312.427 271.879 313.08 273.91 313.08V311.08ZM270.316 309.682C269.432 308.749 268.97 307.564 268.97 306.05H266.97C266.97 308.016 267.588 309.711 268.864 311.058L270.316 309.682Z" fill="#D1E0E9" mask="url(#path-77-outside-39_450_2449)"/>
<mask id="path-79-outside-40_450_2449" maskUnits="userSpaceOnUse" x="247" y="337" width="16" height="15" fill="black">
<rect fill="white" x="247" y="337" width="16" height="15"/>
<path d="M248.97 344.05C248.97 342.13 249.51 340.66 250.59 339.64C251.67 338.56 253.11 338.02 254.91 338.02C256.83 338.02 258.33 338.56 259.41 339.64C260.49 340.66 261.03 342.13 261.03 344.05C261.03 345.79 260.49 347.23 259.41 348.37C258.33 349.51 256.83 350.08 254.91 350.08C253.11 350.08 251.67 349.51 250.59 348.37C249.51 347.23 248.97 345.79 248.97 344.05Z"/>
</mask>
<path d="M250.59 339.64L251.277 340.367L251.287 340.357L251.297 340.347L250.59 339.64ZM259.41 339.64L258.703 340.347L258.713 340.357L258.723 340.367L259.41 339.64ZM259.41 348.37L258.684 347.682L259.41 348.37ZM249.97 344.05C249.97 342.32 250.451 341.147 251.277 340.367L249.903 338.913C248.569 340.173 247.97 341.94 247.97 344.05H249.97ZM251.297 340.347C252.156 339.488 253.324 339.02 254.91 339.02V337.02C252.896 337.02 251.184 337.632 249.883 338.933L251.297 340.347ZM254.91 339.02C256.637 339.02 257.856 339.5 258.703 340.347L260.117 338.933C258.804 337.62 257.023 337.02 254.91 337.02V339.02ZM258.723 340.367C259.549 341.147 260.03 342.32 260.03 344.05H262.03C262.03 341.94 261.431 340.173 260.097 338.913L258.723 340.367ZM260.03 344.05C260.03 345.564 259.568 346.749 258.684 347.682L260.136 349.058C261.412 347.711 262.03 346.016 262.03 344.05H260.03ZM258.684 347.682C257.834 348.58 256.621 349.08 254.91 349.08V351.08C257.039 351.08 258.826 350.44 260.136 349.058L258.684 347.682ZM254.91 349.08C253.341 349.08 252.179 348.593 251.316 347.682L249.864 349.058C251.161 350.427 252.879 351.08 254.91 351.08V349.08ZM251.316 347.682C250.432 346.749 249.97 345.564 249.97 344.05H247.97C247.97 346.016 248.588 347.711 249.864 349.058L251.316 347.682Z" fill="#D1E0E9" mask="url(#path-79-outside-40_450_2449)"/>
<mask id="path-81-outside-41_450_2449" maskUnits="userSpaceOnUse" x="230" y="342" width="16" height="15" fill="black">
<rect fill="white" x="230" y="342" width="16" height="15"/>
<path d="M231.97 349.05C231.97 347.13 232.51 345.66 233.59 344.64C234.67 343.56 236.11 343.02 237.91 343.02C239.83 343.02 241.33 343.56 242.41 344.64C243.49 345.66 244.03 347.13 244.03 349.05C244.03 350.79 243.49 352.23 242.41 353.37C241.33 354.51 239.83 355.08 237.91 355.08C236.11 355.08 234.67 354.51 233.59 353.37C232.51 352.23 231.97 350.79 231.97 349.05Z"/>
</mask>
<path d="M233.59 344.64L234.277 345.367L234.287 345.357L234.297 345.347L233.59 344.64ZM242.41 344.64L241.703 345.347L241.713 345.357L241.723 345.367L242.41 344.64ZM242.41 353.37L241.684 352.682L242.41 353.37ZM232.97 349.05C232.97 347.32 233.451 346.147 234.277 345.367L232.903 343.913C231.569 345.173 230.97 346.94 230.97 349.05H232.97ZM234.297 345.347C235.156 344.488 236.324 344.02 237.91 344.02V342.02C235.896 342.02 234.184 342.632 232.883 343.933L234.297 345.347ZM237.91 344.02C239.637 344.02 240.856 344.5 241.703 345.347L243.117 343.933C241.804 342.62 240.023 342.02 237.91 342.02V344.02ZM241.723 345.367C242.549 346.147 243.03 347.32 243.03 349.05H245.03C245.03 346.94 244.431 345.173 243.097 343.913L241.723 345.367ZM243.03 349.05C243.03 350.564 242.568 351.749 241.684 352.682L243.136 354.058C244.412 352.711 245.03 351.016 245.03 349.05H243.03ZM241.684 352.682C240.834 353.58 239.621 354.08 237.91 354.08V356.08C240.039 356.08 241.826 355.44 243.136 354.058L241.684 352.682ZM237.91 354.08C236.341 354.08 235.179 353.593 234.316 352.682L232.864 354.058C234.161 355.427 235.879 356.08 237.91 356.08V354.08ZM234.316 352.682C233.432 351.749 232.97 350.564 232.97 349.05H230.97C230.97 351.016 231.588 352.711 232.864 354.058L234.316 352.682Z" fill="#D1E0E9" mask="url(#path-81-outside-41_450_2449)"/>
<mask id="path-83-outside-42_450_2449" maskUnits="userSpaceOnUse" x="274" y="357" width="16" height="15" fill="black">
<rect fill="white" x="274" y="357" width="16" height="15"/>
<path d="M275.97 364.05C275.97 362.13 276.51 360.66 277.59 359.64C278.67 358.56 280.11 358.02 281.91 358.02C283.83 358.02 285.33 358.56 286.41 359.64C287.49 360.66 288.03 362.13 288.03 364.05C288.03 365.79 287.49 367.23 286.41 368.37C285.33 369.51 283.83 370.08 281.91 370.08C280.11 370.08 278.67 369.51 277.59 368.37C276.51 367.23 275.97 365.79 275.97 364.05Z"/>
</mask>
<path d="M277.59 359.64L278.277 360.367L278.287 360.357L278.297 360.347L277.59 359.64ZM286.41 359.64L285.703 360.347L285.713 360.357L285.723 360.367L286.41 359.64ZM286.41 368.37L285.684 367.682L286.41 368.37ZM276.97 364.05C276.97 362.32 277.451 361.147 278.277 360.367L276.903 358.913C275.569 360.173 274.97 361.94 274.97 364.05H276.97ZM278.297 360.347C279.156 359.488 280.324 359.02 281.91 359.02V357.02C279.896 357.02 278.184 357.632 276.883 358.933L278.297 360.347ZM281.91 359.02C283.637 359.02 284.856 359.5 285.703 360.347L287.117 358.933C285.804 357.62 284.023 357.02 281.91 357.02V359.02ZM285.723 360.367C286.549 361.147 287.03 362.32 287.03 364.05H289.03C289.03 361.94 288.431 360.173 287.097 358.913L285.723 360.367ZM287.03 364.05C287.03 365.564 286.568 366.749 285.684 367.682L287.136 369.058C288.412 367.711 289.03 366.016 289.03 364.05H287.03ZM285.684 367.682C284.834 368.58 283.621 369.08 281.91 369.08V371.08C284.039 371.08 285.826 370.44 287.136 369.058L285.684 367.682ZM281.91 369.08C280.341 369.08 279.179 368.593 278.316 367.682L276.864 369.058C278.161 370.427 279.879 371.08 281.91 371.08V369.08ZM278.316 367.682C277.432 366.749 276.97 365.564 276.97 364.05H274.97C274.97 366.016 275.588 367.711 276.864 369.058L278.316 367.682Z" fill="#D1E0E9" mask="url(#path-83-outside-42_450_2449)"/>
<mask id="path-85-outside-43_450_2449" maskUnits="userSpaceOnUse" x="317" y="387" width="16" height="15" fill="black">
<rect fill="white" x="317" y="387" width="16" height="15"/>
<path d="M318.97 394.05C318.97 392.13 319.51 390.66 320.59 389.64C321.67 388.56 323.11 388.02 324.91 388.02C326.83 388.02 328.33 388.56 329.41 389.64C330.49 390.66 331.03 392.13 331.03 394.05C331.03 395.79 330.49 397.23 329.41 398.37C328.33 399.51 326.83 400.08 324.91 400.08C323.11 400.08 321.67 399.51 320.59 398.37C319.51 397.23 318.97 395.79 318.97 394.05Z"/>
</mask>
<path d="M320.59 389.64L321.277 390.367L321.287 390.357L321.297 390.347L320.59 389.64ZM329.41 389.64L328.703 390.347L328.713 390.357L328.723 390.367L329.41 389.64ZM329.41 398.37L328.684 397.682L329.41 398.37ZM319.97 394.05C319.97 392.32 320.451 391.147 321.277 390.367L319.903 388.913C318.569 390.173 317.97 391.94 317.97 394.05H319.97ZM321.297 390.347C322.156 389.488 323.324 389.02 324.91 389.02V387.02C322.896 387.02 321.184 387.632 319.883 388.933L321.297 390.347ZM324.91 389.02C326.637 389.02 327.856 389.5 328.703 390.347L330.117 388.933C328.804 387.62 327.023 387.02 324.91 387.02V389.02ZM328.723 390.367C329.549 391.147 330.03 392.32 330.03 394.05H332.03C332.03 391.94 331.431 390.173 330.097 388.913L328.723 390.367ZM330.03 394.05C330.03 395.564 329.568 396.749 328.684 397.682L330.136 399.058C331.412 397.711 332.03 396.016 332.03 394.05H330.03ZM328.684 397.682C327.834 398.58 326.621 399.08 324.91 399.08V401.08C327.039 401.08 328.826 400.44 330.136 399.058L328.684 397.682ZM324.91 399.08C323.341 399.08 322.179 398.593 321.316 397.682L319.864 399.058C321.161 400.427 322.879 401.08 324.91 401.08V399.08ZM321.316 397.682C320.432 396.749 319.97 395.564 319.97 394.05H317.97C317.97 396.016 318.588 397.711 319.864 399.058L321.316 397.682Z" fill="#D1E0E9" mask="url(#path-85-outside-43_450_2449)"/>
<mask id="path-87-outside-44_450_2449" maskUnits="userSpaceOnUse" x="226" y="378" width="16" height="15" fill="black">
<rect fill="white" x="226" y="378" width="16" height="15"/>
<path d="M227.97 385.05C227.97 383.13 228.51 381.66 229.59 380.64C230.67 379.56 232.11 379.02 233.91 379.02C235.83 379.02 237.33 379.56 238.41 380.64C239.49 381.66 240.03 383.13 240.03 385.05C240.03 386.79 239.49 388.23 238.41 389.37C237.33 390.51 235.83 391.08 233.91 391.08C232.11 391.08 230.67 390.51 229.59 389.37C228.51 388.23 227.97 386.79 227.97 385.05Z"/>
</mask>
<path d="M229.59 380.64L230.277 381.367L230.287 381.357L230.297 381.347L229.59 380.64ZM238.41 380.64L237.703 381.347L237.713 381.357L237.723 381.367L238.41 380.64ZM238.41 389.37L237.684 388.682L238.41 389.37ZM228.97 385.05C228.97 383.32 229.451 382.147 230.277 381.367L228.903 379.913C227.569 381.173 226.97 382.94 226.97 385.05H228.97ZM230.297 381.347C231.156 380.488 232.324 380.02 233.91 380.02V378.02C231.896 378.02 230.184 378.632 228.883 379.933L230.297 381.347ZM233.91 380.02C235.637 380.02 236.856 380.5 237.703 381.347L239.117 379.933C237.804 378.62 236.023 378.02 233.91 378.02V380.02ZM237.723 381.367C238.549 382.147 239.03 383.32 239.03 385.05H241.03C241.03 382.94 240.431 381.173 239.097 379.913L237.723 381.367ZM239.03 385.05C239.03 386.564 238.568 387.749 237.684 388.682L239.136 390.058C240.412 388.711 241.03 387.016 241.03 385.05H239.03ZM237.684 388.682C236.834 389.58 235.621 390.08 233.91 390.08V392.08C236.039 392.08 237.826 391.44 239.136 390.058L237.684 388.682ZM233.91 390.08C232.341 390.08 231.179 389.593 230.316 388.682L228.864 390.058C230.161 391.427 231.879 392.08 233.91 392.08V390.08ZM230.316 388.682C229.432 387.749 228.97 386.564 228.97 385.05H226.97C226.97 387.016 227.588 388.711 228.864 390.058L230.316 388.682Z" fill="#D1E0E9" mask="url(#path-87-outside-44_450_2449)"/>
<mask id="path-89-outside-45_450_2449" maskUnits="userSpaceOnUse" x="260" y="370" width="16" height="15" fill="black">
<rect fill="white" x="260" y="370" width="16" height="15"/>
<path d="M261.97 377.05C261.97 375.13 262.51 373.66 263.59 372.64C264.67 371.56 266.11 371.02 267.91 371.02C269.83 371.02 271.33 371.56 272.41 372.64C273.49 373.66 274.03 375.13 274.03 377.05C274.03 378.79 273.49 380.23 272.41 381.37C271.33 382.51 269.83 383.08 267.91 383.08C266.11 383.08 264.67 382.51 263.59 381.37C262.51 380.23 261.97 378.79 261.97 377.05Z"/>
</mask>
<path d="M263.59 372.64L264.277 373.367L264.287 373.357L264.297 373.347L263.59 372.64ZM272.41 372.64L271.703 373.347L271.713 373.357L271.723 373.367L272.41 372.64ZM272.41 381.37L271.684 380.682L272.41 381.37ZM262.97 377.05C262.97 375.32 263.451 374.147 264.277 373.367L262.903 371.913C261.569 373.173 260.97 374.94 260.97 377.05H262.97ZM264.297 373.347C265.156 372.488 266.324 372.02 267.91 372.02V370.02C265.896 370.02 264.184 370.632 262.883 371.933L264.297 373.347ZM267.91 372.02C269.637 372.02 270.856 372.5 271.703 373.347L273.117 371.933C271.804 370.62 270.023 370.02 267.91 370.02V372.02ZM271.723 373.367C272.549 374.147 273.03 375.32 273.03 377.05H275.03C275.03 374.94 274.431 373.173 273.097 371.913L271.723 373.367ZM273.03 377.05C273.03 378.564 272.568 379.749 271.684 380.682L273.136 382.058C274.412 380.711 275.03 379.016 275.03 377.05H273.03ZM271.684 380.682C270.834 381.58 269.621 382.08 267.91 382.08V384.08C270.039 384.08 271.826 383.44 273.136 382.058L271.684 380.682ZM267.91 382.08C266.341 382.08 265.179 381.593 264.316 380.682L262.864 382.058C264.161 383.427 265.879 384.08 267.91 384.08V382.08ZM264.316 380.682C263.432 379.749 262.97 378.564 262.97 377.05H260.97C260.97 379.016 261.588 380.711 262.864 382.058L264.316 380.682Z" fill="#D1E0E9" mask="url(#path-89-outside-45_450_2449)"/>
<mask id="path-91-outside-46_450_2449" maskUnits="userSpaceOnUse" x="199" y="370" width="16" height="15" fill="black">
<rect fill="white" x="199" y="370" width="16" height="15"/>
<path d="M200.97 377.05C200.97 375.13 201.51 373.66 202.59 372.64C203.67 371.56 205.11 371.02 206.91 371.02C208.83 371.02 210.33 371.56 211.41 372.64C212.49 373.66 213.03 375.13 213.03 377.05C213.03 378.79 212.49 380.23 211.41 381.37C210.33 382.51 208.83 383.08 206.91 383.08C205.11 383.08 203.67 382.51 202.59 381.37C201.51 380.23 200.97 378.79 200.97 377.05Z"/>
</mask>
<path d="M202.59 372.64L203.277 373.367L203.287 373.357L203.297 373.347L202.59 372.64ZM211.41 372.64L210.703 373.347L210.713 373.357L210.723 373.367L211.41 372.64ZM211.41 381.37L210.684 380.682L211.41 381.37ZM201.97 377.05C201.97 375.32 202.451 374.147 203.277 373.367L201.903 371.913C200.569 373.173 199.97 374.94 199.97 377.05H201.97ZM203.297 373.347C204.156 372.488 205.324 372.02 206.91 372.02V370.02C204.896 370.02 203.184 370.632 201.883 371.933L203.297 373.347ZM206.91 372.02C208.637 372.02 209.856 372.5 210.703 373.347L212.117 371.933C210.804 370.62 209.023 370.02 206.91 370.02V372.02ZM210.723 373.367C211.549 374.147 212.03 375.32 212.03 377.05H214.03C214.03 374.94 213.431 373.173 212.097 371.913L210.723 373.367ZM212.03 377.05C212.03 378.564 211.568 379.749 210.684 380.682L212.136 382.058C213.412 380.711 214.03 379.016 214.03 377.05H212.03ZM210.684 380.682C209.834 381.58 208.621 382.08 206.91 382.08V384.08C209.039 384.08 210.826 383.44 212.136 382.058L210.684 380.682ZM206.91 382.08C205.341 382.08 204.179 381.593 203.316 380.682L201.864 382.058C203.161 383.427 204.879 384.08 206.91 384.08V382.08ZM203.316 380.682C202.432 379.749 201.97 378.564 201.97 377.05H199.97C199.97 379.016 200.588 380.711 201.864 382.058L203.316 380.682Z" fill="#D1E0E9" mask="url(#path-91-outside-46_450_2449)"/>
<mask id="path-93-outside-47_450_2449" maskUnits="userSpaceOnUse" x="176" y="417" width="16" height="15" fill="black">
<rect fill="white" x="176" y="417" width="16" height="15"/>
<path d="M177.97 424.05C177.97 422.13 178.51 420.66 179.59 419.64C180.67 418.56 182.11 418.02 183.91 418.02C185.83 418.02 187.33 418.56 188.41 419.64C189.49 420.66 190.03 422.13 190.03 424.05C190.03 425.79 189.49 427.23 188.41 428.37C187.33 429.51 185.83 430.08 183.91 430.08C182.11 430.08 180.67 429.51 179.59 428.37C178.51 427.23 177.97 425.79 177.97 424.05Z"/>
</mask>
<path d="M179.59 419.64L180.277 420.367L180.287 420.357L180.297 420.347L179.59 419.64ZM188.41 419.64L187.703 420.347L187.713 420.357L187.723 420.367L188.41 419.64ZM188.41 428.37L187.684 427.682L188.41 428.37ZM178.97 424.05C178.97 422.32 179.451 421.147 180.277 420.367L178.903 418.913C177.569 420.173 176.97 421.94 176.97 424.05H178.97ZM180.297 420.347C181.156 419.488 182.324 419.02 183.91 419.02V417.02C181.896 417.02 180.184 417.632 178.883 418.933L180.297 420.347ZM183.91 419.02C185.637 419.02 186.856 419.5 187.703 420.347L189.117 418.933C187.804 417.62 186.023 417.02 183.91 417.02V419.02ZM187.723 420.367C188.549 421.147 189.03 422.32 189.03 424.05H191.03C191.03 421.94 190.431 420.173 189.097 418.913L187.723 420.367ZM189.03 424.05C189.03 425.564 188.568 426.749 187.684 427.682L189.136 429.058C190.412 427.711 191.03 426.016 191.03 424.05H189.03ZM187.684 427.682C186.834 428.58 185.621 429.08 183.91 429.08V431.08C186.039 431.08 187.826 430.44 189.136 429.058L187.684 427.682ZM183.91 429.08C182.341 429.08 181.179 428.593 180.316 427.682L178.864 429.058C180.161 430.427 181.879 431.08 183.91 431.08V429.08ZM180.316 427.682C179.432 426.749 178.97 425.564 178.97 424.05H176.97C176.97 426.016 177.588 427.711 178.864 429.058L180.316 427.682Z" fill="#D1E0E9" mask="url(#path-93-outside-47_450_2449)"/>
<mask id="path-95-outside-48_450_2449" maskUnits="userSpaceOnUse" x="272" y="424" width="16" height="15" fill="black">
<rect fill="white" x="272" y="424" width="16" height="15"/>
<path d="M273.97 431.05C273.97 429.13 274.51 427.66 275.59 426.64C276.67 425.56 278.11 425.02 279.91 425.02C281.83 425.02 283.33 425.56 284.41 426.64C285.49 427.66 286.03 429.13 286.03 431.05C286.03 432.79 285.49 434.23 284.41 435.37C283.33 436.51 281.83 437.08 279.91 437.08C278.11 437.08 276.67 436.51 275.59 435.37C274.51 434.23 273.97 432.79 273.97 431.05Z"/>
</mask>
<path d="M275.59 426.64L276.277 427.367L276.287 427.357L276.297 427.347L275.59 426.64ZM284.41 426.64L283.703 427.347L283.713 427.357L283.723 427.367L284.41 426.64ZM284.41 435.37L283.684 434.682L284.41 435.37ZM274.97 431.05C274.97 429.32 275.451 428.147 276.277 427.367L274.903 425.913C273.569 427.173 272.97 428.94 272.97 431.05H274.97ZM276.297 427.347C277.156 426.488 278.324 426.02 279.91 426.02V424.02C277.896 424.02 276.184 424.632 274.883 425.933L276.297 427.347ZM279.91 426.02C281.637 426.02 282.856 426.5 283.703 427.347L285.117 425.933C283.804 424.62 282.023 424.02 279.91 424.02V426.02ZM283.723 427.367C284.549 428.147 285.03 429.32 285.03 431.05H287.03C287.03 428.94 286.431 427.173 285.097 425.913L283.723 427.367ZM285.03 431.05C285.03 432.564 284.568 433.749 283.684 434.682L285.136 436.058C286.412 434.711 287.03 433.016 287.03 431.05H285.03ZM283.684 434.682C282.834 435.58 281.621 436.08 279.91 436.08V438.08C282.039 438.08 283.826 437.44 285.136 436.058L283.684 434.682ZM279.91 436.08C278.341 436.08 277.179 435.593 276.316 434.682L274.864 436.058C276.161 437.427 277.879 438.08 279.91 438.08V436.08ZM276.316 434.682C275.432 433.749 274.97 432.564 274.97 431.05H272.97C272.97 433.016 273.588 434.711 274.864 436.058L276.316 434.682Z" fill="#D1E0E9" mask="url(#path-95-outside-48_450_2449)"/>
<mask id="path-97-outside-49_450_2449" maskUnits="userSpaceOnUse" x="228" y="408" width="16" height="15" fill="black">
<rect fill="white" x="228" y="408" width="16" height="15"/>
<path d="M229.97 415.05C229.97 413.13 230.51 411.66 231.59 410.64C232.67 409.56 234.11 409.02 235.91 409.02C237.83 409.02 239.33 409.56 240.41 410.64C241.49 411.66 242.03 413.13 242.03 415.05C242.03 416.79 241.49 418.23 240.41 419.37C239.33 420.51 237.83 421.08 235.91 421.08C234.11 421.08 232.67 420.51 231.59 419.37C230.51 418.23 229.97 416.79 229.97 415.05Z"/>
</mask>
<path d="M231.59 410.64L232.277 411.367L232.287 411.357L232.297 411.347L231.59 410.64ZM240.41 410.64L239.703 411.347L239.713 411.357L239.723 411.367L240.41 410.64ZM240.41 419.37L239.684 418.682L240.41 419.37ZM230.97 415.05C230.97 413.32 231.451 412.147 232.277 411.367L230.903 409.913C229.569 411.173 228.97 412.94 228.97 415.05H230.97ZM232.297 411.347C233.156 410.488 234.324 410.02 235.91 410.02V408.02C233.896 408.02 232.184 408.632 230.883 409.933L232.297 411.347ZM235.91 410.02C237.637 410.02 238.856 410.5 239.703 411.347L241.117 409.933C239.804 408.62 238.023 408.02 235.91 408.02V410.02ZM239.723 411.367C240.549 412.147 241.03 413.32 241.03 415.05H243.03C243.03 412.94 242.431 411.173 241.097 409.913L239.723 411.367ZM241.03 415.05C241.03 416.564 240.568 417.749 239.684 418.682L241.136 420.058C242.412 418.711 243.03 417.016 243.03 415.05H241.03ZM239.684 418.682C238.834 419.58 237.621 420.08 235.91 420.08V422.08C238.039 422.08 239.826 421.44 241.136 420.058L239.684 418.682ZM235.91 420.08C234.341 420.08 233.179 419.593 232.316 418.682L230.864 420.058C232.161 421.427 233.879 422.08 235.91 422.08V420.08ZM232.316 418.682C231.432 417.749 230.97 416.564 230.97 415.05H228.97C228.97 417.016 229.588 418.711 230.864 420.058L232.316 418.682Z" fill="#D1E0E9" mask="url(#path-97-outside-49_450_2449)"/>
<mask id="path-99-outside-50_450_2449" maskUnits="userSpaceOnUse" x="228" y="445" width="16" height="15" fill="black">
<rect fill="white" x="228" y="445" width="16" height="15"/>
<path d="M229.97 452.05C229.97 450.13 230.51 448.66 231.59 447.64C232.67 446.56 234.11 446.02 235.91 446.02C237.83 446.02 239.33 446.56 240.41 447.64C241.49 448.66 242.03 450.13 242.03 452.05C242.03 453.79 241.49 455.23 240.41 456.37C239.33 457.51 237.83 458.08 235.91 458.08C234.11 458.08 232.67 457.51 231.59 456.37C230.51 455.23 229.97 453.79 229.97 452.05Z"/>
</mask>
<path d="M231.59 447.64L232.277 448.367L232.287 448.357L232.297 448.347L231.59 447.64ZM240.41 447.64L239.703 448.347L239.713 448.357L239.723 448.367L240.41 447.64ZM240.41 456.37L239.684 455.682L240.41 456.37ZM230.97 452.05C230.97 450.32 231.451 449.147 232.277 448.367L230.903 446.913C229.569 448.173 228.97 449.94 228.97 452.05H230.97ZM232.297 448.347C233.156 447.488 234.324 447.02 235.91 447.02V445.02C233.896 445.02 232.184 445.632 230.883 446.933L232.297 448.347ZM235.91 447.02C237.637 447.02 238.856 447.5 239.703 448.347L241.117 446.933C239.804 445.62 238.023 445.02 235.91 445.02V447.02ZM239.723 448.367C240.549 449.147 241.03 450.32 241.03 452.05H243.03C243.03 449.94 242.431 448.173 241.097 446.913L239.723 448.367ZM241.03 452.05C241.03 453.564 240.568 454.749 239.684 455.682L241.136 457.058C242.412 455.711 243.03 454.016 243.03 452.05H241.03ZM239.684 455.682C238.834 456.58 237.621 457.08 235.91 457.08V459.08C238.039 459.08 239.826 458.44 241.136 457.058L239.684 455.682ZM235.91 457.08C234.341 457.08 233.179 456.593 232.316 455.682L230.864 457.058C232.161 458.427 233.879 459.08 235.91 459.08V457.08ZM232.316 455.682C231.432 454.749 230.97 453.564 230.97 452.05H228.97C228.97 454.016 229.588 455.711 230.864 457.058L232.316 455.682Z" fill="#D1E0E9" mask="url(#path-99-outside-50_450_2449)"/>
</svg>
