<svg width="243" height="337" viewBox="0 0 243 337" fill="none" xmlns="http://www.w3.org/2000/svg">
<path d="M37.1777 292.641C37.1777 292.641 56.1102 284.435 65.931 276.393C74.0879 269.713 83.834 256.698 83.834 256.698" stroke="#E502A1" stroke-width="5" stroke-linecap="round"/>
<path d="M7.33984 244.389C7.33984 244.389 22.0492 240.037 29.583 234.542C36.9852 229.144 44.7734 217.31 44.7734 217.31" stroke="#E502A1" stroke-width="5" stroke-linecap="round"/>
<path d="M4.08398 226.172C4.08398 226.172 18.5803 222.936 25.2421 217.31C32.1118 211.507 36.6349 198.107 36.6349 198.107" stroke="#E502A1" stroke-width="5" stroke-linecap="round"/>
<path d="M25.7871 276.886C25.7871 276.886 44.0149 271.671 52.9129 264.577C61.2584 257.923 69.1883 243.405 69.1883 243.405" stroke="#E502A1" stroke-width="5" stroke-linecap="round"/>
<path d="M14.9355 260.145C14.9355 260.145 31.3774 254.992 39.8912 248.821C47.5224 243.289 56.1667 231.588 56.1667 231.588" stroke="#E502A1" stroke-width="5" stroke-linecap="round"/>
<path d="M202.645 116.868C202.645 116.868 198.289 134.483 205.9 140.994C214.071 147.984 234.653 140.994 234.653 140.994" stroke="#E502A1" stroke-width="5" stroke-linecap="round"/>
<path d="M227.602 119.33L230.314 107.021" stroke="#E502A1" stroke-width="5" stroke-linecap="round"/>
<path d="M185.281 138.531C185.281 138.531 189.898 145.114 193.961 148.378C198.723 152.204 201.893 154.378 208.067 155.764C213.414 156.964 216.71 156.408 222.172 155.764C227.829 155.097 236.278 152.317 236.278 152.317" stroke="#E502A1" stroke-width="5" stroke-linecap="round"/>
<path d="M40.9766 40.0601C40.9766 40.0601 64.8472 15.442 88.1754 8.54893C111.504 1.65586 146.224 3.13295 146.224 3.13295" stroke="#E502A1" stroke-width="5" stroke-linecap="round"/>
<path d="M7.3404 193.184C7.3404 193.184 6.90046 156.53 13.308 134.101C16.9242 121.443 19.3017 114.267 25.7857 102.59C32.4495 90.5888 37.5141 84.3948 46.9436 74.033C59.6407 60.0807 67.1871 51.6908 84.3768 42.5219C99.8582 34.2641 109.888 30.1436 127.778 28.7358C140.925 27.7011 148.982 27.6709 161.413 31.6899C174.478 35.9135 181.491 40.5035 190.709 49.9073C200.911 60.3153 203.26 68.2826 206.442 81.9108C209.12 93.3851 206.442 111.945 206.442 111.945" stroke="#E502A1" stroke-width="5" stroke-linecap="round"/>
<path d="M48.029 306.427C48.029 306.427 70.0761 297.228 81.1225 287.717C86.7908 282.837 89.9884 279.937 94.1428 273.931C97.9747 268.392 102.165 265.197 101.738 258.668C101.161 249.837 92.1793 247.832 84.9201 241.928C77.6934 236.05 71.7232 234.848 64.847 228.634C52.6131 217.577 47.6701 208.798 43.1464 193.676C38.317 177.532 43.1464 150.841 43.1464 150.841" stroke="#E502A1" stroke-width="5" stroke-linecap="round"/>
<path d="M4.08398 212.387C4.08398 212.387 16.2904 206.49 20.9018 200.077C26.6705 192.056 24.8253 185.491 25.7844 175.952C26.7469 166.378 24.6852 160.896 25.7844 151.334C26.9313 141.356 27.5147 135.453 31.752 126.223C35.9893 116.994 38.3649 111.819 42.6022 102.59C46.8395 93.3605 55.4122 86.7002 64.8451 77.4795C74.1259 68.4076 78.7842 62.3881 90.3431 55.8156C100.08 50.2794 106.261 47.7721 117.469 45.476C127.82 43.3553 134.073 42.7391 144.594 43.999C152.903 44.994 157.933 45.6407 165.209 49.4149C172.238 53.0604 180.4 62.2163 180.4 62.2163" stroke="#E502A1" stroke-width="5" stroke-linecap="round"/>
<path d="M230.854 229.127V240.944" stroke="#E502A1" stroke-width="5" stroke-linecap="round"/>
<path d="M131.572 168.074C131.572 168.074 168.373 150.974 181.484 131.64C189.178 120.293 193.817 112.944 194.504 99.6361C195.158 86.9654 185.824 68.125 185.824 68.125" stroke="#E502A1" stroke-width="5" stroke-linecap="round"/>
<path d="M217.289 232.08C217.289 232.08 222.714 243.234 222.714 250.79C222.714 258.345 217.289 269.5 217.289 269.5" stroke="#E502A1" stroke-width="5" stroke-linecap="round"/>
<path d="M134.286 334C134.286 334 144.733 323.88 150.561 316.767C156.419 309.62 159.7 305.517 164.124 297.565C168.718 289.309 171.309 284.472 173.347 275.409C175.382 266.358 175.208 260.986 174.432 251.776C173.522 240.983 172.765 234.587 167.922 224.696C162.278 213.168 156.378 207.704 146.221 199.093C139.812 193.659 135.046 191.891 128.318 186.784C124.634 183.987 121.407 183.22 119.096 179.399C117.116 176.126 117.174 173.77 116.926 170.044C116.576 164.805 116.817 161.573 119.096 156.75C121.876 150.865 126.03 148.958 131.031 144.441C141.543 134.947 151.341 133.642 161.411 123.762C167.166 118.116 171.97 115.366 174.432 108.006C176.524 101.751 175.688 97.7033 174.432 91.266C173.38 85.8775 172.412 82.7884 169.549 77.9722C166.123 72.2088 163.579 68.8554 157.614 65.1709C151.355 61.3049 146.734 60.0159 139.169 59.7549C130.59 59.4589 125.916 62.1315 118.011 65.1709C108.374 68.8759 103.444 72.0929 95.2253 77.9722C87.8119 83.2751 84.243 86.9203 77.8649 93.2354C69.5029 101.515 64.4721 106.131 58.3346 115.884C52.7736 124.721 47.4844 140.01 47.4844 140.01" stroke="#E502A1" stroke-width="5" stroke-linecap="round"/>
<path d="M108.246 330.06C108.246 330.06 127.2 316.155 136.457 304.95C145.951 293.457 155.445 272.454 155.445 272.454" stroke="#E502A1" stroke-width="5" stroke-linecap="round"/>
<path d="M155.987 264.084C155.987 264.084 156.738 251.612 154.902 243.898C153.074 236.219 151.344 231.853 146.764 225.188C140.421 215.955 134.286 212.386 124.521 205.986C114.562 199.458 107.199 196.014 102.278 185.799C98.1819 177.297 98.2807 171.371 99.5651 162.166C100.905 152.565 103.678 147.23 109.33 139.025C117.12 127.717 124.291 122.578 136.999 115.884C142.424 113.026 145.376 113.659 149.477 110.468C153.403 107.412 155.7 105.146 157.072 100.62C159.171 93.6936 157.221 87.9958 151.647 82.8954C146.598 78.2762 141.411 76.761 134.286 77.4794C124.521 78.464 119.096 82.8954 111.5 87.819C103.553 92.9709 100.108 96.189 92.5124 102.59C85.3087 108.661 81.257 112.644 76.237 120.315C71.5899 127.416 68.9073 132.051 66.4717 140.009C63.7591 148.872 62.9215 153.939 62.1316 163.15C61.3081 172.752 61.4854 178.361 63.7591 187.768C65.5394 195.134 67.0374 199.268 70.8118 205.986C74.6832 212.876 77.6685 216.42 83.2897 222.234C89.1273 228.271 93.4123 230.767 100.108 236.02C104.089 239.143 106.848 240.386 110.415 243.898C113.288 246.725 115.136 248.29 116.926 251.775C120.594 258.921 120.454 264.758 116.926 271.962C114.756 276.393 113.44 278.655 110.415 282.302C106.992 286.43 102.6 289.568 98.4801 293.134C85.4035 304.448 64.3017 318.244 64.3017 318.244" stroke="#E502A1" stroke-width="5" stroke-linecap="round"/>
<path d="M141.339 93.2354C141.339 93.2354 123.036 103.207 113.129 110.468C103.221 117.729 97.9383 121.792 90.343 131.64C83.1819 140.924 79.5172 148.383 78.9502 159.704C78.4077 170.536 79.0889 176.594 82.2053 186.784C84.464 194.169 86.9654 198.788 92.5131 205.001C98.8889 212.143 104.991 214.849 113.129 220.265C120.634 225.26 123.979 227.65 130.489 234.051C135.889 239.36 138.307 243.187 139.712 250.299C141.532 259.508 139.95 265.129 136.457 273.932C132.69 283.426 127.843 288.445 121.266 296.581C108.945 311.822 82.2053 329.569 82.2053 329.569" stroke="#E502A1" stroke-width="5" stroke-linecap="round"/>
<path d="M170.092 320.213C170.092 320.213 185.779 295.142 189.622 277.377C193.378 260.019 189.622 232.08 189.622 232.08" stroke="#E502A1" stroke-width="5" stroke-linecap="round"/>
<path d="M201.557 291.164C201.557 291.164 207.474 273.071 208.067 261.13C208.642 249.547 204.812 231.588 204.812 231.588" stroke="#E502A1" stroke-width="5" stroke-linecap="round"/>
<path d="M3 124.253C3 124.253 14.538 86.6163 30.6683 67.1395C45.925 48.7175 80.0371 28.7354 80.0371 28.7354" stroke="#E502A1" stroke-width="5" stroke-linecap="round"/>
<path d="M89.8008 24.7971C89.8008 24.7971 106.017 18.8844 116.927 16.9193C129.216 14.7057 136.549 13.2366 148.935 14.9498C160.8 16.591 167.375 19.2267 177.688 24.7971C187.76 30.2365 200.474 42.5221 200.474 42.5221" stroke="#E502A1" stroke-width="5" stroke-linecap="round"/>
<path d="M210.238 53.8467C210.238 53.8467 219.833 73.4332 221.631 86.8349C223.767 102.75 211.866 119.331 217.291 127.701C220.85 133.193 236.822 129.178 236.822 129.178" stroke="#E502A1" stroke-width="5" stroke-linecap="round"/>
<path d="M173.348 214.849C173.348 214.849 190.772 222.013 202.643 222.234C214.615 222.457 232.482 215.833 232.482 215.833" stroke="#E502A1" stroke-width="5" stroke-linecap="round"/>
<path d="M139.17 172.505C139.17 172.505 149.119 184.496 157.073 190.722C164.948 196.888 169.573 200.713 179.316 204.016C189.902 207.604 196.774 207.279 208.069 206.97C219.245 206.665 236.28 202.539 236.28 202.539" stroke="#E502A1" stroke-width="5" stroke-linecap="round"/>
<path d="M201.016 187.769C201.016 187.769 212.627 188.454 220.004 187.769C227.32 187.09 238.449 184.322 238.449 184.322" stroke="#E502A1" stroke-width="5" stroke-linecap="round"/>
<path d="M156.527 164.627C156.527 164.627 164.591 175.128 171.718 179.89C179.201 184.891 193.418 188.753 193.418 188.753" stroke="#E502A1" stroke-width="5" stroke-linecap="round"/>
<path d="M172.264 151.333C172.264 151.333 176.558 159.287 180.944 163.15C186.187 167.767 190.193 169.705 197.219 171.52C205.37 173.625 210.524 172.567 218.92 171.52C227.425 170.459 240.078 166.104 240.078 166.104" stroke="#E502A1" stroke-width="5" stroke-linecap="round"/>
</svg>
