<svg width="219" height="312" viewBox="0 0 219 312" fill="none" xmlns="http://www.w3.org/2000/svg">
<path d="M33.707 270.765C33.707 270.765 50.7166 263.179 59.5398 255.744C66.8682 249.569 75.6244 237.537 75.6244 237.537" stroke="#E502A1" stroke-width="5" stroke-linecap="round"/>
<path d="M6.89844 226.158C6.89844 226.158 20.1138 222.134 26.8823 217.054C33.5328 212.063 40.5298 201.123 40.5298 201.123" stroke="#E502A1" stroke-width="5" stroke-linecap="round"/>
<path d="M3.97461 209.316C3.97461 209.316 16.9986 206.325 22.9837 201.123C29.1556 195.759 33.2193 183.371 33.2193 183.371" stroke="#E502A1" stroke-width="5" stroke-linecap="round"/>
<path d="M23.4727 256.2C23.4727 256.2 39.849 251.379 47.8432 244.821C55.3411 238.67 62.4656 225.248 62.4656 225.248" stroke="#E502A1" stroke-width="5" stroke-linecap="round"/>
<path d="M13.7227 240.723C13.7227 240.723 28.4945 235.96 36.1436 230.254C42.9997 225.141 50.7659 214.323 50.7659 214.323" stroke="#E502A1" stroke-width="5" stroke-linecap="round"/>
<path d="M182.367 108.268C182.367 108.268 178.453 124.552 185.291 130.571C192.632 137.033 211.124 130.571 211.124 130.571" stroke="#E502A1" stroke-width="5" stroke-linecap="round"/>
<path d="M204.789 110.543L207.226 99.1641" stroke="#E502A1" stroke-width="5" stroke-linecap="round"/>
<path d="M166.768 128.295C166.768 128.295 170.916 134.381 174.566 137.398C178.844 140.935 181.692 142.945 187.239 144.226C192.043 145.336 195.004 144.821 199.912 144.226C204.994 143.609 212.584 141.04 212.584 141.04" stroke="#E502A1" stroke-width="5" stroke-linecap="round"/>
<path d="M37.1191 37.261C37.1191 37.261 58.5653 14.5023 79.5239 8.12982C100.483 1.75738 131.677 3.12291 131.677 3.12291" stroke="#E502A1" stroke-width="5" stroke-linecap="round"/>
<path d="M6.90029 178.82C6.90029 178.82 6.50504 144.934 12.2618 124.199C15.5107 112.497 17.6467 105.864 23.4721 95.0681C29.4591 83.9733 34.0092 78.2472 42.481 68.668C53.8884 55.7695 60.6683 48.0133 76.1121 39.5369C90.021 31.9028 99.0317 28.0935 115.105 26.792C126.917 25.8355 134.155 25.8076 145.324 29.523C157.061 33.4276 163.362 37.6709 171.644 46.3645C180.81 55.9864 182.921 63.3519 185.779 75.9508C188.185 86.5585 185.779 103.716 185.779 103.716" stroke="#E502A1" stroke-width="5" stroke-linecap="round"/>
<path d="M43.4557 283.51C43.4557 283.51 63.2634 275.005 73.1878 266.213C78.2804 261.701 81.1533 259.02 84.8857 253.468C88.3284 248.348 92.093 245.394 91.7095 239.358C91.1907 231.194 83.1217 229.341 76.5997 223.882C70.1071 218.448 64.7433 217.337 58.5655 211.592C47.5742 201.371 43.1332 193.255 39.069 179.275C34.7301 164.35 39.069 139.675 39.069 139.675" stroke="#E502A1" stroke-width="5" stroke-linecap="round"/>
<path d="M3.97461 196.572C3.97461 196.572 14.9412 191.12 19.0842 185.192C24.267 177.776 22.6092 171.708 23.4709 162.889C24.3357 154.038 22.4834 148.97 23.4709 140.13C24.5013 130.906 25.0255 125.448 28.8324 116.916C32.6393 108.384 34.7736 103.6 38.5805 95.0677C42.3874 86.5354 50.0894 80.3781 58.5642 71.8539C66.9024 63.4671 71.0875 57.9023 81.4723 51.8262C90.2199 46.7081 95.7735 44.3902 105.843 42.2676C115.143 40.307 120.761 39.7374 130.213 40.9021C137.678 41.8219 142.197 42.4198 148.735 45.909C155.049 49.2791 162.382 57.7435 162.382 57.7435" stroke="#E502A1" stroke-width="5" stroke-linecap="round"/>
<path d="M207.711 212.048V222.972" stroke="#E502A1" stroke-width="5" stroke-linecap="round"/>
<path d="M118.514 155.606C118.514 155.606 151.577 139.797 163.356 121.923C170.268 111.434 174.437 104.64 175.053 92.3372C175.641 80.6235 167.255 63.2061 167.255 63.2061" stroke="#E502A1" stroke-width="5" stroke-linecap="round"/>
<path d="M195.523 214.778C195.523 214.778 200.398 225.09 200.398 232.075C200.398 239.06 195.523 249.372 195.523 249.372" stroke="#E502A1" stroke-width="5" stroke-linecap="round"/>
<path d="M120.952 309C120.952 309 130.338 299.644 135.574 293.069C140.837 286.461 143.785 282.668 147.759 275.317C151.886 267.684 154.214 263.212 156.045 254.834C157.874 246.467 157.718 241.501 157.02 232.986C156.202 223.008 155.522 217.096 151.171 207.951C146.1 197.294 140.8 192.243 131.675 184.282C125.916 179.259 121.635 177.624 115.59 172.903C112.28 170.317 109.381 169.608 107.305 166.075C105.526 163.05 105.578 160.872 105.355 157.427C105.041 152.584 105.257 149.596 107.305 145.137C109.803 139.697 113.534 137.933 118.027 133.758C127.472 124.981 136.275 123.775 145.322 114.641C150.492 109.421 154.808 106.879 157.02 100.075C158.9 94.292 158.149 90.5503 157.02 84.5992C156.075 79.6176 155.206 76.7618 152.633 72.3095C149.555 66.9813 147.27 63.8812 141.91 60.4749C136.287 56.901 132.136 55.7093 125.339 55.468C117.631 55.1944 113.432 57.6651 106.33 60.4749C97.6723 63.9002 93.243 66.8742 85.8586 72.3095C79.1982 77.2118 75.9918 80.5816 70.2616 86.4199C62.7489 94.0741 58.2291 98.3416 52.7149 107.358C47.7188 115.527 42.9668 129.661 42.9668 129.661" stroke="#E502A1" stroke-width="5" stroke-linecap="round"/>
<path d="M97.5566 305.358C97.5566 305.358 114.586 292.503 122.902 282.144C131.432 271.519 139.961 252.103 139.961 252.103" stroke="#E502A1" stroke-width="5" stroke-linecap="round"/>
<path d="M140.447 244.365C140.447 244.365 141.122 232.835 139.472 225.703C137.83 218.605 136.276 214.569 132.161 208.406C126.462 199.871 120.951 196.572 112.177 190.655C103.23 184.62 96.6145 181.436 92.1934 171.993C88.5137 164.132 88.6024 158.655 89.7564 150.144C90.9598 141.269 93.4514 136.337 98.5298 128.751C105.528 118.298 111.971 113.547 123.388 107.358C128.262 104.716 130.914 105.301 134.598 102.351C138.126 99.5263 140.189 97.4316 141.422 93.2475C143.308 86.8438 141.556 81.5764 136.548 76.8612C132.012 72.5909 127.352 71.1901 120.951 71.8543C112.177 72.7645 107.303 76.8612 100.479 81.4129C93.3393 86.1757 90.2437 89.1508 83.42 95.0682C76.9479 100.681 73.3078 104.363 68.7976 111.454C64.6226 118.019 62.2125 122.305 60.0242 129.661C57.5872 137.854 56.8347 142.539 56.125 151.055C55.3851 159.932 55.5444 165.116 57.5872 173.813C59.1866 180.622 60.5324 184.444 63.9235 190.655C67.4017 197.024 70.0837 200.301 75.134 205.675C80.3787 211.256 84.2285 213.564 90.2438 218.42C93.8206 221.308 96.2995 222.457 99.5046 225.703C102.085 228.317 103.746 229.763 105.354 232.986C108.649 239.592 108.523 244.988 105.354 251.648C103.404 255.744 102.222 257.835 99.5046 261.207C96.4287 265.023 92.4834 267.925 88.7815 271.22C77.0332 281.68 58.0746 294.434 58.0746 294.434" stroke="#E502A1" stroke-width="5" stroke-linecap="round"/>
<path d="M127.288 86.4199C127.288 86.4199 110.844 95.6382 101.943 102.351C93.0414 109.064 88.2952 112.82 81.4714 121.923C75.0377 130.507 71.7452 137.402 71.2358 147.868C70.7484 157.882 71.3604 163.482 74.1603 172.903C76.1895 179.731 78.4369 184 83.4211 189.744C89.1493 196.346 94.6316 198.848 101.943 203.855C108.686 208.473 111.691 210.682 117.54 216.6C122.391 221.508 124.563 225.046 125.826 231.62C127.461 240.135 126.039 245.33 122.901 253.469C119.517 262.246 115.163 266.885 109.254 274.407C98.1844 288.497 74.1603 304.903 74.1603 304.903" stroke="#E502A1" stroke-width="5" stroke-linecap="round"/>
<path d="M153.121 296.254C153.121 296.254 167.215 273.077 170.668 256.654C174.042 240.607 170.668 214.778 170.668 214.778" stroke="#E502A1" stroke-width="5" stroke-linecap="round"/>
<path d="M181.389 269.399C181.389 269.399 186.705 252.673 187.238 241.634C187.754 230.926 184.313 214.323 184.313 214.323" stroke="#E502A1" stroke-width="5" stroke-linecap="round"/>
<path d="M3 115.096C3 115.096 13.3661 80.3013 27.858 62.2956C41.5651 45.2649 72.2124 26.792 72.2124 26.792" stroke="#E502A1" stroke-width="5" stroke-linecap="round"/>
<path d="M80.9844 23.1511C80.9844 23.1511 95.5534 17.685 105.355 15.8683C116.396 13.8219 122.985 12.4638 134.112 14.0476C144.772 15.5648 150.679 18.0014 159.945 23.1511C168.993 28.1797 180.416 39.5373 180.416 39.5373" stroke="#E502A1" stroke-width="5" stroke-linecap="round"/>
<path d="M189.189 50.0059C189.189 50.0059 197.809 68.1131 199.425 80.5025C201.344 95.2159 190.652 110.544 195.526 118.282C198.724 123.359 213.073 119.647 213.073 119.647" stroke="#E502A1" stroke-width="5" stroke-linecap="round"/>
<path d="M156.045 198.848C156.045 198.848 171.7 205.471 182.365 205.675C193.12 205.881 209.173 199.758 209.173 199.758" stroke="#E502A1" stroke-width="5" stroke-linecap="round"/>
<path d="M125.34 159.702C125.34 159.702 134.279 170.787 141.424 176.544C148.5 182.243 152.655 185.78 161.408 188.833C170.919 192.151 177.093 191.85 187.241 191.564C197.282 191.282 212.587 187.468 212.587 187.468" stroke="#E502A1" stroke-width="5" stroke-linecap="round"/>
<path d="M180.902 173.813C180.902 173.813 191.334 174.446 197.962 173.813C204.535 173.185 214.534 170.627 214.534 170.627" stroke="#E502A1" stroke-width="5" stroke-linecap="round"/>
<path d="M140.934 152.42C140.934 152.42 148.178 162.128 154.581 166.53C161.305 171.153 174.078 174.723 174.078 174.723" stroke="#E502A1" stroke-width="5" stroke-linecap="round"/>
<path d="M155.072 140.13C155.072 140.13 158.931 147.483 162.871 151.054C167.581 155.322 171.18 157.114 177.493 158.792C184.816 160.739 189.447 159.76 196.99 158.792C204.631 157.811 215.999 153.785 215.999 153.785" stroke="#E502A1" stroke-width="5" stroke-linecap="round"/>
</svg>
