<svg width="332" height="465" viewBox="0 0 332 465" fill="none" xmlns="http://www.w3.org/2000/svg">
<path d="M162.602 76L145.062 201.648M162.602 76L70.0292 104.919M162.602 76L273.69 112.897M162.602 76L189.887 201.648M145.062 201.648L86.5949 177.715M145.062 201.648L133.369 222.589M145.062 201.648L168.449 219.598M145.062 201.648H189.887M86.5949 177.715L70.0292 104.919M86.5949 177.715L53.4635 193.67M86.5949 177.715L102.186 201.648M70.0292 104.919L33 168.74L53.4635 193.67M70.0292 104.919L53.4635 193.67M273.69 112.897L300 172.729L286.358 201.648M273.69 112.897L253.226 175.721M273.69 112.897L286.358 201.648M286.358 201.648V238.545M286.358 201.648L253.226 175.721M286.358 201.648L270.766 222.589M286.358 238.545L300 227.575M286.358 238.545L293.179 281.425L257.124 316.327M286.358 238.545L270.766 222.589M286.358 238.545L240.558 247.52M257.124 316.327V381.145L213.274 350.232M257.124 316.327L205.478 293.391M257.124 316.327L240.558 247.52M213.274 350.232L198.657 362.198M213.274 350.232L205.478 293.391M213.274 350.232L185.989 332.282M198.657 362.198L213.274 420.036L167.474 402.087M198.657 362.198L165.526 371.173M167.474 402.087V433M167.474 402.087L112.905 413.056L136.292 362.198M167.474 402.087L165.526 371.173M136.292 362.198L117.777 350.232M136.292 362.198L165.526 371.173M117.777 350.232L75.8759 372.17V312.338M117.777 350.232L133.369 291.397M117.777 350.232L151.883 332.282M75.8759 312.338L35.9234 286.411L53.4635 238.545M75.8759 312.338L98.2883 249.514M75.8759 312.338L133.369 291.397M53.4635 238.545L33 230.567M53.4635 238.545V193.67M53.4635 238.545L69.0547 219.598M53.4635 238.545L98.2883 249.514M53.4635 193.67L69.0547 219.598M102.186 201.648L69.0547 219.598M102.186 201.648L133.369 222.589M69.0547 219.598L98.2883 235.553M98.2883 235.553V249.514M98.2883 235.553L133.369 222.589M98.2883 249.514L138.241 238.545M133.369 222.589L138.241 238.545M138.241 238.545L168.449 219.598M138.241 238.545L133.369 291.397M133.369 291.397L168.449 310.344M133.369 291.397L168.449 219.598M133.369 291.397L168.449 277.436M133.369 291.397L151.883 332.282M151.883 332.282L168.449 310.344M151.883 332.282L168.449 336.271M168.449 310.344V336.271M168.449 310.344L185.989 332.282M168.449 310.344L205.478 293.391M168.449 310.344V277.436M168.449 336.271L185.989 332.282M185.989 332.282L205.478 293.391M205.478 293.391L168.449 277.436M205.478 293.391L168.449 219.598M205.478 293.391L198.657 238.545M168.449 219.598V277.436M168.449 219.598L189.887 201.648M168.449 219.598L198.657 238.545M189.887 201.648L203.529 219.598M189.887 201.648L253.226 175.721M198.657 238.545L240.558 247.52M198.657 238.545L203.529 219.598M240.558 247.52L238.609 231.564M203.529 219.598L238.609 231.564M203.529 219.598L240.558 198.656M253.226 175.721L240.558 198.656M270.766 222.589L240.558 198.656M270.766 222.589L238.609 231.564" stroke="#0AE227" stroke-width="2"/>
<mask id="path-2-outside-1_370_1897" maskUnits="userSpaceOnUse" x="155" y="68" width="16" height="15" fill="black">
<rect fill="white" x="155" y="68" width="16" height="15"/>
<path d="M156.97 75.05C156.97 73.13 157.51 71.66 158.59 70.64C159.67 69.56 161.11 69.02 162.91 69.02C164.83 69.02 166.33 69.56 167.41 70.64C168.49 71.66 169.03 73.13 169.03 75.05C169.03 76.79 168.49 78.23 167.41 79.37C166.33 80.51 164.83 81.08 162.91 81.08C161.11 81.08 159.67 80.51 158.59 79.37C157.51 78.23 156.97 76.79 156.97 75.05Z"/>
</mask>
<path d="M158.59 70.64L159.277 71.367L159.287 71.3572L159.297 71.3471L158.59 70.64ZM167.41 70.64L166.703 71.3471L166.713 71.3572L166.723 71.367L167.41 70.64ZM167.41 79.37L166.684 78.6823L166.684 78.6823L167.41 79.37ZM157.97 75.05C157.97 73.3203 158.451 72.1469 159.277 71.367L157.903 69.913C156.569 71.1731 155.97 72.9397 155.97 75.05H157.97ZM159.297 71.3471C160.156 70.4878 161.324 70.02 162.91 70.02V68.02C160.896 68.02 159.184 68.6322 157.883 69.9329L159.297 71.3471ZM162.91 70.02C164.637 70.02 165.856 70.5 166.703 71.3471L168.117 69.9329C166.804 68.62 165.023 68.02 162.91 68.02V70.02ZM166.723 71.367C167.549 72.1469 168.03 73.3203 168.03 75.05H170.03C170.03 72.9397 169.431 71.1731 168.097 69.913L166.723 71.367ZM168.03 75.05C168.03 76.5642 167.568 77.7487 166.684 78.6823L168.136 80.0577C169.412 78.7113 170.03 77.0158 170.03 75.05H168.03ZM166.684 78.6823C165.834 79.5798 164.621 80.08 162.91 80.08V82.08C165.039 82.08 166.826 81.4402 168.136 80.0577L166.684 78.6823ZM162.91 80.08C161.341 80.08 160.179 79.5931 159.316 78.6823L157.864 80.0577C159.161 81.4269 160.879 82.08 162.91 82.08V80.08ZM159.316 78.6823C158.432 77.7487 157.97 76.5642 157.97 75.05H155.97C155.97 77.0158 156.588 78.7113 157.864 80.0577L159.316 78.6823Z" fill="#0AE227" mask="url(#path-2-outside-1_370_1897)"/>
<mask id="path-4-outside-2_370_1897" maskUnits="userSpaceOnUse" x="62" y="99" width="16" height="15" fill="black">
<rect fill="white" x="62" y="99" width="16" height="15"/>
<path d="M63.97 106.05C63.97 104.13 64.51 102.66 65.59 101.64C66.67 100.56 68.11 100.02 69.91 100.02C71.83 100.02 73.33 100.56 74.41 101.64C75.49 102.66 76.03 104.13 76.03 106.05C76.03 107.79 75.49 109.23 74.41 110.37C73.33 111.51 71.83 112.08 69.91 112.08C68.11 112.08 66.67 111.51 65.59 110.37C64.51 109.23 63.97 107.79 63.97 106.05Z"/>
</mask>
<path d="M65.59 101.64L66.2766 102.367L66.287 102.357L66.2971 102.347L65.59 101.64ZM74.41 101.64L73.7029 102.347L73.713 102.357L73.7234 102.367L74.41 101.64ZM74.41 110.37L73.684 109.682L73.684 109.682L74.41 110.37ZM64.97 106.05C64.97 104.32 65.4509 103.147 66.2766 102.367L64.9034 100.913C63.5691 102.173 62.97 103.94 62.97 106.05H64.97ZM66.2971 102.347C67.1564 101.488 68.3243 101.02 69.91 101.02V99.02C67.8957 99.02 66.1836 99.6322 64.8829 100.933L66.2971 102.347ZM69.91 101.02C71.6367 101.02 72.8558 101.5 73.7029 102.347L75.1171 100.933C73.8042 99.62 72.0233 99.02 69.91 99.02V101.02ZM73.7234 102.367C74.5491 103.147 75.03 104.32 75.03 106.05H77.03C77.03 103.94 76.4309 102.173 75.0966 100.913L73.7234 102.367ZM75.03 106.05C75.03 107.564 74.5684 108.749 73.684 109.682L75.136 111.058C76.4116 109.711 77.03 108.016 77.03 106.05H75.03ZM73.684 109.682C72.8337 110.58 71.621 111.08 69.91 111.08V113.08C72.039 113.08 73.8263 112.44 75.136 111.058L73.684 109.682ZM69.91 111.08C68.3406 111.08 67.1789 110.593 66.316 109.682L64.864 111.058C66.1611 112.427 67.8794 113.08 69.91 113.08V111.08ZM66.316 109.682C65.4316 108.749 64.97 107.564 64.97 106.05H62.97C62.97 108.016 63.5884 109.711 64.864 111.058L66.316 109.682Z" fill="#0AE227" mask="url(#path-4-outside-2_370_1897)"/>
<mask id="path-6-outside-3_370_1897" maskUnits="userSpaceOnUse" x="26" y="161" width="16" height="15" fill="black">
<rect fill="white" x="26" y="161" width="16" height="15"/>
<path d="M27.97 168.05C27.97 166.13 28.51 164.66 29.59 163.64C30.67 162.56 32.11 162.02 33.91 162.02C35.83 162.02 37.33 162.56 38.41 163.64C39.49 164.66 40.03 166.13 40.03 168.05C40.03 169.79 39.49 171.23 38.41 172.37C37.33 173.51 35.83 174.08 33.91 174.08C32.11 174.08 30.67 173.51 29.59 172.37C28.51 171.23 27.97 169.79 27.97 168.05Z"/>
</mask>
<path d="M29.59 163.64L30.2766 164.367L30.287 164.357L30.2971 164.347L29.59 163.64ZM38.41 163.64L37.7029 164.347L37.713 164.357L37.7234 164.367L38.41 163.64ZM38.41 172.37L37.684 171.682L37.684 171.682L38.41 172.37ZM28.97 168.05C28.97 166.32 29.4509 165.147 30.2766 164.367L28.9034 162.913C27.5691 164.173 26.97 165.94 26.97 168.05H28.97ZM30.2971 164.347C31.1564 163.488 32.3243 163.02 33.91 163.02V161.02C31.8957 161.02 30.1836 161.632 28.8829 162.933L30.2971 164.347ZM33.91 163.02C35.6367 163.02 36.8558 163.5 37.7029 164.347L39.1171 162.933C37.8042 161.62 36.0233 161.02 33.91 161.02V163.02ZM37.7234 164.367C38.5491 165.147 39.03 166.32 39.03 168.05H41.03C41.03 165.94 40.4309 164.173 39.0966 162.913L37.7234 164.367ZM39.03 168.05C39.03 169.564 38.5684 170.749 37.684 171.682L39.136 173.058C40.4116 171.711 41.03 170.016 41.03 168.05H39.03ZM37.684 171.682C36.8337 172.58 35.621 173.08 33.91 173.08V175.08C36.039 175.08 37.8263 174.44 39.136 173.058L37.684 171.682ZM33.91 173.08C32.3406 173.08 31.1789 172.593 30.316 171.682L28.864 173.058C30.1611 174.427 31.8794 175.08 33.91 175.08V173.08ZM30.316 171.682C29.4316 170.749 28.97 169.564 28.97 168.05H26.97C26.97 170.016 27.5884 171.711 28.864 173.058L30.316 171.682Z" fill="#0AE227" mask="url(#path-6-outside-3_370_1897)"/>
<mask id="path-8-outside-4_370_1897" maskUnits="userSpaceOnUse" x="46" y="184" width="16" height="15" fill="black">
<rect fill="white" x="46" y="184" width="16" height="15"/>
<path d="M47.97 191.05C47.97 189.13 48.51 187.66 49.59 186.64C50.67 185.56 52.11 185.02 53.91 185.02C55.83 185.02 57.33 185.56 58.41 186.64C59.49 187.66 60.03 189.13 60.03 191.05C60.03 192.79 59.49 194.23 58.41 195.37C57.33 196.51 55.83 197.08 53.91 197.08C52.11 197.08 50.67 196.51 49.59 195.37C48.51 194.23 47.97 192.79 47.97 191.05Z"/>
</mask>
<path d="M49.59 186.64L50.2766 187.367L50.287 187.357L50.2971 187.347L49.59 186.64ZM58.41 186.64L57.7029 187.347L57.713 187.357L57.7234 187.367L58.41 186.64ZM58.41 195.37L57.684 194.682L57.684 194.682L58.41 195.37ZM48.97 191.05C48.97 189.32 49.4509 188.147 50.2766 187.367L48.9034 185.913C47.5691 187.173 46.97 188.94 46.97 191.05H48.97ZM50.2971 187.347C51.1564 186.488 52.3243 186.02 53.91 186.02V184.02C51.8957 184.02 50.1836 184.632 48.8829 185.933L50.2971 187.347ZM53.91 186.02C55.6367 186.02 56.8558 186.5 57.7029 187.347L59.1171 185.933C57.8042 184.62 56.0233 184.02 53.91 184.02V186.02ZM57.7234 187.367C58.5491 188.147 59.03 189.32 59.03 191.05H61.03C61.03 188.94 60.4309 187.173 59.0966 185.913L57.7234 187.367ZM59.03 191.05C59.03 192.564 58.5684 193.749 57.684 194.682L59.136 196.058C60.4116 194.711 61.03 193.016 61.03 191.05H59.03ZM57.684 194.682C56.8337 195.58 55.621 196.08 53.91 196.08V198.08C56.039 198.08 57.8263 197.44 59.136 196.058L57.684 194.682ZM53.91 196.08C52.3406 196.08 51.1789 195.593 50.316 194.682L48.864 196.058C50.1611 197.427 51.8794 198.08 53.91 198.08V196.08ZM50.316 194.682C49.4316 193.749 48.97 192.564 48.97 191.05H46.97C46.97 193.016 47.5884 194.711 48.864 196.058L50.316 194.682Z" fill="#0AE227" mask="url(#path-8-outside-4_370_1897)"/>
<mask id="path-10-outside-5_370_1897" maskUnits="userSpaceOnUse" x="78" y="170" width="16" height="15" fill="black">
<rect fill="white" x="78" y="170" width="16" height="15"/>
<path d="M79.97 177.05C79.97 175.13 80.51 173.66 81.59 172.64C82.67 171.56 84.11 171.02 85.91 171.02C87.83 171.02 89.33 171.56 90.41 172.64C91.49 173.66 92.03 175.13 92.03 177.05C92.03 178.79 91.49 180.23 90.41 181.37C89.33 182.51 87.83 183.08 85.91 183.08C84.11 183.08 82.67 182.51 81.59 181.37C80.51 180.23 79.97 178.79 79.97 177.05Z"/>
</mask>
<path d="M81.59 172.64L82.2766 173.367L82.287 173.357L82.2971 173.347L81.59 172.64ZM90.41 172.64L89.7029 173.347L89.713 173.357L89.7234 173.367L90.41 172.64ZM90.41 181.37L89.684 180.682L89.684 180.682L90.41 181.37ZM80.97 177.05C80.97 175.32 81.4509 174.147 82.2766 173.367L80.9034 171.913C79.5691 173.173 78.97 174.94 78.97 177.05H80.97ZM82.2971 173.347C83.1564 172.488 84.3243 172.02 85.91 172.02V170.02C83.8957 170.02 82.1836 170.632 80.8829 171.933L82.2971 173.347ZM85.91 172.02C87.6367 172.02 88.8558 172.5 89.7029 173.347L91.1171 171.933C89.8042 170.62 88.0233 170.02 85.91 170.02V172.02ZM89.7234 173.367C90.5491 174.147 91.03 175.32 91.03 177.05H93.03C93.03 174.94 92.4309 173.173 91.0966 171.913L89.7234 173.367ZM91.03 177.05C91.03 178.564 90.5684 179.749 89.684 180.682L91.136 182.058C92.4116 180.711 93.03 179.016 93.03 177.05H91.03ZM89.684 180.682C88.8337 181.58 87.621 182.08 85.91 182.08V184.08C88.039 184.08 89.8263 183.44 91.136 182.058L89.684 180.682ZM85.91 182.08C84.3406 182.08 83.1789 181.593 82.316 180.682L80.864 182.058C82.1611 183.427 83.8794 184.08 85.91 184.08V182.08ZM82.316 180.682C81.4316 179.749 80.97 178.564 80.97 177.05H78.97C78.97 179.016 79.5884 180.711 80.864 182.058L82.316 180.682Z" fill="#0AE227" mask="url(#path-10-outside-5_370_1897)"/>
<mask id="path-12-outside-6_370_1897" maskUnits="userSpaceOnUse" x="137" y="195" width="16" height="15" fill="black">
<rect fill="white" x="137" y="195" width="16" height="15"/>
<path d="M138.97 202.05C138.97 200.13 139.51 198.66 140.59 197.64C141.67 196.56 143.11 196.02 144.91 196.02C146.83 196.02 148.33 196.56 149.41 197.64C150.49 198.66 151.03 200.13 151.03 202.05C151.03 203.79 150.49 205.23 149.41 206.37C148.33 207.51 146.83 208.08 144.91 208.08C143.11 208.08 141.67 207.51 140.59 206.37C139.51 205.23 138.97 203.79 138.97 202.05Z"/>
</mask>
<path d="M140.59 197.64L141.277 198.367L141.287 198.357L141.297 198.347L140.59 197.64ZM149.41 197.64L148.703 198.347L148.713 198.357L148.723 198.367L149.41 197.64ZM149.41 206.37L148.684 205.682L148.684 205.682L149.41 206.37ZM139.97 202.05C139.97 200.32 140.451 199.147 141.277 198.367L139.903 196.913C138.569 198.173 137.97 199.94 137.97 202.05H139.97ZM141.297 198.347C142.156 197.488 143.324 197.02 144.91 197.02V195.02C142.896 195.02 141.184 195.632 139.883 196.933L141.297 198.347ZM144.91 197.02C146.637 197.02 147.856 197.5 148.703 198.347L150.117 196.933C148.804 195.62 147.023 195.02 144.91 195.02V197.02ZM148.723 198.367C149.549 199.147 150.03 200.32 150.03 202.05H152.03C152.03 199.94 151.431 198.173 150.097 196.913L148.723 198.367ZM150.03 202.05C150.03 203.564 149.568 204.749 148.684 205.682L150.136 207.058C151.412 205.711 152.03 204.016 152.03 202.05H150.03ZM148.684 205.682C147.834 206.58 146.621 207.08 144.91 207.08V209.08C147.039 209.08 148.826 208.44 150.136 207.058L148.684 205.682ZM144.91 207.08C143.341 207.08 142.179 206.593 141.316 205.682L139.864 207.058C141.161 208.427 142.879 209.08 144.91 209.08V207.08ZM141.316 205.682C140.432 204.749 139.97 203.564 139.97 202.05H137.97C137.97 204.016 138.588 205.711 139.864 207.058L141.316 205.682Z" fill="#0AE227" mask="url(#path-12-outside-6_370_1897)"/>
<mask id="path-14-outside-7_370_1897" maskUnits="userSpaceOnUse" x="94" y="195" width="16" height="15" fill="black">
<rect fill="white" x="94" y="195" width="16" height="15"/>
<path d="M95.97 202.05C95.97 200.13 96.51 198.66 97.59 197.64C98.67 196.56 100.11 196.02 101.91 196.02C103.83 196.02 105.33 196.56 106.41 197.64C107.49 198.66 108.03 200.13 108.03 202.05C108.03 203.79 107.49 205.23 106.41 206.37C105.33 207.51 103.83 208.08 101.91 208.08C100.11 208.08 98.67 207.51 97.59 206.37C96.51 205.23 95.97 203.79 95.97 202.05Z"/>
</mask>
<path d="M97.59 197.64L98.2766 198.367L98.287 198.357L98.2971 198.347L97.59 197.64ZM106.41 197.64L105.703 198.347L105.713 198.357L105.723 198.367L106.41 197.64ZM106.41 206.37L105.684 205.682L105.684 205.682L106.41 206.37ZM96.97 202.05C96.97 200.32 97.4509 199.147 98.2766 198.367L96.9034 196.913C95.5691 198.173 94.97 199.94 94.97 202.05H96.97ZM98.2971 198.347C99.1564 197.488 100.324 197.02 101.91 197.02V195.02C99.8957 195.02 98.1836 195.632 96.8829 196.933L98.2971 198.347ZM101.91 197.02C103.637 197.02 104.856 197.5 105.703 198.347L107.117 196.933C105.804 195.62 104.023 195.02 101.91 195.02V197.02ZM105.723 198.367C106.549 199.147 107.03 200.32 107.03 202.05H109.03C109.03 199.94 108.431 198.173 107.097 196.913L105.723 198.367ZM107.03 202.05C107.03 203.564 106.568 204.749 105.684 205.682L107.136 207.058C108.412 205.711 109.03 204.016 109.03 202.05H107.03ZM105.684 205.682C104.834 206.58 103.621 207.08 101.91 207.08V209.08C104.039 209.08 105.826 208.44 107.136 207.058L105.684 205.682ZM101.91 207.08C100.341 207.08 99.1789 206.593 98.316 205.682L96.864 207.058C98.1611 208.427 99.8794 209.08 101.91 209.08V207.08ZM98.316 205.682C97.4316 204.749 96.97 203.564 96.97 202.05H94.97C94.97 204.016 95.5884 205.711 96.864 207.058L98.316 205.682Z" fill="#0AE227" mask="url(#path-14-outside-7_370_1897)"/>
<mask id="path-16-outside-8_370_1897" maskUnits="userSpaceOnUse" x="62" y="212" width="16" height="15" fill="black">
<rect fill="white" x="62" y="212" width="16" height="15"/>
<path d="M63.97 219.05C63.97 217.13 64.51 215.66 65.59 214.64C66.67 213.56 68.11 213.02 69.91 213.02C71.83 213.02 73.33 213.56 74.41 214.64C75.49 215.66 76.03 217.13 76.03 219.05C76.03 220.79 75.49 222.23 74.41 223.37C73.33 224.51 71.83 225.08 69.91 225.08C68.11 225.08 66.67 224.51 65.59 223.37C64.51 222.23 63.97 220.79 63.97 219.05Z"/>
</mask>
<path d="M65.59 214.64L66.2766 215.367L66.287 215.357L66.2971 215.347L65.59 214.64ZM74.41 214.64L73.7029 215.347L73.713 215.357L73.7234 215.367L74.41 214.64ZM74.41 223.37L73.684 222.682L73.684 222.682L74.41 223.37ZM64.97 219.05C64.97 217.32 65.4509 216.147 66.2766 215.367L64.9034 213.913C63.5691 215.173 62.97 216.94 62.97 219.05H64.97ZM66.2971 215.347C67.1564 214.488 68.3243 214.02 69.91 214.02V212.02C67.8957 212.02 66.1836 212.632 64.8829 213.933L66.2971 215.347ZM69.91 214.02C71.6367 214.02 72.8558 214.5 73.7029 215.347L75.1171 213.933C73.8042 212.62 72.0233 212.02 69.91 212.02V214.02ZM73.7234 215.367C74.5491 216.147 75.03 217.32 75.03 219.05H77.03C77.03 216.94 76.4309 215.173 75.0966 213.913L73.7234 215.367ZM75.03 219.05C75.03 220.564 74.5684 221.749 73.684 222.682L75.136 224.058C76.4116 222.711 77.03 221.016 77.03 219.05H75.03ZM73.684 222.682C72.8337 223.58 71.621 224.08 69.91 224.08V226.08C72.039 226.08 73.8263 225.44 75.136 224.058L73.684 222.682ZM69.91 224.08C68.3406 224.08 67.1789 223.593 66.316 222.682L64.864 224.058C66.1611 225.427 67.8794 226.08 69.91 226.08V224.08ZM66.316 222.682C65.4316 221.749 64.97 220.564 64.97 219.05H62.97C62.97 221.016 63.5884 222.711 64.864 224.058L66.316 222.682Z" fill="#0AE227" mask="url(#path-16-outside-8_370_1897)"/>
<mask id="path-18-outside-9_370_1897" maskUnits="userSpaceOnUse" x="46" y="231" width="16" height="15" fill="black">
<rect fill="white" x="46" y="231" width="16" height="15"/>
<path d="M47.97 238.05C47.97 236.13 48.51 234.66 49.59 233.64C50.67 232.56 52.11 232.02 53.91 232.02C55.83 232.02 57.33 232.56 58.41 233.64C59.49 234.66 60.03 236.13 60.03 238.05C60.03 239.79 59.49 241.23 58.41 242.37C57.33 243.51 55.83 244.08 53.91 244.08C52.11 244.08 50.67 243.51 49.59 242.37C48.51 241.23 47.97 239.79 47.97 238.05Z"/>
</mask>
<path d="M49.59 233.64L50.2766 234.367L50.287 234.357L50.2971 234.347L49.59 233.64ZM58.41 233.64L57.7029 234.347L57.713 234.357L57.7234 234.367L58.41 233.64ZM58.41 242.37L57.684 241.682L57.684 241.682L58.41 242.37ZM48.97 238.05C48.97 236.32 49.4509 235.147 50.2766 234.367L48.9034 232.913C47.5691 234.173 46.97 235.94 46.97 238.05H48.97ZM50.2971 234.347C51.1564 233.488 52.3243 233.02 53.91 233.02V231.02C51.8957 231.02 50.1836 231.632 48.8829 232.933L50.2971 234.347ZM53.91 233.02C55.6367 233.02 56.8558 233.5 57.7029 234.347L59.1171 232.933C57.8042 231.62 56.0233 231.02 53.91 231.02V233.02ZM57.7234 234.367C58.5491 235.147 59.03 236.32 59.03 238.05H61.03C61.03 235.94 60.4309 234.173 59.0966 232.913L57.7234 234.367ZM59.03 238.05C59.03 239.564 58.5684 240.749 57.684 241.682L59.136 243.058C60.4116 241.711 61.03 240.016 61.03 238.05H59.03ZM57.684 241.682C56.8337 242.58 55.621 243.08 53.91 243.08V245.08C56.039 245.08 57.8263 244.44 59.136 243.058L57.684 241.682ZM53.91 243.08C52.3406 243.08 51.1789 242.593 50.316 241.682L48.864 243.058C50.1611 244.427 51.8794 245.08 53.91 245.08V243.08ZM50.316 241.682C49.4316 240.749 48.97 239.564 48.97 238.05H46.97C46.97 240.016 47.5884 241.711 48.864 243.058L50.316 241.682Z" fill="#0AE227" mask="url(#path-18-outside-9_370_1897)"/>
<mask id="path-20-outside-10_370_1897" maskUnits="userSpaceOnUse" x="19" y="221" width="16" height="15" fill="black">
<rect fill="white" x="19" y="221" width="16" height="15"/>
<path d="M20.97 228.05C20.97 226.13 21.51 224.66 22.59 223.64C23.67 222.56 25.11 222.02 26.91 222.02C28.83 222.02 30.33 222.56 31.41 223.64C32.49 224.66 33.03 226.13 33.03 228.05C33.03 229.79 32.49 231.23 31.41 232.37C30.33 233.51 28.83 234.08 26.91 234.08C25.11 234.08 23.67 233.51 22.59 232.37C21.51 231.23 20.97 229.79 20.97 228.05Z"/>
</mask>
<path d="M22.59 223.64L23.2766 224.367L23.287 224.357L23.2971 224.347L22.59 223.64ZM31.41 223.64L30.7029 224.347L30.713 224.357L30.7234 224.367L31.41 223.64ZM31.41 232.37L30.684 231.682L30.684 231.682L31.41 232.37ZM21.97 228.05C21.97 226.32 22.4509 225.147 23.2766 224.367L21.9034 222.913C20.5691 224.173 19.97 225.94 19.97 228.05H21.97ZM23.2971 224.347C24.1564 223.488 25.3243 223.02 26.91 223.02V221.02C24.8957 221.02 23.1836 221.632 21.8829 222.933L23.2971 224.347ZM26.91 223.02C28.6367 223.02 29.8558 223.5 30.7029 224.347L32.1171 222.933C30.8042 221.62 29.0233 221.02 26.91 221.02V223.02ZM30.7234 224.367C31.5491 225.147 32.03 226.32 32.03 228.05H34.03C34.03 225.94 33.4309 224.173 32.0966 222.913L30.7234 224.367ZM32.03 228.05C32.03 229.564 31.5684 230.749 30.684 231.682L32.136 233.058C33.4116 231.711 34.03 230.016 34.03 228.05H32.03ZM30.684 231.682C29.8337 232.58 28.621 233.08 26.91 233.08V235.08C29.039 235.08 30.8263 234.44 32.136 233.058L30.684 231.682ZM26.91 233.08C25.3406 233.08 24.1789 232.593 23.316 231.682L21.864 233.058C23.1611 234.427 24.8794 235.08 26.91 235.08V233.08ZM23.316 231.682C22.4316 230.749 21.97 229.564 21.97 228.05H19.97C19.97 230.016 20.5884 231.711 21.864 233.058L23.316 231.682Z" fill="#0AE227" mask="url(#path-20-outside-10_370_1897)"/>
<mask id="path-22-outside-11_370_1897" maskUnits="userSpaceOnUse" x="91" y="228" width="16" height="15" fill="black">
<rect fill="white" x="91" y="228" width="16" height="15"/>
<path d="M92.97 235.05C92.97 233.13 93.51 231.66 94.59 230.64C95.67 229.56 97.11 229.02 98.91 229.02C100.83 229.02 102.33 229.56 103.41 230.64C104.49 231.66 105.03 233.13 105.03 235.05C105.03 236.79 104.49 238.23 103.41 239.37C102.33 240.51 100.83 241.08 98.91 241.08C97.11 241.08 95.67 240.51 94.59 239.37C93.51 238.23 92.97 236.79 92.97 235.05Z"/>
</mask>
<path d="M94.59 230.64L95.2766 231.367L95.287 231.357L95.2971 231.347L94.59 230.64ZM103.41 230.64L102.703 231.347L102.713 231.357L102.723 231.367L103.41 230.64ZM103.41 239.37L102.684 238.682L102.684 238.682L103.41 239.37ZM93.97 235.05C93.97 233.32 94.4509 232.147 95.2766 231.367L93.9034 229.913C92.5691 231.173 91.97 232.94 91.97 235.05H93.97ZM95.2971 231.347C96.1564 230.488 97.3243 230.02 98.91 230.02V228.02C96.8957 228.02 95.1836 228.632 93.8829 229.933L95.2971 231.347ZM98.91 230.02C100.637 230.02 101.856 230.5 102.703 231.347L104.117 229.933C102.804 228.62 101.023 228.02 98.91 228.02V230.02ZM102.723 231.367C103.549 232.147 104.03 233.32 104.03 235.05H106.03C106.03 232.94 105.431 231.173 104.097 229.913L102.723 231.367ZM104.03 235.05C104.03 236.564 103.568 237.749 102.684 238.682L104.136 240.058C105.412 238.711 106.03 237.016 106.03 235.05H104.03ZM102.684 238.682C101.834 239.58 100.621 240.08 98.91 240.08V242.08C101.039 242.08 102.826 241.44 104.136 240.058L102.684 238.682ZM98.91 240.08C97.3406 240.08 96.1789 239.593 95.316 238.682L93.864 240.058C95.1611 241.427 96.8794 242.08 98.91 242.08V240.08ZM95.316 238.682C94.4316 237.749 93.97 236.564 93.97 235.05H91.97C91.97 237.016 92.5884 238.711 93.864 240.058L95.316 238.682Z" fill="#0AE227" mask="url(#path-22-outside-11_370_1897)"/>
<mask id="path-24-outside-12_370_1897" maskUnits="userSpaceOnUse" x="124" y="215" width="16" height="15" fill="black">
<rect fill="white" x="124" y="215" width="16" height="15"/>
<path d="M125.97 222.05C125.97 220.13 126.51 218.66 127.59 217.64C128.67 216.56 130.11 216.02 131.91 216.02C133.83 216.02 135.33 216.56 136.41 217.64C137.49 218.66 138.03 220.13 138.03 222.05C138.03 223.79 137.49 225.23 136.41 226.37C135.33 227.51 133.83 228.08 131.91 228.08C130.11 228.08 128.67 227.51 127.59 226.37C126.51 225.23 125.97 223.79 125.97 222.05Z"/>
</mask>
<path d="M127.59 217.64L128.277 218.367L128.287 218.357L128.297 218.347L127.59 217.64ZM136.41 217.64L135.703 218.347L135.713 218.357L135.723 218.367L136.41 217.64ZM136.41 226.37L135.684 225.682L135.684 225.682L136.41 226.37ZM126.97 222.05C126.97 220.32 127.451 219.147 128.277 218.367L126.903 216.913C125.569 218.173 124.97 219.94 124.97 222.05H126.97ZM128.297 218.347C129.156 217.488 130.324 217.02 131.91 217.02V215.02C129.896 215.02 128.184 215.632 126.883 216.933L128.297 218.347ZM131.91 217.02C133.637 217.02 134.856 217.5 135.703 218.347L137.117 216.933C135.804 215.62 134.023 215.02 131.91 215.02V217.02ZM135.723 218.367C136.549 219.147 137.03 220.32 137.03 222.05H139.03C139.03 219.94 138.431 218.173 137.097 216.913L135.723 218.367ZM137.03 222.05C137.03 223.564 136.568 224.749 135.684 225.682L137.136 227.058C138.412 225.711 139.03 224.016 139.03 222.05H137.03ZM135.684 225.682C134.834 226.58 133.621 227.08 131.91 227.08V229.08C134.039 229.08 135.826 228.44 137.136 227.058L135.684 225.682ZM131.91 227.08C130.341 227.08 129.179 226.593 128.316 225.682L126.864 227.058C128.161 228.427 129.879 229.08 131.91 229.08V227.08ZM128.316 225.682C127.432 224.749 126.97 223.564 126.97 222.05H124.97C124.97 224.016 125.588 225.711 126.864 227.058L128.316 225.682Z" fill="#0AE227" mask="url(#path-24-outside-12_370_1897)"/>
<mask id="path-26-outside-13_370_1897" maskUnits="userSpaceOnUse" x="130" y="232" width="16" height="15" fill="black">
<rect fill="white" x="130" y="232" width="16" height="15"/>
<path d="M131.97 239.05C131.97 237.13 132.51 235.66 133.59 234.64C134.67 233.56 136.11 233.02 137.91 233.02C139.83 233.02 141.33 233.56 142.41 234.64C143.49 235.66 144.03 237.13 144.03 239.05C144.03 240.79 143.49 242.23 142.41 243.37C141.33 244.51 139.83 245.08 137.91 245.08C136.11 245.08 134.67 244.51 133.59 243.37C132.51 242.23 131.97 240.79 131.97 239.05Z"/>
</mask>
<path d="M133.59 234.64L134.277 235.367L134.287 235.357L134.297 235.347L133.59 234.64ZM142.41 234.64L141.703 235.347L141.713 235.357L141.723 235.367L142.41 234.64ZM142.41 243.37L141.684 242.682L141.684 242.682L142.41 243.37ZM132.97 239.05C132.97 237.32 133.451 236.147 134.277 235.367L132.903 233.913C131.569 235.173 130.97 236.94 130.97 239.05H132.97ZM134.297 235.347C135.156 234.488 136.324 234.02 137.91 234.02V232.02C135.896 232.02 134.184 232.632 132.883 233.933L134.297 235.347ZM137.91 234.02C139.637 234.02 140.856 234.5 141.703 235.347L143.117 233.933C141.804 232.62 140.023 232.02 137.91 232.02V234.02ZM141.723 235.367C142.549 236.147 143.03 237.32 143.03 239.05H145.03C145.03 236.94 144.431 235.173 143.097 233.913L141.723 235.367ZM143.03 239.05C143.03 240.564 142.568 241.749 141.684 242.682L143.136 244.058C144.412 242.711 145.03 241.016 145.03 239.05H143.03ZM141.684 242.682C140.834 243.58 139.621 244.08 137.91 244.08V246.08C140.039 246.08 141.826 245.44 143.136 244.058L141.684 242.682ZM137.91 244.08C136.341 244.08 135.179 243.593 134.316 242.682L132.864 244.058C134.161 245.427 135.879 246.08 137.91 246.08V244.08ZM134.316 242.682C133.432 241.749 132.97 240.564 132.97 239.05H130.97C130.97 241.016 131.588 242.711 132.864 244.058L134.316 242.682Z" fill="#0AE227" mask="url(#path-26-outside-13_370_1897)"/>
<mask id="path-28-outside-14_370_1897" maskUnits="userSpaceOnUse" x="89" y="245" width="16" height="15" fill="black">
<rect fill="white" x="89" y="245" width="16" height="15"/>
<path d="M90.97 252.05C90.97 250.13 91.51 248.66 92.59 247.64C93.67 246.56 95.11 246.02 96.91 246.02C98.83 246.02 100.33 246.56 101.41 247.64C102.49 248.66 103.03 250.13 103.03 252.05C103.03 253.79 102.49 255.23 101.41 256.37C100.33 257.51 98.83 258.08 96.91 258.08C95.11 258.08 93.67 257.51 92.59 256.37C91.51 255.23 90.97 253.79 90.97 252.05Z"/>
</mask>
<path d="M92.59 247.64L93.2766 248.367L93.287 248.357L93.2971 248.347L92.59 247.64ZM101.41 247.64L100.703 248.347L100.713 248.357L100.723 248.367L101.41 247.64ZM101.41 256.37L100.684 255.682L100.684 255.682L101.41 256.37ZM91.97 252.05C91.97 250.32 92.4509 249.147 93.2766 248.367L91.9034 246.913C90.5691 248.173 89.97 249.94 89.97 252.05H91.97ZM93.2971 248.347C94.1564 247.488 95.3243 247.02 96.91 247.02V245.02C94.8957 245.02 93.1836 245.632 91.8829 246.933L93.2971 248.347ZM96.91 247.02C98.6367 247.02 99.8558 247.5 100.703 248.347L102.117 246.933C100.804 245.62 99.0233 245.02 96.91 245.02V247.02ZM100.723 248.367C101.549 249.147 102.03 250.32 102.03 252.05H104.03C104.03 249.94 103.431 248.173 102.097 246.913L100.723 248.367ZM102.03 252.05C102.03 253.564 101.568 254.749 100.684 255.682L102.136 257.058C103.412 255.711 104.03 254.016 104.03 252.05H102.03ZM100.684 255.682C99.8337 256.58 98.621 257.08 96.91 257.08V259.08C99.039 259.08 100.826 258.44 102.136 257.058L100.684 255.682ZM96.91 257.08C95.3406 257.08 94.1789 256.593 93.316 255.682L91.864 257.058C93.1611 258.427 94.8794 259.08 96.91 259.08V257.08ZM93.316 255.682C92.4316 254.749 91.97 253.564 91.97 252.05H89.97C89.97 254.016 90.5884 255.711 91.864 257.058L93.316 255.682Z" fill="#0AE227" mask="url(#path-28-outside-14_370_1897)"/>
<mask id="path-30-outside-15_370_1897" maskUnits="userSpaceOnUse" x="69" y="303" width="16" height="15" fill="black">
<rect fill="white" x="69" y="303" width="16" height="15"/>
<path d="M70.97 310.05C70.97 308.13 71.51 306.66 72.59 305.64C73.67 304.56 75.11 304.02 76.91 304.02C78.83 304.02 80.33 304.56 81.41 305.64C82.49 306.66 83.03 308.13 83.03 310.05C83.03 311.79 82.49 313.23 81.41 314.37C80.33 315.51 78.83 316.08 76.91 316.08C75.11 316.08 73.67 315.51 72.59 314.37C71.51 313.23 70.97 311.79 70.97 310.05Z"/>
</mask>
<path d="M72.59 305.64L73.2766 306.367L73.287 306.357L73.2971 306.347L72.59 305.64ZM81.41 305.64L80.7029 306.347L80.713 306.357L80.7234 306.367L81.41 305.64ZM81.41 314.37L80.684 313.682L80.684 313.682L81.41 314.37ZM71.97 310.05C71.97 308.32 72.4509 307.147 73.2766 306.367L71.9034 304.913C70.5691 306.173 69.97 307.94 69.97 310.05H71.97ZM73.2971 306.347C74.1564 305.488 75.3243 305.02 76.91 305.02V303.02C74.8957 303.02 73.1836 303.632 71.8829 304.933L73.2971 306.347ZM76.91 305.02C78.6367 305.02 79.8558 305.5 80.7029 306.347L82.1171 304.933C80.8042 303.62 79.0233 303.02 76.91 303.02V305.02ZM80.7234 306.367C81.5491 307.147 82.03 308.32 82.03 310.05H84.03C84.03 307.94 83.4309 306.173 82.0966 304.913L80.7234 306.367ZM82.03 310.05C82.03 311.564 81.5684 312.749 80.684 313.682L82.136 315.058C83.4116 313.711 84.03 312.016 84.03 310.05H82.03ZM80.684 313.682C79.8337 314.58 78.621 315.08 76.91 315.08V317.08C79.039 317.08 80.8263 316.44 82.136 315.058L80.684 313.682ZM76.91 315.08C75.3406 315.08 74.1789 314.593 73.316 313.682L71.864 315.058C73.1611 316.427 74.8794 317.08 76.91 317.08V315.08ZM73.316 313.682C72.4316 312.749 71.97 311.564 71.97 310.05H69.97C69.97 312.016 70.5884 313.711 71.864 315.058L73.316 313.682Z" fill="#0AE227" mask="url(#path-30-outside-15_370_1897)"/>
<mask id="path-32-outside-16_370_1897" maskUnits="userSpaceOnUse" x="29" y="279" width="16" height="15" fill="black">
<rect fill="white" x="29" y="279" width="16" height="15"/>
<path d="M30.97 286.05C30.97 284.13 31.51 282.66 32.59 281.64C33.67 280.56 35.11 280.02 36.91 280.02C38.83 280.02 40.33 280.56 41.41 281.64C42.49 282.66 43.03 284.13 43.03 286.05C43.03 287.79 42.49 289.23 41.41 290.37C40.33 291.51 38.83 292.08 36.91 292.08C35.11 292.08 33.67 291.51 32.59 290.37C31.51 289.23 30.97 287.79 30.97 286.05Z"/>
</mask>
<path d="M32.59 281.64L33.2766 282.367L33.287 282.357L33.2971 282.347L32.59 281.64ZM41.41 281.64L40.7029 282.347L40.713 282.357L40.7234 282.367L41.41 281.64ZM41.41 290.37L40.684 289.682L40.684 289.682L41.41 290.37ZM31.97 286.05C31.97 284.32 32.4509 283.147 33.2766 282.367L31.9034 280.913C30.5691 282.173 29.97 283.94 29.97 286.05H31.97ZM33.2971 282.347C34.1564 281.488 35.3243 281.02 36.91 281.02V279.02C34.8957 279.02 33.1836 279.632 31.8829 280.933L33.2971 282.347ZM36.91 281.02C38.6367 281.02 39.8558 281.5 40.7029 282.347L42.1171 280.933C40.8042 279.62 39.0233 279.02 36.91 279.02V281.02ZM40.7234 282.367C41.5491 283.147 42.03 284.32 42.03 286.05H44.03C44.03 283.94 43.4309 282.173 42.0966 280.913L40.7234 282.367ZM42.03 286.05C42.03 287.564 41.5684 288.749 40.684 289.682L42.136 291.058C43.4116 289.711 44.03 288.016 44.03 286.05H42.03ZM40.684 289.682C39.8337 290.58 38.621 291.08 36.91 291.08V293.08C39.039 293.08 40.8263 292.44 42.136 291.058L40.684 289.682ZM36.91 291.08C35.3406 291.08 34.1789 290.593 33.316 289.682L31.864 291.058C33.1611 292.427 34.8794 293.08 36.91 293.08V291.08ZM33.316 289.682C32.4316 288.749 31.97 287.564 31.97 286.05H29.97C29.97 288.016 30.5884 289.711 31.864 291.058L33.316 289.682Z" fill="#0AE227" mask="url(#path-32-outside-16_370_1897)"/>
<mask id="path-34-outside-17_370_1897" maskUnits="userSpaceOnUse" x="126" y="283" width="16" height="15" fill="black">
<rect fill="white" x="126" y="283" width="16" height="15"/>
<path d="M127.97 290.05C127.97 288.13 128.51 286.66 129.59 285.64C130.67 284.56 132.11 284.02 133.91 284.02C135.83 284.02 137.33 284.56 138.41 285.64C139.49 286.66 140.03 288.13 140.03 290.05C140.03 291.79 139.49 293.23 138.41 294.37C137.33 295.51 135.83 296.08 133.91 296.08C132.11 296.08 130.67 295.51 129.59 294.37C128.51 293.23 127.97 291.79 127.97 290.05Z"/>
</mask>
<path d="M129.59 285.64L130.277 286.367L130.287 286.357L130.297 286.347L129.59 285.64ZM138.41 285.64L137.703 286.347L137.713 286.357L137.723 286.367L138.41 285.64ZM138.41 294.37L137.684 293.682L137.684 293.682L138.41 294.37ZM128.97 290.05C128.97 288.32 129.451 287.147 130.277 286.367L128.903 284.913C127.569 286.173 126.97 287.94 126.97 290.05H128.97ZM130.297 286.347C131.156 285.488 132.324 285.02 133.91 285.02V283.02C131.896 283.02 130.184 283.632 128.883 284.933L130.297 286.347ZM133.91 285.02C135.637 285.02 136.856 285.5 137.703 286.347L139.117 284.933C137.804 283.62 136.023 283.02 133.91 283.02V285.02ZM137.723 286.367C138.549 287.147 139.03 288.32 139.03 290.05H141.03C141.03 287.94 140.431 286.173 139.097 284.913L137.723 286.367ZM139.03 290.05C139.03 291.564 138.568 292.749 137.684 293.682L139.136 295.058C140.412 293.711 141.03 292.016 141.03 290.05H139.03ZM137.684 293.682C136.834 294.58 135.621 295.08 133.91 295.08V297.08C136.039 297.08 137.826 296.44 139.136 295.058L137.684 293.682ZM133.91 295.08C132.341 295.08 131.179 294.593 130.316 293.682L128.864 295.058C130.161 296.427 131.879 297.08 133.91 297.08V295.08ZM130.316 293.682C129.432 292.749 128.97 291.564 128.97 290.05H126.97C126.97 292.016 127.588 293.711 128.864 295.058L130.316 293.682Z" fill="#0AE227" mask="url(#path-34-outside-17_370_1897)"/>
<mask id="path-36-outside-18_370_1897" maskUnits="userSpaceOnUse" x="69" y="363" width="16" height="15" fill="black">
<rect fill="white" x="69" y="363" width="16" height="15"/>
<path d="M70.97 370.05C70.97 368.13 71.51 366.66 72.59 365.64C73.67 364.56 75.11 364.02 76.91 364.02C78.83 364.02 80.33 364.56 81.41 365.64C82.49 366.66 83.03 368.13 83.03 370.05C83.03 371.79 82.49 373.23 81.41 374.37C80.33 375.51 78.83 376.08 76.91 376.08C75.11 376.08 73.67 375.51 72.59 374.37C71.51 373.23 70.97 371.79 70.97 370.05Z"/>
</mask>
<path d="M72.59 365.64L73.2766 366.367L73.287 366.357L73.2971 366.347L72.59 365.64ZM81.41 365.64L80.7029 366.347L80.713 366.357L80.7234 366.367L81.41 365.64ZM81.41 374.37L80.684 373.682L80.684 373.682L81.41 374.37ZM71.97 370.05C71.97 368.32 72.4509 367.147 73.2766 366.367L71.9034 364.913C70.5691 366.173 69.97 367.94 69.97 370.05H71.97ZM73.2971 366.347C74.1564 365.488 75.3243 365.02 76.91 365.02V363.02C74.8957 363.02 73.1836 363.632 71.8829 364.933L73.2971 366.347ZM76.91 365.02C78.6367 365.02 79.8558 365.5 80.7029 366.347L82.1171 364.933C80.8042 363.62 79.0233 363.02 76.91 363.02V365.02ZM80.7234 366.367C81.5491 367.147 82.03 368.32 82.03 370.05H84.03C84.03 367.94 83.4309 366.173 82.0966 364.913L80.7234 366.367ZM82.03 370.05C82.03 371.564 81.5684 372.749 80.684 373.682L82.136 375.058C83.4116 373.711 84.03 372.016 84.03 370.05H82.03ZM80.684 373.682C79.8337 374.58 78.621 375.08 76.91 375.08V377.08C79.039 377.08 80.8263 376.44 82.136 375.058L80.684 373.682ZM76.91 375.08C75.3406 375.08 74.1789 374.593 73.316 373.682L71.864 375.058C73.1611 376.427 74.8794 377.08 76.91 377.08V375.08ZM73.316 373.682C72.4316 372.749 71.97 371.564 71.97 370.05H69.97C69.97 372.016 70.5884 373.711 71.864 375.058L73.316 373.682Z" fill="#0AE227" mask="url(#path-36-outside-18_370_1897)"/>
<mask id="path-38-outside-19_370_1897" maskUnits="userSpaceOnUse" x="110" y="344" width="16" height="15" fill="black">
<rect fill="white" x="110" y="344" width="16" height="15"/>
<path d="M111.97 351.05C111.97 349.13 112.51 347.66 113.59 346.64C114.67 345.56 116.11 345.02 117.91 345.02C119.83 345.02 121.33 345.56 122.41 346.64C123.49 347.66 124.03 349.13 124.03 351.05C124.03 352.79 123.49 354.23 122.41 355.37C121.33 356.51 119.83 357.08 117.91 357.08C116.11 357.08 114.67 356.51 113.59 355.37C112.51 354.23 111.97 352.79 111.97 351.05Z"/>
</mask>
<path d="M113.59 346.64L114.277 347.367L114.287 347.357L114.297 347.347L113.59 346.64ZM122.41 346.64L121.703 347.347L121.713 347.357L121.723 347.367L122.41 346.64ZM122.41 355.37L121.684 354.682L121.684 354.682L122.41 355.37ZM112.97 351.05C112.97 349.32 113.451 348.147 114.277 347.367L112.903 345.913C111.569 347.173 110.97 348.94 110.97 351.05H112.97ZM114.297 347.347C115.156 346.488 116.324 346.02 117.91 346.02V344.02C115.896 344.02 114.184 344.632 112.883 345.933L114.297 347.347ZM117.91 346.02C119.637 346.02 120.856 346.5 121.703 347.347L123.117 345.933C121.804 344.62 120.023 344.02 117.91 344.02V346.02ZM121.723 347.367C122.549 348.147 123.03 349.32 123.03 351.05H125.03C125.03 348.94 124.431 347.173 123.097 345.913L121.723 347.367ZM123.03 351.05C123.03 352.564 122.568 353.749 121.684 354.682L123.136 356.058C124.412 354.711 125.03 353.016 125.03 351.05H123.03ZM121.684 354.682C120.834 355.58 119.621 356.08 117.91 356.08V358.08C120.039 358.08 121.826 357.44 123.136 356.058L121.684 354.682ZM117.91 356.08C116.341 356.08 115.179 355.593 114.316 354.682L112.864 356.058C114.161 357.427 115.879 358.08 117.91 358.08V356.08ZM114.316 354.682C113.432 353.749 112.97 352.564 112.97 351.05H110.97C110.97 353.016 111.588 354.711 112.864 356.058L114.316 354.682Z" fill="#0AE227" mask="url(#path-38-outside-19_370_1897)"/>
<mask id="path-40-outside-20_370_1897" maskUnits="userSpaceOnUse" x="145" y="324" width="16" height="15" fill="black">
<rect fill="white" x="145" y="324" width="16" height="15"/>
<path d="M146.97 331.05C146.97 329.13 147.51 327.66 148.59 326.64C149.67 325.56 151.11 325.02 152.91 325.02C154.83 325.02 156.33 325.56 157.41 326.64C158.49 327.66 159.03 329.13 159.03 331.05C159.03 332.79 158.49 334.23 157.41 335.37C156.33 336.51 154.83 337.08 152.91 337.08C151.11 337.08 149.67 336.51 148.59 335.37C147.51 334.23 146.97 332.79 146.97 331.05Z"/>
</mask>
<path d="M148.59 326.64L149.277 327.367L149.287 327.357L149.297 327.347L148.59 326.64ZM157.41 326.64L156.703 327.347L156.713 327.357L156.723 327.367L157.41 326.64ZM157.41 335.37L156.684 334.682L156.684 334.682L157.41 335.37ZM147.97 331.05C147.97 329.32 148.451 328.147 149.277 327.367L147.903 325.913C146.569 327.173 145.97 328.94 145.97 331.05H147.97ZM149.297 327.347C150.156 326.488 151.324 326.02 152.91 326.02V324.02C150.896 324.02 149.184 324.632 147.883 325.933L149.297 327.347ZM152.91 326.02C154.637 326.02 155.856 326.5 156.703 327.347L158.117 325.933C156.804 324.62 155.023 324.02 152.91 324.02V326.02ZM156.723 327.367C157.549 328.147 158.03 329.32 158.03 331.05H160.03C160.03 328.94 159.431 327.173 158.097 325.913L156.723 327.367ZM158.03 331.05C158.03 332.564 157.568 333.749 156.684 334.682L158.136 336.058C159.412 334.711 160.03 333.016 160.03 331.05H158.03ZM156.684 334.682C155.834 335.58 154.621 336.08 152.91 336.08V338.08C155.039 338.08 156.826 337.44 158.136 336.058L156.684 334.682ZM152.91 336.08C151.341 336.08 150.179 335.593 149.316 334.682L147.864 336.058C149.161 337.427 150.879 338.08 152.91 338.08V336.08ZM149.316 334.682C148.432 333.749 147.97 332.564 147.97 331.05H145.97C145.97 333.016 146.588 334.711 147.864 336.058L149.316 334.682Z" fill="#0AE227" mask="url(#path-40-outside-20_370_1897)"/>
<mask id="path-42-outside-21_370_1897" maskUnits="userSpaceOnUse" x="161" y="303" width="16" height="15" fill="black">
<rect fill="white" x="161" y="303" width="16" height="15"/>
<path d="M162.97 310.05C162.97 308.13 163.51 306.66 164.59 305.64C165.67 304.56 167.11 304.02 168.91 304.02C170.83 304.02 172.33 304.56 173.41 305.64C174.49 306.66 175.03 308.13 175.03 310.05C175.03 311.79 174.49 313.23 173.41 314.37C172.33 315.51 170.83 316.08 168.91 316.08C167.11 316.08 165.67 315.51 164.59 314.37C163.51 313.23 162.97 311.79 162.97 310.05Z"/>
</mask>
<path d="M164.59 305.64L165.277 306.367L165.287 306.357L165.297 306.347L164.59 305.64ZM173.41 305.64L172.703 306.347L172.713 306.357L172.723 306.367L173.41 305.64ZM173.41 314.37L172.684 313.682L172.684 313.682L173.41 314.37ZM163.97 310.05C163.97 308.32 164.451 307.147 165.277 306.367L163.903 304.913C162.569 306.173 161.97 307.94 161.97 310.05H163.97ZM165.297 306.347C166.156 305.488 167.324 305.02 168.91 305.02V303.02C166.896 303.02 165.184 303.632 163.883 304.933L165.297 306.347ZM168.91 305.02C170.637 305.02 171.856 305.5 172.703 306.347L174.117 304.933C172.804 303.62 171.023 303.02 168.91 303.02V305.02ZM172.723 306.367C173.549 307.147 174.03 308.32 174.03 310.05H176.03C176.03 307.94 175.431 306.173 174.097 304.913L172.723 306.367ZM174.03 310.05C174.03 311.564 173.568 312.749 172.684 313.682L174.136 315.058C175.412 313.711 176.03 312.016 176.03 310.05H174.03ZM172.684 313.682C171.834 314.58 170.621 315.08 168.91 315.08V317.08C171.039 317.08 172.826 316.44 174.136 315.058L172.684 313.682ZM168.91 315.08C167.341 315.08 166.179 314.593 165.316 313.682L163.864 315.058C165.161 316.427 166.879 317.08 168.91 317.08V315.08ZM165.316 313.682C164.432 312.749 163.97 311.564 163.97 310.05H161.97C161.97 312.016 162.588 313.711 163.864 315.058L165.316 313.682Z" fill="#0AE227" mask="url(#path-42-outside-21_370_1897)"/>
<mask id="path-44-outside-22_370_1897" maskUnits="userSpaceOnUse" x="161" y="271" width="16" height="15" fill="black">
<rect fill="white" x="161" y="271" width="16" height="15"/>
<path d="M162.97 278.05C162.97 276.13 163.51 274.66 164.59 273.64C165.67 272.56 167.11 272.02 168.91 272.02C170.83 272.02 172.33 272.56 173.41 273.64C174.49 274.66 175.03 276.13 175.03 278.05C175.03 279.79 174.49 281.23 173.41 282.37C172.33 283.51 170.83 284.08 168.91 284.08C167.11 284.08 165.67 283.51 164.59 282.37C163.51 281.23 162.97 279.79 162.97 278.05Z"/>
</mask>
<path d="M164.59 273.64L165.277 274.367L165.287 274.357L165.297 274.347L164.59 273.64ZM173.41 273.64L172.703 274.347L172.713 274.357L172.723 274.367L173.41 273.64ZM173.41 282.37L172.684 281.682L172.684 281.682L173.41 282.37ZM163.97 278.05C163.97 276.32 164.451 275.147 165.277 274.367L163.903 272.913C162.569 274.173 161.97 275.94 161.97 278.05H163.97ZM165.297 274.347C166.156 273.488 167.324 273.02 168.91 273.02V271.02C166.896 271.02 165.184 271.632 163.883 272.933L165.297 274.347ZM168.91 273.02C170.637 273.02 171.856 273.5 172.703 274.347L174.117 272.933C172.804 271.62 171.023 271.02 168.91 271.02V273.02ZM172.723 274.367C173.549 275.147 174.03 276.32 174.03 278.05H176.03C176.03 275.94 175.431 274.173 174.097 272.913L172.723 274.367ZM174.03 278.05C174.03 279.564 173.568 280.749 172.684 281.682L174.136 283.058C175.412 281.711 176.03 280.016 176.03 278.05H174.03ZM172.684 281.682C171.834 282.58 170.621 283.08 168.91 283.08V285.08C171.039 285.08 172.826 284.44 174.136 283.058L172.684 281.682ZM168.91 283.08C167.341 283.08 166.179 282.593 165.316 281.682L163.864 283.058C165.161 284.427 166.879 285.08 168.91 285.08V283.08ZM165.316 281.682C164.432 280.749 163.97 279.564 163.97 278.05H161.97C161.97 280.016 162.588 281.711 163.864 283.058L165.316 281.682Z" fill="#0AE227" mask="url(#path-44-outside-22_370_1897)"/>
<mask id="path-46-outside-23_370_1897" maskUnits="userSpaceOnUse" x="161" y="215" width="16" height="15" fill="black">
<rect fill="white" x="161" y="215" width="16" height="15"/>
<path d="M162.97 222.05C162.97 220.13 163.51 218.66 164.59 217.64C165.67 216.56 167.11 216.02 168.91 216.02C170.83 216.02 172.33 216.56 173.41 217.64C174.49 218.66 175.03 220.13 175.03 222.05C175.03 223.79 174.49 225.23 173.41 226.37C172.33 227.51 170.83 228.08 168.91 228.08C167.11 228.08 165.67 227.51 164.59 226.37C163.51 225.23 162.97 223.79 162.97 222.05Z"/>
</mask>
<path d="M164.59 217.64L165.277 218.367L165.287 218.357L165.297 218.347L164.59 217.64ZM173.41 217.64L172.703 218.347L172.713 218.357L172.723 218.367L173.41 217.64ZM173.41 226.37L172.684 225.682L172.684 225.682L173.41 226.37ZM163.97 222.05C163.97 220.32 164.451 219.147 165.277 218.367L163.903 216.913C162.569 218.173 161.97 219.94 161.97 222.05H163.97ZM165.297 218.347C166.156 217.488 167.324 217.02 168.91 217.02V215.02C166.896 215.02 165.184 215.632 163.883 216.933L165.297 218.347ZM168.91 217.02C170.637 217.02 171.856 217.5 172.703 218.347L174.117 216.933C172.804 215.62 171.023 215.02 168.91 215.02V217.02ZM172.723 218.367C173.549 219.147 174.03 220.32 174.03 222.05H176.03C176.03 219.94 175.431 218.173 174.097 216.913L172.723 218.367ZM174.03 222.05C174.03 223.564 173.568 224.749 172.684 225.682L174.136 227.058C175.412 225.711 176.03 224.016 176.03 222.05H174.03ZM172.684 225.682C171.834 226.58 170.621 227.08 168.91 227.08V229.08C171.039 229.08 172.826 228.44 174.136 227.058L172.684 225.682ZM168.91 227.08C167.341 227.08 166.179 226.593 165.316 225.682L163.864 227.058C165.161 228.427 166.879 229.08 168.91 229.08V227.08ZM165.316 225.682C164.432 224.749 163.97 223.564 163.97 222.05H161.97C161.97 224.016 162.588 225.711 163.864 227.058L165.316 225.682Z" fill="#0AE227" mask="url(#path-46-outside-23_370_1897)"/>
<mask id="path-48-outside-24_370_1897" maskUnits="userSpaceOnUse" x="182" y="195" width="16" height="15" fill="black">
<rect fill="white" x="182" y="195" width="16" height="15"/>
<path d="M183.97 202.05C183.97 200.13 184.51 198.66 185.59 197.64C186.67 196.56 188.11 196.02 189.91 196.02C191.83 196.02 193.33 196.56 194.41 197.64C195.49 198.66 196.03 200.13 196.03 202.05C196.03 203.79 195.49 205.23 194.41 206.37C193.33 207.51 191.83 208.08 189.91 208.08C188.11 208.08 186.67 207.51 185.59 206.37C184.51 205.23 183.97 203.79 183.97 202.05Z"/>
</mask>
<path d="M185.59 197.64L186.277 198.367L186.287 198.357L186.297 198.347L185.59 197.64ZM194.41 197.64L193.703 198.347L193.713 198.357L193.723 198.367L194.41 197.64ZM194.41 206.37L193.684 205.682L193.684 205.682L194.41 206.37ZM184.97 202.05C184.97 200.32 185.451 199.147 186.277 198.367L184.903 196.913C183.569 198.173 182.97 199.94 182.97 202.05H184.97ZM186.297 198.347C187.156 197.488 188.324 197.02 189.91 197.02V195.02C187.896 195.02 186.184 195.632 184.883 196.933L186.297 198.347ZM189.91 197.02C191.637 197.02 192.856 197.5 193.703 198.347L195.117 196.933C193.804 195.62 192.023 195.02 189.91 195.02V197.02ZM193.723 198.367C194.549 199.147 195.03 200.32 195.03 202.05H197.03C197.03 199.94 196.431 198.173 195.097 196.913L193.723 198.367ZM195.03 202.05C195.03 203.564 194.568 204.749 193.684 205.682L195.136 207.058C196.412 205.711 197.03 204.016 197.03 202.05H195.03ZM193.684 205.682C192.834 206.58 191.621 207.08 189.91 207.08V209.08C192.039 209.08 193.826 208.44 195.136 207.058L193.684 205.682ZM189.91 207.08C188.341 207.08 187.179 206.593 186.316 205.682L184.864 207.058C186.161 208.427 187.879 209.08 189.91 209.08V207.08ZM186.316 205.682C185.432 204.749 184.97 203.564 184.97 202.05H182.97C182.97 204.016 183.588 205.711 184.864 207.058L186.316 205.682Z" fill="#0AE227" mask="url(#path-48-outside-24_370_1897)"/>
<mask id="path-50-outside-25_370_1897" maskUnits="userSpaceOnUse" x="197" y="213" width="16" height="15" fill="black">
<rect fill="white" x="197" y="213" width="16" height="15"/>
<path d="M198.97 220.05C198.97 218.13 199.51 216.66 200.59 215.64C201.67 214.56 203.11 214.02 204.91 214.02C206.83 214.02 208.33 214.56 209.41 215.64C210.49 216.66 211.03 218.13 211.03 220.05C211.03 221.79 210.49 223.23 209.41 224.37C208.33 225.51 206.83 226.08 204.91 226.08C203.11 226.08 201.67 225.51 200.59 224.37C199.51 223.23 198.97 221.79 198.97 220.05Z"/>
</mask>
<path d="M200.59 215.64L201.277 216.367L201.287 216.357L201.297 216.347L200.59 215.64ZM209.41 215.64L208.703 216.347L208.713 216.357L208.723 216.367L209.41 215.64ZM209.41 224.37L208.684 223.682L208.684 223.682L209.41 224.37ZM199.97 220.05C199.97 218.32 200.451 217.147 201.277 216.367L199.903 214.913C198.569 216.173 197.97 217.94 197.97 220.05H199.97ZM201.297 216.347C202.156 215.488 203.324 215.02 204.91 215.02V213.02C202.896 213.02 201.184 213.632 199.883 214.933L201.297 216.347ZM204.91 215.02C206.637 215.02 207.856 215.5 208.703 216.347L210.117 214.933C208.804 213.62 207.023 213.02 204.91 213.02V215.02ZM208.723 216.367C209.549 217.147 210.03 218.32 210.03 220.05H212.03C212.03 217.94 211.431 216.173 210.097 214.913L208.723 216.367ZM210.03 220.05C210.03 221.564 209.568 222.749 208.684 223.682L210.136 225.058C211.412 223.711 212.03 222.016 212.03 220.05H210.03ZM208.684 223.682C207.834 224.58 206.621 225.08 204.91 225.08V227.08C207.039 227.08 208.826 226.44 210.136 225.058L208.684 223.682ZM204.91 225.08C203.341 225.08 202.179 224.593 201.316 223.682L199.864 225.058C201.161 226.427 202.879 227.08 204.91 227.08V225.08ZM201.316 223.682C200.432 222.749 199.97 221.564 199.97 220.05H197.97C197.97 222.016 198.588 223.711 199.864 225.058L201.316 223.682Z" fill="#0AE227" mask="url(#path-50-outside-25_370_1897)"/>
<mask id="path-52-outside-26_370_1897" maskUnits="userSpaceOnUse" x="191" y="232" width="16" height="15" fill="black">
<rect fill="white" x="191" y="232" width="16" height="15"/>
<path d="M192.97 239.05C192.97 237.13 193.51 235.66 194.59 234.64C195.67 233.56 197.11 233.02 198.91 233.02C200.83 233.02 202.33 233.56 203.41 234.64C204.49 235.66 205.03 237.13 205.03 239.05C205.03 240.79 204.49 242.23 203.41 243.37C202.33 244.51 200.83 245.08 198.91 245.08C197.11 245.08 195.67 244.51 194.59 243.37C193.51 242.23 192.97 240.79 192.97 239.05Z"/>
</mask>
<path d="M194.59 234.64L195.277 235.367L195.287 235.357L195.297 235.347L194.59 234.64ZM203.41 234.64L202.703 235.347L202.713 235.357L202.723 235.367L203.41 234.64ZM203.41 243.37L202.684 242.682L202.684 242.682L203.41 243.37ZM193.97 239.05C193.97 237.32 194.451 236.147 195.277 235.367L193.903 233.913C192.569 235.173 191.97 236.94 191.97 239.05H193.97ZM195.297 235.347C196.156 234.488 197.324 234.02 198.91 234.02V232.02C196.896 232.02 195.184 232.632 193.883 233.933L195.297 235.347ZM198.91 234.02C200.637 234.02 201.856 234.5 202.703 235.347L204.117 233.933C202.804 232.62 201.023 232.02 198.91 232.02V234.02ZM202.723 235.367C203.549 236.147 204.03 237.32 204.03 239.05H206.03C206.03 236.94 205.431 235.173 204.097 233.913L202.723 235.367ZM204.03 239.05C204.03 240.564 203.568 241.749 202.684 242.682L204.136 244.058C205.412 242.711 206.03 241.016 206.03 239.05H204.03ZM202.684 242.682C201.834 243.58 200.621 244.08 198.91 244.08V246.08C201.039 246.08 202.826 245.44 204.136 244.058L202.684 242.682ZM198.91 244.08C197.341 244.08 196.179 243.593 195.316 242.682L193.864 244.058C195.161 245.427 196.879 246.08 198.91 246.08V244.08ZM195.316 242.682C194.432 241.749 193.97 240.564 193.97 239.05H191.97C191.97 241.016 192.588 242.711 193.864 244.058L195.316 242.682Z" fill="#0AE227" mask="url(#path-52-outside-26_370_1897)"/>
<mask id="path-54-outside-27_370_1897" maskUnits="userSpaceOnUse" x="244" y="170" width="16" height="15" fill="black">
<rect fill="white" x="244" y="170" width="16" height="15"/>
<path d="M245.97 177.05C245.97 175.13 246.51 173.66 247.59 172.64C248.67 171.56 250.11 171.02 251.91 171.02C253.83 171.02 255.33 171.56 256.41 172.64C257.49 173.66 258.03 175.13 258.03 177.05C258.03 178.79 257.49 180.23 256.41 181.37C255.33 182.51 253.83 183.08 251.91 183.08C250.11 183.08 248.67 182.51 247.59 181.37C246.51 180.23 245.97 178.79 245.97 177.05Z"/>
</mask>
<path d="M247.59 172.64L248.277 173.367L248.287 173.357L248.297 173.347L247.59 172.64ZM256.41 172.64L255.703 173.347L255.713 173.357L255.723 173.367L256.41 172.64ZM256.41 181.37L255.684 180.682L255.684 180.682L256.41 181.37ZM246.97 177.05C246.97 175.32 247.451 174.147 248.277 173.367L246.903 171.913C245.569 173.173 244.97 174.94 244.97 177.05H246.97ZM248.297 173.347C249.156 172.488 250.324 172.02 251.91 172.02V170.02C249.896 170.02 248.184 170.632 246.883 171.933L248.297 173.347ZM251.91 172.02C253.637 172.02 254.856 172.5 255.703 173.347L257.117 171.933C255.804 170.62 254.023 170.02 251.91 170.02V172.02ZM255.723 173.367C256.549 174.147 257.03 175.32 257.03 177.05H259.03C259.03 174.94 258.431 173.173 257.097 171.913L255.723 173.367ZM257.03 177.05C257.03 178.564 256.568 179.749 255.684 180.682L257.136 182.058C258.412 180.711 259.03 179.016 259.03 177.05H257.03ZM255.684 180.682C254.834 181.58 253.621 182.08 251.91 182.08V184.08C254.039 184.08 255.826 183.44 257.136 182.058L255.684 180.682ZM251.91 182.08C250.341 182.08 249.179 181.593 248.316 180.682L246.864 182.058C248.161 183.427 249.879 184.08 251.91 184.08V182.08ZM248.316 180.682C247.432 179.749 246.97 178.564 246.97 177.05H244.97C244.97 179.016 245.588 180.711 246.864 182.058L248.316 180.682Z" fill="#0AE227" mask="url(#path-54-outside-27_370_1897)"/>
<mask id="path-56-outside-28_370_1897" maskUnits="userSpaceOnUse" x="233" y="192" width="16" height="15" fill="black">
<rect fill="white" x="233" y="192" width="16" height="15"/>
<path d="M234.97 199.05C234.97 197.13 235.51 195.66 236.59 194.64C237.67 193.56 239.11 193.02 240.91 193.02C242.83 193.02 244.33 193.56 245.41 194.64C246.49 195.66 247.03 197.13 247.03 199.05C247.03 200.79 246.49 202.23 245.41 203.37C244.33 204.51 242.83 205.08 240.91 205.08C239.11 205.08 237.67 204.51 236.59 203.37C235.51 202.23 234.97 200.79 234.97 199.05Z"/>
</mask>
<path d="M236.59 194.64L237.277 195.367L237.287 195.357L237.297 195.347L236.59 194.64ZM245.41 194.64L244.703 195.347L244.713 195.357L244.723 195.367L245.41 194.64ZM245.41 203.37L244.684 202.682L244.684 202.682L245.41 203.37ZM235.97 199.05C235.97 197.32 236.451 196.147 237.277 195.367L235.903 193.913C234.569 195.173 233.97 196.94 233.97 199.05H235.97ZM237.297 195.347C238.156 194.488 239.324 194.02 240.91 194.02V192.02C238.896 192.02 237.184 192.632 235.883 193.933L237.297 195.347ZM240.91 194.02C242.637 194.02 243.856 194.5 244.703 195.347L246.117 193.933C244.804 192.62 243.023 192.02 240.91 192.02V194.02ZM244.723 195.367C245.549 196.147 246.03 197.32 246.03 199.05H248.03C248.03 196.94 247.431 195.173 246.097 193.913L244.723 195.367ZM246.03 199.05C246.03 200.564 245.568 201.749 244.684 202.682L246.136 204.058C247.412 202.711 248.03 201.016 248.03 199.05H246.03ZM244.684 202.682C243.834 203.58 242.621 204.08 240.91 204.08V206.08C243.039 206.08 244.826 205.44 246.136 204.058L244.684 202.682ZM240.91 204.08C239.341 204.08 238.179 203.593 237.316 202.682L235.864 204.058C237.161 205.427 238.879 206.08 240.91 206.08V204.08ZM237.316 202.682C236.432 201.749 235.97 200.564 235.97 199.05H233.97C233.97 201.016 234.588 202.711 235.864 204.058L237.316 202.682Z" fill="#0AE227" mask="url(#path-56-outside-28_370_1897)"/>
<mask id="path-58-outside-29_370_1897" maskUnits="userSpaceOnUse" x="262" y="215" width="16" height="15" fill="black">
<rect fill="white" x="262" y="215" width="16" height="15"/>
<path d="M263.97 222.05C263.97 220.13 264.51 218.66 265.59 217.64C266.67 216.56 268.11 216.02 269.91 216.02C271.83 216.02 273.33 216.56 274.41 217.64C275.49 218.66 276.03 220.13 276.03 222.05C276.03 223.79 275.49 225.23 274.41 226.37C273.33 227.51 271.83 228.08 269.91 228.08C268.11 228.08 266.67 227.51 265.59 226.37C264.51 225.23 263.97 223.79 263.97 222.05Z"/>
</mask>
<path d="M265.59 217.64L266.277 218.367L266.287 218.357L266.297 218.347L265.59 217.64ZM274.41 217.64L273.703 218.347L273.713 218.357L273.723 218.367L274.41 217.64ZM274.41 226.37L273.684 225.682L273.684 225.682L274.41 226.37ZM264.97 222.05C264.97 220.32 265.451 219.147 266.277 218.367L264.903 216.913C263.569 218.173 262.97 219.94 262.97 222.05H264.97ZM266.297 218.347C267.156 217.488 268.324 217.02 269.91 217.02V215.02C267.896 215.02 266.184 215.632 264.883 216.933L266.297 218.347ZM269.91 217.02C271.637 217.02 272.856 217.5 273.703 218.347L275.117 216.933C273.804 215.62 272.023 215.02 269.91 215.02V217.02ZM273.723 218.367C274.549 219.147 275.03 220.32 275.03 222.05H277.03C277.03 219.94 276.431 218.173 275.097 216.913L273.723 218.367ZM275.03 222.05C275.03 223.564 274.568 224.749 273.684 225.682L275.136 227.058C276.412 225.711 277.03 224.016 277.03 222.05H275.03ZM273.684 225.682C272.834 226.58 271.621 227.08 269.91 227.08V229.08C272.039 229.08 273.826 228.44 275.136 227.058L273.684 225.682ZM269.91 227.08C268.341 227.08 267.179 226.593 266.316 225.682L264.864 227.058C266.161 228.427 267.879 229.08 269.91 229.08V227.08ZM266.316 225.682C265.432 224.749 264.97 223.564 264.97 222.05H262.97C262.97 224.016 263.588 225.711 264.864 227.058L266.316 225.682Z" fill="#0AE227" mask="url(#path-58-outside-29_370_1897)"/>
<mask id="path-60-outside-30_370_1897" maskUnits="userSpaceOnUse" x="231" y="224" width="16" height="15" fill="black">
<rect fill="white" x="231" y="224" width="16" height="15"/>
<path d="M232.97 231.05C232.97 229.13 233.51 227.66 234.59 226.64C235.67 225.56 237.11 225.02 238.91 225.02C240.83 225.02 242.33 225.56 243.41 226.64C244.49 227.66 245.03 229.13 245.03 231.05C245.03 232.79 244.49 234.23 243.41 235.37C242.33 236.51 240.83 237.08 238.91 237.08C237.11 237.08 235.67 236.51 234.59 235.37C233.51 234.23 232.97 232.79 232.97 231.05Z"/>
</mask>
<path d="M234.59 226.64L235.277 227.367L235.287 227.357L235.297 227.347L234.59 226.64ZM243.41 226.64L242.703 227.347L242.713 227.357L242.723 227.367L243.41 226.64ZM243.41 235.37L242.684 234.682L242.684 234.682L243.41 235.37ZM233.97 231.05C233.97 229.32 234.451 228.147 235.277 227.367L233.903 225.913C232.569 227.173 231.97 228.94 231.97 231.05H233.97ZM235.297 227.347C236.156 226.488 237.324 226.02 238.91 226.02V224.02C236.896 224.02 235.184 224.632 233.883 225.933L235.297 227.347ZM238.91 226.02C240.637 226.02 241.856 226.5 242.703 227.347L244.117 225.933C242.804 224.62 241.023 224.02 238.91 224.02V226.02ZM242.723 227.367C243.549 228.147 244.03 229.32 244.03 231.05H246.03C246.03 228.94 245.431 227.173 244.097 225.913L242.723 227.367ZM244.03 231.05C244.03 232.564 243.568 233.749 242.684 234.682L244.136 236.058C245.412 234.711 246.03 233.016 246.03 231.05H244.03ZM242.684 234.682C241.834 235.58 240.621 236.08 238.91 236.08V238.08C241.039 238.08 242.826 237.44 244.136 236.058L242.684 234.682ZM238.91 236.08C237.341 236.08 236.179 235.593 235.316 234.682L233.864 236.058C235.161 237.427 236.879 238.08 238.91 238.08V236.08ZM235.316 234.682C234.432 233.749 233.97 232.564 233.97 231.05H231.97C231.97 233.016 232.588 234.711 233.864 236.058L235.316 234.682Z" fill="#0AE227" mask="url(#path-60-outside-30_370_1897)"/>
<mask id="path-62-outside-31_370_1897" maskUnits="userSpaceOnUse" x="277" y="192" width="16" height="15" fill="black">
<rect fill="white" x="277" y="192" width="16" height="15"/>
<path d="M278.97 199.05C278.97 197.13 279.51 195.66 280.59 194.64C281.67 193.56 283.11 193.02 284.91 193.02C286.83 193.02 288.33 193.56 289.41 194.64C290.49 195.66 291.03 197.13 291.03 199.05C291.03 200.79 290.49 202.23 289.41 203.37C288.33 204.51 286.83 205.08 284.91 205.08C283.11 205.08 281.67 204.51 280.59 203.37C279.51 202.23 278.97 200.79 278.97 199.05Z"/>
</mask>
<path d="M280.59 194.64L281.277 195.367L281.287 195.357L281.297 195.347L280.59 194.64ZM289.41 194.64L288.703 195.347L288.713 195.357L288.723 195.367L289.41 194.64ZM289.41 203.37L288.684 202.682L288.684 202.682L289.41 203.37ZM279.97 199.05C279.97 197.32 280.451 196.147 281.277 195.367L279.903 193.913C278.569 195.173 277.97 196.94 277.97 199.05H279.97ZM281.297 195.347C282.156 194.488 283.324 194.02 284.91 194.02V192.02C282.896 192.02 281.184 192.632 279.883 193.933L281.297 195.347ZM284.91 194.02C286.637 194.02 287.856 194.5 288.703 195.347L290.117 193.933C288.804 192.62 287.023 192.02 284.91 192.02V194.02ZM288.723 195.367C289.549 196.147 290.03 197.32 290.03 199.05H292.03C292.03 196.94 291.431 195.173 290.097 193.913L288.723 195.367ZM290.03 199.05C290.03 200.564 289.568 201.749 288.684 202.682L290.136 204.058C291.412 202.711 292.03 201.016 292.03 199.05H290.03ZM288.684 202.682C287.834 203.58 286.621 204.08 284.91 204.08V206.08C287.039 206.08 288.826 205.44 290.136 204.058L288.684 202.682ZM284.91 204.08C283.341 204.08 282.179 203.593 281.316 202.682L279.864 204.058C281.161 205.427 282.879 206.08 284.91 206.08V204.08ZM281.316 202.682C280.432 201.749 279.97 200.564 279.97 199.05H277.97C277.97 201.016 278.588 202.711 279.864 204.058L281.316 202.682Z" fill="#0AE227" mask="url(#path-62-outside-31_370_1897)"/>
<mask id="path-64-outside-32_370_1897" maskUnits="userSpaceOnUse" x="265" y="107" width="16" height="15" fill="black">
<rect fill="white" x="265" y="107" width="16" height="15"/>
<path d="M266.97 114.05C266.97 112.13 267.51 110.66 268.59 109.64C269.67 108.56 271.11 108.02 272.91 108.02C274.83 108.02 276.33 108.56 277.41 109.64C278.49 110.66 279.03 112.13 279.03 114.05C279.03 115.79 278.49 117.23 277.41 118.37C276.33 119.51 274.83 120.08 272.91 120.08C271.11 120.08 269.67 119.51 268.59 118.37C267.51 117.23 266.97 115.79 266.97 114.05Z"/>
</mask>
<path d="M268.59 109.64L269.277 110.367L269.287 110.357L269.297 110.347L268.59 109.64ZM277.41 109.64L276.703 110.347L276.713 110.357L276.723 110.367L277.41 109.64ZM277.41 118.37L276.684 117.682L276.684 117.682L277.41 118.37ZM267.97 114.05C267.97 112.32 268.451 111.147 269.277 110.367L267.903 108.913C266.569 110.173 265.97 111.94 265.97 114.05H267.97ZM269.297 110.347C270.156 109.488 271.324 109.02 272.91 109.02V107.02C270.896 107.02 269.184 107.632 267.883 108.933L269.297 110.347ZM272.91 109.02C274.637 109.02 275.856 109.5 276.703 110.347L278.117 108.933C276.804 107.62 275.023 107.02 272.91 107.02V109.02ZM276.723 110.367C277.549 111.147 278.03 112.32 278.03 114.05H280.03C280.03 111.94 279.431 110.173 278.097 108.913L276.723 110.367ZM278.03 114.05C278.03 115.564 277.568 116.749 276.684 117.682L278.136 119.058C279.412 117.711 280.03 116.016 280.03 114.05H278.03ZM276.684 117.682C275.834 118.58 274.621 119.08 272.91 119.08V121.08C275.039 121.08 276.826 120.44 278.136 119.058L276.684 117.682ZM272.91 119.08C271.341 119.08 270.179 118.593 269.316 117.682L267.864 119.058C269.161 120.427 270.879 121.08 272.91 121.08V119.08ZM269.316 117.682C268.432 116.749 267.97 115.564 267.97 114.05H265.97C265.97 116.016 266.588 117.711 267.864 119.058L269.316 117.682Z" fill="#0AE227" mask="url(#path-64-outside-32_370_1897)"/>
<mask id="path-66-outside-33_370_1897" maskUnits="userSpaceOnUse" x="291" y="165" width="16" height="15" fill="black">
<rect fill="white" x="291" y="165" width="16" height="15"/>
<path d="M292.97 172.05C292.97 170.13 293.51 168.66 294.59 167.64C295.67 166.56 297.11 166.02 298.91 166.02C300.83 166.02 302.33 166.56 303.41 167.64C304.49 168.66 305.03 170.13 305.03 172.05C305.03 173.79 304.49 175.23 303.41 176.37C302.33 177.51 300.83 178.08 298.91 178.08C297.11 178.08 295.67 177.51 294.59 176.37C293.51 175.23 292.97 173.79 292.97 172.05Z"/>
</mask>
<path d="M294.59 167.64L295.277 168.367L295.287 168.357L295.297 168.347L294.59 167.64ZM303.41 167.64L302.703 168.347L302.713 168.357L302.723 168.367L303.41 167.64ZM303.41 176.37L302.684 175.682L302.684 175.682L303.41 176.37ZM293.97 172.05C293.97 170.32 294.451 169.147 295.277 168.367L293.903 166.913C292.569 168.173 291.97 169.94 291.97 172.05H293.97ZM295.297 168.347C296.156 167.488 297.324 167.02 298.91 167.02V165.02C296.896 165.02 295.184 165.632 293.883 166.933L295.297 168.347ZM298.91 167.02C300.637 167.02 301.856 167.5 302.703 168.347L304.117 166.933C302.804 165.62 301.023 165.02 298.91 165.02V167.02ZM302.723 168.367C303.549 169.147 304.03 170.32 304.03 172.05H306.03C306.03 169.94 305.431 168.173 304.097 166.913L302.723 168.367ZM304.03 172.05C304.03 173.564 303.568 174.749 302.684 175.682L304.136 177.058C305.412 175.711 306.03 174.016 306.03 172.05H304.03ZM302.684 175.682C301.834 176.58 300.621 177.08 298.91 177.08V179.08C301.039 179.08 302.826 178.44 304.136 177.058L302.684 175.682ZM298.91 177.08C297.341 177.08 296.179 176.593 295.316 175.682L293.864 177.058C295.161 178.427 296.879 179.08 298.91 179.08V177.08ZM295.316 175.682C294.432 174.749 293.97 173.564 293.97 172.05H291.97C291.97 174.016 292.588 175.711 293.864 177.058L295.316 175.682Z" fill="#0AE227" mask="url(#path-66-outside-33_370_1897)"/>
<mask id="path-68-outside-34_370_1897" maskUnits="userSpaceOnUse" x="233" y="241" width="16" height="15" fill="black">
<rect fill="white" x="233" y="241" width="16" height="15"/>
<path d="M234.97 248.05C234.97 246.13 235.51 244.66 236.59 243.64C237.67 242.56 239.11 242.02 240.91 242.02C242.83 242.02 244.33 242.56 245.41 243.64C246.49 244.66 247.03 246.13 247.03 248.05C247.03 249.79 246.49 251.23 245.41 252.37C244.33 253.51 242.83 254.08 240.91 254.08C239.11 254.08 237.67 253.51 236.59 252.37C235.51 251.23 234.97 249.79 234.97 248.05Z"/>
</mask>
<path d="M236.59 243.64L237.277 244.367L237.287 244.357L237.297 244.347L236.59 243.64ZM245.41 243.64L244.703 244.347L244.713 244.357L244.723 244.367L245.41 243.64ZM245.41 252.37L244.684 251.682L244.684 251.682L245.41 252.37ZM235.97 248.05C235.97 246.32 236.451 245.147 237.277 244.367L235.903 242.913C234.569 244.173 233.97 245.94 233.97 248.05H235.97ZM237.297 244.347C238.156 243.488 239.324 243.02 240.91 243.02V241.02C238.896 241.02 237.184 241.632 235.883 242.933L237.297 244.347ZM240.91 243.02C242.637 243.02 243.856 243.5 244.703 244.347L246.117 242.933C244.804 241.62 243.023 241.02 240.91 241.02V243.02ZM244.723 244.367C245.549 245.147 246.03 246.32 246.03 248.05H248.03C248.03 245.94 247.431 244.173 246.097 242.913L244.723 244.367ZM246.03 248.05C246.03 249.564 245.568 250.749 244.684 251.682L246.136 253.058C247.412 251.711 248.03 250.016 248.03 248.05H246.03ZM244.684 251.682C243.834 252.58 242.621 253.08 240.91 253.08V255.08C243.039 255.08 244.826 254.44 246.136 253.058L244.684 251.682ZM240.91 253.08C239.341 253.08 238.179 252.593 237.316 251.682L235.864 253.058C237.161 254.427 238.879 255.08 240.91 255.08V253.08ZM237.316 251.682C236.432 250.749 235.97 249.564 235.97 248.05H233.97C233.97 250.016 234.588 251.711 235.864 253.058L237.316 251.682Z" fill="#0AE227" mask="url(#path-68-outside-34_370_1897)"/>
<mask id="path-70-outside-35_370_1897" maskUnits="userSpaceOnUse" x="278" y="230" width="16" height="15" fill="black">
<rect fill="white" x="278" y="230" width="16" height="15"/>
<path d="M279.97 237.05C279.97 235.13 280.51 233.66 281.59 232.64C282.67 231.56 284.11 231.02 285.91 231.02C287.83 231.02 289.33 231.56 290.41 232.64C291.49 233.66 292.03 235.13 292.03 237.05C292.03 238.79 291.49 240.23 290.41 241.37C289.33 242.51 287.83 243.08 285.91 243.08C284.11 243.08 282.67 242.51 281.59 241.37C280.51 240.23 279.97 238.79 279.97 237.05Z"/>
</mask>
<path d="M281.59 232.64L282.277 233.367L282.287 233.357L282.297 233.347L281.59 232.64ZM290.41 232.64L289.703 233.347L289.713 233.357L289.723 233.367L290.41 232.64ZM290.41 241.37L289.684 240.682L289.684 240.682L290.41 241.37ZM280.97 237.05C280.97 235.32 281.451 234.147 282.277 233.367L280.903 231.913C279.569 233.173 278.97 234.94 278.97 237.05H280.97ZM282.297 233.347C283.156 232.488 284.324 232.02 285.91 232.02V230.02C283.896 230.02 282.184 230.632 280.883 231.933L282.297 233.347ZM285.91 232.02C287.637 232.02 288.856 232.5 289.703 233.347L291.117 231.933C289.804 230.62 288.023 230.02 285.91 230.02V232.02ZM289.723 233.367C290.549 234.147 291.03 235.32 291.03 237.05H293.03C293.03 234.94 292.431 233.173 291.097 231.913L289.723 233.367ZM291.03 237.05C291.03 238.564 290.568 239.749 289.684 240.682L291.136 242.058C292.412 240.711 293.03 239.016 293.03 237.05H291.03ZM289.684 240.682C288.834 241.58 287.621 242.08 285.91 242.08V244.08C288.039 244.08 289.826 243.44 291.136 242.058L289.684 240.682ZM285.91 242.08C284.341 242.08 283.179 241.593 282.316 240.682L280.864 242.058C282.161 243.427 283.879 244.08 285.91 244.08V242.08ZM282.316 240.682C281.432 239.749 280.97 238.564 280.97 237.05H278.97C278.97 239.016 279.588 240.711 280.864 242.058L282.316 240.682Z" fill="#0AE227" mask="url(#path-70-outside-35_370_1897)"/>
<mask id="path-72-outside-36_370_1897" maskUnits="userSpaceOnUse" x="297" y="216" width="16" height="15" fill="black">
<rect fill="white" x="297" y="216" width="16" height="15"/>
<path d="M298.97 223.05C298.97 221.13 299.51 219.66 300.59 218.64C301.67 217.56 303.11 217.02 304.91 217.02C306.83 217.02 308.33 217.56 309.41 218.64C310.49 219.66 311.03 221.13 311.03 223.05C311.03 224.79 310.49 226.23 309.41 227.37C308.33 228.51 306.83 229.08 304.91 229.08C303.11 229.08 301.67 228.51 300.59 227.37C299.51 226.23 298.97 224.79 298.97 223.05Z"/>
</mask>
<path d="M300.59 218.64L301.277 219.367L301.287 219.357L301.297 219.347L300.59 218.64ZM309.41 218.64L308.703 219.347L308.713 219.357L308.723 219.367L309.41 218.64ZM309.41 227.37L308.684 226.682L308.684 226.682L309.41 227.37ZM299.97 223.05C299.97 221.32 300.451 220.147 301.277 219.367L299.903 217.913C298.569 219.173 297.97 220.94 297.97 223.05H299.97ZM301.297 219.347C302.156 218.488 303.324 218.02 304.91 218.02V216.02C302.896 216.02 301.184 216.632 299.883 217.933L301.297 219.347ZM304.91 218.02C306.637 218.02 307.856 218.5 308.703 219.347L310.117 217.933C308.804 216.62 307.023 216.02 304.91 216.02V218.02ZM308.723 219.367C309.549 220.147 310.03 221.32 310.03 223.05H312.03C312.03 220.94 311.431 219.173 310.097 217.913L308.723 219.367ZM310.03 223.05C310.03 224.564 309.568 225.749 308.684 226.682L310.136 228.058C311.412 226.711 312.03 225.016 312.03 223.05H310.03ZM308.684 226.682C307.834 227.58 306.621 228.08 304.91 228.08V230.08C307.039 230.08 308.826 229.44 310.136 228.058L308.684 226.682ZM304.91 228.08C303.341 228.08 302.179 227.593 301.316 226.682L299.864 228.058C301.161 229.427 302.879 230.08 304.91 230.08V228.08ZM301.316 226.682C300.432 225.749 299.97 224.564 299.97 223.05H297.97C297.97 225.016 298.588 226.711 299.864 228.058L301.316 226.682Z" fill="#0AE227" mask="url(#path-72-outside-36_370_1897)"/>
<mask id="path-74-outside-37_370_1897" maskUnits="userSpaceOnUse" x="285" y="274" width="16" height="15" fill="black">
<rect fill="white" x="285" y="274" width="16" height="15"/>
<path d="M286.97 281.05C286.97 279.13 287.51 277.66 288.59 276.64C289.67 275.56 291.11 275.02 292.91 275.02C294.83 275.02 296.33 275.56 297.41 276.64C298.49 277.66 299.03 279.13 299.03 281.05C299.03 282.79 298.49 284.23 297.41 285.37C296.33 286.51 294.83 287.08 292.91 287.08C291.11 287.08 289.67 286.51 288.59 285.37C287.51 284.23 286.97 282.79 286.97 281.05Z"/>
</mask>
<path d="M288.59 276.64L289.277 277.367L289.287 277.357L289.297 277.347L288.59 276.64ZM297.41 276.64L296.703 277.347L296.713 277.357L296.723 277.367L297.41 276.64ZM297.41 285.37L296.684 284.682L296.684 284.682L297.41 285.37ZM287.97 281.05C287.97 279.32 288.451 278.147 289.277 277.367L287.903 275.913C286.569 277.173 285.97 278.94 285.97 281.05H287.97ZM289.297 277.347C290.156 276.488 291.324 276.02 292.91 276.02V274.02C290.896 274.02 289.184 274.632 287.883 275.933L289.297 277.347ZM292.91 276.02C294.637 276.02 295.856 276.5 296.703 277.347L298.117 275.933C296.804 274.62 295.023 274.02 292.91 274.02V276.02ZM296.723 277.367C297.549 278.147 298.03 279.32 298.03 281.05H300.03C300.03 278.94 299.431 277.173 298.097 275.913L296.723 277.367ZM298.03 281.05C298.03 282.564 297.568 283.749 296.684 284.682L298.136 286.058C299.412 284.711 300.03 283.016 300.03 281.05H298.03ZM296.684 284.682C295.834 285.58 294.621 286.08 292.91 286.08V288.08C295.039 288.08 296.826 287.44 298.136 286.058L296.684 284.682ZM292.91 286.08C291.341 286.08 290.179 285.593 289.316 284.682L287.864 286.058C289.161 287.427 290.879 288.08 292.91 288.08V286.08ZM289.316 284.682C288.432 283.749 287.97 282.564 287.97 281.05H285.97C285.97 283.016 286.588 284.711 287.864 286.058L289.316 284.682Z" fill="#0AE227" mask="url(#path-74-outside-37_370_1897)"/>
<mask id="path-76-outside-38_370_1897" maskUnits="userSpaceOnUse" x="248" y="307" width="16" height="15" fill="black">
<rect fill="white" x="248" y="307" width="16" height="15"/>
<path d="M249.97 314.05C249.97 312.13 250.51 310.66 251.59 309.64C252.67 308.56 254.11 308.02 255.91 308.02C257.83 308.02 259.33 308.56 260.41 309.64C261.49 310.66 262.03 312.13 262.03 314.05C262.03 315.79 261.49 317.23 260.41 318.37C259.33 319.51 257.83 320.08 255.91 320.08C254.11 320.08 252.67 319.51 251.59 318.37C250.51 317.23 249.97 315.79 249.97 314.05Z"/>
</mask>
<path d="M251.59 309.64L252.277 310.367L252.287 310.357L252.297 310.347L251.59 309.64ZM260.41 309.64L259.703 310.347L259.713 310.357L259.723 310.367L260.41 309.64ZM260.41 318.37L259.684 317.682L259.684 317.682L260.41 318.37ZM250.97 314.05C250.97 312.32 251.451 311.147 252.277 310.367L250.903 308.913C249.569 310.173 248.97 311.94 248.97 314.05H250.97ZM252.297 310.347C253.156 309.488 254.324 309.02 255.91 309.02V307.02C253.896 307.02 252.184 307.632 250.883 308.933L252.297 310.347ZM255.91 309.02C257.637 309.02 258.856 309.5 259.703 310.347L261.117 308.933C259.804 307.62 258.023 307.02 255.91 307.02V309.02ZM259.723 310.367C260.549 311.147 261.03 312.32 261.03 314.05H263.03C263.03 311.94 262.431 310.173 261.097 308.913L259.723 310.367ZM261.03 314.05C261.03 315.564 260.568 316.749 259.684 317.682L261.136 319.058C262.412 317.711 263.03 316.016 263.03 314.05H261.03ZM259.684 317.682C258.834 318.58 257.621 319.08 255.91 319.08V321.08C258.039 321.08 259.826 320.44 261.136 319.058L259.684 317.682ZM255.91 319.08C254.341 319.08 253.179 318.593 252.316 317.682L250.864 319.058C252.161 320.427 253.879 321.08 255.91 321.08V319.08ZM252.316 317.682C251.432 316.749 250.97 315.564 250.97 314.05H248.97C248.97 316.016 249.588 317.711 250.864 319.058L252.316 317.682Z" fill="#0AE227" mask="url(#path-76-outside-38_370_1897)"/>
<mask id="path-78-outside-39_370_1897" maskUnits="userSpaceOnUse" x="197" y="286" width="16" height="15" fill="black">
<rect fill="white" x="197" y="286" width="16" height="15"/>
<path d="M198.97 293.05C198.97 291.13 199.51 289.66 200.59 288.64C201.67 287.56 203.11 287.02 204.91 287.02C206.83 287.02 208.33 287.56 209.41 288.64C210.49 289.66 211.03 291.13 211.03 293.05C211.03 294.79 210.49 296.23 209.41 297.37C208.33 298.51 206.83 299.08 204.91 299.08C203.11 299.08 201.67 298.51 200.59 297.37C199.51 296.23 198.97 294.79 198.97 293.05Z"/>
</mask>
<path d="M200.59 288.64L201.277 289.367L201.287 289.357L201.297 289.347L200.59 288.64ZM209.41 288.64L208.703 289.347L208.713 289.357L208.723 289.367L209.41 288.64ZM209.41 297.37L208.684 296.682L208.684 296.682L209.41 297.37ZM199.97 293.05C199.97 291.32 200.451 290.147 201.277 289.367L199.903 287.913C198.569 289.173 197.97 290.94 197.97 293.05H199.97ZM201.297 289.347C202.156 288.488 203.324 288.02 204.91 288.02V286.02C202.896 286.02 201.184 286.632 199.883 287.933L201.297 289.347ZM204.91 288.02C206.637 288.02 207.856 288.5 208.703 289.347L210.117 287.933C208.804 286.62 207.023 286.02 204.91 286.02V288.02ZM208.723 289.367C209.549 290.147 210.03 291.32 210.03 293.05H212.03C212.03 290.94 211.431 289.173 210.097 287.913L208.723 289.367ZM210.03 293.05C210.03 294.564 209.568 295.749 208.684 296.682L210.136 298.058C211.412 296.711 212.03 295.016 212.03 293.05H210.03ZM208.684 296.682C207.834 297.58 206.621 298.08 204.91 298.08V300.08C207.039 300.08 208.826 299.44 210.136 298.058L208.684 296.682ZM204.91 298.08C203.341 298.08 202.179 297.593 201.316 296.682L199.864 298.058C201.161 299.427 202.879 300.08 204.91 300.08V298.08ZM201.316 296.682C200.432 295.749 199.97 294.564 199.97 293.05H197.97C197.97 295.016 198.588 296.711 199.864 298.058L201.316 296.682Z" fill="#0AE227" mask="url(#path-78-outside-39_370_1897)"/>
<mask id="path-80-outside-40_370_1897" maskUnits="userSpaceOnUse" x="178" y="324" width="16" height="15" fill="black">
<rect fill="white" x="178" y="324" width="16" height="15"/>
<path d="M179.97 331.05C179.97 329.13 180.51 327.66 181.59 326.64C182.67 325.56 184.11 325.02 185.91 325.02C187.83 325.02 189.33 325.56 190.41 326.64C191.49 327.66 192.03 329.13 192.03 331.05C192.03 332.79 191.49 334.23 190.41 335.37C189.33 336.51 187.83 337.08 185.91 337.08C184.11 337.08 182.67 336.51 181.59 335.37C180.51 334.23 179.97 332.79 179.97 331.05Z"/>
</mask>
<path d="M181.59 326.64L182.277 327.367L182.287 327.357L182.297 327.347L181.59 326.64ZM190.41 326.64L189.703 327.347L189.713 327.357L189.723 327.367L190.41 326.64ZM190.41 335.37L189.684 334.682L189.684 334.682L190.41 335.37ZM180.97 331.05C180.97 329.32 181.451 328.147 182.277 327.367L180.903 325.913C179.569 327.173 178.97 328.94 178.97 331.05H180.97ZM182.297 327.347C183.156 326.488 184.324 326.02 185.91 326.02V324.02C183.896 324.02 182.184 324.632 180.883 325.933L182.297 327.347ZM185.91 326.02C187.637 326.02 188.856 326.5 189.703 327.347L191.117 325.933C189.804 324.62 188.023 324.02 185.91 324.02V326.02ZM189.723 327.367C190.549 328.147 191.03 329.32 191.03 331.05H193.03C193.03 328.94 192.431 327.173 191.097 325.913L189.723 327.367ZM191.03 331.05C191.03 332.564 190.568 333.749 189.684 334.682L191.136 336.058C192.412 334.711 193.03 333.016 193.03 331.05H191.03ZM189.684 334.682C188.834 335.58 187.621 336.08 185.91 336.08V338.08C188.039 338.08 189.826 337.44 191.136 336.058L189.684 334.682ZM185.91 336.08C184.341 336.08 183.179 335.593 182.316 334.682L180.864 336.058C182.161 337.427 183.879 338.08 185.91 338.08V336.08ZM182.316 334.682C181.432 333.749 180.97 332.564 180.97 331.05H178.97C178.97 333.016 179.588 334.711 180.864 336.058L182.316 334.682Z" fill="#0AE227" mask="url(#path-80-outside-40_370_1897)"/>
<mask id="path-82-outside-41_370_1897" maskUnits="userSpaceOnUse" x="161" y="329" width="16" height="15" fill="black">
<rect fill="white" x="161" y="329" width="16" height="15"/>
<path d="M162.97 336.05C162.97 334.13 163.51 332.66 164.59 331.64C165.67 330.56 167.11 330.02 168.91 330.02C170.83 330.02 172.33 330.56 173.41 331.64C174.49 332.66 175.03 334.13 175.03 336.05C175.03 337.79 174.49 339.23 173.41 340.37C172.33 341.51 170.83 342.08 168.91 342.08C167.11 342.08 165.67 341.51 164.59 340.37C163.51 339.23 162.97 337.79 162.97 336.05Z"/>
</mask>
<path d="M164.59 331.64L165.277 332.367L165.287 332.357L165.297 332.347L164.59 331.64ZM173.41 331.64L172.703 332.347L172.713 332.357L172.723 332.367L173.41 331.64ZM173.41 340.37L172.684 339.682L172.684 339.682L173.41 340.37ZM163.97 336.05C163.97 334.32 164.451 333.147 165.277 332.367L163.903 330.913C162.569 332.173 161.97 333.94 161.97 336.05H163.97ZM165.297 332.347C166.156 331.488 167.324 331.02 168.91 331.02V329.02C166.896 329.02 165.184 329.632 163.883 330.933L165.297 332.347ZM168.91 331.02C170.637 331.02 171.856 331.5 172.703 332.347L174.117 330.933C172.804 329.62 171.023 329.02 168.91 329.02V331.02ZM172.723 332.367C173.549 333.147 174.03 334.32 174.03 336.05H176.03C176.03 333.94 175.431 332.173 174.097 330.913L172.723 332.367ZM174.03 336.05C174.03 337.564 173.568 338.749 172.684 339.682L174.136 341.058C175.412 339.711 176.03 338.016 176.03 336.05H174.03ZM172.684 339.682C171.834 340.58 170.621 341.08 168.91 341.08V343.08C171.039 343.08 172.826 342.44 174.136 341.058L172.684 339.682ZM168.91 341.08C167.341 341.08 166.179 340.593 165.316 339.682L163.864 341.058C165.161 342.427 166.879 343.08 168.91 343.08V341.08ZM165.316 339.682C164.432 338.749 163.97 337.564 163.97 336.05H161.97C161.97 338.016 162.588 339.711 163.864 341.058L165.316 339.682Z" fill="#0AE227" mask="url(#path-82-outside-41_370_1897)"/>
<mask id="path-84-outside-42_370_1897" maskUnits="userSpaceOnUse" x="205" y="344" width="16" height="15" fill="black">
<rect fill="white" x="205" y="344" width="16" height="15"/>
<path d="M206.97 351.05C206.97 349.13 207.51 347.66 208.59 346.64C209.67 345.56 211.11 345.02 212.91 345.02C214.83 345.02 216.33 345.56 217.41 346.64C218.49 347.66 219.03 349.13 219.03 351.05C219.03 352.79 218.49 354.23 217.41 355.37C216.33 356.51 214.83 357.08 212.91 357.08C211.11 357.08 209.67 356.51 208.59 355.37C207.51 354.23 206.97 352.79 206.97 351.05Z"/>
</mask>
<path d="M208.59 346.64L209.277 347.367L209.287 347.357L209.297 347.347L208.59 346.64ZM217.41 346.64L216.703 347.347L216.713 347.357L216.723 347.367L217.41 346.64ZM217.41 355.37L216.684 354.682L216.684 354.682L217.41 355.37ZM207.97 351.05C207.97 349.32 208.451 348.147 209.277 347.367L207.903 345.913C206.569 347.173 205.97 348.94 205.97 351.05H207.97ZM209.297 347.347C210.156 346.488 211.324 346.02 212.91 346.02V344.02C210.896 344.02 209.184 344.632 207.883 345.933L209.297 347.347ZM212.91 346.02C214.637 346.02 215.856 346.5 216.703 347.347L218.117 345.933C216.804 344.62 215.023 344.02 212.91 344.02V346.02ZM216.723 347.367C217.549 348.147 218.03 349.32 218.03 351.05H220.03C220.03 348.94 219.431 347.173 218.097 345.913L216.723 347.367ZM218.03 351.05C218.03 352.564 217.568 353.749 216.684 354.682L218.136 356.058C219.412 354.711 220.03 353.016 220.03 351.05H218.03ZM216.684 354.682C215.834 355.58 214.621 356.08 212.91 356.08V358.08C215.039 358.08 216.826 357.44 218.136 356.058L216.684 354.682ZM212.91 356.08C211.341 356.08 210.179 355.593 209.316 354.682L207.864 356.058C209.161 357.427 210.879 358.08 212.91 358.08V356.08ZM209.316 354.682C208.432 353.749 207.97 352.564 207.97 351.05H205.97C205.97 353.016 206.588 354.711 207.864 356.058L209.316 354.682Z" fill="#0AE227" mask="url(#path-84-outside-42_370_1897)"/>
<mask id="path-86-outside-43_370_1897" maskUnits="userSpaceOnUse" x="248" y="374" width="16" height="15" fill="black">
<rect fill="white" x="248" y="374" width="16" height="15"/>
<path d="M249.97 381.05C249.97 379.13 250.51 377.66 251.59 376.64C252.67 375.56 254.11 375.02 255.91 375.02C257.83 375.02 259.33 375.56 260.41 376.64C261.49 377.66 262.03 379.13 262.03 381.05C262.03 382.79 261.49 384.23 260.41 385.37C259.33 386.51 257.83 387.08 255.91 387.08C254.11 387.08 252.67 386.51 251.59 385.37C250.51 384.23 249.97 382.79 249.97 381.05Z"/>
</mask>
<path d="M251.59 376.64L252.277 377.367L252.287 377.357L252.297 377.347L251.59 376.64ZM260.41 376.64L259.703 377.347L259.713 377.357L259.723 377.367L260.41 376.64ZM260.41 385.37L259.684 384.682L259.684 384.682L260.41 385.37ZM250.97 381.05C250.97 379.32 251.451 378.147 252.277 377.367L250.903 375.913C249.569 377.173 248.97 378.94 248.97 381.05H250.97ZM252.297 377.347C253.156 376.488 254.324 376.02 255.91 376.02V374.02C253.896 374.02 252.184 374.632 250.883 375.933L252.297 377.347ZM255.91 376.02C257.637 376.02 258.856 376.5 259.703 377.347L261.117 375.933C259.804 374.62 258.023 374.02 255.91 374.02V376.02ZM259.723 377.367C260.549 378.147 261.03 379.32 261.03 381.05H263.03C263.03 378.94 262.431 377.173 261.097 375.913L259.723 377.367ZM261.03 381.05C261.03 382.564 260.568 383.749 259.684 384.682L261.136 386.058C262.412 384.711 263.03 383.016 263.03 381.05H261.03ZM259.684 384.682C258.834 385.58 257.621 386.08 255.91 386.08V388.08C258.039 388.08 259.826 387.44 261.136 386.058L259.684 384.682ZM255.91 386.08C254.341 386.08 253.179 385.593 252.316 384.682L250.864 386.058C252.161 387.427 253.879 388.08 255.91 388.08V386.08ZM252.316 384.682C251.432 383.749 250.97 382.564 250.97 381.05H248.97C248.97 383.016 249.588 384.711 250.864 386.058L252.316 384.682Z" fill="#0AE227" mask="url(#path-86-outside-43_370_1897)"/>
<mask id="path-88-outside-44_370_1897" maskUnits="userSpaceOnUse" x="157" y="365" width="16" height="15" fill="black">
<rect fill="white" x="157" y="365" width="16" height="15"/>
<path d="M158.97 372.05C158.97 370.13 159.51 368.66 160.59 367.64C161.67 366.56 163.11 366.02 164.91 366.02C166.83 366.02 168.33 366.56 169.41 367.64C170.49 368.66 171.03 370.13 171.03 372.05C171.03 373.79 170.49 375.23 169.41 376.37C168.33 377.51 166.83 378.08 164.91 378.08C163.11 378.08 161.67 377.51 160.59 376.37C159.51 375.23 158.97 373.79 158.97 372.05Z"/>
</mask>
<path d="M160.59 367.64L161.277 368.367L161.287 368.357L161.297 368.347L160.59 367.64ZM169.41 367.64L168.703 368.347L168.713 368.357L168.723 368.367L169.41 367.64ZM169.41 376.37L168.684 375.682L168.684 375.682L169.41 376.37ZM159.97 372.05C159.97 370.32 160.451 369.147 161.277 368.367L159.903 366.913C158.569 368.173 157.97 369.94 157.97 372.05H159.97ZM161.297 368.347C162.156 367.488 163.324 367.02 164.91 367.02V365.02C162.896 365.02 161.184 365.632 159.883 366.933L161.297 368.347ZM164.91 367.02C166.637 367.02 167.856 367.5 168.703 368.347L170.117 366.933C168.804 365.62 167.023 365.02 164.91 365.02V367.02ZM168.723 368.367C169.549 369.147 170.03 370.32 170.03 372.05H172.03C172.03 369.94 171.431 368.173 170.097 366.913L168.723 368.367ZM170.03 372.05C170.03 373.564 169.568 374.749 168.684 375.682L170.136 377.058C171.412 375.711 172.03 374.016 172.03 372.05H170.03ZM168.684 375.682C167.834 376.58 166.621 377.08 164.91 377.08V379.08C167.039 379.08 168.826 378.44 170.136 377.058L168.684 375.682ZM164.91 377.08C163.341 377.08 162.179 376.593 161.316 375.682L159.864 377.058C161.161 378.427 162.879 379.08 164.91 379.08V377.08ZM161.316 375.682C160.432 374.749 159.97 373.564 159.97 372.05H157.97C157.97 374.016 158.588 375.711 159.864 377.058L161.316 375.682Z" fill="#0AE227" mask="url(#path-88-outside-44_370_1897)"/>
<mask id="path-90-outside-45_370_1897" maskUnits="userSpaceOnUse" x="191" y="357" width="16" height="15" fill="black">
<rect fill="white" x="191" y="357" width="16" height="15"/>
<path d="M192.97 364.05C192.97 362.13 193.51 360.66 194.59 359.64C195.67 358.56 197.11 358.02 198.91 358.02C200.83 358.02 202.33 358.56 203.41 359.64C204.49 360.66 205.03 362.13 205.03 364.05C205.03 365.79 204.49 367.23 203.41 368.37C202.33 369.51 200.83 370.08 198.91 370.08C197.11 370.08 195.67 369.51 194.59 368.37C193.51 367.23 192.97 365.79 192.97 364.05Z"/>
</mask>
<path d="M194.59 359.64L195.277 360.367L195.287 360.357L195.297 360.347L194.59 359.64ZM203.41 359.64L202.703 360.347L202.713 360.357L202.723 360.367L203.41 359.64ZM203.41 368.37L202.684 367.682L202.684 367.682L203.41 368.37ZM193.97 364.05C193.97 362.32 194.451 361.147 195.277 360.367L193.903 358.913C192.569 360.173 191.97 361.94 191.97 364.05H193.97ZM195.297 360.347C196.156 359.488 197.324 359.02 198.91 359.02V357.02C196.896 357.02 195.184 357.632 193.883 358.933L195.297 360.347ZM198.91 359.02C200.637 359.02 201.856 359.5 202.703 360.347L204.117 358.933C202.804 357.62 201.023 357.02 198.91 357.02V359.02ZM202.723 360.367C203.549 361.147 204.03 362.32 204.03 364.05H206.03C206.03 361.94 205.431 360.173 204.097 358.913L202.723 360.367ZM204.03 364.05C204.03 365.564 203.568 366.749 202.684 367.682L204.136 369.058C205.412 367.711 206.03 366.016 206.03 364.05H204.03ZM202.684 367.682C201.834 368.58 200.621 369.08 198.91 369.08V371.08C201.039 371.08 202.826 370.44 204.136 369.058L202.684 367.682ZM198.91 369.08C197.341 369.08 196.179 368.593 195.316 367.682L193.864 369.058C195.161 370.427 196.879 371.08 198.91 371.08V369.08ZM195.316 367.682C194.432 366.749 193.97 365.564 193.97 364.05H191.97C191.97 366.016 192.588 367.711 193.864 369.058L195.316 367.682Z" fill="#0AE227" mask="url(#path-90-outside-45_370_1897)"/>
<mask id="path-92-outside-46_370_1897" maskUnits="userSpaceOnUse" x="130" y="357" width="16" height="15" fill="black">
<rect fill="white" x="130" y="357" width="16" height="15"/>
<path d="M131.97 364.05C131.97 362.13 132.51 360.66 133.59 359.64C134.67 358.56 136.11 358.02 137.91 358.02C139.83 358.02 141.33 358.56 142.41 359.64C143.49 360.66 144.03 362.13 144.03 364.05C144.03 365.79 143.49 367.23 142.41 368.37C141.33 369.51 139.83 370.08 137.91 370.08C136.11 370.08 134.67 369.51 133.59 368.37C132.51 367.23 131.97 365.79 131.97 364.05Z"/>
</mask>
<path d="M133.59 359.64L134.277 360.367L134.287 360.357L134.297 360.347L133.59 359.64ZM142.41 359.64L141.703 360.347L141.713 360.357L141.723 360.367L142.41 359.64ZM142.41 368.37L141.684 367.682L141.684 367.682L142.41 368.37ZM132.97 364.05C132.97 362.32 133.451 361.147 134.277 360.367L132.903 358.913C131.569 360.173 130.97 361.94 130.97 364.05H132.97ZM134.297 360.347C135.156 359.488 136.324 359.02 137.91 359.02V357.02C135.896 357.02 134.184 357.632 132.883 358.933L134.297 360.347ZM137.91 359.02C139.637 359.02 140.856 359.5 141.703 360.347L143.117 358.933C141.804 357.62 140.023 357.02 137.91 357.02V359.02ZM141.723 360.367C142.549 361.147 143.03 362.32 143.03 364.05H145.03C145.03 361.94 144.431 360.173 143.097 358.913L141.723 360.367ZM143.03 364.05C143.03 365.564 142.568 366.749 141.684 367.682L143.136 369.058C144.412 367.711 145.03 366.016 145.03 364.05H143.03ZM141.684 367.682C140.834 368.58 139.621 369.08 137.91 369.08V371.08C140.039 371.08 141.826 370.44 143.136 369.058L141.684 367.682ZM137.91 369.08C136.341 369.08 135.179 368.593 134.316 367.682L132.864 369.058C134.161 370.427 135.879 371.08 137.91 371.08V369.08ZM134.316 367.682C133.432 366.749 132.97 365.564 132.97 364.05H130.97C130.97 366.016 131.588 367.711 132.864 369.058L134.316 367.682Z" fill="#0AE227" mask="url(#path-92-outside-46_370_1897)"/>
<mask id="path-94-outside-47_370_1897" maskUnits="userSpaceOnUse" x="107" y="404" width="16" height="15" fill="black">
<rect fill="white" x="107" y="404" width="16" height="15"/>
<path d="M108.97 411.05C108.97 409.13 109.51 407.66 110.59 406.64C111.67 405.56 113.11 405.02 114.91 405.02C116.83 405.02 118.33 405.56 119.41 406.64C120.49 407.66 121.03 409.13 121.03 411.05C121.03 412.79 120.49 414.23 119.41 415.37C118.33 416.51 116.83 417.08 114.91 417.08C113.11 417.08 111.67 416.51 110.59 415.37C109.51 414.23 108.97 412.79 108.97 411.05Z"/>
</mask>
<path d="M110.59 406.64L111.277 407.367L111.287 407.357L111.297 407.347L110.59 406.64ZM119.41 406.64L118.703 407.347L118.713 407.357L118.723 407.367L119.41 406.64ZM119.41 415.37L118.684 414.682L118.684 414.682L119.41 415.37ZM109.97 411.05C109.97 409.32 110.451 408.147 111.277 407.367L109.903 405.913C108.569 407.173 107.97 408.94 107.97 411.05H109.97ZM111.297 407.347C112.156 406.488 113.324 406.02 114.91 406.02V404.02C112.896 404.02 111.184 404.632 109.883 405.933L111.297 407.347ZM114.91 406.02C116.637 406.02 117.856 406.5 118.703 407.347L120.117 405.933C118.804 404.62 117.023 404.02 114.91 404.02V406.02ZM118.723 407.367C119.549 408.147 120.03 409.32 120.03 411.05H122.03C122.03 408.94 121.431 407.173 120.097 405.913L118.723 407.367ZM120.03 411.05C120.03 412.564 119.568 413.749 118.684 414.682L120.136 416.058C121.412 414.711 122.03 413.016 122.03 411.05H120.03ZM118.684 414.682C117.834 415.58 116.621 416.08 114.91 416.08V418.08C117.039 418.08 118.826 417.44 120.136 416.058L118.684 414.682ZM114.91 416.08C113.341 416.08 112.179 415.593 111.316 414.682L109.864 416.058C111.161 417.427 112.879 418.08 114.91 418.08V416.08ZM111.316 414.682C110.432 413.749 109.97 412.564 109.97 411.05H107.97C107.97 413.016 108.588 414.711 109.864 416.058L111.316 414.682Z" fill="#0AE227" mask="url(#path-94-outside-47_370_1897)"/>
<mask id="path-96-outside-48_370_1897" maskUnits="userSpaceOnUse" x="203" y="411" width="16" height="15" fill="black">
<rect fill="white" x="203" y="411" width="16" height="15"/>
<path d="M204.97 418.05C204.97 416.13 205.51 414.66 206.59 413.64C207.67 412.56 209.11 412.02 210.91 412.02C212.83 412.02 214.33 412.56 215.41 413.64C216.49 414.66 217.03 416.13 217.03 418.05C217.03 419.79 216.49 421.23 215.41 422.37C214.33 423.51 212.83 424.08 210.91 424.08C209.11 424.08 207.67 423.51 206.59 422.37C205.51 421.23 204.97 419.79 204.97 418.05Z"/>
</mask>
<path d="M206.59 413.64L207.277 414.367L207.287 414.357L207.297 414.347L206.59 413.64ZM215.41 413.64L214.703 414.347L214.713 414.357L214.723 414.367L215.41 413.64ZM215.41 422.37L214.684 421.682L214.684 421.682L215.41 422.37ZM205.97 418.05C205.97 416.32 206.451 415.147 207.277 414.367L205.903 412.913C204.569 414.173 203.97 415.94 203.97 418.05H205.97ZM207.297 414.347C208.156 413.488 209.324 413.02 210.91 413.02V411.02C208.896 411.02 207.184 411.632 205.883 412.933L207.297 414.347ZM210.91 413.02C212.637 413.02 213.856 413.5 214.703 414.347L216.117 412.933C214.804 411.62 213.023 411.02 210.91 411.02V413.02ZM214.723 414.367C215.549 415.147 216.03 416.32 216.03 418.05H218.03C218.03 415.94 217.431 414.173 216.097 412.913L214.723 414.367ZM216.03 418.05C216.03 419.564 215.568 420.749 214.684 421.682L216.136 423.058C217.412 421.711 218.03 420.016 218.03 418.05H216.03ZM214.684 421.682C213.834 422.58 212.621 423.08 210.91 423.08V425.08C213.039 425.08 214.826 424.44 216.136 423.058L214.684 421.682ZM210.91 423.08C209.341 423.08 208.179 422.593 207.316 421.682L205.864 423.058C207.161 424.427 208.879 425.08 210.91 425.08V423.08ZM207.316 421.682C206.432 420.749 205.97 419.564 205.97 418.05H203.97C203.97 420.016 204.588 421.711 205.864 423.058L207.316 421.682Z" fill="#0AE227" mask="url(#path-96-outside-48_370_1897)"/>
<mask id="path-98-outside-49_370_1897" maskUnits="userSpaceOnUse" x="159" y="395" width="16" height="15" fill="black">
<rect fill="white" x="159" y="395" width="16" height="15"/>
<path d="M160.97 402.05C160.97 400.13 161.51 398.66 162.59 397.64C163.67 396.56 165.11 396.02 166.91 396.02C168.83 396.02 170.33 396.56 171.41 397.64C172.49 398.66 173.03 400.13 173.03 402.05C173.03 403.79 172.49 405.23 171.41 406.37C170.33 407.51 168.83 408.08 166.91 408.08C165.11 408.08 163.67 407.51 162.59 406.37C161.51 405.23 160.97 403.79 160.97 402.05Z"/>
</mask>
<path d="M162.59 397.64L163.277 398.367L163.287 398.357L163.297 398.347L162.59 397.64ZM171.41 397.64L170.703 398.347L170.713 398.357L170.723 398.367L171.41 397.64ZM171.41 406.37L170.684 405.682L170.684 405.682L171.41 406.37ZM161.97 402.05C161.97 400.32 162.451 399.147 163.277 398.367L161.903 396.913C160.569 398.173 159.97 399.94 159.97 402.05H161.97ZM163.297 398.347C164.156 397.488 165.324 397.02 166.91 397.02V395.02C164.896 395.02 163.184 395.632 161.883 396.933L163.297 398.347ZM166.91 397.02C168.637 397.02 169.856 397.5 170.703 398.347L172.117 396.933C170.804 395.62 169.023 395.02 166.91 395.02V397.02ZM170.723 398.367C171.549 399.147 172.03 400.32 172.03 402.05H174.03C174.03 399.94 173.431 398.173 172.097 396.913L170.723 398.367ZM172.03 402.05C172.03 403.564 171.568 404.749 170.684 405.682L172.136 407.058C173.412 405.711 174.03 404.016 174.03 402.05H172.03ZM170.684 405.682C169.834 406.58 168.621 407.08 166.91 407.08V409.08C169.039 409.08 170.826 408.44 172.136 407.058L170.684 405.682ZM166.91 407.08C165.341 407.08 164.179 406.593 163.316 405.682L161.864 407.058C163.161 408.427 164.879 409.08 166.91 409.08V407.08ZM163.316 405.682C162.432 404.749 161.97 403.564 161.97 402.05H159.97C159.97 404.016 160.588 405.711 161.864 407.058L163.316 405.682Z" fill="#0AE227" mask="url(#path-98-outside-49_370_1897)"/>
<mask id="path-100-outside-50_370_1897" maskUnits="userSpaceOnUse" x="159" y="432" width="16" height="15" fill="black">
<rect fill="white" x="159" y="432" width="16" height="15"/>
<path d="M160.97 439.05C160.97 437.13 161.51 435.66 162.59 434.64C163.67 433.56 165.11 433.02 166.91 433.02C168.83 433.02 170.33 433.56 171.41 434.64C172.49 435.66 173.03 437.13 173.03 439.05C173.03 440.79 172.49 442.23 171.41 443.37C170.33 444.51 168.83 445.08 166.91 445.08C165.11 445.08 163.67 444.51 162.59 443.37C161.51 442.23 160.97 440.79 160.97 439.05Z"/>
</mask>
<path d="M162.59 434.64L163.277 435.367L163.287 435.357L163.297 435.347L162.59 434.64ZM171.41 434.64L170.703 435.347L170.713 435.357L170.723 435.367L171.41 434.64ZM171.41 443.37L170.684 442.682L170.684 442.682L171.41 443.37ZM161.97 439.05C161.97 437.32 162.451 436.147 163.277 435.367L161.903 433.913C160.569 435.173 159.97 436.94 159.97 439.05H161.97ZM163.297 435.347C164.156 434.488 165.324 434.02 166.91 434.02V432.02C164.896 432.02 163.184 432.632 161.883 433.933L163.297 435.347ZM166.91 434.02C168.637 434.02 169.856 434.5 170.703 435.347L172.117 433.933C170.804 432.62 169.023 432.02 166.91 432.02V434.02ZM170.723 435.367C171.549 436.147 172.03 437.32 172.03 439.05H174.03C174.03 436.94 173.431 435.173 172.097 433.913L170.723 435.367ZM172.03 439.05C172.03 440.564 171.568 441.749 170.684 442.682L172.136 444.058C173.412 442.711 174.03 441.016 174.03 439.05H172.03ZM170.684 442.682C169.834 443.58 168.621 444.08 166.91 444.08V446.08C169.039 446.08 170.826 445.44 172.136 444.058L170.684 442.682ZM166.91 444.08C165.341 444.08 164.179 443.593 163.316 442.682L161.864 444.058C163.161 445.427 164.879 446.08 166.91 446.08V444.08ZM163.316 442.682C162.432 441.749 161.97 440.564 161.97 439.05H159.97C159.97 441.016 160.588 442.711 161.864 444.058L163.316 442.682Z" fill="#0AE227" mask="url(#path-100-outside-50_370_1897)"/>
</svg>
