<svg width="2650" height="46" viewBox="0 0 2650 46" fill="none" xmlns="http://www.w3.org/2000/svg">
<g clip-path="url(#clip0_495_3391)">
<g clip-path="url(#clip1_495_3391)">
<rect width="54" height="46" fill="#0AE227"/>
</g>
<g clip-path="url(#clip2_495_3391)">
<rect x="59" width="54" height="46" fill="#0AE227"/>
<rect x="118" width="54" height="46" fill="#0AE227"/>
</g>
<g clip-path="url(#clip3_495_3391)">
<rect x="177" width="54" height="46" fill="#0AE227"/>
<rect x="236" width="54" height="46" fill="#0AE227"/>
<rect x="295" width="54" height="46" fill="#0AE227"/>
</g>
<g clip-path="url(#clip4_495_3391)">
<rect x="354" width="54" height="46" fill="#0AE227"/>
<rect x="413" width="54" height="46" fill="#0AE227"/>
<rect x="472" width="54" height="46" fill="#0AE227"/>
<rect x="531" width="54" height="46" fill="#0AE227"/>
</g>
<g clip-path="url(#clip5_495_3391)">
<rect x="590" width="54" height="46" fill="#0AE227"/>
<rect x="649" width="54" height="46" fill="#0AE227"/>
<rect x="708" width="54" height="46" fill="#0AE227"/>
<rect x="767" width="54" height="46" fill="#0AE227"/>
<rect x="826" width="54" height="46" fill="#0AE227"/>
</g>
<g clip-path="url(#clip6_495_3391)">
<rect x="885" width="54" height="46" fill="#0AE227"/>
<rect x="944" width="54" height="46" fill="#0AE227"/>
<rect x="1003" width="54" height="46" fill="#0AE227"/>
<rect x="1062" width="54" height="46" fill="#0AE227"/>
<rect x="1121" width="54" height="46" fill="#0AE227"/>
<rect x="1180" width="54" height="46" fill="#0AE227"/>
</g>
<g clip-path="url(#clip7_495_3391)">
<rect x="1239" width="54" height="46" fill="#0AE227"/>
<rect x="1298" width="54" height="46" fill="#0AE227"/>
<rect x="1357" width="54" height="46" fill="#0AE227"/>
<rect x="1416" width="54" height="46" fill="#0AE227"/>
<rect x="1475" width="54" height="46" fill="#0AE227"/>
<rect x="1534" width="54" height="46" fill="#0AE227"/>
<rect x="1593" width="54" height="46" fill="#0AE227"/>
</g>
<g clip-path="url(#clip8_495_3391)">
<rect x="1652" width="54" height="46" fill="#0AE227"/>
<rect x="1711" width="54" height="46" fill="#0AE227"/>
<rect x="1770" width="54" height="46" fill="#0AE227"/>
<rect x="1829" width="54" height="46" fill="#0AE227"/>
<rect x="1888" width="54" height="46" fill="#0AE227"/>
<rect x="1947" width="54" height="46" fill="#0AE227"/>
<rect x="2006" width="54" height="46" fill="#0AE227"/>
<rect x="2065" width="54" height="46" fill="#0AE227"/>
</g>
<g clip-path="url(#clip9_495_3391)">
<rect x="2124" width="54" height="46" fill="#0AE227"/>
<rect x="2183" width="54" height="46" fill="#0AE227"/>
<rect x="2242" width="54" height="46" fill="#0AE227"/>
<rect x="2301" width="54" height="46" fill="#0AE227"/>
<rect x="2360" width="54" height="46" fill="#0AE227"/>
<rect x="2419" width="54" height="46" fill="#0AE227"/>
<rect x="2478" width="54" height="46" fill="#0AE227"/>
<rect x="2537" width="54" height="46" fill="#0AE227"/>
<rect x="2596" width="54" height="46" fill="#0AE227"/>
</g>
</g>
<defs>
<clipPath id="clip0_495_3391">
<rect width="2650" height="46" fill="white"/>
</clipPath>
<clipPath id="clip1_495_3391">
<rect width="54" height="46" fill="white"/>
</clipPath>
<clipPath id="clip2_495_3391">
<rect width="113" height="46" fill="white" transform="translate(59)"/>
</clipPath>
<clipPath id="clip3_495_3391">
<rect width="172" height="46" fill="white" transform="translate(177)"/>
</clipPath>
<clipPath id="clip4_495_3391">
<rect width="231" height="46" fill="white" transform="translate(354)"/>
</clipPath>
<clipPath id="clip5_495_3391">
<rect width="290" height="46" fill="white" transform="translate(590)"/>
</clipPath>
<clipPath id="clip6_495_3391">
<rect width="349" height="46" fill="white" transform="translate(885)"/>
</clipPath>
<clipPath id="clip7_495_3391">
<rect width="408" height="46" fill="white" transform="translate(1239)"/>
</clipPath>
<clipPath id="clip8_495_3391">
<rect width="467" height="46" fill="white" transform="translate(1652)"/>
</clipPath>
<clipPath id="clip9_495_3391">
<rect width="526" height="46" fill="white" transform="translate(2124)"/>
</clipPath>
</defs>
</svg>
