<svg width="89" height="88" viewBox="0 0 89 88" fill="none" xmlns="http://www.w3.org/2000/svg">
<line x1="45.2121" y1="75.9517" x2="45.2121" y2="87.9259" stroke="#0AE227" stroke-width="1.84219"/>
<path d="M34.1602 70.4248L45.6738 75.9514L57.1875 70.4248" stroke="#0AE227" stroke-width="1.84219"/>
<line x1="12.9738" y1="28.0547" x2="12.9738" y2="39.1078" stroke="#0AE227" stroke-width="1.84219"/>
<path d="M1 20.686L12.9742 28.0548L24.9484 20.686" stroke="#0AE227" stroke-width="1.84219"/>
<line y1="-0.921094" x2="11.9742" y2="-0.921094" transform="matrix(0 -1 -1 0 76.5293 59.3721)" stroke="#0AE227" stroke-width="1.84219"/>
<path d="M66.3984 64.8984L77.4516 59.3719L88.5047 64.8984" stroke="#0AE227" stroke-width="1.84219"/>
<line x1="77.4504" y1="28.9756" x2="77.4504" y2="40.0287" stroke="#0AE227" stroke-width="1.84219"/>
<path d="M66.3984 22.5283L77.4516 29.8971L88.0441 22.9889" stroke="#0AE227" stroke-width="1.84219"/>
<line y1="-0.921094" x2="11.9742" y2="-0.921094" transform="matrix(0 -1 -1 0 43.3711 12.396)" stroke="#0AE227" stroke-width="1.84219"/>
<path d="M33.2383 17.9229L44.752 12.3963L56.2656 17.9229" stroke="#0AE227" stroke-width="1.84219"/>
<line y1="-0.921094" x2="11.9742" y2="-0.921094" transform="matrix(0 -1 -1 0 12.0527 59.3721)" stroke="#0AE227" stroke-width="1.84219"/>
<path d="M1.92188 64.8984L13.4355 59.3719L24.9492 64.8984" stroke="#0AE227" stroke-width="1.84219"/>
</svg>
