<svg width="148" height="160" viewBox="0 0 148 160" fill="none" xmlns="http://www.w3.org/2000/svg">
<path d="M53.6634 44.3094L74.5 33.2636L95.3366 44.3094L115.404 56.6404L116.158 80L115.404 103.36L95.3366 115.691L74.5 126.736L53.6634 115.691L33.596 103.36L32.842 80L33.596 56.6404L53.6634 44.3094Z" stroke="#0AE227" stroke-width="4"/>
<path d="M75 126V147" stroke="#0AE227" stroke-width="4"/>
<path d="M131.01 115.46L147.001 113.162" stroke="#0AE227" stroke-width="4"/>
<path d="M131.61 114.793L131.294 130.663" stroke="#0AE227" stroke-width="4"/>
<path d="M16.9922 115.46L1.00131 113.162" stroke="#0AE227" stroke-width="4"/>
<path d="M16.3916 114.793L16.708 130.663" stroke="#0AE227" stroke-width="4"/>
<path d="M17.9414 45.2275L1.95052 47.5256" stroke="#0AE227" stroke-width="4"/>
<path d="M17.3409 45.8941L17.6572 30.024" stroke="#0AE227" stroke-width="4"/>
<path d="M131.01 44.293L147.001 46.591" stroke="#0AE227" stroke-width="4"/>
<path d="M131.61 44.9595L131.294 29.0895" stroke="#0AE227" stroke-width="4"/>
<path d="M74.1543 12.2754L86.4909 1.99994" stroke="#0AE227" stroke-width="4"/>
<path d="M75.0585 12.2735L62.7664 1.99984" stroke="#0AE227" stroke-width="4"/>
<path d="M74.1543 147.725L86.4909 158" stroke="#0AE227" stroke-width="4"/>
<path d="M75.0585 147.727L62.7664 158" stroke="#0AE227" stroke-width="4"/>
<path d="M113.929 102.889L131.009 115.498" stroke="#0AE227" stroke-width="4"/>
<path d="M112.985 57.9627L131.485 44.9702" stroke="#0AE227" stroke-width="4"/>
<path d="M34.5264 102.882L17.1331 115.964" stroke="#0AE227" stroke-width="4"/>
<path d="M34.2988 57.958L16.6576 45.4375" stroke="#0AE227" stroke-width="4"/>
<path d="M74.5039 34.2764L74.5447 12.743" stroke="#0AE227" stroke-width="4"/>
</svg>
