<svg width="467" height="627" viewBox="0 0 467 627" fill="none" xmlns="http://www.w3.org/2000/svg">
<mask id="path-1-outside-1_370_2089" maskUnits="userSpaceOnUse" x="220" y="75" width="16" height="17" fill="black">
<rect fill="white" x="220" y="75" width="16" height="17"/>
<path d="M221.3 83.5C221.3 81.3667 221.9 79.7333 223.1 78.6C224.3 77.4 225.9 76.8 227.9 76.8C230.033 76.8 231.7 77.4 232.9 78.6C234.1 79.7333 234.7 81.3667 234.7 83.5C234.7 85.4333 234.1 87.0333 232.9 88.3C231.7 89.5667 230.033 90.2 227.9 90.2C225.9 90.2 224.3 89.5667 223.1 88.3C221.9 87.0333 221.3 85.4333 221.3 83.5Z"/>
</mask>
<path d="M223.1 78.6L223.787 79.327L223.797 79.3172L223.807 79.3071L223.1 78.6ZM232.9 78.6L232.193 79.3071L232.203 79.3172L232.213 79.327L232.9 78.6ZM232.9 88.3L232.174 87.6123L232.174 87.6123L232.9 88.3ZM223.1 88.3L222.374 88.9877L223.1 88.3ZM222.3 83.5C222.3 81.557 222.841 80.2202 223.787 79.327L222.413 77.873C220.959 79.2465 220.3 81.1763 220.3 83.5H222.3ZM223.807 79.3071C224.786 78.3278 226.114 77.8 227.9 77.8V75.8C225.686 75.8 223.814 76.4722 222.393 77.8929L223.807 79.3071ZM227.9 77.8C229.84 77.8 231.226 78.34 232.193 79.3071L233.607 77.8929C232.174 76.46 230.227 75.8 227.9 75.8V77.8ZM232.213 79.327C233.159 80.2202 233.7 81.557 233.7 83.5H235.7C235.7 81.1763 235.041 79.2465 233.587 77.873L232.213 79.327ZM233.7 83.5C233.7 85.2075 233.178 86.5521 232.174 87.6123L233.626 88.9877C235.022 87.5146 235.7 85.6591 235.7 83.5H233.7ZM232.174 87.6123C231.204 88.6365 229.824 89.2 227.9 89.2V91.2C230.242 91.2 232.196 90.4968 233.626 88.9877L232.174 87.6123ZM227.9 89.2C226.131 89.2 224.809 88.6498 223.826 87.6123L222.374 88.9877C223.791 90.4836 225.669 91.2 227.9 91.2V89.2ZM223.826 87.6123C222.822 86.5521 222.3 85.2075 222.3 83.5H220.3C220.3 85.6591 220.978 87.5146 222.374 88.9877L223.826 87.6123Z" fill="#E502A1" mask="url(#path-1-outside-1_370_2089)"/>
<mask id="path-3-outside-2_370_2089" maskUnits="userSpaceOnUse" x="84" y="117" width="16" height="17" fill="black">
<rect fill="white" x="84" y="117" width="16" height="17"/>
<path d="M85.3 125.5C85.3 123.367 85.9 121.733 87.1 120.6C88.3 119.4 89.9 118.8 91.9 118.8C94.0333 118.8 95.7 119.4 96.9 120.6C98.1 121.733 98.7 123.367 98.7 125.5C98.7 127.433 98.1 129.033 96.9 130.3C95.7 131.567 94.0333 132.2 91.9 132.2C89.9 132.2 88.3 131.567 87.1 130.3C85.9 129.033 85.3 127.433 85.3 125.5Z"/>
</mask>
<path d="M87.1 120.6L87.7866 121.327L87.797 121.317L87.8071 121.307L87.1 120.6ZM96.9 120.6L96.1929 121.307L96.203 121.317L96.2134 121.327L96.9 120.6ZM96.9 130.3L96.174 129.612L96.174 129.612L96.9 130.3ZM87.1 130.3L86.374 130.988L87.1 130.3ZM86.3 125.5C86.3 123.557 86.8409 122.22 87.7866 121.327L86.4134 119.873C84.9591 121.246 84.3 123.176 84.3 125.5H86.3ZM87.8071 121.307C88.7864 120.328 90.1143 119.8 91.9 119.8V117.8C89.6857 117.8 87.8136 118.472 86.3929 119.893L87.8071 121.307ZM91.9 119.8C93.84 119.8 95.2258 120.34 96.1929 121.307L97.6071 119.893C96.1742 118.46 94.2267 117.8 91.9 117.8V119.8ZM96.2134 121.327C97.1591 122.22 97.7 123.557 97.7 125.5H99.7C99.7 123.176 99.0409 121.246 97.5866 119.873L96.2134 121.327ZM97.7 125.5C97.7 127.208 97.1784 128.552 96.174 129.612L97.626 130.988C99.0216 129.515 99.7 127.659 99.7 125.5H97.7ZM96.174 129.612C95.2037 130.636 93.8244 131.2 91.9 131.2V133.2C94.2423 133.2 96.1963 132.497 97.626 130.988L96.174 129.612ZM91.9 131.2C90.1306 131.2 88.8089 130.65 87.826 129.612L86.374 130.988C87.7911 132.484 89.6694 133.2 91.9 133.2V131.2ZM87.826 129.612C86.8216 128.552 86.3 127.208 86.3 125.5H84.3C84.3 127.659 84.9784 129.515 86.374 130.988L87.826 129.612Z" fill="#E502A1" mask="url(#path-3-outside-2_370_2089)"/>
<mask id="path-5-outside-3_370_2089" maskUnits="userSpaceOnUse" x="29" y="206" width="16" height="17" fill="black">
<rect fill="white" x="29" y="206" width="16" height="17"/>
<path d="M30.3 214.5C30.3 212.367 30.9 210.733 32.1 209.6C33.3 208.4 34.9 207.8 36.9 207.8C39.0333 207.8 40.7 208.4 41.9 209.6C43.1 210.733 43.7 212.367 43.7 214.5C43.7 216.433 43.1 218.033 41.9 219.3C40.7 220.567 39.0333 221.2 36.9 221.2C34.9 221.2 33.3 220.567 32.1 219.3C30.9 218.033 30.3 216.433 30.3 214.5Z"/>
</mask>
<path d="M32.1 209.6L32.7866 210.327L32.797 210.317L32.8071 210.307L32.1 209.6ZM41.9 209.6L41.1929 210.307L41.203 210.317L41.2134 210.327L41.9 209.6ZM41.9 219.3L41.174 218.612L41.174 218.612L41.9 219.3ZM32.1 219.3L31.374 219.988L32.1 219.3ZM31.3 214.5C31.3 212.557 31.8409 211.22 32.7866 210.327L31.4134 208.873C29.9591 210.246 29.3 212.176 29.3 214.5H31.3ZM32.8071 210.307C33.7864 209.328 35.1143 208.8 36.9 208.8V206.8C34.6857 206.8 32.8136 207.472 31.3929 208.893L32.8071 210.307ZM36.9 208.8C38.84 208.8 40.2258 209.34 41.1929 210.307L42.6071 208.893C41.1742 207.46 39.2267 206.8 36.9 206.8V208.8ZM41.2134 210.327C42.1591 211.22 42.7 212.557 42.7 214.5H44.7C44.7 212.176 44.0409 210.246 42.5866 208.873L41.2134 210.327ZM42.7 214.5C42.7 216.208 42.1784 217.552 41.174 218.612L42.626 219.988C44.0216 218.515 44.7 216.659 44.7 214.5H42.7ZM41.174 218.612C40.2037 219.636 38.8244 220.2 36.9 220.2V222.2C39.2423 222.2 41.1963 221.497 42.626 219.988L41.174 218.612ZM36.9 220.2C35.1306 220.2 33.8089 219.65 32.826 218.612L31.374 219.988C32.7911 221.484 34.6694 222.2 36.9 222.2V220.2ZM32.826 218.612C31.8216 217.552 31.3 216.208 31.3 214.5H29.3C29.3 216.659 29.9784 218.515 31.374 219.988L32.826 218.612Z" fill="#E502A1" mask="url(#path-5-outside-3_370_2089)"/>
<mask id="path-7-outside-4_370_2089" maskUnits="userSpaceOnUse" x="59" y="239" width="16" height="17" fill="black">
<rect fill="white" x="59" y="239" width="16" height="17"/>
<path d="M60.3 247.5C60.3 245.367 60.9 243.733 62.1 242.6C63.3 241.4 64.9 240.8 66.9 240.8C69.0333 240.8 70.7 241.4 71.9 242.6C73.1 243.733 73.7 245.367 73.7 247.5C73.7 249.433 73.1 251.033 71.9 252.3C70.7 253.567 69.0333 254.2 66.9 254.2C64.9 254.2 63.3 253.567 62.1 252.3C60.9 251.033 60.3 249.433 60.3 247.5Z"/>
</mask>
<path d="M62.1 242.6L62.7866 243.327L62.797 243.317L62.8071 243.307L62.1 242.6ZM71.9 242.6L71.1929 243.307L71.203 243.317L71.2134 243.327L71.9 242.6ZM71.9 252.3L71.174 251.612L71.174 251.612L71.9 252.3ZM62.1 252.3L61.374 252.988L62.1 252.3ZM61.3 247.5C61.3 245.557 61.8409 244.22 62.7866 243.327L61.4134 241.873C59.9591 243.246 59.3 245.176 59.3 247.5H61.3ZM62.8071 243.307C63.7864 242.328 65.1143 241.8 66.9 241.8V239.8C64.6857 239.8 62.8136 240.472 61.3929 241.893L62.8071 243.307ZM66.9 241.8C68.84 241.8 70.2258 242.34 71.1929 243.307L72.6071 241.893C71.1742 240.46 69.2267 239.8 66.9 239.8V241.8ZM71.2134 243.327C72.1591 244.22 72.7 245.557 72.7 247.5H74.7C74.7 245.176 74.0409 243.246 72.5866 241.873L71.2134 243.327ZM72.7 247.5C72.7 249.208 72.1784 250.552 71.174 251.612L72.626 252.988C74.0216 251.515 74.7 249.659 74.7 247.5H72.7ZM71.174 251.612C70.2037 252.636 68.8244 253.2 66.9 253.2V255.2C69.2423 255.2 71.1963 254.497 72.626 252.988L71.174 251.612ZM66.9 253.2C65.1306 253.2 63.8089 252.65 62.826 251.612L61.374 252.988C62.7911 254.484 64.6694 255.2 66.9 255.2V253.2ZM62.826 251.612C61.8216 250.552 61.3 249.208 61.3 247.5H59.3C59.3 249.659 59.9784 251.515 61.374 252.988L62.826 251.612Z" fill="#E502A1" mask="url(#path-7-outside-4_370_2089)"/>
<mask id="path-9-outside-5_370_2089" maskUnits="userSpaceOnUse" x="107" y="219" width="16" height="17" fill="black">
<rect fill="white" x="107" y="219" width="16" height="17"/>
<path d="M108.3 227.5C108.3 225.367 108.9 223.733 110.1 222.6C111.3 221.4 112.9 220.8 114.9 220.8C117.033 220.8 118.7 221.4 119.9 222.6C121.1 223.733 121.7 225.367 121.7 227.5C121.7 229.433 121.1 231.033 119.9 232.3C118.7 233.567 117.033 234.2 114.9 234.2C112.9 234.2 111.3 233.567 110.1 232.3C108.9 231.033 108.3 229.433 108.3 227.5Z"/>
</mask>
<path d="M110.1 222.6L110.787 223.327L110.797 223.317L110.807 223.307L110.1 222.6ZM119.9 222.6L119.193 223.307L119.203 223.317L119.213 223.327L119.9 222.6ZM119.9 232.3L119.174 231.612L119.174 231.612L119.9 232.3ZM110.1 232.3L109.374 232.988L110.1 232.3ZM109.3 227.5C109.3 225.557 109.841 224.22 110.787 223.327L109.413 221.873C107.959 223.246 107.3 225.176 107.3 227.5H109.3ZM110.807 223.307C111.786 222.328 113.114 221.8 114.9 221.8V219.8C112.686 219.8 110.814 220.472 109.393 221.893L110.807 223.307ZM114.9 221.8C116.84 221.8 118.226 222.34 119.193 223.307L120.607 221.893C119.174 220.46 117.227 219.8 114.9 219.8V221.8ZM119.213 223.327C120.159 224.22 120.7 225.557 120.7 227.5H122.7C122.7 225.176 122.041 223.246 120.587 221.873L119.213 223.327ZM120.7 227.5C120.7 229.208 120.178 230.552 119.174 231.612L120.626 232.988C122.022 231.515 122.7 229.659 122.7 227.5H120.7ZM119.174 231.612C118.204 232.636 116.824 233.2 114.9 233.2V235.2C117.242 235.2 119.196 234.497 120.626 232.988L119.174 231.612ZM114.9 233.2C113.131 233.2 111.809 232.65 110.826 231.612L109.374 232.988C110.791 234.484 112.669 235.2 114.9 235.2V233.2ZM110.826 231.612C109.822 230.552 109.3 229.208 109.3 227.5H107.3C107.3 229.659 107.978 231.515 109.374 232.988L110.826 231.612Z" fill="#E502A1" mask="url(#path-9-outside-5_370_2089)"/>
<mask id="path-11-outside-6_370_2089" maskUnits="userSpaceOnUse" x="193" y="252" width="16" height="17" fill="black">
<rect fill="white" x="193" y="252" width="16" height="17"/>
<path d="M194.3 260.5C194.3 258.367 194.9 256.733 196.1 255.6C197.3 254.4 198.9 253.8 200.9 253.8C203.033 253.8 204.7 254.4 205.9 255.6C207.1 256.733 207.7 258.367 207.7 260.5C207.7 262.433 207.1 264.033 205.9 265.3C204.7 266.567 203.033 267.2 200.9 267.2C198.9 267.2 197.3 266.567 196.1 265.3C194.9 264.033 194.3 262.433 194.3 260.5Z"/>
</mask>
<path d="M196.1 255.6L196.787 256.327L196.797 256.317L196.807 256.307L196.1 255.6ZM205.9 255.6L205.193 256.307L205.203 256.317L205.213 256.327L205.9 255.6ZM205.9 265.3L205.174 264.612L205.174 264.612L205.9 265.3ZM196.1 265.3L195.374 265.988L196.1 265.3ZM195.3 260.5C195.3 258.557 195.841 257.22 196.787 256.327L195.413 254.873C193.959 256.246 193.3 258.176 193.3 260.5H195.3ZM196.807 256.307C197.786 255.328 199.114 254.8 200.9 254.8V252.8C198.686 252.8 196.814 253.472 195.393 254.893L196.807 256.307ZM200.9 254.8C202.84 254.8 204.226 255.34 205.193 256.307L206.607 254.893C205.174 253.46 203.227 252.8 200.9 252.8V254.8ZM205.213 256.327C206.159 257.22 206.7 258.557 206.7 260.5H208.7C208.7 258.176 208.041 256.246 206.587 254.873L205.213 256.327ZM206.7 260.5C206.7 262.208 206.178 263.552 205.174 264.612L206.626 265.988C208.022 264.515 208.7 262.659 208.7 260.5H206.7ZM205.174 264.612C204.204 265.636 202.824 266.2 200.9 266.2V268.2C203.242 268.2 205.196 267.497 206.626 265.988L205.174 264.612ZM200.9 266.2C199.131 266.2 197.809 265.65 196.826 264.612L195.374 265.988C196.791 267.484 198.669 268.2 200.9 268.2V266.2ZM196.826 264.612C195.822 263.552 195.3 262.208 195.3 260.5H193.3C193.3 262.659 193.978 264.515 195.374 265.988L196.826 264.612Z" fill="#E502A1" mask="url(#path-11-outside-6_370_2089)"/>
<mask id="path-13-outside-7_370_2089" maskUnits="userSpaceOnUse" x="260" y="252" width="16" height="17" fill="black">
<rect fill="white" x="260" y="252" width="16" height="17"/>
<path d="M261.3 260.5C261.3 258.367 261.9 256.733 263.1 255.6C264.3 254.4 265.9 253.8 267.9 253.8C270.033 253.8 271.7 254.4 272.9 255.6C274.1 256.733 274.7 258.367 274.7 260.5C274.7 262.433 274.1 264.033 272.9 265.3C271.7 266.567 270.033 267.2 267.9 267.2C265.9 267.2 264.3 266.567 263.1 265.3C261.9 264.033 261.3 262.433 261.3 260.5Z"/>
</mask>
<path d="M263.1 255.6L263.787 256.327L263.797 256.317L263.807 256.307L263.1 255.6ZM272.9 255.6L272.193 256.307L272.203 256.317L272.213 256.327L272.9 255.6ZM272.9 265.3L272.174 264.612L272.174 264.612L272.9 265.3ZM263.1 265.3L262.374 265.988L263.1 265.3ZM262.3 260.5C262.3 258.557 262.841 257.22 263.787 256.327L262.413 254.873C260.959 256.246 260.3 258.176 260.3 260.5H262.3ZM263.807 256.307C264.786 255.328 266.114 254.8 267.9 254.8V252.8C265.686 252.8 263.814 253.472 262.393 254.893L263.807 256.307ZM267.9 254.8C269.84 254.8 271.226 255.34 272.193 256.307L273.607 254.893C272.174 253.46 270.227 252.8 267.9 252.8V254.8ZM272.213 256.327C273.159 257.22 273.7 258.557 273.7 260.5H275.7C275.7 258.176 275.041 256.246 273.587 254.873L272.213 256.327ZM273.7 260.5C273.7 262.208 273.178 263.552 272.174 264.612L273.626 265.988C275.022 264.515 275.7 262.659 275.7 260.5H273.7ZM272.174 264.612C271.204 265.636 269.824 266.2 267.9 266.2V268.2C270.242 268.2 272.196 267.497 273.626 265.988L272.174 264.612ZM267.9 266.2C266.131 266.2 264.809 265.65 263.826 264.612L262.374 265.988C263.791 267.484 265.669 268.2 267.9 268.2V266.2ZM263.826 264.612C262.822 263.552 262.3 262.208 262.3 260.5H260.3C260.3 262.659 260.978 264.515 262.374 265.988L263.826 264.612Z" fill="#E502A1" mask="url(#path-13-outside-7_370_2089)"/>
<mask id="path-15-outside-8_370_2089" maskUnits="userSpaceOnUse" x="354" y="219" width="16" height="17" fill="black">
<rect fill="white" x="354" y="219" width="16" height="17"/>
<path d="M355.3 227.5C355.3 225.367 355.9 223.733 357.1 222.6C358.3 221.4 359.9 220.8 361.9 220.8C364.033 220.8 365.7 221.4 366.9 222.6C368.1 223.733 368.7 225.367 368.7 227.5C368.7 229.433 368.1 231.033 366.9 232.3C365.7 233.567 364.033 234.2 361.9 234.2C359.9 234.2 358.3 233.567 357.1 232.3C355.9 231.033 355.3 229.433 355.3 227.5Z"/>
</mask>
<path d="M357.1 222.6L357.787 223.327L357.797 223.317L357.807 223.307L357.1 222.6ZM366.9 222.6L366.193 223.307L366.203 223.317L366.213 223.327L366.9 222.6ZM366.9 232.3L366.174 231.612L366.174 231.612L366.9 232.3ZM357.1 232.3L356.374 232.988L357.1 232.3ZM356.3 227.5C356.3 225.557 356.841 224.22 357.787 223.327L356.413 221.873C354.959 223.246 354.3 225.176 354.3 227.5H356.3ZM357.807 223.307C358.786 222.328 360.114 221.8 361.9 221.8V219.8C359.686 219.8 357.814 220.472 356.393 221.893L357.807 223.307ZM361.9 221.8C363.84 221.8 365.226 222.34 366.193 223.307L367.607 221.893C366.174 220.46 364.227 219.8 361.9 219.8V221.8ZM366.213 223.327C367.159 224.22 367.7 225.557 367.7 227.5H369.7C369.7 225.176 369.041 223.246 367.587 221.873L366.213 223.327ZM367.7 227.5C367.7 229.208 367.178 230.552 366.174 231.612L367.626 232.988C369.022 231.515 369.7 229.659 369.7 227.5H367.7ZM366.174 231.612C365.204 232.636 363.824 233.2 361.9 233.2V235.2C364.242 235.2 366.196 234.497 367.626 232.988L366.174 231.612ZM361.9 233.2C360.131 233.2 358.809 232.65 357.826 231.612L356.374 232.988C357.791 234.484 359.669 235.2 361.9 235.2V233.2ZM357.826 231.612C356.822 230.552 356.3 229.208 356.3 227.5H354.3C354.3 229.659 354.978 231.515 356.374 232.988L357.826 231.612Z" fill="#E502A1" mask="url(#path-15-outside-8_370_2089)"/>
<mask id="path-17-outside-9_370_2089" maskUnits="userSpaceOnUse" x="384" y="128" width="16" height="17" fill="black">
<rect fill="white" x="384" y="128" width="16" height="17"/>
<path d="M385.3 136.5C385.3 134.367 385.9 132.733 387.1 131.6C388.3 130.4 389.9 129.8 391.9 129.8C394.033 129.8 395.7 130.4 396.9 131.6C398.1 132.733 398.7 134.367 398.7 136.5C398.7 138.433 398.1 140.033 396.9 141.3C395.7 142.567 394.033 143.2 391.9 143.2C389.9 143.2 388.3 142.567 387.1 141.3C385.9 140.033 385.3 138.433 385.3 136.5Z"/>
</mask>
<path d="M387.1 131.6L387.787 132.327L387.797 132.317L387.807 132.307L387.1 131.6ZM396.9 131.6L396.193 132.307L396.203 132.317L396.213 132.327L396.9 131.6ZM396.9 141.3L396.174 140.612L396.174 140.612L396.9 141.3ZM387.1 141.3L386.374 141.988L387.1 141.3ZM386.3 136.5C386.3 134.557 386.841 133.22 387.787 132.327L386.413 130.873C384.959 132.246 384.3 134.176 384.3 136.5H386.3ZM387.807 132.307C388.786 131.328 390.114 130.8 391.9 130.8V128.8C389.686 128.8 387.814 129.472 386.393 130.893L387.807 132.307ZM391.9 130.8C393.84 130.8 395.226 131.34 396.193 132.307L397.607 130.893C396.174 129.46 394.227 128.8 391.9 128.8V130.8ZM396.213 132.327C397.159 133.22 397.7 134.557 397.7 136.5H399.7C399.7 134.176 399.041 132.246 397.587 130.873L396.213 132.327ZM397.7 136.5C397.7 138.208 397.178 139.552 396.174 140.612L397.626 141.988C399.022 140.515 399.7 138.659 399.7 136.5H397.7ZM396.174 140.612C395.204 141.636 393.824 142.2 391.9 142.2V144.2C394.242 144.2 396.196 143.497 397.626 141.988L396.174 140.612ZM391.9 142.2C390.131 142.2 388.809 141.65 387.826 140.612L386.374 141.988C387.791 143.484 389.669 144.2 391.9 144.2V142.2ZM387.826 140.612C386.822 139.552 386.3 138.208 386.3 136.5H384.3C384.3 138.659 384.978 140.515 386.374 141.988L387.826 140.612Z" fill="#E502A1" mask="url(#path-17-outside-9_370_2089)"/>
<mask id="path-19-outside-10_370_2089" maskUnits="userSpaceOnUse" x="421" y="212" width="16" height="17" fill="black">
<rect fill="white" x="421" y="212" width="16" height="17"/>
<path d="M422.3 220.5C422.3 218.367 422.9 216.733 424.1 215.6C425.3 214.4 426.9 213.8 428.9 213.8C431.033 213.8 432.7 214.4 433.9 215.6C435.1 216.733 435.7 218.367 435.7 220.5C435.7 222.433 435.1 224.033 433.9 225.3C432.7 226.567 431.033 227.2 428.9 227.2C426.9 227.2 425.3 226.567 424.1 225.3C422.9 224.033 422.3 222.433 422.3 220.5Z"/>
</mask>
<path d="M424.1 215.6L424.787 216.327L424.797 216.317L424.807 216.307L424.1 215.6ZM433.9 215.6L433.193 216.307L433.203 216.317L433.213 216.327L433.9 215.6ZM433.9 225.3L433.174 224.612L433.174 224.612L433.9 225.3ZM424.1 225.3L423.374 225.988L424.1 225.3ZM423.3 220.5C423.3 218.557 423.841 217.22 424.787 216.327L423.413 214.873C421.959 216.246 421.3 218.176 421.3 220.5H423.3ZM424.807 216.307C425.786 215.328 427.114 214.8 428.9 214.8V212.8C426.686 212.8 424.814 213.472 423.393 214.893L424.807 216.307ZM428.9 214.8C430.84 214.8 432.226 215.34 433.193 216.307L434.607 214.893C433.174 213.46 431.227 212.8 428.9 212.8V214.8ZM433.213 216.327C434.159 217.22 434.7 218.557 434.7 220.5H436.7C436.7 218.176 436.041 216.246 434.587 214.873L433.213 216.327ZM434.7 220.5C434.7 222.208 434.178 223.552 433.174 224.612L434.626 225.988C436.022 224.515 436.7 222.659 436.7 220.5H434.7ZM433.174 224.612C432.204 225.636 430.824 226.2 428.9 226.2V228.2C431.242 228.2 433.196 227.497 434.626 225.988L433.174 224.612ZM428.9 226.2C427.131 226.2 425.809 225.65 424.826 224.612L423.374 225.988C424.791 227.484 426.669 228.2 428.9 228.2V226.2ZM424.826 224.612C423.822 223.552 423.3 222.208 423.3 220.5H421.3C421.3 222.659 421.978 224.515 423.374 225.988L424.826 224.612Z" fill="#E502A1" mask="url(#path-19-outside-10_370_2089)"/>
<mask id="path-21-outside-11_370_2089" maskUnits="userSpaceOnUse" x="402" y="252" width="16" height="17" fill="black">
<rect fill="white" x="402" y="252" width="16" height="17"/>
<path d="M403.3 260.5C403.3 258.367 403.9 256.733 405.1 255.6C406.3 254.4 407.9 253.8 409.9 253.8C412.033 253.8 413.7 254.4 414.9 255.6C416.1 256.733 416.7 258.367 416.7 260.5C416.7 262.433 416.1 264.033 414.9 265.3C413.7 266.567 412.033 267.2 409.9 267.2C407.9 267.2 406.3 266.567 405.1 265.3C403.9 264.033 403.3 262.433 403.3 260.5Z"/>
</mask>
<path d="M405.1 255.6L405.787 256.327L405.797 256.317L405.807 256.307L405.1 255.6ZM414.9 255.6L414.193 256.307L414.203 256.317L414.213 256.327L414.9 255.6ZM414.9 265.3L414.174 264.612L414.174 264.612L414.9 265.3ZM405.1 265.3L404.374 265.988L405.1 265.3ZM404.3 260.5C404.3 258.557 404.841 257.22 405.787 256.327L404.413 254.873C402.959 256.246 402.3 258.176 402.3 260.5H404.3ZM405.807 256.307C406.786 255.328 408.114 254.8 409.9 254.8V252.8C407.686 252.8 405.814 253.472 404.393 254.893L405.807 256.307ZM409.9 254.8C411.84 254.8 413.226 255.34 414.193 256.307L415.607 254.893C414.174 253.46 412.227 252.8 409.9 252.8V254.8ZM414.213 256.327C415.159 257.22 415.7 258.557 415.7 260.5H417.7C417.7 258.176 417.041 256.246 415.587 254.873L414.213 256.327ZM415.7 260.5C415.7 262.208 415.178 263.552 414.174 264.612L415.626 265.988C417.022 264.515 417.7 262.659 417.7 260.5H415.7ZM414.174 264.612C413.204 265.636 411.824 266.2 409.9 266.2V268.2C412.242 268.2 414.196 267.497 415.626 265.988L414.174 264.612ZM409.9 266.2C408.131 266.2 406.809 265.65 405.826 264.612L404.374 265.988C405.791 267.484 407.669 268.2 409.9 268.2V266.2ZM405.826 264.612C404.822 263.552 404.3 262.208 404.3 260.5H402.3C402.3 262.659 402.978 264.515 404.374 265.988L405.826 264.612Z" fill="#E502A1" mask="url(#path-21-outside-11_370_2089)"/>
<mask id="path-23-outside-12_370_2089" maskUnits="userSpaceOnUse" x="336" y="252" width="16" height="17" fill="black">
<rect fill="white" x="336" y="252" width="16" height="17"/>
<path d="M337.3 260.5C337.3 258.367 337.9 256.733 339.1 255.6C340.3 254.4 341.9 253.8 343.9 253.8C346.033 253.8 347.7 254.4 348.9 255.6C350.1 256.733 350.7 258.367 350.7 260.5C350.7 262.433 350.1 264.033 348.9 265.3C347.7 266.567 346.033 267.2 343.9 267.2C341.9 267.2 340.3 266.567 339.1 265.3C337.9 264.033 337.3 262.433 337.3 260.5Z"/>
</mask>
<path d="M339.1 255.6L339.787 256.327L339.797 256.317L339.807 256.307L339.1 255.6ZM348.9 255.6L348.193 256.307L348.203 256.317L348.213 256.327L348.9 255.6ZM348.9 265.3L348.174 264.612L348.174 264.612L348.9 265.3ZM339.1 265.3L338.374 265.988L339.1 265.3ZM338.3 260.5C338.3 258.557 338.841 257.22 339.787 256.327L338.413 254.873C336.959 256.246 336.3 258.176 336.3 260.5H338.3ZM339.807 256.307C340.786 255.328 342.114 254.8 343.9 254.8V252.8C341.686 252.8 339.814 253.472 338.393 254.893L339.807 256.307ZM343.9 254.8C345.84 254.8 347.226 255.34 348.193 256.307L349.607 254.893C348.174 253.46 346.227 252.8 343.9 252.8V254.8ZM348.213 256.327C349.159 257.22 349.7 258.557 349.7 260.5H351.7C351.7 258.176 351.041 256.246 349.587 254.873L348.213 256.327ZM349.7 260.5C349.7 262.208 349.178 263.552 348.174 264.612L349.626 265.988C351.022 264.515 351.7 262.659 351.7 260.5H349.7ZM348.174 264.612C347.204 265.636 345.824 266.2 343.9 266.2V268.2C346.242 268.2 348.196 267.497 349.626 265.988L348.174 264.612ZM343.9 266.2C342.131 266.2 340.809 265.65 339.826 264.612L338.374 265.988C339.791 267.484 341.669 268.2 343.9 268.2V266.2ZM339.826 264.612C338.822 263.552 338.3 262.208 338.3 260.5H336.3C336.3 262.659 336.978 264.515 338.374 265.988L339.826 264.612Z" fill="#E502A1" mask="url(#path-23-outside-12_370_2089)"/>
<mask id="path-25-outside-13_370_2089" maskUnits="userSpaceOnUse" x="280" y="279" width="16" height="17" fill="black">
<rect fill="white" x="280" y="279" width="16" height="17"/>
<path d="M281.3 287.5C281.3 285.367 281.9 283.733 283.1 282.6C284.3 281.4 285.9 280.8 287.9 280.8C290.033 280.8 291.7 281.4 292.9 282.6C294.1 283.733 294.7 285.367 294.7 287.5C294.7 289.433 294.1 291.033 292.9 292.3C291.7 293.567 290.033 294.2 287.9 294.2C285.9 294.2 284.3 293.567 283.1 292.3C281.9 291.033 281.3 289.433 281.3 287.5Z"/>
</mask>
<path d="M283.1 282.6L283.787 283.327L283.797 283.317L283.807 283.307L283.1 282.6ZM292.9 282.6L292.193 283.307L292.203 283.317L292.213 283.327L292.9 282.6ZM292.9 292.3L292.174 291.612L292.174 291.612L292.9 292.3ZM283.1 292.3L282.374 292.988L283.1 292.3ZM282.3 287.5C282.3 285.557 282.841 284.22 283.787 283.327L282.413 281.873C280.959 283.246 280.3 285.176 280.3 287.5H282.3ZM283.807 283.307C284.786 282.328 286.114 281.8 287.9 281.8V279.8C285.686 279.8 283.814 280.472 282.393 281.893L283.807 283.307ZM287.9 281.8C289.84 281.8 291.226 282.34 292.193 283.307L293.607 281.893C292.174 280.46 290.227 279.8 287.9 279.8V281.8ZM292.213 283.327C293.159 284.22 293.7 285.557 293.7 287.5H295.7C295.7 285.176 295.041 283.246 293.587 281.873L292.213 283.327ZM293.7 287.5C293.7 289.208 293.178 290.552 292.174 291.612L293.626 292.988C295.022 291.515 295.7 289.659 295.7 287.5H293.7ZM292.174 291.612C291.204 292.636 289.824 293.2 287.9 293.2V295.2C290.242 295.2 292.196 294.497 293.626 292.988L292.174 291.612ZM287.9 293.2C286.131 293.2 284.809 292.65 283.826 291.612L282.374 292.988C283.791 294.484 285.669 295.2 287.9 295.2V293.2ZM283.826 291.612C282.822 290.552 282.3 289.208 282.3 287.5H280.3C280.3 289.659 280.978 291.515 282.374 292.988L283.826 291.612Z" fill="#E502A1" mask="url(#path-25-outside-13_370_2089)"/>
<mask id="path-27-outside-14_370_2089" maskUnits="userSpaceOnUse" x="274" y="306" width="16" height="17" fill="black">
<rect fill="white" x="274" y="306" width="16" height="17"/>
<path d="M275.3 314.5C275.3 312.367 275.9 310.733 277.1 309.6C278.3 308.4 279.9 307.8 281.9 307.8C284.033 307.8 285.7 308.4 286.9 309.6C288.1 310.733 288.7 312.367 288.7 314.5C288.7 316.433 288.1 318.033 286.9 319.3C285.7 320.567 284.033 321.2 281.9 321.2C279.9 321.2 278.3 320.567 277.1 319.3C275.9 318.033 275.3 316.433 275.3 314.5Z"/>
</mask>
<path d="M277.1 309.6L277.787 310.327L277.797 310.317L277.807 310.307L277.1 309.6ZM286.9 309.6L286.193 310.307L286.203 310.317L286.213 310.327L286.9 309.6ZM286.9 319.3L286.174 318.612L286.174 318.612L286.9 319.3ZM277.1 319.3L276.374 319.988L277.1 319.3ZM276.3 314.5C276.3 312.557 276.841 311.22 277.787 310.327L276.413 308.873C274.959 310.246 274.3 312.176 274.3 314.5H276.3ZM277.807 310.307C278.786 309.328 280.114 308.8 281.9 308.8V306.8C279.686 306.8 277.814 307.472 276.393 308.893L277.807 310.307ZM281.9 308.8C283.84 308.8 285.226 309.34 286.193 310.307L287.607 308.893C286.174 307.46 284.227 306.8 281.9 306.8V308.8ZM286.213 310.327C287.159 311.22 287.7 312.557 287.7 314.5H289.7C289.7 312.176 289.041 310.246 287.587 308.873L286.213 310.327ZM287.7 314.5C287.7 316.208 287.178 317.552 286.174 318.612L287.626 319.988C289.022 318.515 289.7 316.659 289.7 314.5H287.7ZM286.174 318.612C285.204 319.636 283.824 320.2 281.9 320.2V322.2C284.242 322.2 286.196 321.497 287.626 319.988L286.174 318.612ZM281.9 320.2C280.131 320.2 278.809 319.65 277.826 318.612L276.374 319.988C277.791 321.484 279.669 322.2 281.9 322.2V320.2ZM277.826 318.612C276.822 317.552 276.3 316.208 276.3 314.5H274.3C274.3 316.659 274.978 318.515 276.374 319.988L277.826 318.612Z" fill="#E502A1" mask="url(#path-27-outside-14_370_2089)"/>
<mask id="path-29-outside-15_370_2089" maskUnits="userSpaceOnUse" x="230" y="281" width="16" height="17" fill="black">
<rect fill="white" x="230" y="281" width="16" height="17"/>
<path d="M231.3 289.5C231.3 287.367 231.9 285.733 233.1 284.6C234.3 283.4 235.9 282.8 237.9 282.8C240.033 282.8 241.7 283.4 242.9 284.6C244.1 285.733 244.7 287.367 244.7 289.5C244.7 291.433 244.1 293.033 242.9 294.3C241.7 295.567 240.033 296.2 237.9 296.2C235.9 296.2 234.3 295.567 233.1 294.3C231.9 293.033 231.3 291.433 231.3 289.5Z"/>
</mask>
<path d="M233.1 284.6L233.787 285.327L233.797 285.317L233.807 285.307L233.1 284.6ZM242.9 284.6L242.193 285.307L242.203 285.317L242.213 285.327L242.9 284.6ZM242.9 294.3L242.174 293.612L242.174 293.612L242.9 294.3ZM233.1 294.3L232.374 294.988L233.1 294.3ZM232.3 289.5C232.3 287.557 232.841 286.22 233.787 285.327L232.413 283.873C230.959 285.246 230.3 287.176 230.3 289.5H232.3ZM233.807 285.307C234.786 284.328 236.114 283.8 237.9 283.8V281.8C235.686 281.8 233.814 282.472 232.393 283.893L233.807 285.307ZM237.9 283.8C239.84 283.8 241.226 284.34 242.193 285.307L243.607 283.893C242.174 282.46 240.227 281.8 237.9 281.8V283.8ZM242.213 285.327C243.159 286.22 243.7 287.557 243.7 289.5H245.7C245.7 287.176 245.041 285.246 243.587 283.873L242.213 285.327ZM243.7 289.5C243.7 291.208 243.178 292.552 242.174 293.612L243.626 294.988C245.022 293.515 245.7 291.659 245.7 289.5H243.7ZM242.174 293.612C241.204 294.636 239.824 295.2 237.9 295.2V297.2C240.242 297.2 242.196 296.497 243.626 294.988L242.174 293.612ZM237.9 295.2C236.131 295.2 234.809 294.65 233.826 293.612L232.374 294.988C233.791 296.484 235.669 297.2 237.9 297.2V295.2ZM233.826 293.612C232.822 292.552 232.3 291.208 232.3 289.5H230.3C230.3 291.659 230.978 293.515 232.374 294.988L233.826 293.612Z" fill="#E502A1" mask="url(#path-29-outside-15_370_2089)"/>
<mask id="path-31-outside-16_370_2089" maskUnits="userSpaceOnUse" x="336" y="318" width="16" height="17" fill="black">
<rect fill="white" x="336" y="318" width="16" height="17"/>
<path d="M337.3 326.5C337.3 324.367 337.9 322.733 339.1 321.6C340.3 320.4 341.9 319.8 343.9 319.8C346.033 319.8 347.7 320.4 348.9 321.6C350.1 322.733 350.7 324.367 350.7 326.5C350.7 328.433 350.1 330.033 348.9 331.3C347.7 332.567 346.033 333.2 343.9 333.2C341.9 333.2 340.3 332.567 339.1 331.3C337.9 330.033 337.3 328.433 337.3 326.5Z"/>
</mask>
<path d="M339.1 321.6L339.787 322.327L339.797 322.317L339.807 322.307L339.1 321.6ZM348.9 321.6L348.193 322.307L348.203 322.317L348.213 322.327L348.9 321.6ZM348.9 331.3L348.174 330.612L348.174 330.612L348.9 331.3ZM339.1 331.3L338.374 331.988L339.1 331.3ZM338.3 326.5C338.3 324.557 338.841 323.22 339.787 322.327L338.413 320.873C336.959 322.246 336.3 324.176 336.3 326.5H338.3ZM339.807 322.307C340.786 321.328 342.114 320.8 343.9 320.8V318.8C341.686 318.8 339.814 319.472 338.393 320.893L339.807 322.307ZM343.9 320.8C345.84 320.8 347.226 321.34 348.193 322.307L349.607 320.893C348.174 319.46 346.227 318.8 343.9 318.8V320.8ZM348.213 322.327C349.159 323.22 349.7 324.557 349.7 326.5H351.7C351.7 324.176 351.041 322.246 349.587 320.873L348.213 322.327ZM349.7 326.5C349.7 328.208 349.178 329.552 348.174 330.612L349.626 331.988C351.022 330.515 351.7 328.659 351.7 326.5H349.7ZM348.174 330.612C347.204 331.636 345.824 332.2 343.9 332.2V334.2C346.242 334.2 348.196 333.497 349.626 331.988L348.174 330.612ZM343.9 332.2C342.131 332.2 340.809 331.65 339.826 330.612L338.374 331.988C339.791 333.484 341.669 334.2 343.9 334.2V332.2ZM339.826 330.612C338.822 329.552 338.3 328.208 338.3 326.5H336.3C336.3 328.659 336.978 330.515 338.374 331.988L339.826 330.612Z" fill="#E502A1" mask="url(#path-31-outside-16_370_2089)"/>
<mask id="path-33-outside-17_370_2089" maskUnits="userSpaceOnUse" x="334" y="297" width="16" height="17" fill="black">
<rect fill="white" x="334" y="297" width="16" height="17"/>
<path d="M335.3 305.5C335.3 303.367 335.9 301.733 337.1 300.6C338.3 299.4 339.9 298.8 341.9 298.8C344.033 298.8 345.7 299.4 346.9 300.6C348.1 301.733 348.7 303.367 348.7 305.5C348.7 307.433 348.1 309.033 346.9 310.3C345.7 311.567 344.033 312.2 341.9 312.2C339.9 312.2 338.3 311.567 337.1 310.3C335.9 309.033 335.3 307.433 335.3 305.5Z"/>
</mask>
<path d="M337.1 300.6L337.787 301.327L337.797 301.317L337.807 301.307L337.1 300.6ZM346.9 300.6L346.193 301.307L346.203 301.317L346.213 301.327L346.9 300.6ZM346.9 310.3L346.174 309.612L346.174 309.612L346.9 310.3ZM337.1 310.3L336.374 310.988L337.1 310.3ZM336.3 305.5C336.3 303.557 336.841 302.22 337.787 301.327L336.413 299.873C334.959 301.246 334.3 303.176 334.3 305.5H336.3ZM337.807 301.307C338.786 300.328 340.114 299.8 341.9 299.8V297.8C339.686 297.8 337.814 298.472 336.393 299.893L337.807 301.307ZM341.9 299.8C343.84 299.8 345.226 300.34 346.193 301.307L347.607 299.893C346.174 298.46 344.227 297.8 341.9 297.8V299.8ZM346.213 301.327C347.159 302.22 347.7 303.557 347.7 305.5H349.7C349.7 303.176 349.041 301.246 347.587 299.873L346.213 301.327ZM347.7 305.5C347.7 307.208 347.178 308.552 346.174 309.612L347.626 310.988C349.022 309.515 349.7 307.659 349.7 305.5H347.7ZM346.174 309.612C345.204 310.636 343.824 311.2 341.9 311.2V313.2C344.242 313.2 346.196 312.497 347.626 310.988L346.174 309.612ZM341.9 311.2C340.131 311.2 338.809 310.65 337.826 309.612L336.374 310.988C337.791 312.484 339.669 313.2 341.9 313.2V311.2ZM337.826 309.612C336.822 308.552 336.3 307.208 336.3 305.5H334.3C334.3 307.659 334.978 309.515 336.374 310.988L337.826 309.612Z" fill="#E502A1" mask="url(#path-33-outside-17_370_2089)"/>
<mask id="path-35-outside-18_370_2089" maskUnits="userSpaceOnUse" x="380" y="283" width="16" height="17" fill="black">
<rect fill="white" x="380" y="283" width="16" height="17"/>
<path d="M381.3 291.5C381.3 289.367 381.9 287.733 383.1 286.6C384.3 285.4 385.9 284.8 387.9 284.8C390.033 284.8 391.7 285.4 392.9 286.6C394.1 287.733 394.7 289.367 394.7 291.5C394.7 293.433 394.1 295.033 392.9 296.3C391.7 297.567 390.033 298.2 387.9 298.2C385.9 298.2 384.3 297.567 383.1 296.3C381.9 295.033 381.3 293.433 381.3 291.5Z"/>
</mask>
<path d="M383.1 286.6L383.787 287.327L383.797 287.317L383.807 287.307L383.1 286.6ZM392.9 286.6L392.193 287.307L392.203 287.317L392.213 287.327L392.9 286.6ZM392.9 296.3L392.174 295.612L392.174 295.612L392.9 296.3ZM383.1 296.3L382.374 296.988L383.1 296.3ZM382.3 291.5C382.3 289.557 382.841 288.22 383.787 287.327L382.413 285.873C380.959 287.246 380.3 289.176 380.3 291.5H382.3ZM383.807 287.307C384.786 286.328 386.114 285.8 387.9 285.8V283.8C385.686 283.8 383.814 284.472 382.393 285.893L383.807 287.307ZM387.9 285.8C389.84 285.8 391.226 286.34 392.193 287.307L393.607 285.893C392.174 284.46 390.227 283.8 387.9 283.8V285.8ZM392.213 287.327C393.159 288.22 393.7 289.557 393.7 291.5H395.7C395.7 289.176 395.041 287.246 393.587 285.873L392.213 287.327ZM393.7 291.5C393.7 293.208 393.178 294.552 392.174 295.612L393.626 296.988C395.022 295.515 395.7 293.659 395.7 291.5H393.7ZM392.174 295.612C391.204 296.636 389.824 297.2 387.9 297.2V299.2C390.242 299.2 392.196 298.497 393.626 296.988L392.174 295.612ZM387.9 297.2C386.131 297.2 384.809 296.65 383.826 295.612L382.374 296.988C383.791 298.484 385.669 299.2 387.9 299.2V297.2ZM383.826 295.612C382.822 294.552 382.3 293.208 382.3 291.5H380.3C380.3 293.659 380.978 295.515 382.374 296.988L383.826 295.612Z" fill="#E502A1" mask="url(#path-35-outside-18_370_2089)"/>
<mask id="path-37-outside-19_370_2089" maskUnits="userSpaceOnUse" x="403" y="304" width="16" height="17" fill="black">
<rect fill="white" x="403" y="304" width="16" height="17"/>
<path d="M404.3 312.5C404.3 310.367 404.9 308.733 406.1 307.6C407.3 306.4 408.9 305.8 410.9 305.8C413.033 305.8 414.7 306.4 415.9 307.6C417.1 308.733 417.7 310.367 417.7 312.5C417.7 314.433 417.1 316.033 415.9 317.3C414.7 318.567 413.033 319.2 410.9 319.2C408.9 319.2 407.3 318.567 406.1 317.3C404.9 316.033 404.3 314.433 404.3 312.5Z"/>
</mask>
<path d="M406.1 307.6L406.787 308.327L406.797 308.317L406.807 308.307L406.1 307.6ZM415.9 307.6L415.193 308.307L415.203 308.317L415.213 308.327L415.9 307.6ZM415.9 317.3L415.174 316.612L415.174 316.612L415.9 317.3ZM406.1 317.3L405.374 317.988L406.1 317.3ZM405.3 312.5C405.3 310.557 405.841 309.22 406.787 308.327L405.413 306.873C403.959 308.246 403.3 310.176 403.3 312.5H405.3ZM406.807 308.307C407.786 307.328 409.114 306.8 410.9 306.8V304.8C408.686 304.8 406.814 305.472 405.393 306.893L406.807 308.307ZM410.9 306.8C412.84 306.8 414.226 307.34 415.193 308.307L416.607 306.893C415.174 305.46 413.227 304.8 410.9 304.8V306.8ZM415.213 308.327C416.159 309.22 416.7 310.557 416.7 312.5H418.7C418.7 310.176 418.041 308.246 416.587 306.873L415.213 308.327ZM416.7 312.5C416.7 314.208 416.178 315.552 415.174 316.612L416.626 317.988C418.022 316.515 418.7 314.659 418.7 312.5H416.7ZM415.174 316.612C414.204 317.636 412.824 318.2 410.9 318.2V320.2C413.242 320.2 415.196 319.497 416.626 317.988L415.174 316.612ZM410.9 318.2C409.131 318.2 407.809 317.65 406.826 316.612L405.374 317.988C406.791 319.484 408.669 320.2 410.9 320.2V318.2ZM406.826 316.612C405.822 315.552 405.3 314.208 405.3 312.5H403.3C403.3 314.659 403.978 316.515 405.374 317.988L406.826 316.612Z" fill="#E502A1" mask="url(#path-37-outside-19_370_2089)"/>
<mask id="path-39-outside-20_370_2089" maskUnits="userSpaceOnUse" x="429" y="286" width="16" height="17" fill="black">
<rect fill="white" x="429" y="286" width="16" height="17"/>
<path d="M430.3 294.5C430.3 292.367 430.9 290.733 432.1 289.6C433.3 288.4 434.9 287.8 436.9 287.8C439.033 287.8 440.7 288.4 441.9 289.6C443.1 290.733 443.7 292.367 443.7 294.5C443.7 296.433 443.1 298.033 441.9 299.3C440.7 300.567 439.033 301.2 436.9 301.2C434.9 301.2 433.3 300.567 432.1 299.3C430.9 298.033 430.3 296.433 430.3 294.5Z"/>
</mask>
<path d="M432.1 289.6L432.787 290.327L432.797 290.317L432.807 290.307L432.1 289.6ZM441.9 289.6L441.193 290.307L441.203 290.317L441.213 290.327L441.9 289.6ZM441.9 299.3L441.174 298.612L441.174 298.612L441.9 299.3ZM432.1 299.3L431.374 299.988L432.1 299.3ZM431.3 294.5C431.3 292.557 431.841 291.22 432.787 290.327L431.413 288.873C429.959 290.246 429.3 292.176 429.3 294.5H431.3ZM432.807 290.307C433.786 289.328 435.114 288.8 436.9 288.8V286.8C434.686 286.8 432.814 287.472 431.393 288.893L432.807 290.307ZM436.9 288.8C438.84 288.8 440.226 289.34 441.193 290.307L442.607 288.893C441.174 287.46 439.227 286.8 436.9 286.8V288.8ZM441.213 290.327C442.159 291.22 442.7 292.557 442.7 294.5H444.7C444.7 292.176 444.041 290.246 442.587 288.873L441.213 290.327ZM442.7 294.5C442.7 296.208 442.178 297.552 441.174 298.612L442.626 299.988C444.022 298.515 444.7 296.659 444.7 294.5H442.7ZM441.174 298.612C440.204 299.636 438.824 300.2 436.9 300.2V302.2C439.242 302.2 441.196 301.497 442.626 299.988L441.174 298.612ZM436.9 300.2C435.131 300.2 433.809 299.65 432.826 298.612L431.374 299.988C432.791 301.484 434.669 302.2 436.9 302.2V300.2ZM432.826 298.612C431.822 297.552 431.3 296.208 431.3 294.5H429.3C429.3 296.659 429.978 298.515 431.374 299.988L432.826 298.612Z" fill="#E502A1" mask="url(#path-39-outside-20_370_2089)"/>
<mask id="path-41-outside-21_370_2089" maskUnits="userSpaceOnUse" x="413" y="366" width="16" height="17" fill="black">
<rect fill="white" x="413" y="366" width="16" height="17"/>
<path d="M414.3 374.5C414.3 372.367 414.9 370.733 416.1 369.6C417.3 368.4 418.9 367.8 420.9 367.8C423.033 367.8 424.7 368.4 425.9 369.6C427.1 370.733 427.7 372.367 427.7 374.5C427.7 376.433 427.1 378.033 425.9 379.3C424.7 380.567 423.033 381.2 420.9 381.2C418.9 381.2 417.3 380.567 416.1 379.3C414.9 378.033 414.3 376.433 414.3 374.5Z"/>
</mask>
<path d="M416.1 369.6L416.787 370.327L416.797 370.317L416.807 370.307L416.1 369.6ZM425.9 369.6L425.193 370.307L425.203 370.317L425.213 370.327L425.9 369.6ZM425.9 379.3L425.174 378.612L425.174 378.612L425.9 379.3ZM416.1 379.3L415.374 379.988L416.1 379.3ZM415.3 374.5C415.3 372.557 415.841 371.22 416.787 370.327L415.413 368.873C413.959 370.246 413.3 372.176 413.3 374.5H415.3ZM416.807 370.307C417.786 369.328 419.114 368.8 420.9 368.8V366.8C418.686 366.8 416.814 367.472 415.393 368.893L416.807 370.307ZM420.9 368.8C422.84 368.8 424.226 369.34 425.193 370.307L426.607 368.893C425.174 367.46 423.227 366.8 420.9 366.8V368.8ZM425.213 370.327C426.159 371.22 426.7 372.557 426.7 374.5H428.7C428.7 372.176 428.041 370.246 426.587 368.873L425.213 370.327ZM426.7 374.5C426.7 376.208 426.178 377.552 425.174 378.612L426.626 379.988C428.022 378.515 428.7 376.659 428.7 374.5H426.7ZM425.174 378.612C424.204 379.636 422.824 380.2 420.9 380.2V382.2C423.242 382.2 425.196 381.497 426.626 379.988L425.174 378.612ZM420.9 380.2C419.131 380.2 417.809 379.65 416.826 378.612L415.374 379.988C416.791 381.484 418.669 382.2 420.9 382.2V380.2ZM416.826 378.612C415.822 377.552 415.3 376.208 415.3 374.5H413.3C413.3 376.659 413.978 378.515 415.374 379.988L416.826 378.612Z" fill="#E502A1" mask="url(#path-41-outside-21_370_2089)"/>
<mask id="path-43-outside-22_370_2089" maskUnits="userSpaceOnUse" x="359" y="414" width="16" height="17" fill="black">
<rect fill="white" x="359" y="414" width="16" height="17"/>
<path d="M360.3 422.5C360.3 420.367 360.9 418.733 362.1 417.6C363.3 416.4 364.9 415.8 366.9 415.8C369.033 415.8 370.7 416.4 371.9 417.6C373.1 418.733 373.7 420.367 373.7 422.5C373.7 424.433 373.1 426.033 371.9 427.3C370.7 428.567 369.033 429.2 366.9 429.2C364.9 429.2 363.3 428.567 362.1 427.3C360.9 426.033 360.3 424.433 360.3 422.5Z"/>
</mask>
<path d="M362.1 417.6L362.787 418.327L362.797 418.317L362.807 418.307L362.1 417.6ZM371.9 417.6L371.193 418.307L371.203 418.317L371.213 418.327L371.9 417.6ZM371.9 427.3L371.174 426.612L371.174 426.612L371.9 427.3ZM362.1 427.3L361.374 427.988L362.1 427.3ZM361.3 422.5C361.3 420.557 361.841 419.22 362.787 418.327L361.413 416.873C359.959 418.246 359.3 420.176 359.3 422.5H361.3ZM362.807 418.307C363.786 417.328 365.114 416.8 366.9 416.8V414.8C364.686 414.8 362.814 415.472 361.393 416.893L362.807 418.307ZM366.9 416.8C368.84 416.8 370.226 417.34 371.193 418.307L372.607 416.893C371.174 415.46 369.227 414.8 366.9 414.8V416.8ZM371.213 418.327C372.159 419.22 372.7 420.557 372.7 422.5H374.7C374.7 420.176 374.041 418.246 372.587 416.873L371.213 418.327ZM372.7 422.5C372.7 424.208 372.178 425.552 371.174 426.612L372.626 427.988C374.022 426.515 374.7 424.659 374.7 422.5H372.7ZM371.174 426.612C370.204 427.636 368.824 428.2 366.9 428.2V430.2C369.242 430.2 371.196 429.497 372.626 427.988L371.174 426.612ZM366.9 428.2C365.131 428.2 363.809 427.65 362.826 426.612L361.374 427.988C362.791 429.484 364.669 430.2 366.9 430.2V428.2ZM362.826 426.612C361.822 425.552 361.3 424.208 361.3 422.5H359.3C359.3 424.659 359.978 426.515 361.374 427.988L362.826 426.612Z" fill="#E502A1" mask="url(#path-43-outside-22_370_2089)"/>
<mask id="path-45-outside-23_370_2089" maskUnits="userSpaceOnUse" x="359" y="507" width="16" height="17" fill="black">
<rect fill="white" x="359" y="507" width="16" height="17"/>
<path d="M360.3 515.5C360.3 513.367 360.9 511.733 362.1 510.6C363.3 509.4 364.9 508.8 366.9 508.8C369.033 508.8 370.7 509.4 371.9 510.6C373.1 511.733 373.7 513.367 373.7 515.5C373.7 517.433 373.1 519.033 371.9 520.3C370.7 521.567 369.033 522.2 366.9 522.2C364.9 522.2 363.3 521.567 362.1 520.3C360.9 519.033 360.3 517.433 360.3 515.5Z"/>
</mask>
<path d="M362.1 510.6L362.787 511.327L362.797 511.317L362.807 511.307L362.1 510.6ZM371.9 510.6L371.193 511.307L371.203 511.317L371.213 511.327L371.9 510.6ZM371.9 520.3L371.174 519.612L371.174 519.612L371.9 520.3ZM362.1 520.3L361.374 520.988L362.1 520.3ZM361.3 515.5C361.3 513.557 361.841 512.22 362.787 511.327L361.413 509.873C359.959 511.246 359.3 513.176 359.3 515.5H361.3ZM362.807 511.307C363.786 510.328 365.114 509.8 366.9 509.8V507.8C364.686 507.8 362.814 508.472 361.393 509.893L362.807 511.307ZM366.9 509.8C368.84 509.8 370.226 510.34 371.193 511.307L372.607 509.893C371.174 508.46 369.227 507.8 366.9 507.8V509.8ZM371.213 511.327C372.159 512.22 372.7 513.557 372.7 515.5H374.7C374.7 513.176 374.041 511.246 372.587 509.873L371.213 511.327ZM372.7 515.5C372.7 517.208 372.178 518.552 371.174 519.612L372.626 520.988C374.022 519.515 374.7 517.659 374.7 515.5H372.7ZM371.174 519.612C370.204 520.636 368.824 521.2 366.9 521.2V523.2C369.242 523.2 371.196 522.497 372.626 520.988L371.174 519.612ZM366.9 521.2C365.131 521.2 363.809 520.65 362.826 519.612L361.374 520.988C362.791 522.484 364.669 523.2 366.9 523.2V521.2ZM362.826 519.612C361.822 518.552 361.3 517.208 361.3 515.5H359.3C359.3 517.659 359.978 519.515 361.374 520.988L362.826 519.612Z" fill="#E502A1" mask="url(#path-45-outside-23_370_2089)"/>
<mask id="path-47-outside-24_370_2089" maskUnits="userSpaceOnUse" x="294" y="464" width="16" height="17" fill="black">
<rect fill="white" x="294" y="464" width="16" height="17"/>
<path d="M295.3 472.5C295.3 470.367 295.9 468.733 297.1 467.6C298.3 466.4 299.9 465.8 301.9 465.8C304.033 465.8 305.7 466.4 306.9 467.6C308.1 468.733 308.7 470.367 308.7 472.5C308.7 474.433 308.1 476.033 306.9 477.3C305.7 478.567 304.033 479.2 301.9 479.2C299.9 479.2 298.3 478.567 297.1 477.3C295.9 476.033 295.3 474.433 295.3 472.5Z"/>
</mask>
<path d="M297.1 467.6L297.787 468.327L297.797 468.317L297.807 468.307L297.1 467.6ZM306.9 467.6L306.193 468.307L306.203 468.317L306.213 468.327L306.9 467.6ZM306.9 477.3L306.174 476.612L306.174 476.612L306.9 477.3ZM297.1 477.3L296.374 477.988L297.1 477.3ZM296.3 472.5C296.3 470.557 296.841 469.22 297.787 468.327L296.413 466.873C294.959 468.246 294.3 470.176 294.3 472.5H296.3ZM297.807 468.307C298.786 467.328 300.114 466.8 301.9 466.8V464.8C299.686 464.8 297.814 465.472 296.393 466.893L297.807 468.307ZM301.9 466.8C303.84 466.8 305.226 467.34 306.193 468.307L307.607 466.893C306.174 465.46 304.227 464.8 301.9 464.8V466.8ZM306.213 468.327C307.159 469.22 307.7 470.557 307.7 472.5H309.7C309.7 470.176 309.041 468.246 307.587 466.873L306.213 468.327ZM307.7 472.5C307.7 474.208 307.178 475.552 306.174 476.612L307.626 477.988C309.022 476.515 309.7 474.659 309.7 472.5H307.7ZM306.174 476.612C305.204 477.636 303.824 478.2 301.9 478.2V480.2C304.242 480.2 306.196 479.497 307.626 477.988L306.174 476.612ZM301.9 478.2C300.131 478.2 298.809 477.65 297.826 476.612L296.374 477.988C297.791 479.484 299.669 480.2 301.9 480.2V478.2ZM297.826 476.612C296.822 475.552 296.3 474.208 296.3 472.5H294.3C294.3 474.659 294.978 476.515 296.374 477.988L297.826 476.612Z" fill="#E502A1" mask="url(#path-47-outside-24_370_2089)"/>
<mask id="path-49-outside-25_370_2089" maskUnits="userSpaceOnUse" x="283" y="384" width="16" height="17" fill="black">
<rect fill="white" x="283" y="384" width="16" height="17"/>
<path d="M284.3 392.5C284.3 390.367 284.9 388.733 286.1 387.6C287.3 386.4 288.9 385.8 290.9 385.8C293.033 385.8 294.7 386.4 295.9 387.6C297.1 388.733 297.7 390.367 297.7 392.5C297.7 394.433 297.1 396.033 295.9 397.3C294.7 398.567 293.033 399.2 290.9 399.2C288.9 399.2 287.3 398.567 286.1 397.3C284.9 396.033 284.3 394.433 284.3 392.5Z"/>
</mask>
<path d="M286.1 387.6L286.787 388.327L286.797 388.317L286.807 388.307L286.1 387.6ZM295.9 387.6L295.193 388.307L295.203 388.317L295.213 388.327L295.9 387.6ZM295.9 397.3L295.174 396.612L295.174 396.612L295.9 397.3ZM286.1 397.3L285.374 397.988L286.1 397.3ZM285.3 392.5C285.3 390.557 285.841 389.22 286.787 388.327L285.413 386.873C283.959 388.246 283.3 390.176 283.3 392.5H285.3ZM286.807 388.307C287.786 387.328 289.114 386.8 290.9 386.8V384.8C288.686 384.8 286.814 385.472 285.393 386.893L286.807 388.307ZM290.9 386.8C292.84 386.8 294.226 387.34 295.193 388.307L296.607 386.893C295.174 385.46 293.227 384.8 290.9 384.8V386.8ZM295.213 388.327C296.159 389.22 296.7 390.557 296.7 392.5H298.7C298.7 390.176 298.041 388.246 296.587 386.873L295.213 388.327ZM296.7 392.5C296.7 394.208 296.178 395.552 295.174 396.612L296.626 397.988C298.022 396.515 298.7 394.659 298.7 392.5H296.7ZM295.174 396.612C294.204 397.636 292.824 398.2 290.9 398.2V400.2C293.242 400.2 295.196 399.497 296.626 397.988L295.174 396.612ZM290.9 398.2C289.131 398.2 287.809 397.65 286.826 396.612L285.374 397.988C286.791 399.484 288.669 400.2 290.9 400.2V398.2ZM286.826 396.612C285.822 395.552 285.3 394.208 285.3 392.5H283.3C283.3 394.659 283.978 396.515 285.374 397.988L286.826 396.612Z" fill="#E502A1" mask="url(#path-49-outside-25_370_2089)"/>
<mask id="path-51-outside-26_370_2089" maskUnits="userSpaceOnUse" x="229" y="362" width="16" height="17" fill="black">
<rect fill="white" x="229" y="362" width="16" height="17"/>
<path d="M230.3 370.5C230.3 368.367 230.9 366.733 232.1 365.6C233.3 364.4 234.9 363.8 236.9 363.8C239.033 363.8 240.7 364.4 241.9 365.6C243.1 366.733 243.7 368.367 243.7 370.5C243.7 372.433 243.1 374.033 241.9 375.3C240.7 376.567 239.033 377.2 236.9 377.2C234.9 377.2 233.3 376.567 232.1 375.3C230.9 374.033 230.3 372.433 230.3 370.5Z"/>
</mask>
<path d="M232.1 365.6L232.787 366.327L232.797 366.317L232.807 366.307L232.1 365.6ZM241.9 365.6L241.193 366.307L241.203 366.317L241.213 366.327L241.9 365.6ZM241.9 375.3L241.174 374.612L241.174 374.612L241.9 375.3ZM232.1 375.3L231.374 375.988L232.1 375.3ZM231.3 370.5C231.3 368.557 231.841 367.22 232.787 366.327L231.413 364.873C229.959 366.246 229.3 368.176 229.3 370.5H231.3ZM232.807 366.307C233.786 365.328 235.114 364.8 236.9 364.8V362.8C234.686 362.8 232.814 363.472 231.393 364.893L232.807 366.307ZM236.9 364.8C238.84 364.8 240.226 365.34 241.193 366.307L242.607 364.893C241.174 363.46 239.227 362.8 236.9 362.8V364.8ZM241.213 366.327C242.159 367.22 242.7 368.557 242.7 370.5H244.7C244.7 368.176 244.041 366.246 242.587 364.873L241.213 366.327ZM242.7 370.5C242.7 372.208 242.178 373.552 241.174 374.612L242.626 375.988C244.022 374.515 244.7 372.659 244.7 370.5H242.7ZM241.174 374.612C240.204 375.636 238.824 376.2 236.9 376.2V378.2C239.242 378.2 241.196 377.497 242.626 375.988L241.174 374.612ZM236.9 376.2C235.131 376.2 233.809 375.65 232.826 374.612L231.374 375.988C232.791 377.484 234.669 378.2 236.9 378.2V376.2ZM232.826 374.612C231.822 373.552 231.3 372.208 231.3 370.5H229.3C229.3 372.659 229.978 374.515 231.374 375.988L232.826 374.612Z" fill="#E502A1" mask="url(#path-51-outside-26_370_2089)"/>
<mask id="path-53-outside-27_370_2089" maskUnits="userSpaceOnUse" x="177" y="381" width="16" height="17" fill="black">
<rect fill="white" x="177" y="381" width="16" height="17"/>
<path d="M178.3 389.5C178.3 387.367 178.9 385.733 180.1 384.6C181.3 383.4 182.9 382.8 184.9 382.8C187.033 382.8 188.7 383.4 189.9 384.6C191.1 385.733 191.7 387.367 191.7 389.5C191.7 391.433 191.1 393.033 189.9 394.3C188.7 395.567 187.033 396.2 184.9 396.2C182.9 396.2 181.3 395.567 180.1 394.3C178.9 393.033 178.3 391.433 178.3 389.5Z"/>
</mask>
<path d="M180.1 384.6L180.787 385.327L180.797 385.317L180.807 385.307L180.1 384.6ZM189.9 384.6L189.193 385.307L189.203 385.317L189.213 385.327L189.9 384.6ZM189.9 394.3L189.174 393.612L189.174 393.612L189.9 394.3ZM180.1 394.3L179.374 394.988L180.1 394.3ZM179.3 389.5C179.3 387.557 179.841 386.22 180.787 385.327L179.413 383.873C177.959 385.246 177.3 387.176 177.3 389.5H179.3ZM180.807 385.307C181.786 384.328 183.114 383.8 184.9 383.8V381.8C182.686 381.8 180.814 382.472 179.393 383.893L180.807 385.307ZM184.9 383.8C186.84 383.8 188.226 384.34 189.193 385.307L190.607 383.893C189.174 382.46 187.227 381.8 184.9 381.8V383.8ZM189.213 385.327C190.159 386.22 190.7 387.557 190.7 389.5H192.7C192.7 387.176 192.041 385.246 190.587 383.873L189.213 385.327ZM190.7 389.5C190.7 391.208 190.178 392.552 189.174 393.612L190.626 394.988C192.022 393.515 192.7 391.659 192.7 389.5H190.7ZM189.174 393.612C188.204 394.636 186.824 395.2 184.9 395.2V397.2C187.242 397.2 189.196 396.497 190.626 394.988L189.174 393.612ZM184.9 395.2C183.131 395.2 181.809 394.65 180.826 393.612L179.374 394.988C180.791 396.484 182.669 397.2 184.9 397.2V395.2ZM180.826 393.612C179.822 392.552 179.3 391.208 179.3 389.5H177.3C177.3 391.659 177.978 393.515 179.374 394.988L180.826 393.612Z" fill="#E502A1" mask="url(#path-53-outside-27_370_2089)"/>
<mask id="path-55-outside-28_370_2089" maskUnits="userSpaceOnUse" x="183" y="306" width="16" height="17" fill="black">
<rect fill="white" x="183" y="306" width="16" height="17"/>
<path d="M184.3 314.5C184.3 312.367 184.9 310.733 186.1 309.6C187.3 308.4 188.9 307.8 190.9 307.8C193.033 307.8 194.7 308.4 195.9 309.6C197.1 310.733 197.7 312.367 197.7 314.5C197.7 316.433 197.1 318.033 195.9 319.3C194.7 320.567 193.033 321.2 190.9 321.2C188.9 321.2 187.3 320.567 186.1 319.3C184.9 318.033 184.3 316.433 184.3 314.5Z"/>
</mask>
<path d="M186.1 309.6L186.787 310.327L186.797 310.317L186.807 310.307L186.1 309.6ZM195.9 309.6L195.193 310.307L195.203 310.317L195.213 310.327L195.9 309.6ZM195.9 319.3L195.174 318.612L195.174 318.612L195.9 319.3ZM186.1 319.3L185.374 319.988L186.1 319.3ZM185.3 314.5C185.3 312.557 185.841 311.22 186.787 310.327L185.413 308.873C183.959 310.246 183.3 312.176 183.3 314.5H185.3ZM186.807 310.307C187.786 309.328 189.114 308.8 190.9 308.8V306.8C188.686 306.8 186.814 307.472 185.393 308.893L186.807 310.307ZM190.9 308.8C192.84 308.8 194.226 309.34 195.193 310.307L196.607 308.893C195.174 307.46 193.227 306.8 190.9 306.8V308.8ZM195.213 310.327C196.159 311.22 196.7 312.557 196.7 314.5H198.7C198.7 312.176 198.041 310.246 196.587 308.873L195.213 310.327ZM196.7 314.5C196.7 316.208 196.178 317.552 195.174 318.612L196.626 319.988C198.022 318.515 198.7 316.659 198.7 314.5H196.7ZM195.174 318.612C194.204 319.636 192.824 320.2 190.9 320.2V322.2C193.242 322.2 195.196 321.497 196.626 319.988L195.174 318.612ZM190.9 320.2C189.131 320.2 187.809 319.65 186.826 318.612L185.374 319.988C186.791 321.484 188.669 322.2 190.9 322.2V320.2ZM186.826 318.612C185.822 317.552 185.3 316.208 185.3 314.5H183.3C183.3 316.659 183.978 318.515 185.374 319.988L186.826 318.612Z" fill="#E502A1" mask="url(#path-55-outside-28_370_2089)"/>
<mask id="path-57-outside-29_370_2089" maskUnits="userSpaceOnUse" x="177" y="283" width="16" height="17" fill="black">
<rect fill="white" x="177" y="283" width="16" height="17"/>
<path d="M178.3 291.5C178.3 289.367 178.9 287.733 180.1 286.6C181.3 285.4 182.9 284.8 184.9 284.8C187.033 284.8 188.7 285.4 189.9 286.6C191.1 287.733 191.7 289.367 191.7 291.5C191.7 293.433 191.1 295.033 189.9 296.3C188.7 297.567 187.033 298.2 184.9 298.2C182.9 298.2 181.3 297.567 180.1 296.3C178.9 295.033 178.3 293.433 178.3 291.5Z"/>
</mask>
<path d="M180.1 286.6L180.787 287.327L180.797 287.317L180.807 287.307L180.1 286.6ZM189.9 286.6L189.193 287.307L189.203 287.317L189.213 287.327L189.9 286.6ZM189.9 296.3L189.174 295.612L189.174 295.612L189.9 296.3ZM180.1 296.3L179.374 296.988L180.1 296.3ZM179.3 291.5C179.3 289.557 179.841 288.22 180.787 287.327L179.413 285.873C177.959 287.246 177.3 289.176 177.3 291.5H179.3ZM180.807 287.307C181.786 286.328 183.114 285.8 184.9 285.8V283.8C182.686 283.8 180.814 284.472 179.393 285.893L180.807 287.307ZM184.9 285.8C186.84 285.8 188.226 286.34 189.193 287.307L190.607 285.893C189.174 284.46 187.227 283.8 184.9 283.8V285.8ZM189.213 287.327C190.159 288.22 190.7 289.557 190.7 291.5H192.7C192.7 289.176 192.041 287.246 190.587 285.873L189.213 287.327ZM190.7 291.5C190.7 293.208 190.178 294.552 189.174 295.612L190.626 296.988C192.022 295.515 192.7 293.659 192.7 291.5H190.7ZM189.174 295.612C188.204 296.636 186.824 297.2 184.9 297.2V299.2C187.242 299.2 189.196 298.497 190.626 296.988L189.174 295.612ZM184.9 297.2C183.131 297.2 181.809 296.65 180.826 295.612L179.374 296.988C180.791 298.484 182.669 299.2 184.9 299.2V297.2ZM180.826 295.612C179.822 294.552 179.3 293.208 179.3 291.5H177.3C177.3 293.659 177.978 295.515 179.374 296.988L180.826 295.612Z" fill="#E502A1" mask="url(#path-57-outside-29_370_2089)"/>
<mask id="path-59-outside-30_370_2089" maskUnits="userSpaceOnUse" x="130" y="254" width="16" height="17" fill="black">
<rect fill="white" x="130" y="254" width="16" height="17"/>
<path d="M131.3 262.5C131.3 260.367 131.9 258.733 133.1 257.6C134.3 256.4 135.9 255.8 137.9 255.8C140.033 255.8 141.7 256.4 142.9 257.6C144.1 258.733 144.7 260.367 144.7 262.5C144.7 264.433 144.1 266.033 142.9 267.3C141.7 268.567 140.033 269.2 137.9 269.2C135.9 269.2 134.3 268.567 133.1 267.3C131.9 266.033 131.3 264.433 131.3 262.5Z"/>
</mask>
<path d="M133.1 257.6L133.787 258.327L133.797 258.317L133.807 258.307L133.1 257.6ZM142.9 257.6L142.193 258.307L142.203 258.317L142.213 258.327L142.9 257.6ZM142.9 267.3L142.174 266.612L142.174 266.612L142.9 267.3ZM133.1 267.3L132.374 267.988L133.1 267.3ZM132.3 262.5C132.3 260.557 132.841 259.22 133.787 258.327L132.413 256.873C130.959 258.246 130.3 260.176 130.3 262.5H132.3ZM133.807 258.307C134.786 257.328 136.114 256.8 137.9 256.8V254.8C135.686 254.8 133.814 255.472 132.393 256.893L133.807 258.307ZM137.9 256.8C139.84 256.8 141.226 257.34 142.193 258.307L143.607 256.893C142.174 255.46 140.227 254.8 137.9 254.8V256.8ZM142.213 258.327C143.159 259.22 143.7 260.557 143.7 262.5H145.7C145.7 260.176 145.041 258.246 143.587 256.873L142.213 258.327ZM143.7 262.5C143.7 264.208 143.178 265.552 142.174 266.612L143.626 267.988C145.022 266.515 145.7 264.659 145.7 262.5H143.7ZM142.174 266.612C141.204 267.636 139.824 268.2 137.9 268.2V270.2C140.242 270.2 142.196 269.497 143.626 267.988L142.174 266.612ZM137.9 268.2C136.131 268.2 134.809 267.65 133.826 266.612L132.374 267.988C133.791 269.484 135.669 270.2 137.9 270.2V268.2ZM133.826 266.612C132.822 265.552 132.3 264.208 132.3 262.5H130.3C130.3 264.659 130.978 266.515 132.374 267.988L133.826 266.612Z" fill="#E502A1" mask="url(#path-59-outside-30_370_2089)"/>
<mask id="path-61-outside-31_370_2089" maskUnits="userSpaceOnUse" x="82" y="279" width="16" height="17" fill="black">
<rect fill="white" x="82" y="279" width="16" height="17"/>
<path d="M83.3 287.5C83.3 285.367 83.9 283.733 85.1 282.6C86.3 281.4 87.9 280.8 89.9 280.8C92.0333 280.8 93.7 281.4 94.9 282.6C96.1 283.733 96.7 285.367 96.7 287.5C96.7 289.433 96.1 291.033 94.9 292.3C93.7 293.567 92.0333 294.2 89.9 294.2C87.9 294.2 86.3 293.567 85.1 292.3C83.9 291.033 83.3 289.433 83.3 287.5Z"/>
</mask>
<path d="M85.1 282.6L85.7866 283.327L85.797 283.317L85.8071 283.307L85.1 282.6ZM94.9 282.6L94.1929 283.307L94.203 283.317L94.2134 283.327L94.9 282.6ZM94.9 292.3L94.174 291.612L94.174 291.612L94.9 292.3ZM85.1 292.3L84.374 292.988L85.1 292.3ZM84.3 287.5C84.3 285.557 84.8409 284.22 85.7866 283.327L84.4134 281.873C82.9591 283.246 82.3 285.176 82.3 287.5H84.3ZM85.8071 283.307C86.7864 282.328 88.1143 281.8 89.9 281.8V279.8C87.6857 279.8 85.8136 280.472 84.3929 281.893L85.8071 283.307ZM89.9 281.8C91.84 281.8 93.2258 282.34 94.1929 283.307L95.6071 281.893C94.1742 280.46 92.2267 279.8 89.9 279.8V281.8ZM94.2134 283.327C95.1591 284.22 95.7 285.557 95.7 287.5H97.7C97.7 285.176 97.0409 283.246 95.5866 281.873L94.2134 283.327ZM95.7 287.5C95.7 289.208 95.1784 290.552 94.174 291.612L95.626 292.988C97.0216 291.515 97.7 289.659 97.7 287.5H95.7ZM94.174 291.612C93.2037 292.636 91.8244 293.2 89.9 293.2V295.2C92.2423 295.2 94.1963 294.497 95.626 292.988L94.174 291.612ZM89.9 293.2C88.1306 293.2 86.8089 292.65 85.826 291.612L84.374 292.988C85.7911 294.484 87.6694 295.2 89.9 295.2V293.2ZM85.826 291.612C84.8216 290.552 84.3 289.208 84.3 287.5H82.3C82.3 289.659 82.9784 291.515 84.374 292.988L85.826 291.612Z" fill="#E502A1" mask="url(#path-61-outside-31_370_2089)"/>
<mask id="path-63-outside-32_370_2089" maskUnits="userSpaceOnUse" x="126" y="302" width="16" height="17" fill="black">
<rect fill="white" x="126" y="302" width="16" height="17"/>
<path d="M127.3 310.5C127.3 308.367 127.9 306.733 129.1 305.6C130.3 304.4 131.9 303.8 133.9 303.8C136.033 303.8 137.7 304.4 138.9 305.6C140.1 306.733 140.7 308.367 140.7 310.5C140.7 312.433 140.1 314.033 138.9 315.3C137.7 316.567 136.033 317.2 133.9 317.2C131.9 317.2 130.3 316.567 129.1 315.3C127.9 314.033 127.3 312.433 127.3 310.5Z"/>
</mask>
<path d="M129.1 305.6L129.787 306.327L129.797 306.317L129.807 306.307L129.1 305.6ZM138.9 305.6L138.193 306.307L138.203 306.317L138.213 306.327L138.9 305.6ZM138.9 315.3L138.174 314.612L138.174 314.612L138.9 315.3ZM129.1 315.3L128.374 315.988L129.1 315.3ZM128.3 310.5C128.3 308.557 128.841 307.22 129.787 306.327L128.413 304.873C126.959 306.246 126.3 308.176 126.3 310.5H128.3ZM129.807 306.307C130.786 305.328 132.114 304.8 133.9 304.8V302.8C131.686 302.8 129.814 303.472 128.393 304.893L129.807 306.307ZM133.9 304.8C135.84 304.8 137.226 305.34 138.193 306.307L139.607 304.893C138.174 303.46 136.227 302.8 133.9 302.8V304.8ZM138.213 306.327C139.159 307.22 139.7 308.557 139.7 310.5H141.7C141.7 308.176 141.041 306.246 139.587 304.873L138.213 306.327ZM139.7 310.5C139.7 312.208 139.178 313.552 138.174 314.612L139.626 315.988C141.022 314.515 141.7 312.659 141.7 310.5H139.7ZM138.174 314.612C137.204 315.636 135.824 316.2 133.9 316.2V318.2C136.242 318.2 138.196 317.497 139.626 315.988L138.174 314.612ZM133.9 316.2C132.131 316.2 130.809 315.65 129.826 314.612L128.374 315.988C129.791 317.484 131.669 318.2 133.9 318.2V316.2ZM129.826 314.612C128.822 313.552 128.3 312.208 128.3 310.5H126.3C126.3 312.659 126.978 314.515 128.374 315.988L129.826 314.612Z" fill="#E502A1" mask="url(#path-63-outside-32_370_2089)"/>
<mask id="path-65-outside-33_370_2089" maskUnits="userSpaceOnUse" x="59" y="304" width="16" height="17" fill="black">
<rect fill="white" x="59" y="304" width="16" height="17"/>
<path d="M60.3 312.5C60.3 310.367 60.9 308.733 62.1 307.6C63.3 306.4 64.9 305.8 66.9 305.8C69.0333 305.8 70.7 306.4 71.9 307.6C73.1 308.733 73.7 310.367 73.7 312.5C73.7 314.433 73.1 316.033 71.9 317.3C70.7 318.567 69.0333 319.2 66.9 319.2C64.9 319.2 63.3 318.567 62.1 317.3C60.9 316.033 60.3 314.433 60.3 312.5Z"/>
</mask>
<path d="M62.1 307.6L62.7866 308.327L62.797 308.317L62.8071 308.307L62.1 307.6ZM71.9 307.6L71.1929 308.307L71.203 308.317L71.2134 308.327L71.9 307.6ZM71.9 317.3L71.174 316.612L71.174 316.612L71.9 317.3ZM62.1 317.3L61.374 317.988L62.1 317.3ZM61.3 312.5C61.3 310.557 61.8409 309.22 62.7866 308.327L61.4134 306.873C59.9591 308.246 59.3 310.176 59.3 312.5H61.3ZM62.8071 308.307C63.7864 307.328 65.1143 306.8 66.9 306.8V304.8C64.6857 304.8 62.8136 305.472 61.3929 306.893L62.8071 308.307ZM66.9 306.8C68.84 306.8 70.2258 307.34 71.1929 308.307L72.6071 306.893C71.1742 305.46 69.2267 304.8 66.9 304.8V306.8ZM71.2134 308.327C72.1591 309.22 72.7 310.557 72.7 312.5H74.7C74.7 310.176 74.0409 308.246 72.5866 306.873L71.2134 308.327ZM72.7 312.5C72.7 314.208 72.1784 315.552 71.174 316.612L72.626 317.988C74.0216 316.515 74.7 314.659 74.7 312.5H72.7ZM71.174 316.612C70.2037 317.636 68.8244 318.2 66.9 318.2V320.2C69.2423 320.2 71.1963 319.497 72.626 317.988L71.174 316.612ZM66.9 318.2C65.1306 318.2 63.8089 317.65 62.826 316.612L61.374 317.988C62.7911 319.484 64.6694 320.2 66.9 320.2V318.2ZM62.826 316.612C61.8216 315.552 61.3 314.208 61.3 312.5H59.3C59.3 314.659 59.9784 316.515 61.374 317.988L62.826 316.612Z" fill="#E502A1" mask="url(#path-65-outside-33_370_2089)"/>
<mask id="path-67-outside-34_370_2089" maskUnits="userSpaceOnUse" x="22" y="292" width="16" height="17" fill="black">
<rect fill="white" x="22" y="292" width="16" height="17"/>
<path d="M23.3 300.5C23.3 298.367 23.9 296.733 25.1 295.6C26.3 294.4 27.9 293.8 29.9 293.8C32.0333 293.8 33.7 294.4 34.9 295.6C36.1 296.733 36.7 298.367 36.7 300.5C36.7 302.433 36.1 304.033 34.9 305.3C33.7 306.567 32.0333 307.2 29.9 307.2C27.9 307.2 26.3 306.567 25.1 305.3C23.9 304.033 23.3 302.433 23.3 300.5Z"/>
</mask>
<path d="M25.1 295.6L25.7866 296.327L25.797 296.317L25.8071 296.307L25.1 295.6ZM34.9 295.6L34.1929 296.307L34.203 296.317L34.2134 296.327L34.9 295.6ZM34.9 305.3L34.174 304.612L34.174 304.612L34.9 305.3ZM25.1 305.3L24.374 305.988L25.1 305.3ZM24.3 300.5C24.3 298.557 24.8409 297.22 25.7866 296.327L24.4134 294.873C22.9591 296.246 22.3 298.176 22.3 300.5H24.3ZM25.8071 296.307C26.7864 295.328 28.1143 294.8 29.9 294.8V292.8C27.6857 292.8 25.8136 293.472 24.3929 294.893L25.8071 296.307ZM29.9 294.8C31.84 294.8 33.2258 295.34 34.1929 296.307L35.6071 294.893C34.1742 293.46 32.2267 292.8 29.9 292.8V294.8ZM34.2134 296.327C35.1591 297.22 35.7 298.557 35.7 300.5H37.7C37.7 298.176 37.0409 296.246 35.5866 294.873L34.2134 296.327ZM35.7 300.5C35.7 302.208 35.1784 303.552 34.174 304.612L35.626 305.988C37.0216 304.515 37.7 302.659 37.7 300.5H35.7ZM34.174 304.612C33.2037 305.636 31.8244 306.2 29.9 306.2V308.2C32.2423 308.2 34.1963 307.497 35.626 305.988L34.174 304.612ZM29.9 306.2C28.1306 306.2 26.8089 305.65 25.826 304.612L24.374 305.988C25.7911 307.484 27.6694 308.2 29.9 308.2V306.2ZM25.826 304.612C24.8216 303.552 24.3 302.208 24.3 300.5H22.3C22.3 302.659 22.9784 304.515 24.374 305.988L25.826 304.612Z" fill="#E502A1" mask="url(#path-67-outside-34_370_2089)"/>
<mask id="path-69-outside-35_370_2089" maskUnits="userSpaceOnUse" x="34" y="372" width="16" height="17" fill="black">
<rect fill="white" x="34" y="372" width="16" height="17"/>
<path d="M35.3 380.5C35.3 378.367 35.9 376.733 37.1 375.6C38.3 374.4 39.9 373.8 41.9 373.8C44.0333 373.8 45.7 374.4 46.9 375.6C48.1 376.733 48.7 378.367 48.7 380.5C48.7 382.433 48.1 384.033 46.9 385.3C45.7 386.567 44.0333 387.2 41.9 387.2C39.9 387.2 38.3 386.567 37.1 385.3C35.9 384.033 35.3 382.433 35.3 380.5Z"/>
</mask>
<path d="M37.1 375.6L37.7866 376.327L37.797 376.317L37.8071 376.307L37.1 375.6ZM46.9 375.6L46.1929 376.307L46.203 376.317L46.2134 376.327L46.9 375.6ZM46.9 385.3L46.174 384.612L46.174 384.612L46.9 385.3ZM37.1 385.3L36.374 385.988L37.1 385.3ZM36.3 380.5C36.3 378.557 36.8409 377.22 37.7866 376.327L36.4134 374.873C34.9591 376.246 34.3 378.176 34.3 380.5H36.3ZM37.8071 376.307C38.7864 375.328 40.1143 374.8 41.9 374.8V372.8C39.6857 372.8 37.8136 373.472 36.3929 374.893L37.8071 376.307ZM41.9 374.8C43.84 374.8 45.2258 375.34 46.1929 376.307L47.6071 374.893C46.1742 373.46 44.2267 372.8 41.9 372.8V374.8ZM46.2134 376.327C47.1591 377.22 47.7 378.557 47.7 380.5H49.7C49.7 378.176 49.0409 376.246 47.5866 374.873L46.2134 376.327ZM47.7 380.5C47.7 382.208 47.1784 383.552 46.174 384.612L47.626 385.988C49.0216 384.515 49.7 382.659 49.7 380.5H47.7ZM46.174 384.612C45.2037 385.636 43.8244 386.2 41.9 386.2V388.2C44.2423 388.2 46.1963 387.497 47.626 385.988L46.174 384.612ZM41.9 386.2C40.1306 386.2 38.8089 385.65 37.826 384.612L36.374 385.988C37.7911 387.484 39.6694 388.2 41.9 388.2V386.2ZM37.826 384.612C36.8216 383.552 36.3 382.208 36.3 380.5H34.3C34.3 382.659 34.9784 384.515 36.374 385.988L37.826 384.612Z" fill="#E502A1" mask="url(#path-69-outside-35_370_2089)"/>
<mask id="path-71-outside-36_370_2089" maskUnits="userSpaceOnUse" x="94" y="410" width="16" height="17" fill="black">
<rect fill="white" x="94" y="410" width="16" height="17"/>
<path d="M95.3 418.5C95.3 416.367 95.9 414.733 97.1 413.6C98.3 412.4 99.9 411.8 101.9 411.8C104.033 411.8 105.7 412.4 106.9 413.6C108.1 414.733 108.7 416.367 108.7 418.5C108.7 420.433 108.1 422.033 106.9 423.3C105.7 424.567 104.033 425.2 101.9 425.2C99.9 425.2 98.3 424.567 97.1 423.3C95.9 422.033 95.3 420.433 95.3 418.5Z"/>
</mask>
<path d="M97.1 413.6L97.7866 414.327L97.797 414.317L97.8071 414.307L97.1 413.6ZM106.9 413.6L106.193 414.307L106.203 414.317L106.213 414.327L106.9 413.6ZM106.9 423.3L106.174 422.612L106.174 422.612L106.9 423.3ZM97.1 423.3L96.374 423.988L97.1 423.3ZM96.3 418.5C96.3 416.557 96.8409 415.22 97.7866 414.327L96.4134 412.873C94.9591 414.246 94.3 416.176 94.3 418.5H96.3ZM97.8071 414.307C98.7864 413.328 100.114 412.8 101.9 412.8V410.8C99.6857 410.8 97.8136 411.472 96.3929 412.893L97.8071 414.307ZM101.9 412.8C103.84 412.8 105.226 413.34 106.193 414.307L107.607 412.893C106.174 411.46 104.227 410.8 101.9 410.8V412.8ZM106.213 414.327C107.159 415.22 107.7 416.557 107.7 418.5H109.7C109.7 416.176 109.041 414.246 107.587 412.873L106.213 414.327ZM107.7 418.5C107.7 420.208 107.178 421.552 106.174 422.612L107.626 423.988C109.022 422.515 109.7 420.659 109.7 418.5H107.7ZM106.174 422.612C105.204 423.636 103.824 424.2 101.9 424.2V426.2C104.242 426.2 106.196 425.497 107.626 423.988L106.174 422.612ZM101.9 424.2C100.131 424.2 98.8089 423.65 97.826 422.612L96.374 423.988C97.7911 425.484 99.6694 426.2 101.9 426.2V424.2ZM97.826 422.612C96.8216 421.552 96.3 420.208 96.3 418.5H94.3C94.3 420.659 94.9784 422.515 96.374 423.988L97.826 422.612Z" fill="#E502A1" mask="url(#path-71-outside-36_370_2089)"/>
<mask id="path-73-outside-37_370_2089" maskUnits="userSpaceOnUse" x="94" y="493" width="16" height="17" fill="black">
<rect fill="white" x="94" y="493" width="16" height="17"/>
<path d="M95.3 501.5C95.3 499.367 95.9 497.733 97.1 496.6C98.3 495.4 99.9 494.8 101.9 494.8C104.033 494.8 105.7 495.4 106.9 496.6C108.1 497.733 108.7 499.367 108.7 501.5C108.7 503.433 108.1 505.033 106.9 506.3C105.7 507.567 104.033 508.2 101.9 508.2C99.9 508.2 98.3 507.567 97.1 506.3C95.9 505.033 95.3 503.433 95.3 501.5Z"/>
</mask>
<path d="M97.1 496.6L97.7866 497.327L97.797 497.317L97.8071 497.307L97.1 496.6ZM106.9 496.6L106.193 497.307L106.203 497.317L106.213 497.327L106.9 496.6ZM106.9 506.3L106.174 505.612L106.174 505.612L106.9 506.3ZM97.1 506.3L96.374 506.988L97.1 506.3ZM96.3 501.5C96.3 499.557 96.8409 498.22 97.7866 497.327L96.4134 495.873C94.9591 497.246 94.3 499.176 94.3 501.5H96.3ZM97.8071 497.307C98.7864 496.328 100.114 495.8 101.9 495.8V493.8C99.6857 493.8 97.8136 494.472 96.3929 495.893L97.8071 497.307ZM101.9 495.8C103.84 495.8 105.226 496.34 106.193 497.307L107.607 495.893C106.174 494.46 104.227 493.8 101.9 493.8V495.8ZM106.213 497.327C107.159 498.22 107.7 499.557 107.7 501.5H109.7C109.7 499.176 109.041 497.246 107.587 495.873L106.213 497.327ZM107.7 501.5C107.7 503.208 107.178 504.552 106.174 505.612L107.626 506.988C109.022 505.515 109.7 503.659 109.7 501.5H107.7ZM106.174 505.612C105.204 506.636 103.824 507.2 101.9 507.2V509.2C104.242 509.2 106.196 508.497 107.626 506.988L106.174 505.612ZM101.9 507.2C100.131 507.2 98.8089 506.65 97.826 505.612L96.374 506.988C97.7911 508.484 99.6694 509.2 101.9 509.2V507.2ZM97.826 505.612C96.8216 504.552 96.3 503.208 96.3 501.5H94.3C94.3 503.659 94.9784 505.515 96.374 506.988L97.826 505.612Z" fill="#E502A1" mask="url(#path-73-outside-37_370_2089)"/>
<mask id="path-75-outside-38_370_2089" maskUnits="userSpaceOnUse" x="156" y="464" width="16" height="17" fill="black">
<rect fill="white" x="156" y="464" width="16" height="17"/>
<path d="M157.3 472.5C157.3 470.367 157.9 468.733 159.1 467.6C160.3 466.4 161.9 465.8 163.9 465.8C166.033 465.8 167.7 466.4 168.9 467.6C170.1 468.733 170.7 470.367 170.7 472.5C170.7 474.433 170.1 476.033 168.9 477.3C167.7 478.567 166.033 479.2 163.9 479.2C161.9 479.2 160.3 478.567 159.1 477.3C157.9 476.033 157.3 474.433 157.3 472.5Z"/>
</mask>
<path d="M159.1 467.6L159.787 468.327L159.797 468.317L159.807 468.307L159.1 467.6ZM168.9 467.6L168.193 468.307L168.203 468.317L168.213 468.327L168.9 467.6ZM168.9 477.3L168.174 476.612L168.174 476.612L168.9 477.3ZM159.1 477.3L158.374 477.988L159.1 477.3ZM158.3 472.5C158.3 470.557 158.841 469.22 159.787 468.327L158.413 466.873C156.959 468.246 156.3 470.176 156.3 472.5H158.3ZM159.807 468.307C160.786 467.328 162.114 466.8 163.9 466.8V464.8C161.686 464.8 159.814 465.472 158.393 466.893L159.807 468.307ZM163.9 466.8C165.84 466.8 167.226 467.34 168.193 468.307L169.607 466.893C168.174 465.46 166.227 464.8 163.9 464.8V466.8ZM168.213 468.327C169.159 469.22 169.7 470.557 169.7 472.5H171.7C171.7 470.176 171.041 468.246 169.587 466.873L168.213 468.327ZM169.7 472.5C169.7 474.208 169.178 475.552 168.174 476.612L169.626 477.988C171.022 476.515 171.7 474.659 171.7 472.5H169.7ZM168.174 476.612C167.204 477.636 165.824 478.2 163.9 478.2V480.2C166.242 480.2 168.196 479.497 169.626 477.988L168.174 476.612ZM163.9 478.2C162.131 478.2 160.809 477.65 159.826 476.612L158.374 477.988C159.791 479.484 161.669 480.2 163.9 480.2V478.2ZM159.826 476.612C158.822 475.552 158.3 474.208 158.3 472.5H156.3C156.3 474.659 156.978 476.515 158.374 477.988L159.826 476.612Z" fill="#E502A1" mask="url(#path-75-outside-38_370_2089)"/>
<mask id="path-77-outside-39_370_2089" maskUnits="userSpaceOnUse" x="181" y="482" width="16" height="17" fill="black">
<rect fill="white" x="181" y="482" width="16" height="17"/>
<path d="M182.3 490.5C182.3 488.367 182.9 486.733 184.1 485.6C185.3 484.4 186.9 483.8 188.9 483.8C191.033 483.8 192.7 484.4 193.9 485.6C195.1 486.733 195.7 488.367 195.7 490.5C195.7 492.433 195.1 494.033 193.9 495.3C192.7 496.567 191.033 497.2 188.9 497.2C186.9 497.2 185.3 496.567 184.1 495.3C182.9 494.033 182.3 492.433 182.3 490.5Z"/>
</mask>
<path d="M184.1 485.6L184.787 486.327L184.797 486.317L184.807 486.307L184.1 485.6ZM193.9 485.6L193.193 486.307L193.203 486.317L193.213 486.327L193.9 485.6ZM193.9 495.3L193.174 494.612L193.174 494.612L193.9 495.3ZM184.1 495.3L183.374 495.988L184.1 495.3ZM183.3 490.5C183.3 488.557 183.841 487.22 184.787 486.327L183.413 484.873C181.959 486.246 181.3 488.176 181.3 490.5H183.3ZM184.807 486.307C185.786 485.328 187.114 484.8 188.9 484.8V482.8C186.686 482.8 184.814 483.472 183.393 484.893L184.807 486.307ZM188.9 484.8C190.84 484.8 192.226 485.34 193.193 486.307L194.607 484.893C193.174 483.46 191.227 482.8 188.9 482.8V484.8ZM193.213 486.327C194.159 487.22 194.7 488.557 194.7 490.5H196.7C196.7 488.176 196.041 486.246 194.587 484.873L193.213 486.327ZM194.7 490.5C194.7 492.208 194.178 493.552 193.174 494.612L194.626 495.988C196.022 494.515 196.7 492.659 196.7 490.5H194.7ZM193.174 494.612C192.204 495.636 190.824 496.2 188.9 496.2V498.2C191.242 498.2 193.196 497.497 194.626 495.988L193.174 494.612ZM188.9 496.2C187.131 496.2 185.809 495.65 184.826 494.612L183.374 495.988C184.791 497.484 186.669 498.2 188.9 498.2V496.2ZM184.826 494.612C183.822 493.552 183.3 492.208 183.3 490.5H181.3C181.3 492.659 181.978 494.515 183.374 495.988L184.826 494.612Z" fill="#E502A1" mask="url(#path-77-outside-39_370_2089)"/>
<mask id="path-79-outside-40_370_2089" maskUnits="userSpaceOnUse" x="229" y="408" width="16" height="17" fill="black">
<rect fill="white" x="229" y="408" width="16" height="17"/>
<path d="M230.3 416.5C230.3 414.367 230.9 412.733 232.1 411.6C233.3 410.4 234.9 409.8 236.9 409.8C239.033 409.8 240.7 410.4 241.9 411.6C243.1 412.733 243.7 414.367 243.7 416.5C243.7 418.433 243.1 420.033 241.9 421.3C240.7 422.567 239.033 423.2 236.9 423.2C234.9 423.2 233.3 422.567 232.1 421.3C230.9 420.033 230.3 418.433 230.3 416.5Z"/>
</mask>
<path d="M232.1 411.6L232.787 412.327L232.797 412.317L232.807 412.307L232.1 411.6ZM241.9 411.6L241.193 412.307L241.203 412.317L241.213 412.327L241.9 411.6ZM241.9 421.3L241.174 420.612L241.174 420.612L241.9 421.3ZM232.1 421.3L231.374 421.988L232.1 421.3ZM231.3 416.5C231.3 414.557 231.841 413.22 232.787 412.327L231.413 410.873C229.959 412.246 229.3 414.176 229.3 416.5H231.3ZM232.807 412.307C233.786 411.328 235.114 410.8 236.9 410.8V408.8C234.686 408.8 232.814 409.472 231.393 410.893L232.807 412.307ZM236.9 410.8C238.84 410.8 240.226 411.34 241.193 412.307L242.607 410.893C241.174 409.46 239.227 408.8 236.9 408.8V410.8ZM241.213 412.327C242.159 413.22 242.7 414.557 242.7 416.5H244.7C244.7 414.176 244.041 412.246 242.587 410.873L241.213 412.327ZM242.7 416.5C242.7 418.208 242.178 419.552 241.174 420.612L242.626 421.988C244.022 420.515 244.7 418.659 244.7 416.5H242.7ZM241.174 420.612C240.204 421.636 238.824 422.2 236.9 422.2V424.2C239.242 424.2 241.196 423.497 242.626 421.988L241.174 420.612ZM236.9 422.2C235.131 422.2 233.809 421.65 232.826 420.612L231.374 421.988C232.791 423.484 234.669 424.2 236.9 424.2V422.2ZM232.826 420.612C231.822 419.552 231.3 418.208 231.3 416.5H229.3C229.3 418.659 229.978 420.515 231.374 421.988L232.826 420.612Z" fill="#E502A1" mask="url(#path-79-outside-40_370_2089)"/>
<mask id="path-81-outside-41_370_2089" maskUnits="userSpaceOnUse" x="229" y="443" width="16" height="17" fill="black">
<rect fill="white" x="229" y="443" width="16" height="17"/>
<path d="M230.3 451.5C230.3 449.367 230.9 447.733 232.1 446.6C233.3 445.4 234.9 444.8 236.9 444.8C239.033 444.8 240.7 445.4 241.9 446.6C243.1 447.733 243.7 449.367 243.7 451.5C243.7 453.433 243.1 455.033 241.9 456.3C240.7 457.567 239.033 458.2 236.9 458.2C234.9 458.2 233.3 457.567 232.1 456.3C230.9 455.033 230.3 453.433 230.3 451.5Z"/>
</mask>
<path d="M232.1 446.6L232.787 447.327L232.797 447.317L232.807 447.307L232.1 446.6ZM241.9 446.6L241.193 447.307L241.203 447.317L241.213 447.327L241.9 446.6ZM241.9 456.3L241.174 455.612L241.174 455.612L241.9 456.3ZM232.1 456.3L231.374 456.988L232.1 456.3ZM231.3 451.5C231.3 449.557 231.841 448.22 232.787 447.327L231.413 445.873C229.959 447.246 229.3 449.176 229.3 451.5H231.3ZM232.807 447.307C233.786 446.328 235.114 445.8 236.9 445.8V443.8C234.686 443.8 232.814 444.472 231.393 445.893L232.807 447.307ZM236.9 445.8C238.84 445.8 240.226 446.34 241.193 447.307L242.607 445.893C241.174 444.46 239.227 443.8 236.9 443.8V445.8ZM241.213 447.327C242.159 448.22 242.7 449.557 242.7 451.5H244.7C244.7 449.176 244.041 447.246 242.587 445.873L241.213 447.327ZM242.7 451.5C242.7 453.208 242.178 454.552 241.174 455.612L242.626 456.988C244.022 455.515 244.7 453.659 244.7 451.5H242.7ZM241.174 455.612C240.204 456.636 238.824 457.2 236.9 457.2V459.2C239.242 459.2 241.196 458.497 242.626 456.988L241.174 455.612ZM236.9 457.2C235.131 457.2 233.809 456.65 232.826 455.612L231.374 456.988C232.791 458.484 234.669 459.2 236.9 459.2V457.2ZM232.826 455.612C231.822 454.552 231.3 453.208 231.3 451.5H229.3C229.3 453.659 229.978 455.515 231.374 456.988L232.826 455.612Z" fill="#E502A1" mask="url(#path-81-outside-41_370_2089)"/>
<mask id="path-83-outside-42_370_2089" maskUnits="userSpaceOnUse" x="254" y="437" width="16" height="17" fill="black">
<rect fill="white" x="254" y="437" width="16" height="17"/>
<path d="M255.3 445.5C255.3 443.367 255.9 441.733 257.1 440.6C258.3 439.4 259.9 438.8 261.9 438.8C264.033 438.8 265.7 439.4 266.9 440.6C268.1 441.733 268.7 443.367 268.7 445.5C268.7 447.433 268.1 449.033 266.9 450.3C265.7 451.567 264.033 452.2 261.9 452.2C259.9 452.2 258.3 451.567 257.1 450.3C255.9 449.033 255.3 447.433 255.3 445.5Z"/>
</mask>
<path d="M257.1 440.6L257.787 441.327L257.797 441.317L257.807 441.307L257.1 440.6ZM266.9 440.6L266.193 441.307L266.203 441.317L266.213 441.327L266.9 440.6ZM266.9 450.3L266.174 449.612L266.174 449.612L266.9 450.3ZM257.1 450.3L256.374 450.988L257.1 450.3ZM256.3 445.5C256.3 443.557 256.841 442.22 257.787 441.327L256.413 439.873C254.959 441.246 254.3 443.176 254.3 445.5H256.3ZM257.807 441.307C258.786 440.328 260.114 439.8 261.9 439.8V437.8C259.686 437.8 257.814 438.472 256.393 439.893L257.807 441.307ZM261.9 439.8C263.84 439.8 265.226 440.34 266.193 441.307L267.607 439.893C266.174 438.46 264.227 437.8 261.9 437.8V439.8ZM266.213 441.327C267.159 442.22 267.7 443.557 267.7 445.5H269.7C269.7 443.176 269.041 441.246 267.587 439.873L266.213 441.327ZM267.7 445.5C267.7 447.208 267.178 448.552 266.174 449.612L267.626 450.988C269.022 449.515 269.7 447.659 269.7 445.5H267.7ZM266.174 449.612C265.204 450.636 263.824 451.2 261.9 451.2V453.2C264.242 453.2 266.196 452.497 267.626 450.988L266.174 449.612ZM261.9 451.2C260.131 451.2 258.809 450.65 257.826 449.612L256.374 450.988C257.791 452.484 259.669 453.2 261.9 453.2V451.2ZM257.826 449.612C256.822 448.552 256.3 447.208 256.3 445.5H254.3C254.3 447.659 254.978 449.515 256.374 450.988L257.826 449.612Z" fill="#E502A1" mask="url(#path-83-outside-42_370_2089)"/>
<mask id="path-85-outside-43_370_2089" maskUnits="userSpaceOnUse" x="225" y="496" width="16" height="17" fill="black">
<rect fill="white" x="225" y="496" width="16" height="17"/>
<path d="M226.3 504.5C226.3 502.367 226.9 500.733 228.1 499.6C229.3 498.4 230.9 497.8 232.9 497.8C235.033 497.8 236.7 498.4 237.9 499.6C239.1 500.733 239.7 502.367 239.7 504.5C239.7 506.433 239.1 508.033 237.9 509.3C236.7 510.567 235.033 511.2 232.9 511.2C230.9 511.2 229.3 510.567 228.1 509.3C226.9 508.033 226.3 506.433 226.3 504.5Z"/>
</mask>
<path d="M228.1 499.6L228.787 500.327L228.797 500.317L228.807 500.307L228.1 499.6ZM237.9 499.6L237.193 500.307L237.203 500.317L237.213 500.327L237.9 499.6ZM237.9 509.3L237.174 508.612L237.174 508.612L237.9 509.3ZM228.1 509.3L227.374 509.988L228.1 509.3ZM227.3 504.5C227.3 502.557 227.841 501.22 228.787 500.327L227.413 498.873C225.959 500.246 225.3 502.176 225.3 504.5H227.3ZM228.807 500.307C229.786 499.328 231.114 498.8 232.9 498.8V496.8C230.686 496.8 228.814 497.472 227.393 498.893L228.807 500.307ZM232.9 498.8C234.84 498.8 236.226 499.34 237.193 500.307L238.607 498.893C237.174 497.46 235.227 496.8 232.9 496.8V498.8ZM237.213 500.327C238.159 501.22 238.7 502.557 238.7 504.5H240.7C240.7 502.176 240.041 500.246 238.587 498.873L237.213 500.327ZM238.7 504.5C238.7 506.208 238.178 507.552 237.174 508.612L238.626 509.988C240.022 508.515 240.7 506.659 240.7 504.5H238.7ZM237.174 508.612C236.204 509.636 234.824 510.2 232.9 510.2V512.2C235.242 512.2 237.196 511.497 238.626 509.988L237.174 508.612ZM232.9 510.2C231.131 510.2 229.809 509.65 228.826 508.612L227.374 509.988C228.791 511.484 230.669 512.2 232.9 512.2V510.2ZM228.826 508.612C227.822 507.552 227.3 506.208 227.3 504.5H225.3C225.3 506.659 225.978 508.515 227.374 509.988L228.826 508.612Z" fill="#E502A1" mask="url(#path-85-outside-43_370_2089)"/>
<mask id="path-87-outside-44_370_2089" maskUnits="userSpaceOnUse" x="274" y="482" width="16" height="17" fill="black">
<rect fill="white" x="274" y="482" width="16" height="17"/>
<path d="M275.3 490.5C275.3 488.367 275.9 486.733 277.1 485.6C278.3 484.4 279.9 483.8 281.9 483.8C284.033 483.8 285.7 484.4 286.9 485.6C288.1 486.733 288.7 488.367 288.7 490.5C288.7 492.433 288.1 494.033 286.9 495.3C285.7 496.567 284.033 497.2 281.9 497.2C279.9 497.2 278.3 496.567 277.1 495.3C275.9 494.033 275.3 492.433 275.3 490.5Z"/>
</mask>
<path d="M277.1 485.6L277.787 486.327L277.797 486.317L277.807 486.307L277.1 485.6ZM286.9 485.6L286.193 486.307L286.203 486.317L286.213 486.327L286.9 485.6ZM286.9 495.3L286.174 494.612L286.174 494.612L286.9 495.3ZM277.1 495.3L276.374 495.988L277.1 495.3ZM276.3 490.5C276.3 488.557 276.841 487.22 277.787 486.327L276.413 484.873C274.959 486.246 274.3 488.176 274.3 490.5H276.3ZM277.807 486.307C278.786 485.328 280.114 484.8 281.9 484.8V482.8C279.686 482.8 277.814 483.472 276.393 484.893L277.807 486.307ZM281.9 484.8C283.84 484.8 285.226 485.34 286.193 486.307L287.607 484.893C286.174 483.46 284.227 482.8 281.9 482.8V484.8ZM286.213 486.327C287.159 487.22 287.7 488.557 287.7 490.5H289.7C289.7 488.176 289.041 486.246 287.587 484.873L286.213 486.327ZM287.7 490.5C287.7 492.208 287.178 493.552 286.174 494.612L287.626 495.988C289.022 494.515 289.7 492.659 289.7 490.5H287.7ZM286.174 494.612C285.204 495.636 283.824 496.2 281.9 496.2V498.2C284.242 498.2 286.196 497.497 287.626 495.988L286.174 494.612ZM281.9 496.2C280.131 496.2 278.809 495.65 277.826 494.612L276.374 495.988C277.791 497.484 279.669 498.2 281.9 498.2V496.2ZM277.826 494.612C276.822 493.552 276.3 492.208 276.3 490.5H274.3C274.3 492.659 274.978 494.515 276.374 495.988L277.826 494.612Z" fill="#E502A1" mask="url(#path-87-outside-44_370_2089)"/>
<mask id="path-89-outside-45_370_2089" maskUnits="userSpaceOnUse" x="294" y="563" width="16" height="17" fill="black">
<rect fill="white" x="294" y="563" width="16" height="17"/>
<path d="M295.3 571.5C295.3 569.367 295.9 567.733 297.1 566.6C298.3 565.4 299.9 564.8 301.9 564.8C304.033 564.8 305.7 565.4 306.9 566.6C308.1 567.733 308.7 569.367 308.7 571.5C308.7 573.433 308.1 575.033 306.9 576.3C305.7 577.567 304.033 578.2 301.9 578.2C299.9 578.2 298.3 577.567 297.1 576.3C295.9 575.033 295.3 573.433 295.3 571.5Z"/>
</mask>
<path d="M297.1 566.6L297.787 567.327L297.797 567.317L297.807 567.307L297.1 566.6ZM306.9 566.6L306.193 567.307L306.203 567.317L306.213 567.327L306.9 566.6ZM306.9 576.3L306.174 575.612L306.174 575.612L306.9 576.3ZM297.1 576.3L296.374 576.988L297.1 576.3ZM296.3 571.5C296.3 569.557 296.841 568.22 297.787 567.327L296.413 565.873C294.959 567.246 294.3 569.176 294.3 571.5H296.3ZM297.807 567.307C298.786 566.328 300.114 565.8 301.9 565.8V563.8C299.686 563.8 297.814 564.472 296.393 565.893L297.807 567.307ZM301.9 565.8C303.84 565.8 305.226 566.34 306.193 567.307L307.607 565.893C306.174 564.46 304.227 563.8 301.9 563.8V565.8ZM306.213 567.327C307.159 568.22 307.7 569.557 307.7 571.5H309.7C309.7 569.176 309.041 567.246 307.587 565.873L306.213 567.327ZM307.7 571.5C307.7 573.208 307.178 574.552 306.174 575.612L307.626 576.988C309.022 575.515 309.7 573.659 309.7 571.5H307.7ZM306.174 575.612C305.204 576.636 303.824 577.2 301.9 577.2V579.2C304.242 579.2 306.196 578.497 307.626 576.988L306.174 575.612ZM301.9 577.2C300.131 577.2 298.809 576.65 297.826 575.612L296.374 576.988C297.791 578.484 299.669 579.2 301.9 579.2V577.2ZM297.826 575.612C296.822 574.552 296.3 573.208 296.3 571.5H294.3C294.3 573.659 294.978 575.515 296.374 576.988L297.826 575.612Z" fill="#E502A1" mask="url(#path-89-outside-45_370_2089)"/>
<mask id="path-91-outside-46_370_2089" maskUnits="userSpaceOnUse" x="147" y="554" width="16" height="17" fill="black">
<rect fill="white" x="147" y="554" width="16" height="17"/>
<path d="M148.3 562.5C148.3 560.367 148.9 558.733 150.1 557.6C151.3 556.4 152.9 555.8 154.9 555.8C157.033 555.8 158.7 556.4 159.9 557.6C161.1 558.733 161.7 560.367 161.7 562.5C161.7 564.433 161.1 566.033 159.9 567.3C158.7 568.567 157.033 569.2 154.9 569.2C152.9 569.2 151.3 568.567 150.1 567.3C148.9 566.033 148.3 564.433 148.3 562.5Z"/>
</mask>
<path d="M150.1 557.6L150.787 558.327L150.797 558.317L150.807 558.307L150.1 557.6ZM159.9 557.6L159.193 558.307L159.203 558.317L159.213 558.327L159.9 557.6ZM159.9 567.3L159.174 566.612L159.174 566.612L159.9 567.3ZM150.1 567.3L149.374 567.988L150.1 567.3ZM149.3 562.5C149.3 560.557 149.841 559.22 150.787 558.327L149.413 556.873C147.959 558.246 147.3 560.176 147.3 562.5H149.3ZM150.807 558.307C151.786 557.328 153.114 556.8 154.9 556.8V554.8C152.686 554.8 150.814 555.472 149.393 556.893L150.807 558.307ZM154.9 556.8C156.84 556.8 158.226 557.34 159.193 558.307L160.607 556.893C159.174 555.46 157.227 554.8 154.9 554.8V556.8ZM159.213 558.327C160.159 559.22 160.7 560.557 160.7 562.5H162.7C162.7 560.176 162.041 558.246 160.587 556.873L159.213 558.327ZM160.7 562.5C160.7 564.208 160.178 565.552 159.174 566.612L160.626 567.988C162.022 566.515 162.7 564.659 162.7 562.5H160.7ZM159.174 566.612C158.204 567.636 156.824 568.2 154.9 568.2V570.2C157.242 570.2 159.196 569.497 160.626 567.988L159.174 566.612ZM154.9 568.2C153.131 568.2 151.809 567.65 150.826 566.612L149.374 567.988C150.791 569.484 152.669 570.2 154.9 570.2V568.2ZM150.826 566.612C149.822 565.552 149.3 564.208 149.3 562.5H147.3C147.3 564.659 147.978 566.515 149.374 567.988L150.826 566.612Z" fill="#E502A1" mask="url(#path-91-outside-46_370_2089)"/>
<mask id="path-93-outside-47_370_2089" maskUnits="userSpaceOnUse" x="227" y="590" width="16" height="17" fill="black">
<rect fill="white" x="227" y="590" width="16" height="17"/>
<path d="M228.3 598.5C228.3 596.367 228.9 594.733 230.1 593.6C231.3 592.4 232.9 591.8 234.9 591.8C237.033 591.8 238.7 592.4 239.9 593.6C241.1 594.733 241.7 596.367 241.7 598.5C241.7 600.433 241.1 602.033 239.9 603.3C238.7 604.567 237.033 605.2 234.9 605.2C232.9 605.2 231.3 604.567 230.1 603.3C228.9 602.033 228.3 600.433 228.3 598.5Z"/>
</mask>
<path d="M230.1 593.6L230.787 594.327L230.797 594.317L230.807 594.307L230.1 593.6ZM239.9 593.6L239.193 594.307L239.203 594.317L239.213 594.327L239.9 593.6ZM239.9 603.3L239.174 602.612L239.174 602.612L239.9 603.3ZM230.1 603.3L229.374 603.988L230.1 603.3ZM229.3 598.5C229.3 596.557 229.841 595.22 230.787 594.327L229.413 592.873C227.959 594.246 227.3 596.176 227.3 598.5H229.3ZM230.807 594.307C231.786 593.328 233.114 592.8 234.9 592.8V590.8C232.686 590.8 230.814 591.472 229.393 592.893L230.807 594.307ZM234.9 592.8C236.84 592.8 238.226 593.34 239.193 594.307L240.607 592.893C239.174 591.46 237.227 590.8 234.9 590.8V592.8ZM239.213 594.327C240.159 595.22 240.7 596.557 240.7 598.5H242.7C242.7 596.176 242.041 594.246 240.587 592.873L239.213 594.327ZM240.7 598.5C240.7 600.208 240.178 601.552 239.174 602.612L240.626 603.988C242.022 602.515 242.7 600.659 242.7 598.5H240.7ZM239.174 602.612C238.204 603.636 236.824 604.2 234.9 604.2V606.2C237.242 606.2 239.196 605.497 240.626 603.988L239.174 602.612ZM234.9 604.2C233.131 604.2 231.809 603.65 230.826 602.612L229.374 603.988C230.791 605.484 232.669 606.2 234.9 606.2V604.2ZM230.826 602.612C229.822 601.552 229.3 600.208 229.3 598.5H227.3C227.3 600.659 227.978 602.515 229.374 603.988L230.826 602.612Z" fill="#E502A1" mask="url(#path-93-outside-47_370_2089)"/>
<mask id="path-95-outside-48_370_2089" maskUnits="userSpaceOnUse" x="204" y="437" width="16" height="17" fill="black">
<rect fill="white" x="204" y="437" width="16" height="17"/>
<path d="M205.3 445.5C205.3 443.367 205.9 441.733 207.1 440.6C208.3 439.4 209.9 438.8 211.9 438.8C214.033 438.8 215.7 439.4 216.9 440.6C218.1 441.733 218.7 443.367 218.7 445.5C218.7 447.433 218.1 449.033 216.9 450.3C215.7 451.567 214.033 452.2 211.9 452.2C209.9 452.2 208.3 451.567 207.1 450.3C205.9 449.033 205.3 447.433 205.3 445.5Z"/>
</mask>
<path d="M207.1 440.6L207.787 441.327L207.797 441.317L207.807 441.307L207.1 440.6ZM216.9 440.6L216.193 441.307L216.203 441.317L216.213 441.327L216.9 440.6ZM216.9 450.3L216.174 449.612L216.174 449.612L216.9 450.3ZM207.1 450.3L206.374 450.988L207.1 450.3ZM206.3 445.5C206.3 443.557 206.841 442.22 207.787 441.327L206.413 439.873C204.959 441.246 204.3 443.176 204.3 445.5H206.3ZM207.807 441.307C208.786 440.328 210.114 439.8 211.9 439.8V437.8C209.686 437.8 207.814 438.472 206.393 439.893L207.807 441.307ZM211.9 439.8C213.84 439.8 215.226 440.34 216.193 441.307L217.607 439.893C216.174 438.46 214.227 437.8 211.9 437.8V439.8ZM216.213 441.327C217.159 442.22 217.7 443.557 217.7 445.5H219.7C219.7 443.176 219.041 441.246 217.587 439.873L216.213 441.327ZM217.7 445.5C217.7 447.208 217.178 448.552 216.174 449.612L217.626 450.988C219.022 449.515 219.7 447.659 219.7 445.5H217.7ZM216.174 449.612C215.204 450.636 213.824 451.2 211.9 451.2V453.2C214.242 453.2 216.196 452.497 217.626 450.988L216.174 449.612ZM211.9 451.2C210.131 451.2 208.809 450.65 207.826 449.612L206.374 450.988C207.791 452.484 209.669 453.2 211.9 453.2V451.2ZM207.826 449.612C206.822 448.552 206.3 447.208 206.3 445.5H204.3C204.3 447.659 204.978 449.515 206.374 450.988L207.826 449.612Z" fill="#E502A1" mask="url(#path-95-outside-48_370_2089)"/>
<mask id="path-97-outside-49_370_2089" maskUnits="userSpaceOnUse" x="126" y="321" width="16" height="17" fill="black">
<rect fill="white" x="126" y="321" width="16" height="17"/>
<path d="M127.3 329.5C127.3 327.367 127.9 325.733 129.1 324.6C130.3 323.4 131.9 322.8 133.9 322.8C136.033 322.8 137.7 323.4 138.9 324.6C140.1 325.733 140.7 327.367 140.7 329.5C140.7 331.433 140.1 333.033 138.9 334.3C137.7 335.567 136.033 336.2 133.9 336.2C131.9 336.2 130.3 335.567 129.1 334.3C127.9 333.033 127.3 331.433 127.3 329.5Z"/>
</mask>
<path d="M129.1 324.6L129.787 325.327L129.797 325.317L129.807 325.307L129.1 324.6ZM138.9 324.6L138.193 325.307L138.203 325.317L138.213 325.327L138.9 324.6ZM138.9 334.3L138.174 333.612L138.174 333.612L138.9 334.3ZM129.1 334.3L128.374 334.988L129.1 334.3ZM128.3 329.5C128.3 327.557 128.841 326.22 129.787 325.327L128.413 323.873C126.959 325.246 126.3 327.176 126.3 329.5H128.3ZM129.807 325.307C130.786 324.328 132.114 323.8 133.9 323.8V321.8C131.686 321.8 129.814 322.472 128.393 323.893L129.807 325.307ZM133.9 323.8C135.84 323.8 137.226 324.34 138.193 325.307L139.607 323.893C138.174 322.46 136.227 321.8 133.9 321.8V323.8ZM138.213 325.327C139.159 326.22 139.7 327.557 139.7 329.5H141.7C141.7 327.176 141.041 325.246 139.587 323.873L138.213 325.327ZM139.7 329.5C139.7 331.208 139.178 332.552 138.174 333.612L139.626 334.988C141.022 333.515 141.7 331.659 141.7 329.5H139.7ZM138.174 333.612C137.204 334.636 135.824 335.2 133.9 335.2V337.2C136.242 337.2 138.196 336.497 139.626 334.988L138.174 333.612ZM133.9 335.2C132.131 335.2 130.809 334.65 129.826 333.612L128.374 334.988C129.791 336.484 131.669 337.2 133.9 337.2V335.2ZM129.826 333.612C128.822 332.552 128.3 331.208 128.3 329.5H126.3C126.3 331.659 126.978 333.515 128.374 334.988L129.826 333.612Z" fill="#E502A1" mask="url(#path-97-outside-49_370_2089)"/>
<path d="M228.248 83L202.365 261.793M228.248 83L91.6423 124.151M228.248 83L392.175 135.503M228.248 83L268.511 261.793M202.365 261.793L116.088 227.737M202.365 261.793L185.109 291.592M202.365 261.793L236.876 287.335M202.365 261.793H268.511M116.088 227.737L91.6423 124.151M116.088 227.737L67.1971 250.441M116.088 227.737L139.095 261.793M91.6423 124.151L37 214.966L67.1971 250.441M91.6423 124.151L67.1971 250.441M392.175 135.503L431 220.642L410.869 261.793M392.175 135.503L361.978 224.899M392.175 135.503L410.869 261.793M410.869 261.793V314.296M410.869 261.793L361.978 224.899M410.869 261.793L387.861 291.592M410.869 314.296L431 298.687M410.869 314.296L420.934 375.313L367.73 424.978M410.869 314.296L387.861 291.592M410.869 314.296L343.285 327.067M367.73 424.978V517.212L303.022 473.223M367.73 424.978L291.518 392.341M367.73 424.978L343.285 327.067M303.022 473.223L281.453 490.251M303.022 473.223L291.518 392.341M303.022 473.223L262.759 447.682M281.453 490.251L303.022 572.553L235.438 547.011M281.453 490.251L232.562 503.022M235.438 547.011V591M235.438 547.011L154.912 562.62L189.423 490.251M235.438 547.011L232.562 503.022M189.423 490.251L162.102 473.223M189.423 490.251L232.562 503.022M162.102 473.223L100.27 504.441V419.302M162.102 473.223L185.109 389.503M162.102 473.223L212.431 447.682M100.27 419.302L41.3139 382.408L67.1971 314.296M100.27 419.302L133.343 329.905M100.27 419.302L185.109 389.503M67.1971 314.296L37 302.944M67.1971 314.296V250.441M67.1971 314.296L90.2044 287.335M67.1971 314.296L133.343 329.905M67.1971 250.441L90.2044 287.335M139.095 261.793L90.2044 287.335M139.095 261.793L185.109 291.592M90.2044 287.335L133.343 310.039M133.343 310.039V329.905M133.343 310.039L185.109 291.592M133.343 329.905L192.299 314.296M185.109 291.592L192.299 314.296M192.299 314.296L236.876 287.335M192.299 314.296L185.109 389.503M185.109 389.503L236.876 416.464M185.109 389.503L236.876 287.335M185.109 389.503L236.876 369.637M185.109 389.503L212.431 447.682M212.431 447.682L236.876 416.464M212.431 447.682L236.876 453.358M236.876 416.464V453.358M236.876 416.464L262.759 447.682M236.876 416.464L291.518 392.341M236.876 416.464V369.637M236.876 453.358L262.759 447.682M262.759 447.682L291.518 392.341M291.518 392.341L236.876 369.637M291.518 392.341L236.876 287.335M291.518 392.341L281.453 314.296M236.876 287.335V369.637M236.876 287.335L268.511 261.793M236.876 287.335L281.453 314.296M268.511 261.793L288.642 287.335M268.511 261.793L361.978 224.899M281.453 314.296L343.285 327.067M281.453 314.296L288.642 287.335M343.285 327.067L340.409 304.363M288.642 287.335L340.409 304.363M288.642 287.335L343.285 257.536M361.978 224.899L343.285 257.536M387.861 291.592L343.285 257.536M387.861 291.592L340.409 304.363" stroke="#E502A1" stroke-width="2"/>
</svg>
