<svg width="2673" height="138" viewBox="0 0 2673 138" fill="none" xmlns="http://www.w3.org/2000/svg">
<path d="M58 138H1337V0H58V138Z" fill="#400048"/>
<path d="M230.814 103H227.439L238.109 77.8633H241.713L252.436 103H248.832L245.58 95.0898H237.266L238.162 92.4531H244.49L239.797 81.0625L230.814 103ZM258.764 99.2383C260.041 99.8711 261.465 100.188 263.035 100.188C267.219 100.188 269.311 97.8848 269.311 93.2793C269.311 89.2598 267.23 87.25 263.07 87.25C261.43 87.25 259.994 87.3906 258.764 87.6719V99.2383ZM255.512 85.2988C257.961 84.7949 260.492 84.543 263.105 84.543C269.375 84.543 272.51 87.4668 272.51 93.3145C272.51 99.7715 269.357 103 263.053 103C261.576 103 260.146 102.707 258.764 102.121V109.68H255.512V85.2988ZM290.105 103V88.7266L280.174 103H276.922V84.543H279.998V98.8164L289.93 84.543H293.182V103H290.105ZM298.473 103V84.543H301.725V92.2773H311.48V84.543H314.732V103H311.48V94.9141H301.725V103H298.473ZM319.145 97.4277C319.145 93.6426 321.641 91.75 326.633 91.75C328.238 91.75 329.844 91.8672 331.449 92.1016V90.3613C331.449 88.2402 329.791 87.1797 326.475 87.1797C324.576 87.1797 322.631 87.4727 320.639 88.0586V85.4219C322.631 84.8359 324.576 84.543 326.475 84.543C331.959 84.543 334.701 86.4531 334.701 90.2734V103H332.873L331.748 101.172C329.908 102.391 327.904 103 325.736 103C321.342 103 319.145 101.143 319.145 97.4277ZM326.633 94.3867C323.809 94.3867 322.396 95.3828 322.396 97.375C322.396 99.3672 323.51 100.363 325.736 100.363C327.986 100.363 329.891 99.7656 331.449 98.5703V94.7383C329.844 94.5039 328.238 94.3867 326.633 94.3867ZM349.133 103V77.8633H353.264L362.492 98.834L371.545 77.8633H375.5V103H372.6V82.3809L363.67 103H361.104L352.033 82.3809V103H349.133ZM380.246 97.4277C380.246 93.6426 382.742 91.75 387.734 91.75C389.34 91.75 390.945 91.8672 392.551 92.1016V90.3613C392.551 88.2402 390.893 87.1797 387.576 87.1797C385.678 87.1797 383.732 87.4727 381.74 88.0586V85.4219C383.732 84.8359 385.678 84.543 387.576 84.543C393.061 84.543 395.803 86.4531 395.803 90.2734V103H393.975L392.85 101.172C391.01 102.391 389.006 103 386.838 103C382.443 103 380.246 101.143 380.246 97.4277ZM387.734 94.3867C384.91 94.3867 383.498 95.3828 383.498 97.375C383.498 99.3672 384.611 100.363 386.838 100.363C389.088 100.363 390.992 99.7656 392.551 98.5703V94.7383C390.945 94.5039 389.34 94.3867 387.734 94.3867ZM388.543 77.8633H392.744L388.543 82.0645H385.66L388.543 77.8633ZM404.346 99.2383C405.623 99.8711 407.047 100.188 408.617 100.188C412.801 100.188 414.893 97.8848 414.893 93.2793C414.893 89.2598 412.812 87.25 408.652 87.25C407.012 87.25 405.576 87.3906 404.346 87.6719V99.2383ZM401.094 85.2988C403.543 84.7949 406.074 84.543 408.688 84.543C414.957 84.543 418.092 87.4668 418.092 93.3145C418.092 99.7715 414.939 103 408.635 103C407.158 103 405.729 102.707 404.346 102.121V109.68H401.094V85.2988ZM435.688 103V88.7266L425.756 103H422.504V84.543H425.58V98.8164L435.512 84.543H438.764V103H435.688ZM444.055 103V84.543H447.307V92.2773H457.062V84.543H460.314V103H457.062V94.9141H447.307V103H444.055ZM464.727 93.7715C464.727 87.502 467.773 84.3672 473.867 84.3672C479.961 84.3672 483.008 87.502 483.008 93.7715C483.008 100.041 479.961 103.176 473.867 103.176C467.797 103.176 464.75 100.041 464.727 93.7715ZM467.979 93.7012C467.979 98.2598 469.941 100.539 473.867 100.539C477.793 100.539 479.756 98.2598 479.756 93.7012C479.756 89.2363 477.793 87.0039 473.867 87.0039C469.941 87.0039 467.979 89.2363 467.979 93.7012ZM497.211 100.363C499.039 100.363 499.953 99.4258 499.953 97.5508C499.953 95.793 498.529 94.9141 495.682 94.9141H494.275V92.7871C497.908 92.377 499.725 91.1523 499.725 89.1133C499.725 87.8242 498.975 87.1797 497.475 87.1797H490.654V100.363H497.211ZM487.402 103V84.543H497.773C501.383 84.543 503.188 86.084 503.188 89.166C503.188 91.0762 502.039 92.4941 499.742 93.4199C502.25 94.041 503.504 95.4004 503.504 97.498C503.504 101.166 501.471 103 497.404 103H487.402ZM507.02 97.4277C507.02 93.6426 509.516 91.75 514.508 91.75C516.113 91.75 517.719 91.8672 519.324 92.1016V90.3613C519.324 88.2402 517.666 87.1797 514.35 87.1797C512.451 87.1797 510.506 87.4727 508.514 88.0586V85.4219C510.506 84.8359 512.451 84.543 514.35 84.543C519.834 84.543 522.576 86.4531 522.576 90.2734V103H520.748L519.623 101.172C517.783 102.391 515.779 103 513.611 103C509.217 103 507.02 101.143 507.02 97.4277ZM514.508 94.3867C511.684 94.3867 510.271 95.3828 510.271 97.375C510.271 99.3672 511.385 100.363 513.611 100.363C515.861 100.363 517.766 99.7656 519.324 98.5703V94.7383C517.719 94.5039 516.113 94.3867 514.508 94.3867Z" fill="#D1E0E9"/>
<path d="M906.773 103C902.801 96.6719 900.299 93.0625 899.268 92.1719C898.236 91.2695 897.264 90.8184 896.35 90.8184V88.4805C898.225 88.4805 900.117 86.7109 902.027 83.1719C903.949 79.6328 906.012 77.8633 908.215 77.8633H910.096V80.6758H908.707C907.441 80.6758 906.023 82.0645 904.453 84.8418C902.883 87.6074 901.424 89.2188 900.076 89.6758C900.955 89.8281 901.922 90.4902 902.977 91.6621C904.031 92.8223 906.609 96.6016 910.711 103H906.773ZM894.24 77.8633V103H890.988V77.8633H894.24ZM912.926 97.4277C912.926 93.6426 915.422 91.75 920.414 91.75C922.02 91.75 923.625 91.8672 925.23 92.1016V90.3613C925.23 88.2402 923.572 87.1797 920.256 87.1797C918.357 87.1797 916.412 87.4727 914.42 88.0586V85.4219C916.412 84.8359 918.357 84.543 920.256 84.543C925.74 84.543 928.482 86.4531 928.482 90.2734V103H926.654L925.529 101.172C923.689 102.391 921.686 103 919.518 103C915.123 103 912.926 101.143 912.926 97.4277ZM920.414 94.3867C917.59 94.3867 916.178 95.3828 916.178 97.375C916.178 99.3672 917.291 100.363 919.518 100.363C921.768 100.363 923.672 99.7656 925.23 98.5703V94.7383C923.625 94.5039 922.02 94.3867 920.414 94.3867ZM933.773 103V84.543H937.904L944.145 99.1855L950.209 84.543H954.164V103H951.264V88.8848L945.322 103H942.756L936.674 88.8848V103H933.773ZM972.621 103V88.7266L962.689 103H959.438V84.543H962.514V98.8164L972.445 84.543H975.697V103H972.621ZM978.352 100.363C981.129 100.363 982.518 98.7812 982.518 95.6172V84.543H996.58V103H993.328V87.1797H985.77V95.6172C985.77 100.539 983.297 103 978.352 103V100.363ZM1000.99 97.4277C1000.99 93.6426 1003.49 91.75 1008.48 91.75C1010.09 91.75 1011.69 91.8672 1013.3 92.1016V90.3613C1013.3 88.2402 1011.64 87.1797 1008.32 87.1797C1006.42 87.1797 1004.48 87.4727 1002.49 88.0586V85.4219C1004.48 84.8359 1006.42 84.543 1008.32 84.543C1013.81 84.543 1016.55 86.4531 1016.55 90.2734V103H1014.72L1013.6 101.172C1011.76 102.391 1009.75 103 1007.58 103C1003.19 103 1000.99 101.143 1000.99 97.4277ZM1008.48 94.3867C1005.66 94.3867 1004.24 95.3828 1004.24 97.375C1004.24 99.3672 1005.36 100.363 1007.58 100.363C1009.83 100.363 1011.74 99.7656 1013.3 98.5703V94.7383C1011.69 94.5039 1010.09 94.3867 1008.48 94.3867ZM1030.98 103V77.8633H1041.18C1046.31 77.8633 1048.88 80.1074 1048.88 84.5957C1048.88 89.4824 1045.37 92.4648 1038.35 93.543L1037.68 90.8008C1042.83 90.0391 1045.41 88.0176 1045.41 84.7363C1045.41 81.9473 1043.9 80.5527 1040.88 80.5527H1034.23V103H1030.98ZM1066.03 103V88.7266L1056.1 103H1052.85V84.543H1055.92V98.8164L1065.86 84.543H1069.11V103H1066.03ZM1075.98 103H1072.2L1079.55 93.7715L1072.2 84.543H1075.98L1081.43 91.3984L1086.88 84.543H1090.66L1083.31 93.7715L1090.66 103H1086.88L1081.43 96.1445L1075.98 103ZM1107.36 84.543V87.1797H1100.85V103H1097.6V87.1797H1091.1V84.543H1107.36ZM1117.62 84.543C1122.87 84.543 1125.5 87.1387 1125.5 92.3301C1125.5 93.0684 1125.45 93.8594 1125.34 94.7031H1112.38C1112.38 98.4766 1114.59 100.363 1118.99 100.363C1121.09 100.363 1122.96 100.129 1124.58 99.6602V102.297C1122.96 102.766 1120.97 103 1118.64 103C1112.3 103 1109.13 99.8535 1109.13 93.5605C1109.13 87.5488 1111.96 84.543 1117.62 84.543ZM1112.38 91.9961H1122.37C1122.3 88.7617 1120.72 87.1445 1117.62 87.1445C1114.34 87.1445 1112.6 88.7617 1112.38 91.9961ZM1133.13 99.2383C1134.4 99.8711 1135.83 100.188 1137.4 100.188C1141.58 100.188 1143.67 97.8848 1143.67 93.2793C1143.67 89.2598 1141.59 87.25 1137.43 87.25C1135.79 87.25 1134.36 87.3906 1133.13 87.6719V99.2383ZM1129.88 85.2988C1132.32 84.7949 1134.86 84.543 1137.47 84.543C1143.74 84.543 1146.87 87.4668 1146.87 93.3145C1146.87 99.7715 1143.72 103 1137.42 103C1135.94 103 1134.51 102.707 1133.13 102.121V109.68H1129.88V85.2988Z" fill="#D1E0E9"/>
<path d="M965.773 57C961.801 50.6719 959.299 47.0625 958.268 46.1719C957.236 45.2695 956.264 44.8184 955.35 44.8184V42.4805C957.225 42.4805 959.117 40.7109 961.027 37.1719C962.949 33.6328 965.012 31.8633 967.215 31.8633H969.096V34.6758H967.707C966.441 34.6758 965.023 36.0645 963.453 38.8418C961.883 41.6074 960.424 43.2188 959.076 43.6758C959.955 43.8281 960.922 44.4902 961.977 45.6621C963.031 46.8223 965.609 50.6016 969.711 57H965.773ZM953.24 31.8633V57H949.988V31.8633H953.24ZM970.607 38.543H974.141L979.361 52.957L984.758 38.543H988.203L980.539 57.5449C979.18 60.8965 977.141 62.9883 974.422 63.8203L973.174 61.5176C975.236 60.6152 976.736 59.1445 977.674 57.1055L970.607 38.543ZM994.514 53.2383C995.791 53.8711 997.215 54.1875 998.785 54.1875C1002.97 54.1875 1005.06 51.8848 1005.06 47.2793C1005.06 43.2598 1002.98 41.25 998.82 41.25C997.18 41.25 995.744 41.3906 994.514 41.6719V53.2383ZM991.262 39.2988C993.711 38.7949 996.242 38.543 998.855 38.543C1005.12 38.543 1008.26 41.4668 1008.26 47.3145C1008.26 53.7715 1005.11 57 998.803 57C997.326 57 995.896 56.707 994.514 56.1211V63.6797H991.262V39.2988ZM1011.79 51.4277C1011.79 47.6426 1014.29 45.75 1019.28 45.75C1020.89 45.75 1022.49 45.8672 1024.1 46.1016V44.3613C1024.1 42.2402 1022.44 41.1797 1019.12 41.1797C1017.22 41.1797 1015.28 41.4727 1013.29 42.0586V39.4219C1015.28 38.8359 1017.22 38.543 1019.12 38.543C1024.61 38.543 1027.35 40.4531 1027.35 44.2734V57H1025.52L1024.4 55.1719C1022.56 56.3906 1020.55 57 1018.38 57C1013.99 57 1011.79 55.1426 1011.79 51.4277ZM1019.28 48.3867C1016.46 48.3867 1015.04 49.3828 1015.04 51.375C1015.04 53.3672 1016.16 54.3633 1018.38 54.3633C1020.63 54.3633 1022.54 53.7656 1024.1 52.5703V48.7383C1022.49 48.5039 1020.89 48.3867 1019.28 48.3867ZM1046.26 38.543V41.1797H1039.76V57H1036.51V41.1797H1030V38.543H1046.26ZM1048.04 47.7715C1048.04 41.502 1051.09 38.3672 1057.18 38.3672C1063.27 38.3672 1066.32 41.502 1066.32 47.7715C1066.32 54.041 1063.27 57.1758 1057.18 57.1758C1051.11 57.1758 1048.06 54.041 1048.04 47.7715ZM1051.29 47.7012C1051.29 52.2598 1053.25 54.5391 1057.18 54.5391C1061.11 54.5391 1063.07 52.2598 1063.07 47.7012C1063.07 43.2363 1061.11 41.0039 1057.18 41.0039C1053.25 41.0039 1051.29 43.2363 1051.29 47.7012ZM1073.97 53.2383C1075.24 53.8711 1076.67 54.1875 1078.24 54.1875C1082.42 54.1875 1084.51 51.8848 1084.51 47.2793C1084.51 43.2598 1082.43 41.25 1078.27 41.25C1076.63 41.25 1075.2 41.3906 1073.97 41.6719V53.2383ZM1070.71 39.2988C1073.16 38.7949 1075.7 38.543 1078.31 38.543C1084.58 38.543 1087.71 41.4668 1087.71 47.3145C1087.71 53.7715 1084.56 57 1078.26 57C1076.78 57 1075.35 56.707 1073.97 56.1211V63.6797H1070.71V39.2988Z" fill="#E502A1"/>
<path d="M293.584 35.8633V38.5H279.258V58.3105H286.412C289.201 58.3105 290.596 56.8516 290.596 53.9336C290.596 50.793 288.885 49.2227 285.463 49.2227H282.158V46.5859H285.621C291.105 46.5859 293.848 48.9707 293.848 53.7402C293.848 58.5801 291.469 61 286.711 61H275.988V35.8633H293.584ZM297.117 61V58.3633C306.434 51.9531 311.092 46.8555 311.092 43.0703C311.092 39.9062 309.1 38.3242 305.115 38.3242C302.537 38.3242 300.105 38.9688 297.82 40.2578V37.4453C300.105 36.2734 302.537 35.6875 305.115 35.6875C311.268 35.6875 314.344 38.1484 314.344 43.0703C314.344 47.4062 310.154 52.5039 301.775 58.3633H314.344V61H297.117ZM333.732 61H330.48V55.0234H317.262V52.3867L327.369 35.8633H330.779L320.654 52.3867H330.48V43.457H333.732V52.3867L336.334 53.7227V55.0234H333.732V61ZM360.188 35.8633L351.521 56.2891C350.186 59.4297 347.906 61 344.684 61C343.184 61 341.801 60.5898 340.535 59.7695V57.1328C341.777 57.9531 343.143 58.3633 344.631 58.3633C346.436 58.3633 347.707 57.6543 348.445 56.2363L338.531 35.8633H341.959L350.098 53.1074L356.812 35.8633H360.188ZM363.633 61V35.8633H374.355C379.137 35.8633 381.527 37.8145 381.527 41.7168C381.527 44.5762 379.969 46.6211 376.852 47.8516C380.18 48.4727 381.844 50.377 381.844 53.5645C381.844 58.5215 379.225 61 373.986 61H363.633ZM373.793 58.3633C376.793 58.3633 378.293 56.8398 378.293 53.793C378.293 50.8281 376.283 49.3457 372.264 49.3457H370.857V47.2188C375.662 46.5742 378.064 44.8398 378.064 42.0156C378.064 39.6719 376.729 38.5 374.057 38.5H366.885V58.3633H373.793ZM402.797 61C398.824 54.6719 396.322 51.0625 395.291 50.1719C394.26 49.2695 393.287 48.8184 392.373 48.8184V46.4805C394.248 46.4805 396.141 44.7109 398.051 41.1719C399.973 37.6328 402.035 35.8633 404.238 35.8633H406.119V38.6758H404.73C403.465 38.6758 402.047 40.0645 400.477 42.8418C398.906 45.6074 397.447 47.2188 396.1 47.6758C396.979 47.8281 397.945 48.4902 399 49.6621C400.055 50.8223 402.633 54.6016 406.734 61H402.797ZM390.264 35.8633V61H387.012V35.8633H390.264ZM427.934 61V40.2227L413.432 61H410.18V35.8633H413.256V56.6406L427.758 35.8633H431.01V61H427.934ZM439.377 48.3613C439.377 55.1465 441.855 58.5391 446.812 58.5391C451.641 58.5391 454.055 55.1465 454.055 48.3613C454.055 41.6699 451.641 38.3242 446.812 38.3242C441.855 38.3242 439.377 41.6699 439.377 48.3613ZM435.949 48.4668C435.949 39.9473 439.57 35.6875 446.812 35.6875C453.926 35.6875 457.482 39.9473 457.482 48.4668C457.482 56.9395 453.926 61.1758 446.812 61.1758C439.57 61.1758 435.949 56.9395 435.949 48.4668ZM462.158 35.8633H477.346V38.5H464.936L464.514 46.2695C465.885 46.0117 467.326 45.8828 468.838 45.8828C475.166 45.8828 478.33 48.2852 478.33 53.0898C478.33 58.4805 475.049 61.1758 468.486 61.1758C466.26 61.1758 463.975 60.8242 461.631 60.1211V57.3086C463.975 58.1289 466.318 58.5391 468.662 58.5391C472.939 58.5391 475.078 56.7227 475.078 53.0898C475.078 50.043 472.998 48.5195 468.838 48.5195C466.201 48.5195 463.799 48.7539 461.631 49.2227L462.158 35.8633Z" fill="#E502A1"/>
<path d="M1321.27 43.7384L1337.24 35.4404L1353.21 43.7384L1368.57 52.9893L1369.15 70.4999L1368.57 88.0106L1353.21 97.2615L1337.24 105.559L1321.27 97.2615L1305.91 88.0106L1305.33 70.4999L1305.91 52.9893L1321.27 43.7384Z" stroke="#0AE227" stroke-width="3"/>
<path d="M1337.62 105V120.75" stroke="#0AE227" stroke-width="3"/>
<path d="M1380.48 97.0947L1392.72 95.3712" stroke="#0AE227" stroke-width="3"/>
<path d="M1380.94 96.5951L1380.7 108.498" stroke="#0AE227" stroke-width="3"/>
<path d="M1293.24 97.0947L1281 95.3712" stroke="#0AE227" stroke-width="3"/>
<path d="M1292.78 96.5951L1293.02 108.498" stroke="#0AE227" stroke-width="3"/>
<path d="M1293.96 44.4209L1281.73 46.1444" stroke="#0AE227" stroke-width="3"/>
<path d="M1293.5 44.9206L1293.75 33.0181" stroke="#0AE227" stroke-width="3"/>
<path d="M1380.48 43.7197L1392.72 45.4433" stroke="#0AE227" stroke-width="3"/>
<path d="M1380.94 44.2194L1380.7 32.3169" stroke="#0AE227" stroke-width="3"/>
<path d="M1336.98 19.707L1346.42 12.0005" stroke="#0AE227" stroke-width="3"/>
<path d="M1337.67 19.7053L1328.26 12.0001" stroke="#0AE227" stroke-width="3"/>
<path d="M1336.98 121.293L1346.42 129" stroke="#0AE227" stroke-width="3"/>
<path d="M1337.67 121.295L1328.26 129" stroke="#0AE227" stroke-width="3"/>
<path d="M1367.41 87.6667L1380.48 97.1232" stroke="#0AE227" stroke-width="3"/>
<path d="M1368.62 52.875L1380.85 44.228" stroke="#0AE227" stroke-width="3"/>
<path d="M1306.65 87.6617L1293.35 97.4733" stroke="#0AE227" stroke-width="3"/>
<path d="M1306.48 53.9688L1292.98 44.5784" stroke="#0AE227" stroke-width="3"/>
<path d="M1337.25 36.207L1337.28 20.057" stroke="#0AE227" stroke-width="3"/>
<path d="M41.2706 41.7384L57.2414 33.4404L73.2121 41.7384L88.5724 50.9893L89.149 68.4999L88.5724 86.0106L73.2122 95.2615L57.2414 103.559L41.2706 95.2615L25.9103 86.0106L25.3337 68.4999L25.9103 50.9893L41.2706 41.7384Z" stroke="#0AE227" stroke-width="3"/>
<path d="M57.625 103V118.75" stroke="#0AE227" stroke-width="3"/>
<path d="M100.484 95.0947L112.721 93.3712" stroke="#0AE227" stroke-width="3"/>
<path d="M100.944 94.5951L100.701 106.498" stroke="#0AE227" stroke-width="3"/>
<path d="M13.2363 95.0947L0.999886 93.3712" stroke="#0AE227" stroke-width="3"/>
<path d="M12.777 94.5951L13.0197 106.498" stroke="#0AE227" stroke-width="3"/>
<path d="M13.9629 42.4209L1.72645 44.1444" stroke="#0AE227" stroke-width="3"/>
<path d="M13.5035 42.9206L13.7462 31.0181" stroke="#0AE227" stroke-width="3"/>
<path d="M100.484 41.7197L112.721 43.4433" stroke="#0AE227" stroke-width="3"/>
<path d="M100.944 42.2194L100.701 30.3169" stroke="#0AE227" stroke-width="3"/>
<path d="M56.9785 17.707L66.4187 10.0005" stroke="#0AE227" stroke-width="3"/>
<path d="M57.6696 17.7053L48.2635 10.0001" stroke="#0AE227" stroke-width="3"/>
<path d="M56.9785 119.293L66.4187 127" stroke="#0AE227" stroke-width="3"/>
<path d="M57.6696 119.295L48.2635 127" stroke="#0AE227" stroke-width="3"/>
<path d="M87.4149 85.6667L100.484 95.1232" stroke="#0AE227" stroke-width="3"/>
<path d="M88.6172 50.875L100.848 42.228" stroke="#0AE227" stroke-width="3"/>
<path d="M26.6546 85.6617L13.345 95.4733" stroke="#0AE227" stroke-width="3"/>
<path d="M26.4805 51.9688L12.9812 42.5784" stroke="#0AE227" stroke-width="3"/>
<path d="M57.2461 34.207L57.2773 18.057" stroke="#0AE227" stroke-width="3"/>
<path d="M695.271 43.7384L711.241 35.4404L727.212 43.7384L742.572 52.9893L743.149 70.4999L742.572 88.0106L727.212 97.2615L711.241 105.559L695.271 97.2615L679.91 88.0106L679.334 70.4999L679.91 52.9893L695.271 43.7384Z" stroke="#0AE227" stroke-width="3"/>
<path d="M711.625 105V120.75" stroke="#0AE227" stroke-width="3"/>
<path d="M754.484 97.0947L766.721 95.3712" stroke="#0AE227" stroke-width="3"/>
<path d="M754.944 96.5951L754.701 108.498" stroke="#0AE227" stroke-width="3"/>
<path d="M667.236 97.0947L655 95.3712" stroke="#0AE227" stroke-width="3"/>
<path d="M666.777 96.5951L667.02 108.498" stroke="#0AE227" stroke-width="3"/>
<path d="M667.963 44.4209L655.726 46.1444" stroke="#0AE227" stroke-width="3"/>
<path d="M667.504 44.9206L667.746 33.0181" stroke="#0AE227" stroke-width="3"/>
<path d="M754.484 43.7197L766.721 45.4433" stroke="#0AE227" stroke-width="3"/>
<path d="M754.944 44.2194L754.701 32.3169" stroke="#0AE227" stroke-width="3"/>
<path d="M710.979 19.707L720.419 12.0005" stroke="#0AE227" stroke-width="3"/>
<path d="M711.67 19.7053L702.263 12.0001" stroke="#0AE227" stroke-width="3"/>
<path d="M710.979 121.293L720.419 129" stroke="#0AE227" stroke-width="3"/>
<path d="M711.67 121.295L702.263 129" stroke="#0AE227" stroke-width="3"/>
<path d="M741.415 87.6667L754.484 97.1232" stroke="#0AE227" stroke-width="3"/>
<path d="M742.617 52.875L754.848 44.228" stroke="#0AE227" stroke-width="3"/>
<path d="M680.655 87.6617L667.345 97.4733" stroke="#0AE227" stroke-width="3"/>
<path d="M680.48 53.9688L666.981 44.5784" stroke="#0AE227" stroke-width="3"/>
<path d="M711.246 36.207L711.277 20.057" stroke="#0AE227" stroke-width="3"/>
<path d="M1337 138H2616V0H1337V138Z" fill="#400048"/>
<path d="M1510.81 104H1507.44L1518.11 78.8633H1521.71L1532.44 104H1528.83L1525.58 96.0898H1517.27L1518.16 93.4531H1524.49L1519.8 82.0625L1510.81 104ZM1538.76 100.238C1540.04 100.871 1541.46 101.188 1543.04 101.188C1547.22 101.188 1549.31 98.8848 1549.31 94.2793C1549.31 90.2598 1547.23 88.25 1543.07 88.25C1541.43 88.25 1539.99 88.3906 1538.76 88.6719V100.238ZM1535.51 86.2988C1537.96 85.7949 1540.49 85.543 1543.11 85.543C1549.38 85.543 1552.51 88.4668 1552.51 94.3145C1552.51 100.771 1549.36 104 1543.05 104C1541.58 104 1540.15 103.707 1538.76 103.121V110.68H1535.51V86.2988ZM1570.11 104V89.7266L1560.17 104H1556.92V85.543H1560V99.8164L1569.93 85.543H1573.18V104H1570.11ZM1578.47 104V85.543H1581.72V93.2773H1591.48V85.543H1594.73V104H1591.48V95.9141H1581.72V104H1578.47ZM1599.14 98.4277C1599.14 94.6426 1601.64 92.75 1606.63 92.75C1608.24 92.75 1609.84 92.8672 1611.45 93.1016V91.3613C1611.45 89.2402 1609.79 88.1797 1606.47 88.1797C1604.58 88.1797 1602.63 88.4727 1600.64 89.0586V86.4219C1602.63 85.8359 1604.58 85.543 1606.47 85.543C1611.96 85.543 1614.7 87.4531 1614.7 91.2734V104H1612.87L1611.75 102.172C1609.91 103.391 1607.9 104 1605.74 104C1601.34 104 1599.14 102.143 1599.14 98.4277ZM1606.63 95.3867C1603.81 95.3867 1602.4 96.3828 1602.4 98.375C1602.4 100.367 1603.51 101.363 1605.74 101.363C1607.99 101.363 1609.89 100.766 1611.45 99.5703V95.7383C1609.84 95.5039 1608.24 95.3867 1606.63 95.3867ZM1629.13 104V78.8633H1633.26L1642.49 99.834L1651.54 78.8633H1655.5V104H1652.6V83.3809L1643.67 104H1641.1L1632.03 83.3809V104H1629.13ZM1660.25 98.4277C1660.25 94.6426 1662.74 92.75 1667.73 92.75C1669.34 92.75 1670.95 92.8672 1672.55 93.1016V91.3613C1672.55 89.2402 1670.89 88.1797 1667.58 88.1797C1665.68 88.1797 1663.73 88.4727 1661.74 89.0586V86.4219C1663.73 85.8359 1665.68 85.543 1667.58 85.543C1673.06 85.543 1675.8 87.4531 1675.8 91.2734V104H1673.97L1672.85 102.172C1671.01 103.391 1669.01 104 1666.84 104C1662.44 104 1660.25 102.143 1660.25 98.4277ZM1667.73 95.3867C1664.91 95.3867 1663.5 96.3828 1663.5 98.375C1663.5 100.367 1664.61 101.363 1666.84 101.363C1669.09 101.363 1670.99 100.766 1672.55 99.5703V95.7383C1670.95 95.5039 1669.34 95.3867 1667.73 95.3867ZM1668.54 78.8633H1672.74L1668.54 83.0645H1665.66L1668.54 78.8633ZM1684.35 100.238C1685.62 100.871 1687.05 101.188 1688.62 101.188C1692.8 101.188 1694.89 98.8848 1694.89 94.2793C1694.89 90.2598 1692.81 88.25 1688.65 88.25C1687.01 88.25 1685.58 88.3906 1684.35 88.6719V100.238ZM1681.09 86.2988C1683.54 85.7949 1686.07 85.543 1688.69 85.543C1694.96 85.543 1698.09 88.4668 1698.09 94.3145C1698.09 100.771 1694.94 104 1688.63 104C1687.16 104 1685.73 103.707 1684.35 103.121V110.68H1681.09V86.2988ZM1715.69 104V89.7266L1705.76 104H1702.5V85.543H1705.58V99.8164L1715.51 85.543H1718.76V104H1715.69ZM1724.05 104V85.543H1727.31V93.2773H1737.06V85.543H1740.31V104H1737.06V95.9141H1727.31V104H1724.05ZM1744.73 94.7715C1744.73 88.502 1747.77 85.3672 1753.87 85.3672C1759.96 85.3672 1763.01 88.502 1763.01 94.7715C1763.01 101.041 1759.96 104.176 1753.87 104.176C1747.8 104.176 1744.75 101.041 1744.73 94.7715ZM1747.98 94.7012C1747.98 99.2598 1749.94 101.539 1753.87 101.539C1757.79 101.539 1759.76 99.2598 1759.76 94.7012C1759.76 90.2363 1757.79 88.0039 1753.87 88.0039C1749.94 88.0039 1747.98 90.2363 1747.98 94.7012ZM1777.21 101.363C1779.04 101.363 1779.95 100.426 1779.95 98.5508C1779.95 96.793 1778.53 95.9141 1775.68 95.9141H1774.28V93.7871C1777.91 93.377 1779.72 92.1523 1779.72 90.1133C1779.72 88.8242 1778.97 88.1797 1777.47 88.1797H1770.65V101.363H1777.21ZM1767.4 104V85.543H1777.77C1781.38 85.543 1783.19 87.084 1783.19 90.166C1783.19 92.0762 1782.04 93.4941 1779.74 94.4199C1782.25 95.041 1783.5 96.4004 1783.5 98.498C1783.5 102.166 1781.47 104 1777.4 104H1767.4ZM1787.02 98.4277C1787.02 94.6426 1789.52 92.75 1794.51 92.75C1796.11 92.75 1797.72 92.8672 1799.32 93.1016V91.3613C1799.32 89.2402 1797.67 88.1797 1794.35 88.1797C1792.45 88.1797 1790.51 88.4727 1788.51 89.0586V86.4219C1790.51 85.8359 1792.45 85.543 1794.35 85.543C1799.83 85.543 1802.58 87.4531 1802.58 91.2734V104H1800.75L1799.62 102.172C1797.78 103.391 1795.78 104 1793.61 104C1789.22 104 1787.02 102.143 1787.02 98.4277ZM1794.51 95.3867C1791.68 95.3867 1790.27 96.3828 1790.27 98.375C1790.27 100.367 1791.38 101.363 1793.61 101.363C1795.86 101.363 1797.77 100.766 1799.32 99.5703V95.7383C1797.72 95.5039 1796.11 95.3867 1794.51 95.3867Z" fill="#D1E0E9"/>
<path d="M2186.77 104C2182.8 97.6719 2180.3 94.0625 2179.27 93.1719C2178.24 92.2695 2177.26 91.8184 2176.35 91.8184V89.4805C2178.22 89.4805 2180.12 87.7109 2182.03 84.1719C2183.95 80.6328 2186.01 78.8633 2188.21 78.8633H2190.1V81.6758H2188.71C2187.44 81.6758 2186.02 83.0645 2184.45 85.8418C2182.88 88.6074 2181.42 90.2188 2180.08 90.6758C2180.96 90.8281 2181.92 91.4902 2182.98 92.6621C2184.03 93.8223 2186.61 97.6016 2190.71 104H2186.77ZM2174.24 78.8633V104H2170.99V78.8633H2174.24ZM2192.93 98.4277C2192.93 94.6426 2195.42 92.75 2200.41 92.75C2202.02 92.75 2203.62 92.8672 2205.23 93.1016V91.3613C2205.23 89.2402 2203.57 88.1797 2200.26 88.1797C2198.36 88.1797 2196.41 88.4727 2194.42 89.0586V86.4219C2196.41 85.8359 2198.36 85.543 2200.26 85.543C2205.74 85.543 2208.48 87.4531 2208.48 91.2734V104H2206.65L2205.53 102.172C2203.69 103.391 2201.69 104 2199.52 104C2195.12 104 2192.93 102.143 2192.93 98.4277ZM2200.41 95.3867C2197.59 95.3867 2196.18 96.3828 2196.18 98.375C2196.18 100.367 2197.29 101.363 2199.52 101.363C2201.77 101.363 2203.67 100.766 2205.23 99.5703V95.7383C2203.62 95.5039 2202.02 95.3867 2200.41 95.3867ZM2213.77 104V85.543H2217.9L2224.14 100.186L2230.21 85.543H2234.16V104H2231.26V89.8848L2225.32 104H2222.76L2216.67 89.8848V104H2213.77ZM2252.62 104V89.7266L2242.69 104H2239.44V85.543H2242.51V99.8164L2252.45 85.543H2255.7V104H2252.62ZM2258.35 101.363C2261.13 101.363 2262.52 99.7812 2262.52 96.6172V85.543H2276.58V104H2273.33V88.1797H2265.77V96.6172C2265.77 101.539 2263.3 104 2258.35 104V101.363ZM2280.99 98.4277C2280.99 94.6426 2283.49 92.75 2288.48 92.75C2290.09 92.75 2291.69 92.8672 2293.3 93.1016V91.3613C2293.3 89.2402 2291.64 88.1797 2288.32 88.1797C2286.42 88.1797 2284.48 88.4727 2282.49 89.0586V86.4219C2284.48 85.8359 2286.42 85.543 2288.32 85.543C2293.81 85.543 2296.55 87.4531 2296.55 91.2734V104H2294.72L2293.6 102.172C2291.76 103.391 2289.75 104 2287.58 104C2283.19 104 2280.99 102.143 2280.99 98.4277ZM2288.48 95.3867C2285.66 95.3867 2284.24 96.3828 2284.24 98.375C2284.24 100.367 2285.36 101.363 2287.58 101.363C2289.83 101.363 2291.74 100.766 2293.3 99.5703V95.7383C2291.69 95.5039 2290.09 95.3867 2288.48 95.3867ZM2310.98 104V78.8633H2321.18C2326.31 78.8633 2328.88 81.1074 2328.88 85.5957C2328.88 90.4824 2325.37 93.4648 2318.35 94.543L2317.68 91.8008C2322.83 91.0391 2325.41 89.0176 2325.41 85.7363C2325.41 82.9473 2323.9 81.5527 2320.88 81.5527H2314.23V104H2310.98ZM2346.03 104V89.7266L2336.1 104H2332.85V85.543H2335.92V99.8164L2345.86 85.543H2349.11V104H2346.03ZM2355.98 104H2352.2L2359.55 94.7715L2352.2 85.543H2355.98L2361.43 92.3984L2366.88 85.543H2370.66L2363.31 94.7715L2370.66 104H2366.88L2361.43 97.1445L2355.98 104ZM2387.36 85.543V88.1797H2380.85V104H2377.6V88.1797H2371.1V85.543H2387.36ZM2397.62 85.543C2402.87 85.543 2405.5 88.1387 2405.5 93.3301C2405.5 94.0684 2405.45 94.8594 2405.34 95.7031H2392.38C2392.38 99.4766 2394.59 101.363 2398.99 101.363C2401.09 101.363 2402.96 101.129 2404.58 100.66V103.297C2402.96 103.766 2400.97 104 2398.64 104C2392.3 104 2389.13 100.854 2389.13 94.5605C2389.13 88.5488 2391.96 85.543 2397.62 85.543ZM2392.38 92.9961H2402.37C2402.3 89.7617 2400.72 88.1445 2397.62 88.1445C2394.34 88.1445 2392.6 89.7617 2392.38 92.9961ZM2413.13 100.238C2414.4 100.871 2415.83 101.188 2417.4 101.188C2421.58 101.188 2423.67 98.8848 2423.67 94.2793C2423.67 90.2598 2421.59 88.25 2417.43 88.25C2415.79 88.25 2414.36 88.3906 2413.13 88.6719V100.238ZM2409.88 86.2988C2412.32 85.7949 2414.86 85.543 2417.47 85.543C2423.74 85.543 2426.87 88.4668 2426.87 94.3145C2426.87 100.771 2423.72 104 2417.42 104C2415.94 104 2414.51 103.707 2413.13 103.121V110.68H2409.88V86.2988Z" fill="#D1E0E9"/>
<path d="M2245.77 58C2241.8 51.6719 2239.3 48.0625 2238.27 47.1719C2237.24 46.2695 2236.26 45.8184 2235.35 45.8184V43.4805C2237.22 43.4805 2239.12 41.7109 2241.03 38.1719C2242.95 34.6328 2245.01 32.8633 2247.21 32.8633H2249.1V35.6758H2247.71C2246.44 35.6758 2245.02 37.0645 2243.45 39.8418C2241.88 42.6074 2240.42 44.2188 2239.08 44.6758C2239.96 44.8281 2240.92 45.4902 2241.98 46.6621C2243.03 47.8223 2245.61 51.6016 2249.71 58H2245.77ZM2233.24 32.8633V58H2229.99V32.8633H2233.24ZM2250.61 39.543H2254.14L2259.36 53.957L2264.76 39.543H2268.2L2260.54 58.5449C2259.18 61.8965 2257.14 63.9883 2254.42 64.8203L2253.17 62.5176C2255.24 61.6152 2256.74 60.1445 2257.67 58.1055L2250.61 39.543ZM2274.51 54.2383C2275.79 54.8711 2277.21 55.1875 2278.79 55.1875C2282.97 55.1875 2285.06 52.8848 2285.06 48.2793C2285.06 44.2598 2282.98 42.25 2278.82 42.25C2277.18 42.25 2275.74 42.3906 2274.51 42.6719V54.2383ZM2271.26 40.2988C2273.71 39.7949 2276.24 39.543 2278.86 39.543C2285.12 39.543 2288.26 42.4668 2288.26 48.3145C2288.26 54.7715 2285.11 58 2278.8 58C2277.33 58 2275.9 57.707 2274.51 57.1211V64.6797H2271.26V40.2988ZM2291.79 52.4277C2291.79 48.6426 2294.29 46.75 2299.28 46.75C2300.89 46.75 2302.49 46.8672 2304.1 47.1016V45.3613C2304.1 43.2402 2302.44 42.1797 2299.12 42.1797C2297.22 42.1797 2295.28 42.4727 2293.29 43.0586V40.4219C2295.28 39.8359 2297.22 39.543 2299.12 39.543C2304.61 39.543 2307.35 41.4531 2307.35 45.2734V58H2305.52L2304.4 56.1719C2302.56 57.3906 2300.55 58 2298.38 58C2293.99 58 2291.79 56.1426 2291.79 52.4277ZM2299.28 49.3867C2296.46 49.3867 2295.04 50.3828 2295.04 52.375C2295.04 54.3672 2296.16 55.3633 2298.38 55.3633C2300.63 55.3633 2302.54 54.7656 2304.1 53.5703V49.7383C2302.49 49.5039 2300.89 49.3867 2299.28 49.3867ZM2326.26 39.543V42.1797H2319.76V58H2316.51V42.1797H2310V39.543H2326.26ZM2328.04 48.7715C2328.04 42.502 2331.09 39.3672 2337.18 39.3672C2343.27 39.3672 2346.32 42.502 2346.32 48.7715C2346.32 55.041 2343.27 58.1758 2337.18 58.1758C2331.11 58.1758 2328.06 55.041 2328.04 48.7715ZM2331.29 48.7012C2331.29 53.2598 2333.25 55.5391 2337.18 55.5391C2341.11 55.5391 2343.07 53.2598 2343.07 48.7012C2343.07 44.2363 2341.11 42.0039 2337.18 42.0039C2333.25 42.0039 2331.29 44.2363 2331.29 48.7012ZM2353.97 54.2383C2355.24 54.8711 2356.67 55.1875 2358.24 55.1875C2362.42 55.1875 2364.51 52.8848 2364.51 48.2793C2364.51 44.2598 2362.43 42.25 2358.27 42.25C2356.63 42.25 2355.2 42.3906 2353.97 42.6719V54.2383ZM2350.71 40.2988C2353.16 39.7949 2355.7 39.543 2358.31 39.543C2364.58 39.543 2367.71 42.4668 2367.71 48.3145C2367.71 54.7715 2364.56 58 2358.26 58C2356.78 58 2355.35 57.707 2353.97 57.1211V64.6797H2350.71V40.2988Z" fill="#E502A1"/>
<path d="M1573.58 36.8633V39.5H1559.26V59.3105H1566.41C1569.2 59.3105 1570.6 57.8516 1570.6 54.9336C1570.6 51.793 1568.88 50.2227 1565.46 50.2227H1562.16V47.5859H1565.62C1571.11 47.5859 1573.85 49.9707 1573.85 54.7402C1573.85 59.5801 1571.47 62 1566.71 62H1555.99V36.8633H1573.58ZM1577.12 62V59.3633C1586.43 52.9531 1591.09 47.8555 1591.09 44.0703C1591.09 40.9062 1589.1 39.3242 1585.12 39.3242C1582.54 39.3242 1580.11 39.9688 1577.82 41.2578V38.4453C1580.11 37.2734 1582.54 36.6875 1585.12 36.6875C1591.27 36.6875 1594.34 39.1484 1594.34 44.0703C1594.34 48.4062 1590.15 53.5039 1581.78 59.3633H1594.34V62H1577.12ZM1613.73 62H1610.48V56.0234H1597.26V53.3867L1607.37 36.8633H1610.78L1600.65 53.3867H1610.48V44.457H1613.73V53.3867L1616.33 54.7227V56.0234H1613.73V62ZM1640.19 36.8633L1631.52 57.2891C1630.19 60.4297 1627.91 62 1624.68 62C1623.18 62 1621.8 61.5898 1620.54 60.7695V58.1328C1621.78 58.9531 1623.14 59.3633 1624.63 59.3633C1626.44 59.3633 1627.71 58.6543 1628.45 57.2363L1618.53 36.8633H1621.96L1630.1 54.1074L1636.81 36.8633H1640.19ZM1643.63 62V36.8633H1654.36C1659.14 36.8633 1661.53 38.8145 1661.53 42.7168C1661.53 45.5762 1659.97 47.6211 1656.85 48.8516C1660.18 49.4727 1661.84 51.377 1661.84 54.5645C1661.84 59.5215 1659.22 62 1653.99 62H1643.63ZM1653.79 59.3633C1656.79 59.3633 1658.29 57.8398 1658.29 54.793C1658.29 51.8281 1656.28 50.3457 1652.26 50.3457H1650.86V48.2188C1655.66 47.5742 1658.06 45.8398 1658.06 43.0156C1658.06 40.6719 1656.73 39.5 1654.06 39.5H1646.88V59.3633H1653.79ZM1682.8 62C1678.82 55.6719 1676.32 52.0625 1675.29 51.1719C1674.26 50.2695 1673.29 49.8184 1672.37 49.8184V47.4805C1674.25 47.4805 1676.14 45.7109 1678.05 42.1719C1679.97 38.6328 1682.04 36.8633 1684.24 36.8633H1686.12V39.6758H1684.73C1683.46 39.6758 1682.05 41.0645 1680.48 43.8418C1678.91 46.6074 1677.45 48.2188 1676.1 48.6758C1676.98 48.8281 1677.95 49.4902 1679 50.6621C1680.05 51.8223 1682.63 55.6016 1686.73 62H1682.8ZM1670.26 36.8633V62H1667.01V36.8633H1670.26ZM1707.93 62V41.2227L1693.43 62H1690.18V36.8633H1693.26V57.6406L1707.76 36.8633H1711.01V62H1707.93ZM1719.38 49.3613C1719.38 56.1465 1721.86 59.5391 1726.81 59.5391C1731.64 59.5391 1734.05 56.1465 1734.05 49.3613C1734.05 42.6699 1731.64 39.3242 1726.81 39.3242C1721.86 39.3242 1719.38 42.6699 1719.38 49.3613ZM1715.95 49.4668C1715.95 40.9473 1719.57 36.6875 1726.81 36.6875C1733.93 36.6875 1737.48 40.9473 1737.48 49.4668C1737.48 57.9395 1733.93 62.1758 1726.81 62.1758C1719.57 62.1758 1715.95 57.9395 1715.95 49.4668ZM1742.16 36.8633H1757.35V39.5H1744.94L1744.51 47.2695C1745.88 47.0117 1747.33 46.8828 1748.84 46.8828C1755.17 46.8828 1758.33 49.2852 1758.33 54.0898C1758.33 59.4805 1755.05 62.1758 1748.49 62.1758C1746.26 62.1758 1743.97 61.8242 1741.63 61.1211V58.3086C1743.97 59.1289 1746.32 59.5391 1748.66 59.5391C1752.94 59.5391 1755.08 57.7227 1755.08 54.0898C1755.08 51.043 1753 49.5195 1748.84 49.5195C1746.2 49.5195 1743.8 49.7539 1741.63 50.2227L1742.16 36.8633Z" fill="#E502A1"/>
<path d="M2601.27 44.7384L2617.24 36.4404L2633.21 44.7384L2648.57 53.9893L2649.15 71.4999L2648.57 89.0106L2633.21 98.2615L2617.24 106.559L2601.27 98.2615L2585.91 89.0106L2585.33 71.4999L2585.91 53.9893L2601.27 44.7384Z" stroke="#0AE227" stroke-width="3"/>
<path d="M2617.62 106V121.75" stroke="#0AE227" stroke-width="3"/>
<path d="M2660.48 98.0947L2672.72 96.3712" stroke="#0AE227" stroke-width="3"/>
<path d="M2660.94 97.5951L2660.7 109.498" stroke="#0AE227" stroke-width="3"/>
<path d="M2573.24 98.0947L2561 96.3712" stroke="#0AE227" stroke-width="3"/>
<path d="M2572.78 97.5951L2573.02 109.498" stroke="#0AE227" stroke-width="3"/>
<path d="M2573.96 45.4209L2561.73 47.1444" stroke="#0AE227" stroke-width="3"/>
<path d="M2573.5 45.9206L2573.75 34.0181" stroke="#0AE227" stroke-width="3"/>
<path d="M2660.48 44.7197L2672.72 46.4433" stroke="#0AE227" stroke-width="3"/>
<path d="M2660.94 45.2194L2660.7 33.3169" stroke="#0AE227" stroke-width="3"/>
<path d="M2616.98 20.707L2626.42 13.0005" stroke="#0AE227" stroke-width="3"/>
<path d="M2617.67 20.7053L2608.26 13.0001" stroke="#0AE227" stroke-width="3"/>
<path d="M2616.98 122.293L2626.42 130" stroke="#0AE227" stroke-width="3"/>
<path d="M2617.67 122.295L2608.26 130" stroke="#0AE227" stroke-width="3"/>
<path d="M2647.41 88.6667L2660.48 98.1232" stroke="#0AE227" stroke-width="3"/>
<path d="M2648.62 53.875L2660.85 45.228" stroke="#0AE227" stroke-width="3"/>
<path d="M2586.65 88.6617L2573.35 98.4733" stroke="#0AE227" stroke-width="3"/>
<path d="M2586.48 54.9688L2572.98 45.5784" stroke="#0AE227" stroke-width="3"/>
<path d="M2617.25 37.207L2617.28 21.057" stroke="#0AE227" stroke-width="3"/>
<path d="M1321.27 42.7384L1337.24 34.4404L1353.21 42.7384L1368.57 51.9893L1369.15 69.4999L1368.57 87.0106L1353.21 96.2615L1337.24 104.559L1321.27 96.2615L1305.91 87.0106L1305.33 69.4999L1305.91 51.9893L1321.27 42.7384Z" stroke="#0AE227" stroke-width="3"/>
<path d="M1337.62 104V119.75" stroke="#0AE227" stroke-width="3"/>
<path d="M1380.48 96.0947L1392.72 94.3712" stroke="#0AE227" stroke-width="3"/>
<path d="M1380.94 95.5951L1380.7 107.498" stroke="#0AE227" stroke-width="3"/>
<path d="M1293.24 96.0947L1281 94.3712" stroke="#0AE227" stroke-width="3"/>
<path d="M1292.78 95.5951L1293.02 107.498" stroke="#0AE227" stroke-width="3"/>
<path d="M1293.96 43.4209L1281.73 45.1444" stroke="#0AE227" stroke-width="3"/>
<path d="M1293.5 43.9206L1293.75 32.0181" stroke="#0AE227" stroke-width="3"/>
<path d="M1380.48 42.7197L1392.72 44.4433" stroke="#0AE227" stroke-width="3"/>
<path d="M1380.94 43.2194L1380.7 31.3169" stroke="#0AE227" stroke-width="3"/>
<path d="M1336.98 18.707L1346.42 11.0005" stroke="#0AE227" stroke-width="3"/>
<path d="M1337.67 18.7053L1328.26 11.0001" stroke="#0AE227" stroke-width="3"/>
<path d="M1336.98 120.293L1346.42 128" stroke="#0AE227" stroke-width="3"/>
<path d="M1337.67 120.295L1328.26 128" stroke="#0AE227" stroke-width="3"/>
<path d="M1367.41 86.6667L1380.48 96.1232" stroke="#0AE227" stroke-width="3"/>
<path d="M1368.62 51.875L1380.85 43.228" stroke="#0AE227" stroke-width="3"/>
<path d="M1306.65 86.6617L1293.35 96.4733" stroke="#0AE227" stroke-width="3"/>
<path d="M1306.48 52.9688L1292.98 43.5784" stroke="#0AE227" stroke-width="3"/>
<path d="M1337.25 35.207L1337.28 19.057" stroke="#0AE227" stroke-width="3"/>
<path d="M1975.27 44.7384L1991.24 36.4404L2007.21 44.7384L2022.57 53.9893L2023.15 71.4999L2022.57 89.0106L2007.21 98.2615L1991.24 106.559L1975.27 98.2615L1959.91 89.0106L1959.33 71.4999L1959.91 53.9893L1975.27 44.7384Z" stroke="#0AE227" stroke-width="3"/>
<path d="M1991.62 106V121.75" stroke="#0AE227" stroke-width="3"/>
<path d="M2034.48 98.0947L2046.72 96.3712" stroke="#0AE227" stroke-width="3"/>
<path d="M2034.94 97.5951L2034.7 109.498" stroke="#0AE227" stroke-width="3"/>
<path d="M1947.24 98.0947L1935 96.3712" stroke="#0AE227" stroke-width="3"/>
<path d="M1946.78 97.5951L1947.02 109.498" stroke="#0AE227" stroke-width="3"/>
<path d="M1947.96 45.4209L1935.73 47.1444" stroke="#0AE227" stroke-width="3"/>
<path d="M1947.5 45.9206L1947.75 34.0181" stroke="#0AE227" stroke-width="3"/>
<path d="M2034.48 44.7197L2046.72 46.4433" stroke="#0AE227" stroke-width="3"/>
<path d="M2034.94 45.2194L2034.7 33.3169" stroke="#0AE227" stroke-width="3"/>
<path d="M1990.98 20.707L2000.42 13.0005" stroke="#0AE227" stroke-width="3"/>
<path d="M1991.67 20.7053L1982.26 13.0001" stroke="#0AE227" stroke-width="3"/>
<path d="M1990.98 122.293L2000.42 130" stroke="#0AE227" stroke-width="3"/>
<path d="M1991.67 122.295L1982.26 130" stroke="#0AE227" stroke-width="3"/>
<path d="M2021.41 88.6667L2034.48 98.1232" stroke="#0AE227" stroke-width="3"/>
<path d="M2022.62 53.875L2034.85 45.228" stroke="#0AE227" stroke-width="3"/>
<path d="M1960.65 88.6617L1947.35 98.4733" stroke="#0AE227" stroke-width="3"/>
<path d="M1960.48 54.9688L1946.98 45.5784" stroke="#0AE227" stroke-width="3"/>
<path d="M1991.25 37.207L1991.28 21.057" stroke="#0AE227" stroke-width="3"/>
</svg>
