<svg width="2674" height="125" viewBox="0 0 2674 125" fill="none" xmlns="http://www.w3.org/2000/svg">
<path d="M230.814 95H227.439L238.109 69.8633H241.713L252.436 95H248.832L245.58 87.0898H237.266L238.162 84.4531H244.49L239.797 73.0625L230.814 95ZM258.764 91.2383C260.041 91.8711 261.465 92.1875 263.035 92.1875C267.219 92.1875 269.311 89.8848 269.311 85.2793C269.311 81.2598 267.23 79.25 263.07 79.25C261.43 79.25 259.994 79.3906 258.764 79.6719V91.2383ZM255.512 77.2988C257.961 76.7949 260.492 76.543 263.105 76.543C269.375 76.543 272.51 79.4668 272.51 85.3145C272.51 91.7715 269.357 95 263.053 95C261.576 95 260.146 94.707 258.764 94.1211V101.68H255.512V77.2988ZM290.105 95V80.7266L280.174 95H276.922V76.543H279.998V90.8164L289.93 76.543H293.182V95H290.105ZM298.473 95V76.543H301.725V84.2773H311.48V76.543H314.732V95H311.48V86.9141H301.725V95H298.473ZM319.145 89.4277C319.145 85.6426 321.641 83.75 326.633 83.75C328.238 83.75 329.844 83.8672 331.449 84.1016V82.3613C331.449 80.2402 329.791 79.1797 326.475 79.1797C324.576 79.1797 322.631 79.4727 320.639 80.0586V77.4219C322.631 76.8359 324.576 76.543 326.475 76.543C331.959 76.543 334.701 78.4531 334.701 82.2734V95H332.873L331.748 93.1719C329.908 94.3906 327.904 95 325.736 95C321.342 95 319.145 93.1426 319.145 89.4277ZM326.633 86.3867C323.809 86.3867 322.396 87.3828 322.396 89.375C322.396 91.3672 323.51 92.3633 325.736 92.3633C327.986 92.3633 329.891 91.7656 331.449 90.5703V86.7383C329.844 86.5039 328.238 86.3867 326.633 86.3867ZM349.133 95V69.8633H353.264L362.492 90.834L371.545 69.8633H375.5V95H372.6V74.3809L363.67 95H361.104L352.033 74.3809V95H349.133ZM380.246 89.4277C380.246 85.6426 382.742 83.75 387.734 83.75C389.34 83.75 390.945 83.8672 392.551 84.1016V82.3613C392.551 80.2402 390.893 79.1797 387.576 79.1797C385.678 79.1797 383.732 79.4727 381.74 80.0586V77.4219C383.732 76.8359 385.678 76.543 387.576 76.543C393.061 76.543 395.803 78.4531 395.803 82.2734V95H393.975L392.85 93.1719C391.01 94.3906 389.006 95 386.838 95C382.443 95 380.246 93.1426 380.246 89.4277ZM387.734 86.3867C384.91 86.3867 383.498 87.3828 383.498 89.375C383.498 91.3672 384.611 92.3633 386.838 92.3633C389.088 92.3633 390.992 91.7656 392.551 90.5703V86.7383C390.945 86.5039 389.34 86.3867 387.734 86.3867ZM388.543 69.8633H392.744L388.543 74.0645H385.66L388.543 69.8633ZM404.346 91.2383C405.623 91.8711 407.047 92.1875 408.617 92.1875C412.801 92.1875 414.893 89.8848 414.893 85.2793C414.893 81.2598 412.812 79.25 408.652 79.25C407.012 79.25 405.576 79.3906 404.346 79.6719V91.2383ZM401.094 77.2988C403.543 76.7949 406.074 76.543 408.688 76.543C414.957 76.543 418.092 79.4668 418.092 85.3145C418.092 91.7715 414.939 95 408.635 95C407.158 95 405.729 94.707 404.346 94.1211V101.68H401.094V77.2988ZM435.688 95V80.7266L425.756 95H422.504V76.543H425.58V90.8164L435.512 76.543H438.764V95H435.688ZM444.055 95V76.543H447.307V84.2773H457.062V76.543H460.314V95H457.062V86.9141H447.307V95H444.055ZM464.727 85.7715C464.727 79.502 467.773 76.3672 473.867 76.3672C479.961 76.3672 483.008 79.502 483.008 85.7715C483.008 92.041 479.961 95.1758 473.867 95.1758C467.797 95.1758 464.75 92.041 464.727 85.7715ZM467.979 85.7012C467.979 90.2598 469.941 92.5391 473.867 92.5391C477.793 92.5391 479.756 90.2598 479.756 85.7012C479.756 81.2363 477.793 79.0039 473.867 79.0039C469.941 79.0039 467.979 81.2363 467.979 85.7012ZM497.211 92.3633C499.039 92.3633 499.953 91.4258 499.953 89.5508C499.953 87.793 498.529 86.9141 495.682 86.9141H494.275V84.7871C497.908 84.377 499.725 83.1523 499.725 81.1133C499.725 79.8242 498.975 79.1797 497.475 79.1797H490.654V92.3633H497.211ZM487.402 95V76.543H497.773C501.383 76.543 503.188 78.084 503.188 81.166C503.188 83.0762 502.039 84.4941 499.742 85.4199C502.25 86.041 503.504 87.4004 503.504 89.498C503.504 93.166 501.471 95 497.404 95H487.402ZM507.02 89.4277C507.02 85.6426 509.516 83.75 514.508 83.75C516.113 83.75 517.719 83.8672 519.324 84.1016V82.3613C519.324 80.2402 517.666 79.1797 514.35 79.1797C512.451 79.1797 510.506 79.4727 508.514 80.0586V77.4219C510.506 76.8359 512.451 76.543 514.35 76.543C519.834 76.543 522.576 78.4531 522.576 82.2734V95H520.748L519.623 93.1719C517.783 94.3906 515.779 95 513.611 95C509.217 95 507.02 93.1426 507.02 89.4277ZM514.508 86.3867C511.684 86.3867 510.271 87.3828 510.271 89.375C510.271 91.3672 511.385 92.3633 513.611 92.3633C515.861 92.3633 517.766 91.7656 519.324 90.5703V86.7383C517.719 86.5039 516.113 86.3867 514.508 86.3867Z" fill="#D1E0E9"/>
<path d="M906.773 95C902.801 88.6719 900.299 85.0625 899.268 84.1719C898.236 83.2695 897.264 82.8184 896.35 82.8184V80.4805C898.225 80.4805 900.117 78.7109 902.027 75.1719C903.949 71.6328 906.012 69.8633 908.215 69.8633H910.096V72.6758H908.707C907.441 72.6758 906.023 74.0645 904.453 76.8418C902.883 79.6074 901.424 81.2188 900.076 81.6758C900.955 81.8281 901.922 82.4902 902.977 83.6621C904.031 84.8223 906.609 88.6016 910.711 95H906.773ZM894.24 69.8633V95H890.988V69.8633H894.24ZM912.926 89.4277C912.926 85.6426 915.422 83.75 920.414 83.75C922.02 83.75 923.625 83.8672 925.23 84.1016V82.3613C925.23 80.2402 923.572 79.1797 920.256 79.1797C918.357 79.1797 916.412 79.4727 914.42 80.0586V77.4219C916.412 76.8359 918.357 76.543 920.256 76.543C925.74 76.543 928.482 78.4531 928.482 82.2734V95H926.654L925.529 93.1719C923.689 94.3906 921.686 95 919.518 95C915.123 95 912.926 93.1426 912.926 89.4277ZM920.414 86.3867C917.59 86.3867 916.178 87.3828 916.178 89.375C916.178 91.3672 917.291 92.3633 919.518 92.3633C921.768 92.3633 923.672 91.7656 925.23 90.5703V86.7383C923.625 86.5039 922.02 86.3867 920.414 86.3867ZM933.773 95V76.543H937.904L944.145 91.1855L950.209 76.543H954.164V95H951.264V80.8848L945.322 95H942.756L936.674 80.8848V95H933.773ZM972.621 95V80.7266L962.689 95H959.438V76.543H962.514V90.8164L972.445 76.543H975.697V95H972.621ZM978.352 92.3633C981.129 92.3633 982.518 90.7812 982.518 87.6172V76.543H996.58V95H993.328V79.1797H985.77V87.6172C985.77 92.5391 983.297 95 978.352 95V92.3633ZM1000.99 89.4277C1000.99 85.6426 1003.49 83.75 1008.48 83.75C1010.09 83.75 1011.69 83.8672 1013.3 84.1016V82.3613C1013.3 80.2402 1011.64 79.1797 1008.32 79.1797C1006.42 79.1797 1004.48 79.4727 1002.49 80.0586V77.4219C1004.48 76.8359 1006.42 76.543 1008.32 76.543C1013.81 76.543 1016.55 78.4531 1016.55 82.2734V95H1014.72L1013.6 93.1719C1011.76 94.3906 1009.75 95 1007.58 95C1003.19 95 1000.99 93.1426 1000.99 89.4277ZM1008.48 86.3867C1005.66 86.3867 1004.24 87.3828 1004.24 89.375C1004.24 91.3672 1005.36 92.3633 1007.58 92.3633C1009.83 92.3633 1011.74 91.7656 1013.3 90.5703V86.7383C1011.69 86.5039 1010.09 86.3867 1008.48 86.3867ZM1030.98 95V69.8633H1041.18C1046.31 69.8633 1048.88 72.1074 1048.88 76.5957C1048.88 81.4824 1045.37 84.4648 1038.35 85.543L1037.68 82.8008C1042.83 82.0391 1045.41 80.0176 1045.41 76.7363C1045.41 73.9473 1043.9 72.5527 1040.88 72.5527H1034.23V95H1030.98ZM1066.03 95V80.7266L1056.1 95H1052.85V76.543H1055.92V90.8164L1065.86 76.543H1069.11V95H1066.03ZM1075.98 95H1072.2L1079.55 85.7715L1072.2 76.543H1075.98L1081.43 83.3984L1086.88 76.543H1090.66L1083.31 85.7715L1090.66 95H1086.88L1081.43 88.1445L1075.98 95ZM1107.36 76.543V79.1797H1100.85V95H1097.6V79.1797H1091.1V76.543H1107.36ZM1117.62 76.543C1122.87 76.543 1125.5 79.1387 1125.5 84.3301C1125.5 85.0684 1125.45 85.8594 1125.34 86.7031H1112.38C1112.38 90.4766 1114.59 92.3633 1118.99 92.3633C1121.09 92.3633 1122.96 92.1289 1124.58 91.6602V94.2969C1122.96 94.7656 1120.97 95 1118.64 95C1112.3 95 1109.13 91.8535 1109.13 85.5605C1109.13 79.5488 1111.96 76.543 1117.62 76.543ZM1112.38 83.9961H1122.37C1122.3 80.7617 1120.72 79.1445 1117.62 79.1445C1114.34 79.1445 1112.6 80.7617 1112.38 83.9961ZM1133.13 91.2383C1134.4 91.8711 1135.83 92.1875 1137.4 92.1875C1141.58 92.1875 1143.67 89.8848 1143.67 85.2793C1143.67 81.2598 1141.59 79.25 1137.43 79.25C1135.79 79.25 1134.36 79.3906 1133.13 79.6719V91.2383ZM1129.88 77.2988C1132.32 76.7949 1134.86 76.543 1137.47 76.543C1143.74 76.543 1146.87 79.4668 1146.87 85.3145C1146.87 91.7715 1143.72 95 1137.42 95C1135.94 95 1134.51 94.707 1133.13 94.1211V101.68H1129.88V77.2988Z" fill="#D1E0E9"/>
<path d="M965.773 49C961.801 42.6719 959.299 39.0625 958.268 38.1719C957.236 37.2695 956.264 36.8184 955.35 36.8184V34.4805C957.225 34.4805 959.117 32.7109 961.027 29.1719C962.949 25.6328 965.012 23.8633 967.215 23.8633H969.096V26.6758H967.707C966.441 26.6758 965.023 28.0645 963.453 30.8418C961.883 33.6074 960.424 35.2188 959.076 35.6758C959.955 35.8281 960.922 36.4902 961.977 37.6621C963.031 38.8223 965.609 42.6016 969.711 49H965.773ZM953.24 23.8633V49H949.988V23.8633H953.24ZM970.607 30.543H974.141L979.361 44.957L984.758 30.543H988.203L980.539 49.5449C979.18 52.8965 977.141 54.9883 974.422 55.8203L973.174 53.5176C975.236 52.6152 976.736 51.1445 977.674 49.1055L970.607 30.543ZM994.514 45.2383C995.791 45.8711 997.215 46.1875 998.785 46.1875C1002.97 46.1875 1005.06 43.8848 1005.06 39.2793C1005.06 35.2598 1002.98 33.25 998.82 33.25C997.18 33.25 995.744 33.3906 994.514 33.6719V45.2383ZM991.262 31.2988C993.711 30.7949 996.242 30.543 998.855 30.543C1005.12 30.543 1008.26 33.4668 1008.26 39.3145C1008.26 45.7715 1005.11 49 998.803 49C997.326 49 995.896 48.707 994.514 48.1211V55.6797H991.262V31.2988ZM1011.79 43.4277C1011.79 39.6426 1014.29 37.75 1019.28 37.75C1020.89 37.75 1022.49 37.8672 1024.1 38.1016V36.3613C1024.1 34.2402 1022.44 33.1797 1019.12 33.1797C1017.22 33.1797 1015.28 33.4727 1013.29 34.0586V31.4219C1015.28 30.8359 1017.22 30.543 1019.12 30.543C1024.61 30.543 1027.35 32.4531 1027.35 36.2734V49H1025.52L1024.4 47.1719C1022.56 48.3906 1020.55 49 1018.38 49C1013.99 49 1011.79 47.1426 1011.79 43.4277ZM1019.28 40.3867C1016.46 40.3867 1015.04 41.3828 1015.04 43.375C1015.04 45.3672 1016.16 46.3633 1018.38 46.3633C1020.63 46.3633 1022.54 45.7656 1024.1 44.5703V40.7383C1022.49 40.5039 1020.89 40.3867 1019.28 40.3867ZM1046.26 30.543V33.1797H1039.76V49H1036.51V33.1797H1030V30.543H1046.26ZM1048.04 39.7715C1048.04 33.502 1051.09 30.3672 1057.18 30.3672C1063.27 30.3672 1066.32 33.502 1066.32 39.7715C1066.32 46.041 1063.27 49.1758 1057.18 49.1758C1051.11 49.1758 1048.06 46.041 1048.04 39.7715ZM1051.29 39.7012C1051.29 44.2598 1053.25 46.5391 1057.18 46.5391C1061.11 46.5391 1063.07 44.2598 1063.07 39.7012C1063.07 35.2363 1061.11 33.0039 1057.18 33.0039C1053.25 33.0039 1051.29 35.2363 1051.29 39.7012ZM1073.97 45.2383C1075.24 45.8711 1076.67 46.1875 1078.24 46.1875C1082.42 46.1875 1084.51 43.8848 1084.51 39.2793C1084.51 35.2598 1082.43 33.25 1078.27 33.25C1076.63 33.25 1075.2 33.3906 1073.97 33.6719V45.2383ZM1070.71 31.2988C1073.16 30.7949 1075.7 30.543 1078.31 30.543C1084.58 30.543 1087.71 33.4668 1087.71 39.3145C1087.71 45.7715 1084.56 49 1078.26 49C1076.78 49 1075.35 48.707 1073.97 48.1211V55.6797H1070.71V31.2988Z" fill="#E502A1"/>
<path d="M293.584 27.8633V30.5H279.258V50.3105H286.412C289.201 50.3105 290.596 48.8516 290.596 45.9336C290.596 42.793 288.885 41.2227 285.463 41.2227H282.158V38.5859H285.621C291.105 38.5859 293.848 40.9707 293.848 45.7402C293.848 50.5801 291.469 53 286.711 53H275.988V27.8633H293.584ZM297.117 53V50.3633C306.434 43.9531 311.092 38.8555 311.092 35.0703C311.092 31.9062 309.1 30.3242 305.115 30.3242C302.537 30.3242 300.105 30.9688 297.82 32.2578V29.4453C300.105 28.2734 302.537 27.6875 305.115 27.6875C311.268 27.6875 314.344 30.1484 314.344 35.0703C314.344 39.4062 310.154 44.5039 301.775 50.3633H314.344V53H297.117ZM333.732 53H330.48V47.0234H317.262V44.3867L327.369 27.8633H330.779L320.654 44.3867H330.48V35.457H333.732V44.3867L336.334 45.7227V47.0234H333.732V53ZM360.188 27.8633L351.521 48.2891C350.186 51.4297 347.906 53 344.684 53C343.184 53 341.801 52.5898 340.535 51.7695V49.1328C341.777 49.9531 343.143 50.3633 344.631 50.3633C346.436 50.3633 347.707 49.6543 348.445 48.2363L338.531 27.8633H341.959L350.098 45.1074L356.812 27.8633H360.188ZM363.633 53V27.8633H374.355C379.137 27.8633 381.527 29.8145 381.527 33.7168C381.527 36.5762 379.969 38.6211 376.852 39.8516C380.18 40.4727 381.844 42.377 381.844 45.5645C381.844 50.5215 379.225 53 373.986 53H363.633ZM373.793 50.3633C376.793 50.3633 378.293 48.8398 378.293 45.793C378.293 42.8281 376.283 41.3457 372.264 41.3457H370.857V39.2188C375.662 38.5742 378.064 36.8398 378.064 34.0156C378.064 31.6719 376.729 30.5 374.057 30.5H366.885V50.3633H373.793ZM402.797 53C398.824 46.6719 396.322 43.0625 395.291 42.1719C394.26 41.2695 393.287 40.8184 392.373 40.8184V38.4805C394.248 38.4805 396.141 36.7109 398.051 33.1719C399.973 29.6328 402.035 27.8633 404.238 27.8633H406.119V30.6758H404.73C403.465 30.6758 402.047 32.0645 400.477 34.8418C398.906 37.6074 397.447 39.2188 396.1 39.6758C396.979 39.8281 397.945 40.4902 399 41.6621C400.055 42.8223 402.633 46.6016 406.734 53H402.797ZM390.264 27.8633V53H387.012V27.8633H390.264ZM427.934 53V32.2227L413.432 53H410.18V27.8633H413.256V48.6406L427.758 27.8633H431.01V53H427.934ZM439.377 40.3613C439.377 47.1465 441.855 50.5391 446.812 50.5391C451.641 50.5391 454.055 47.1465 454.055 40.3613C454.055 33.6699 451.641 30.3242 446.812 30.3242C441.855 30.3242 439.377 33.6699 439.377 40.3613ZM435.949 40.4668C435.949 31.9473 439.57 27.6875 446.812 27.6875C453.926 27.6875 457.482 31.9473 457.482 40.4668C457.482 48.9395 453.926 53.1758 446.812 53.1758C439.57 53.1758 435.949 48.9395 435.949 40.4668ZM462.158 27.8633H477.346V30.5H464.936L464.514 38.2695C465.885 38.0117 467.326 37.8828 468.838 37.8828C475.166 37.8828 478.33 40.2852 478.33 45.0898C478.33 50.4805 475.049 53.1758 468.486 53.1758C466.26 53.1758 463.975 52.8242 461.631 52.1211V49.3086C463.975 50.1289 466.318 50.5391 468.662 50.5391C472.939 50.5391 475.078 48.7227 475.078 45.0898C475.078 42.043 472.998 40.5195 468.838 40.5195C466.201 40.5195 463.799 40.7539 461.631 41.2227L462.158 27.8633Z" fill="#E502A1"/>
<path d="M1321.27 35.7384L1337.24 27.4404L1353.21 35.7384L1368.57 44.9893L1369.15 62.4999L1368.57 80.0106L1353.21 89.2615L1337.24 97.5595L1321.27 89.2615L1305.91 80.0106L1305.33 62.4999L1305.91 44.9893L1321.27 35.7384Z" stroke="#0AE227" stroke-width="3"/>
<path d="M1337.62 97V112.75" stroke="#0AE227" stroke-width="3"/>
<path d="M1380.48 89.0947L1392.72 87.3712" stroke="#0AE227" stroke-width="3"/>
<path d="M1380.94 88.5951L1380.7 100.498" stroke="#0AE227" stroke-width="3"/>
<path d="M1293.24 89.0947L1281 87.3712" stroke="#0AE227" stroke-width="3"/>
<path d="M1292.78 88.5951L1293.02 100.498" stroke="#0AE227" stroke-width="3"/>
<path d="M1293.96 36.4209L1281.73 38.1444" stroke="#0AE227" stroke-width="3"/>
<path d="M1293.5 36.9206L1293.75 25.0181" stroke="#0AE227" stroke-width="3"/>
<path d="M1380.48 35.7197L1392.72 37.4433" stroke="#0AE227" stroke-width="3"/>
<path d="M1380.94 36.2194L1380.7 24.3169" stroke="#0AE227" stroke-width="3"/>
<path d="M1336.98 11.707L1346.42 4.00046" stroke="#0AE227" stroke-width="3"/>
<path d="M1337.67 11.7053L1328.26 4.00014" stroke="#0AE227" stroke-width="3"/>
<path d="M1336.98 113.293L1346.42 121" stroke="#0AE227" stroke-width="3"/>
<path d="M1337.67 113.295L1328.26 121" stroke="#0AE227" stroke-width="3"/>
<path d="M1367.41 79.6667L1380.48 89.1232" stroke="#0AE227" stroke-width="3"/>
<path d="M1368.62 44.875L1380.85 36.228" stroke="#0AE227" stroke-width="3"/>
<path d="M1306.65 79.6617L1293.35 89.4733" stroke="#0AE227" stroke-width="3"/>
<path d="M1306.48 45.9688L1292.98 36.5784" stroke="#0AE227" stroke-width="3"/>
<path d="M1337.25 28.207L1337.28 12.057" stroke="#0AE227" stroke-width="3"/>
<path d="M41.2706 33.7384L57.2414 25.4404L73.2121 33.7384L88.5724 42.9893L89.149 60.4999L88.5724 78.0106L73.2122 87.2615L57.2414 95.5595L41.2706 87.2615L25.9103 78.0106L25.3337 60.4999L25.9103 42.9893L41.2706 33.7384Z" stroke="#0AE227" stroke-width="3"/>
<path d="M57.625 95V110.75" stroke="#0AE227" stroke-width="3"/>
<path d="M100.484 87.0947L112.721 85.3712" stroke="#0AE227" stroke-width="3"/>
<path d="M100.944 86.5951L100.701 98.4975" stroke="#0AE227" stroke-width="3"/>
<path d="M13.2363 87.0947L0.999886 85.3712" stroke="#0AE227" stroke-width="3"/>
<path d="M12.777 86.5951L13.0197 98.4975" stroke="#0AE227" stroke-width="3"/>
<path d="M13.9629 34.4209L1.72645 36.1444" stroke="#0AE227" stroke-width="3"/>
<path d="M13.5035 34.9206L13.7462 23.0181" stroke="#0AE227" stroke-width="3"/>
<path d="M100.484 33.7197L112.721 35.4433" stroke="#0AE227" stroke-width="3"/>
<path d="M100.944 34.2194L100.701 22.3169" stroke="#0AE227" stroke-width="3"/>
<path d="M56.9785 9.70703L66.4187 2.00046" stroke="#0AE227" stroke-width="3"/>
<path d="M57.6696 9.70534L48.2635 2.00014" stroke="#0AE227" stroke-width="3"/>
<path d="M56.9785 111.293L66.4187 119" stroke="#0AE227" stroke-width="3"/>
<path d="M57.6696 111.295L48.2635 119" stroke="#0AE227" stroke-width="3"/>
<path d="M87.4149 77.6667L100.484 87.1232" stroke="#0AE227" stroke-width="3"/>
<path d="M88.6172 42.875L100.848 34.228" stroke="#0AE227" stroke-width="3"/>
<path d="M26.6546 77.6617L13.345 87.4733" stroke="#0AE227" stroke-width="3"/>
<path d="M26.4805 43.9688L12.9812 34.5784" stroke="#0AE227" stroke-width="3"/>
<path d="M57.2461 26.207L57.2773 10.057" stroke="#0AE227" stroke-width="3"/>
<path d="M695.271 35.7384L711.241 27.4404L727.212 35.7384L742.572 44.9893L743.149 62.4999L742.572 80.0106L727.212 89.2615L711.241 97.5595L695.271 89.2615L679.91 80.0106L679.334 62.4999L679.91 44.9893L695.271 35.7384Z" stroke="#0AE227" stroke-width="3"/>
<path d="M711.625 97V112.75" stroke="#0AE227" stroke-width="3"/>
<path d="M754.484 89.0947L766.721 87.3712" stroke="#0AE227" stroke-width="3"/>
<path d="M754.944 88.5951L754.701 100.498" stroke="#0AE227" stroke-width="3"/>
<path d="M667.236 89.0947L655 87.3712" stroke="#0AE227" stroke-width="3"/>
<path d="M666.777 88.5951L667.02 100.498" stroke="#0AE227" stroke-width="3"/>
<path d="M667.963 36.4209L655.726 38.1444" stroke="#0AE227" stroke-width="3"/>
<path d="M667.504 36.9206L667.746 25.0181" stroke="#0AE227" stroke-width="3"/>
<path d="M754.484 35.7197L766.721 37.4433" stroke="#0AE227" stroke-width="3"/>
<path d="M754.944 36.2194L754.701 24.3169" stroke="#0AE227" stroke-width="3"/>
<path d="M710.979 11.707L720.419 4.00046" stroke="#0AE227" stroke-width="3"/>
<path d="M711.67 11.7053L702.263 4.00014" stroke="#0AE227" stroke-width="3"/>
<path d="M710.979 113.293L720.419 121" stroke="#0AE227" stroke-width="3"/>
<path d="M711.67 113.295L702.263 121" stroke="#0AE227" stroke-width="3"/>
<path d="M741.415 79.6667L754.484 89.1232" stroke="#0AE227" stroke-width="3"/>
<path d="M742.617 44.875L754.848 36.228" stroke="#0AE227" stroke-width="3"/>
<path d="M680.655 79.6617L667.345 89.4733" stroke="#0AE227" stroke-width="3"/>
<path d="M680.48 45.9688L666.981 36.5784" stroke="#0AE227" stroke-width="3"/>
<path d="M711.246 28.207L711.277 12.057" stroke="#0AE227" stroke-width="3"/>
<path d="M1511.81 97H1508.44L1519.11 71.8633H1522.71L1533.44 97H1529.83L1526.58 89.0898H1518.27L1519.16 86.4531H1525.49L1520.8 75.0625L1511.81 97ZM1539.76 93.2383C1541.04 93.8711 1542.46 94.1875 1544.04 94.1875C1548.22 94.1875 1550.31 91.8848 1550.31 87.2793C1550.31 83.2598 1548.23 81.25 1544.07 81.25C1542.43 81.25 1540.99 81.3906 1539.76 81.6719V93.2383ZM1536.51 79.2988C1538.96 78.7949 1541.49 78.543 1544.11 78.543C1550.38 78.543 1553.51 81.4668 1553.51 87.3145C1553.51 93.7715 1550.36 97 1544.05 97C1542.58 97 1541.15 96.707 1539.76 96.1211V103.68H1536.51V79.2988ZM1571.11 97V82.7266L1561.17 97H1557.92V78.543H1561V92.8164L1570.93 78.543H1574.18V97H1571.11ZM1579.47 97V78.543H1582.72V86.2773H1592.48V78.543H1595.73V97H1592.48V88.9141H1582.72V97H1579.47ZM1600.14 91.4277C1600.14 87.6426 1602.64 85.75 1607.63 85.75C1609.24 85.75 1610.84 85.8672 1612.45 86.1016V84.3613C1612.45 82.2402 1610.79 81.1797 1607.47 81.1797C1605.58 81.1797 1603.63 81.4727 1601.64 82.0586V79.4219C1603.63 78.8359 1605.58 78.543 1607.47 78.543C1612.96 78.543 1615.7 80.4531 1615.7 84.2734V97H1613.87L1612.75 95.1719C1610.91 96.3906 1608.9 97 1606.74 97C1602.34 97 1600.14 95.1426 1600.14 91.4277ZM1607.63 88.3867C1604.81 88.3867 1603.4 89.3828 1603.4 91.375C1603.4 93.3672 1604.51 94.3633 1606.74 94.3633C1608.99 94.3633 1610.89 93.7656 1612.45 92.5703V88.7383C1610.84 88.5039 1609.24 88.3867 1607.63 88.3867ZM1630.13 97V71.8633H1634.26L1643.49 92.834L1652.54 71.8633H1656.5V97H1653.6V76.3809L1644.67 97H1642.1L1633.03 76.3809V97H1630.13ZM1661.25 91.4277C1661.25 87.6426 1663.74 85.75 1668.73 85.75C1670.34 85.75 1671.95 85.8672 1673.55 86.1016V84.3613C1673.55 82.2402 1671.89 81.1797 1668.58 81.1797C1666.68 81.1797 1664.73 81.4727 1662.74 82.0586V79.4219C1664.73 78.8359 1666.68 78.543 1668.58 78.543C1674.06 78.543 1676.8 80.4531 1676.8 84.2734V97H1674.97L1673.85 95.1719C1672.01 96.3906 1670.01 97 1667.84 97C1663.44 97 1661.25 95.1426 1661.25 91.4277ZM1668.73 88.3867C1665.91 88.3867 1664.5 89.3828 1664.5 91.375C1664.5 93.3672 1665.61 94.3633 1667.84 94.3633C1670.09 94.3633 1671.99 93.7656 1673.55 92.5703V88.7383C1671.95 88.5039 1670.34 88.3867 1668.73 88.3867ZM1669.54 71.8633H1673.74L1669.54 76.0645H1666.66L1669.54 71.8633ZM1685.35 93.2383C1686.62 93.8711 1688.05 94.1875 1689.62 94.1875C1693.8 94.1875 1695.89 91.8848 1695.89 87.2793C1695.89 83.2598 1693.81 81.25 1689.65 81.25C1688.01 81.25 1686.58 81.3906 1685.35 81.6719V93.2383ZM1682.09 79.2988C1684.54 78.7949 1687.07 78.543 1689.69 78.543C1695.96 78.543 1699.09 81.4668 1699.09 87.3145C1699.09 93.7715 1695.94 97 1689.63 97C1688.16 97 1686.73 96.707 1685.35 96.1211V103.68H1682.09V79.2988ZM1716.69 97V82.7266L1706.76 97H1703.5V78.543H1706.58V92.8164L1716.51 78.543H1719.76V97H1716.69ZM1725.05 97V78.543H1728.31V86.2773H1738.06V78.543H1741.31V97H1738.06V88.9141H1728.31V97H1725.05ZM1745.73 87.7715C1745.73 81.502 1748.77 78.3672 1754.87 78.3672C1760.96 78.3672 1764.01 81.502 1764.01 87.7715C1764.01 94.041 1760.96 97.1758 1754.87 97.1758C1748.8 97.1758 1745.75 94.041 1745.73 87.7715ZM1748.98 87.7012C1748.98 92.2598 1750.94 94.5391 1754.87 94.5391C1758.79 94.5391 1760.76 92.2598 1760.76 87.7012C1760.76 83.2363 1758.79 81.0039 1754.87 81.0039C1750.94 81.0039 1748.98 83.2363 1748.98 87.7012ZM1778.21 94.3633C1780.04 94.3633 1780.95 93.4258 1780.95 91.5508C1780.95 89.793 1779.53 88.9141 1776.68 88.9141H1775.28V86.7871C1778.91 86.377 1780.72 85.1523 1780.72 83.1133C1780.72 81.8242 1779.97 81.1797 1778.47 81.1797H1771.65V94.3633H1778.21ZM1768.4 97V78.543H1778.77C1782.38 78.543 1784.19 80.084 1784.19 83.166C1784.19 85.0762 1783.04 86.4941 1780.74 87.4199C1783.25 88.041 1784.5 89.4004 1784.5 91.498C1784.5 95.166 1782.47 97 1778.4 97H1768.4ZM1788.02 91.4277C1788.02 87.6426 1790.52 85.75 1795.51 85.75C1797.11 85.75 1798.72 85.8672 1800.32 86.1016V84.3613C1800.32 82.2402 1798.67 81.1797 1795.35 81.1797C1793.45 81.1797 1791.51 81.4727 1789.51 82.0586V79.4219C1791.51 78.8359 1793.45 78.543 1795.35 78.543C1800.83 78.543 1803.58 80.4531 1803.58 84.2734V97H1801.75L1800.62 95.1719C1798.78 96.3906 1796.78 97 1794.61 97C1790.22 97 1788.02 95.1426 1788.02 91.4277ZM1795.51 88.3867C1792.68 88.3867 1791.27 89.3828 1791.27 91.375C1791.27 93.3672 1792.38 94.3633 1794.61 94.3633C1796.86 94.3633 1798.77 93.7656 1800.32 92.5703V88.7383C1798.72 88.5039 1797.11 88.3867 1795.51 88.3867Z" fill="#D1E0E9"/>
<path d="M2187.77 97C2183.8 90.6719 2181.3 87.0625 2180.27 86.1719C2179.24 85.2695 2178.26 84.8184 2177.35 84.8184V82.4805C2179.22 82.4805 2181.12 80.7109 2183.03 77.1719C2184.95 73.6328 2187.01 71.8633 2189.21 71.8633H2191.1V74.6758H2189.71C2188.44 74.6758 2187.02 76.0645 2185.45 78.8418C2183.88 81.6074 2182.42 83.2188 2181.08 83.6758C2181.96 83.8281 2182.92 84.4902 2183.98 85.6621C2185.03 86.8223 2187.61 90.6016 2191.71 97H2187.77ZM2175.24 71.8633V97H2171.99V71.8633H2175.24ZM2193.93 91.4277C2193.93 87.6426 2196.42 85.75 2201.41 85.75C2203.02 85.75 2204.62 85.8672 2206.23 86.1016V84.3613C2206.23 82.2402 2204.57 81.1797 2201.26 81.1797C2199.36 81.1797 2197.41 81.4727 2195.42 82.0586V79.4219C2197.41 78.8359 2199.36 78.543 2201.26 78.543C2206.74 78.543 2209.48 80.4531 2209.48 84.2734V97H2207.65L2206.53 95.1719C2204.69 96.3906 2202.69 97 2200.52 97C2196.12 97 2193.93 95.1426 2193.93 91.4277ZM2201.41 88.3867C2198.59 88.3867 2197.18 89.3828 2197.18 91.375C2197.18 93.3672 2198.29 94.3633 2200.52 94.3633C2202.77 94.3633 2204.67 93.7656 2206.23 92.5703V88.7383C2204.62 88.5039 2203.02 88.3867 2201.41 88.3867ZM2214.77 97V78.543H2218.9L2225.14 93.1855L2231.21 78.543H2235.16V97H2232.26V82.8848L2226.32 97H2223.76L2217.67 82.8848V97H2214.77ZM2253.62 97V82.7266L2243.69 97H2240.44V78.543H2243.51V92.8164L2253.45 78.543H2256.7V97H2253.62ZM2259.35 94.3633C2262.13 94.3633 2263.52 92.7812 2263.52 89.6172V78.543H2277.58V97H2274.33V81.1797H2266.77V89.6172C2266.77 94.5391 2264.3 97 2259.35 97V94.3633ZM2281.99 91.4277C2281.99 87.6426 2284.49 85.75 2289.48 85.75C2291.09 85.75 2292.69 85.8672 2294.3 86.1016V84.3613C2294.3 82.2402 2292.64 81.1797 2289.32 81.1797C2287.42 81.1797 2285.48 81.4727 2283.49 82.0586V79.4219C2285.48 78.8359 2287.42 78.543 2289.32 78.543C2294.81 78.543 2297.55 80.4531 2297.55 84.2734V97H2295.72L2294.6 95.1719C2292.76 96.3906 2290.75 97 2288.58 97C2284.19 97 2281.99 95.1426 2281.99 91.4277ZM2289.48 88.3867C2286.66 88.3867 2285.24 89.3828 2285.24 91.375C2285.24 93.3672 2286.36 94.3633 2288.58 94.3633C2290.83 94.3633 2292.74 93.7656 2294.3 92.5703V88.7383C2292.69 88.5039 2291.09 88.3867 2289.48 88.3867ZM2311.98 97V71.8633H2322.18C2327.31 71.8633 2329.88 74.1074 2329.88 78.5957C2329.88 83.4824 2326.37 86.4648 2319.35 87.543L2318.68 84.8008C2323.83 84.0391 2326.41 82.0176 2326.41 78.7363C2326.41 75.9473 2324.9 74.5527 2321.88 74.5527H2315.23V97H2311.98ZM2347.03 97V82.7266L2337.1 97H2333.85V78.543H2336.92V92.8164L2346.86 78.543H2350.11V97H2347.03ZM2356.98 97H2353.2L2360.55 87.7715L2353.2 78.543H2356.98L2362.43 85.3984L2367.88 78.543H2371.66L2364.31 87.7715L2371.66 97H2367.88L2362.43 90.1445L2356.98 97ZM2388.36 78.543V81.1797H2381.85V97H2378.6V81.1797H2372.1V78.543H2388.36ZM2398.62 78.543C2403.87 78.543 2406.5 81.1387 2406.5 86.3301C2406.5 87.0684 2406.45 87.8594 2406.34 88.7031H2393.38C2393.38 92.4766 2395.59 94.3633 2399.99 94.3633C2402.09 94.3633 2403.96 94.1289 2405.58 93.6602V96.2969C2403.96 96.7656 2401.97 97 2399.64 97C2393.3 97 2390.13 93.8535 2390.13 87.5605C2390.13 81.5488 2392.96 78.543 2398.62 78.543ZM2393.38 85.9961H2403.37C2403.3 82.7617 2401.72 81.1445 2398.62 81.1445C2395.34 81.1445 2393.6 82.7617 2393.38 85.9961ZM2414.13 93.2383C2415.4 93.8711 2416.83 94.1875 2418.4 94.1875C2422.58 94.1875 2424.67 91.8848 2424.67 87.2793C2424.67 83.2598 2422.59 81.25 2418.43 81.25C2416.79 81.25 2415.36 81.3906 2414.13 81.6719V93.2383ZM2410.88 79.2988C2413.32 78.7949 2415.86 78.543 2418.47 78.543C2424.74 78.543 2427.87 81.4668 2427.87 87.3145C2427.87 93.7715 2424.72 97 2418.42 97C2416.94 97 2415.51 96.707 2414.13 96.1211V103.68H2410.88V79.2988Z" fill="#D1E0E9"/>
<path d="M2246.77 51C2242.8 44.6719 2240.3 41.0625 2239.27 40.1719C2238.24 39.2695 2237.26 38.8184 2236.35 38.8184V36.4805C2238.22 36.4805 2240.12 34.7109 2242.03 31.1719C2243.95 27.6328 2246.01 25.8633 2248.21 25.8633H2250.1V28.6758H2248.71C2247.44 28.6758 2246.02 30.0645 2244.45 32.8418C2242.88 35.6074 2241.42 37.2188 2240.08 37.6758C2240.96 37.8281 2241.92 38.4902 2242.98 39.6621C2244.03 40.8223 2246.61 44.6016 2250.71 51H2246.77ZM2234.24 25.8633V51H2230.99V25.8633H2234.24ZM2251.61 32.543H2255.14L2260.36 46.957L2265.76 32.543H2269.2L2261.54 51.5449C2260.18 54.8965 2258.14 56.9883 2255.42 57.8203L2254.17 55.5176C2256.24 54.6152 2257.74 53.1445 2258.67 51.1055L2251.61 32.543ZM2275.51 47.2383C2276.79 47.8711 2278.21 48.1875 2279.79 48.1875C2283.97 48.1875 2286.06 45.8848 2286.06 41.2793C2286.06 37.2598 2283.98 35.25 2279.82 35.25C2278.18 35.25 2276.74 35.3906 2275.51 35.6719V47.2383ZM2272.26 33.2988C2274.71 32.7949 2277.24 32.543 2279.86 32.543C2286.12 32.543 2289.26 35.4668 2289.26 41.3145C2289.26 47.7715 2286.11 51 2279.8 51C2278.33 51 2276.9 50.707 2275.51 50.1211V57.6797H2272.26V33.2988ZM2292.79 45.4277C2292.79 41.6426 2295.29 39.75 2300.28 39.75C2301.89 39.75 2303.49 39.8672 2305.1 40.1016V38.3613C2305.1 36.2402 2303.44 35.1797 2300.12 35.1797C2298.22 35.1797 2296.28 35.4727 2294.29 36.0586V33.4219C2296.28 32.8359 2298.22 32.543 2300.12 32.543C2305.61 32.543 2308.35 34.4531 2308.35 38.2734V51H2306.52L2305.4 49.1719C2303.56 50.3906 2301.55 51 2299.38 51C2294.99 51 2292.79 49.1426 2292.79 45.4277ZM2300.28 42.3867C2297.46 42.3867 2296.04 43.3828 2296.04 45.375C2296.04 47.3672 2297.16 48.3633 2299.38 48.3633C2301.63 48.3633 2303.54 47.7656 2305.1 46.5703V42.7383C2303.49 42.5039 2301.89 42.3867 2300.28 42.3867ZM2327.26 32.543V35.1797H2320.76V51H2317.51V35.1797H2311V32.543H2327.26ZM2329.04 41.7715C2329.04 35.502 2332.09 32.3672 2338.18 32.3672C2344.27 32.3672 2347.32 35.502 2347.32 41.7715C2347.32 48.041 2344.27 51.1758 2338.18 51.1758C2332.11 51.1758 2329.06 48.041 2329.04 41.7715ZM2332.29 41.7012C2332.29 46.2598 2334.25 48.5391 2338.18 48.5391C2342.11 48.5391 2344.07 46.2598 2344.07 41.7012C2344.07 37.2363 2342.11 35.0039 2338.18 35.0039C2334.25 35.0039 2332.29 37.2363 2332.29 41.7012ZM2354.97 47.2383C2356.24 47.8711 2357.67 48.1875 2359.24 48.1875C2363.42 48.1875 2365.51 45.8848 2365.51 41.2793C2365.51 37.2598 2363.43 35.25 2359.27 35.25C2357.63 35.25 2356.2 35.3906 2354.97 35.6719V47.2383ZM2351.71 33.2988C2354.16 32.7949 2356.7 32.543 2359.31 32.543C2365.58 32.543 2368.71 35.4668 2368.71 41.3145C2368.71 47.7715 2365.56 51 2359.26 51C2357.78 51 2356.35 50.707 2354.97 50.1211V57.6797H2351.71V33.2988Z" fill="#E502A1"/>
<path d="M1574.58 29.8633V32.5H1560.26V52.3105H1567.41C1570.2 52.3105 1571.6 50.8516 1571.6 47.9336C1571.6 44.793 1569.88 43.2227 1566.46 43.2227H1563.16V40.5859H1566.62C1572.11 40.5859 1574.85 42.9707 1574.85 47.7402C1574.85 52.5801 1572.47 55 1567.71 55H1556.99V29.8633H1574.58ZM1578.12 55V52.3633C1587.43 45.9531 1592.09 40.8555 1592.09 37.0703C1592.09 33.9062 1590.1 32.3242 1586.12 32.3242C1583.54 32.3242 1581.11 32.9688 1578.82 34.2578V31.4453C1581.11 30.2734 1583.54 29.6875 1586.12 29.6875C1592.27 29.6875 1595.34 32.1484 1595.34 37.0703C1595.34 41.4062 1591.15 46.5039 1582.78 52.3633H1595.34V55H1578.12ZM1614.73 55H1611.48V49.0234H1598.26V46.3867L1608.37 29.8633H1611.78L1601.65 46.3867H1611.48V37.457H1614.73V46.3867L1617.33 47.7227V49.0234H1614.73V55ZM1641.19 29.8633L1632.52 50.2891C1631.19 53.4297 1628.91 55 1625.68 55C1624.18 55 1622.8 54.5898 1621.54 53.7695V51.1328C1622.78 51.9531 1624.14 52.3633 1625.63 52.3633C1627.44 52.3633 1628.71 51.6543 1629.45 50.2363L1619.53 29.8633H1622.96L1631.1 47.1074L1637.81 29.8633H1641.19ZM1644.63 55V29.8633H1655.36C1660.14 29.8633 1662.53 31.8145 1662.53 35.7168C1662.53 38.5762 1660.97 40.6211 1657.85 41.8516C1661.18 42.4727 1662.84 44.377 1662.84 47.5645C1662.84 52.5215 1660.22 55 1654.99 55H1644.63ZM1654.79 52.3633C1657.79 52.3633 1659.29 50.8398 1659.29 47.793C1659.29 44.8281 1657.28 43.3457 1653.26 43.3457H1651.86V41.2188C1656.66 40.5742 1659.06 38.8398 1659.06 36.0156C1659.06 33.6719 1657.73 32.5 1655.06 32.5H1647.88V52.3633H1654.79ZM1683.8 55C1679.82 48.6719 1677.32 45.0625 1676.29 44.1719C1675.26 43.2695 1674.29 42.8184 1673.37 42.8184V40.4805C1675.25 40.4805 1677.14 38.7109 1679.05 35.1719C1680.97 31.6328 1683.04 29.8633 1685.24 29.8633H1687.12V32.6758H1685.73C1684.46 32.6758 1683.05 34.0645 1681.48 36.8418C1679.91 39.6074 1678.45 41.2188 1677.1 41.6758C1677.98 41.8281 1678.95 42.4902 1680 43.6621C1681.05 44.8223 1683.63 48.6016 1687.73 55H1683.8ZM1671.26 29.8633V55H1668.01V29.8633H1671.26ZM1708.93 55V34.2227L1694.43 55H1691.18V29.8633H1694.26V50.6406L1708.76 29.8633H1712.01V55H1708.93ZM1720.38 42.3613C1720.38 49.1465 1722.86 52.5391 1727.81 52.5391C1732.64 52.5391 1735.05 49.1465 1735.05 42.3613C1735.05 35.6699 1732.64 32.3242 1727.81 32.3242C1722.86 32.3242 1720.38 35.6699 1720.38 42.3613ZM1716.95 42.4668C1716.95 33.9473 1720.57 29.6875 1727.81 29.6875C1734.93 29.6875 1738.48 33.9473 1738.48 42.4668C1738.48 50.9395 1734.93 55.1758 1727.81 55.1758C1720.57 55.1758 1716.95 50.9395 1716.95 42.4668ZM1743.16 29.8633H1758.35V32.5H1745.94L1745.51 40.2695C1746.88 40.0117 1748.33 39.8828 1749.84 39.8828C1756.17 39.8828 1759.33 42.2852 1759.33 47.0898C1759.33 52.4805 1756.05 55.1758 1749.49 55.1758C1747.26 55.1758 1744.97 54.8242 1742.63 54.1211V51.3086C1744.97 52.1289 1747.32 52.5391 1749.66 52.5391C1753.94 52.5391 1756.08 50.7227 1756.08 47.0898C1756.08 44.043 1754 42.5195 1749.84 42.5195C1747.2 42.5195 1744.8 42.7539 1742.63 43.2227L1743.16 29.8633Z" fill="#E502A1"/>
<path d="M2602.27 37.7384L2618.24 29.4404L2634.21 37.7384L2649.57 46.9893L2650.15 64.4999L2649.57 82.0106L2634.21 91.2615L2618.24 99.5595L2602.27 91.2615L2586.91 82.0106L2586.33 64.4999L2586.91 46.9893L2602.27 37.7384Z" stroke="#0AE227" stroke-width="3"/>
<path d="M2618.62 99V114.75" stroke="#0AE227" stroke-width="3"/>
<path d="M2661.48 91.0947L2673.72 89.3712" stroke="#0AE227" stroke-width="3"/>
<path d="M2661.94 90.5951L2661.7 102.498" stroke="#0AE227" stroke-width="3"/>
<path d="M2574.24 91.0947L2562 89.3712" stroke="#0AE227" stroke-width="3"/>
<path d="M2573.78 90.5951L2574.02 102.498" stroke="#0AE227" stroke-width="3"/>
<path d="M2574.96 38.4209L2562.73 40.1444" stroke="#0AE227" stroke-width="3"/>
<path d="M2574.5 38.9206L2574.75 27.0181" stroke="#0AE227" stroke-width="3"/>
<path d="M2661.48 37.7197L2673.72 39.4433" stroke="#0AE227" stroke-width="3"/>
<path d="M2661.94 38.2194L2661.7 26.3169" stroke="#0AE227" stroke-width="3"/>
<path d="M2617.98 13.707L2627.42 6.00046" stroke="#0AE227" stroke-width="3"/>
<path d="M2618.67 13.7053L2609.26 6.00014" stroke="#0AE227" stroke-width="3"/>
<path d="M2617.98 115.293L2627.42 123" stroke="#0AE227" stroke-width="3"/>
<path d="M2618.67 115.295L2609.26 123" stroke="#0AE227" stroke-width="3"/>
<path d="M2648.41 81.6667L2661.48 91.1232" stroke="#0AE227" stroke-width="3"/>
<path d="M2649.62 46.875L2661.85 38.228" stroke="#0AE227" stroke-width="3"/>
<path d="M2587.65 81.6617L2574.35 91.4733" stroke="#0AE227" stroke-width="3"/>
<path d="M2587.48 47.9688L2573.98 38.5784" stroke="#0AE227" stroke-width="3"/>
<path d="M2618.25 30.207L2618.28 14.057" stroke="#0AE227" stroke-width="3"/>
<path d="M1322.27 35.7384L1338.24 27.4404L1354.21 35.7384L1369.57 44.9893L1370.15 62.4999L1369.57 80.0106L1354.21 89.2615L1338.24 97.5595L1322.27 89.2615L1306.91 80.0106L1306.33 62.4999L1306.91 44.9893L1322.27 35.7384Z" stroke="#0AE227" stroke-width="3"/>
<path d="M1338.62 97V112.75" stroke="#0AE227" stroke-width="3"/>
<path d="M1381.48 89.0947L1393.72 87.3712" stroke="#0AE227" stroke-width="3"/>
<path d="M1381.94 88.5951L1381.7 100.498" stroke="#0AE227" stroke-width="3"/>
<path d="M1294.24 89.0947L1282 87.3712" stroke="#0AE227" stroke-width="3"/>
<path d="M1293.78 88.5951L1294.02 100.498" stroke="#0AE227" stroke-width="3"/>
<path d="M1294.96 36.4209L1282.73 38.1444" stroke="#0AE227" stroke-width="3"/>
<path d="M1294.5 36.9206L1294.75 25.0181" stroke="#0AE227" stroke-width="3"/>
<path d="M1381.48 35.7197L1393.72 37.4433" stroke="#0AE227" stroke-width="3"/>
<path d="M1381.94 36.2194L1381.7 24.3169" stroke="#0AE227" stroke-width="3"/>
<path d="M1337.98 11.707L1347.42 4.00046" stroke="#0AE227" stroke-width="3"/>
<path d="M1338.67 11.7053L1329.26 4.00014" stroke="#0AE227" stroke-width="3"/>
<path d="M1337.98 113.293L1347.42 121" stroke="#0AE227" stroke-width="3"/>
<path d="M1338.67 113.295L1329.26 121" stroke="#0AE227" stroke-width="3"/>
<path d="M1368.41 79.6667L1381.48 89.1232" stroke="#0AE227" stroke-width="3"/>
<path d="M1369.62 44.875L1381.85 36.228" stroke="#0AE227" stroke-width="3"/>
<path d="M1307.65 79.6617L1294.35 89.4733" stroke="#0AE227" stroke-width="3"/>
<path d="M1307.48 45.9688L1293.98 36.5784" stroke="#0AE227" stroke-width="3"/>
<path d="M1338.25 28.207L1338.28 12.057" stroke="#0AE227" stroke-width="3"/>
<path d="M1976.27 37.7384L1992.24 29.4404L2008.21 37.7384L2023.57 46.9893L2024.15 64.4999L2023.57 82.0106L2008.21 91.2615L1992.24 99.5595L1976.27 91.2615L1960.91 82.0106L1960.33 64.4999L1960.91 46.9893L1976.27 37.7384Z" stroke="#0AE227" stroke-width="3"/>
<path d="M1992.62 99V114.75" stroke="#0AE227" stroke-width="3"/>
<path d="M2035.48 91.0947L2047.72 89.3712" stroke="#0AE227" stroke-width="3"/>
<path d="M2035.94 90.5951L2035.7 102.498" stroke="#0AE227" stroke-width="3"/>
<path d="M1948.24 91.0947L1936 89.3712" stroke="#0AE227" stroke-width="3"/>
<path d="M1947.78 90.5951L1948.02 102.498" stroke="#0AE227" stroke-width="3"/>
<path d="M1948.96 38.4209L1936.73 40.1444" stroke="#0AE227" stroke-width="3"/>
<path d="M1948.5 38.9206L1948.75 27.0181" stroke="#0AE227" stroke-width="3"/>
<path d="M2035.48 37.7197L2047.72 39.4433" stroke="#0AE227" stroke-width="3"/>
<path d="M2035.94 38.2194L2035.7 26.3169" stroke="#0AE227" stroke-width="3"/>
<path d="M1991.98 13.707L2001.42 6.00046" stroke="#0AE227" stroke-width="3"/>
<path d="M1992.67 13.7053L1983.26 6.00014" stroke="#0AE227" stroke-width="3"/>
<path d="M1991.98 115.293L2001.42 123" stroke="#0AE227" stroke-width="3"/>
<path d="M1992.67 115.295L1983.26 123" stroke="#0AE227" stroke-width="3"/>
<path d="M2022.41 81.6667L2035.48 91.1232" stroke="#0AE227" stroke-width="3"/>
<path d="M2023.62 46.875L2035.85 38.228" stroke="#0AE227" stroke-width="3"/>
<path d="M1961.65 81.6617L1948.35 91.4733" stroke="#0AE227" stroke-width="3"/>
<path d="M1961.48 47.9688L1947.98 38.5784" stroke="#0AE227" stroke-width="3"/>
<path d="M1992.25 30.207L1992.28 14.057" stroke="#0AE227" stroke-width="3"/>
</svg>
