<svg width="469" height="492" viewBox="0 0 469 492" fill="none" xmlns="http://www.w3.org/2000/svg">
<path d="M230.602 67L213.062 192.648M230.602 67L138.029 95.919M230.602 67L341.69 103.897M230.602 67L257.887 192.648M213.062 192.648L154.595 168.715M213.062 192.648L201.369 213.589M213.062 192.648L236.449 210.598M213.062 192.648H257.887M154.595 168.715L138.029 95.919M154.595 168.715L121.464 184.67M154.595 168.715L170.186 192.648M138.029 95.919L101 159.74L121.464 184.67M138.029 95.919L121.464 184.67M341.69 103.897L368 163.729L354.358 192.648M341.69 103.897L321.226 166.721M341.69 103.897L354.358 192.648M354.358 192.648V229.545M354.358 192.648L321.226 166.721M354.358 192.648L338.766 213.589M354.358 229.545L368 218.575M354.358 229.545L361.179 272.425L325.124 307.327M354.358 229.545L338.766 213.589M354.358 229.545L308.558 238.52M325.124 307.327V372.145L281.274 341.232M325.124 307.327L273.478 284.391M325.124 307.327L308.558 238.52M281.274 341.232L266.657 353.198M281.274 341.232L273.478 284.391M281.274 341.232L253.989 323.282M266.657 353.198L281.274 411.036L235.474 393.087M266.657 353.198L233.526 362.173M235.474 393.087V424M235.474 393.087L180.905 404.056L204.292 353.198M235.474 393.087L233.526 362.173M204.292 353.198L185.777 341.232M204.292 353.198L233.526 362.173M185.777 341.232L143.876 363.17V303.338M185.777 341.232L201.369 282.397M185.777 341.232L219.883 323.282M143.876 303.338L103.923 277.411L121.464 229.545M143.876 303.338L166.288 240.514M143.876 303.338L201.369 282.397M121.464 229.545L101 221.567M121.464 229.545V184.67M121.464 229.545L137.055 210.598M121.464 229.545L166.288 240.514M121.464 184.67L137.055 210.598M170.186 192.648L137.055 210.598M170.186 192.648L201.369 213.589M137.055 210.598L166.288 226.553M166.288 226.553V240.514M166.288 226.553L201.369 213.589M166.288 240.514L206.241 229.545M201.369 213.589L206.241 229.545M206.241 229.545L236.449 210.598M206.241 229.545L201.369 282.397M201.369 282.397L236.449 301.344M201.369 282.397L236.449 210.598M201.369 282.397L236.449 268.436M201.369 282.397L219.883 323.282M219.883 323.282L236.449 301.344M219.883 323.282L236.449 327.271M236.449 301.344V327.271M236.449 301.344L253.989 323.282M236.449 301.344L273.478 284.391M236.449 301.344V268.436M236.449 327.271L253.989 323.282M253.989 323.282L273.478 284.391M273.478 284.391L236.449 268.436M273.478 284.391L236.449 210.598M273.478 284.391L266.657 229.545M236.449 210.598V268.436M236.449 210.598L257.887 192.648M236.449 210.598L266.657 229.545M257.887 192.648L271.529 210.598M257.887 192.648L321.226 166.721M266.657 229.545L308.558 238.52M266.657 229.545L271.529 210.598M308.558 238.52L306.609 222.564M271.529 210.598L306.609 222.564M271.529 210.598L308.558 189.656M321.226 166.721L308.558 189.656M338.766 213.589L308.558 189.656M338.766 213.589L306.609 222.564" stroke="#D1E0E9" stroke-width="2"/>
</svg>
